<svg xmlns="http://www.w3.org/2000/svg" height="218.7" width="237.3"><path d="M0 0v218.7h237.3V0H0" fill="#fff"/><path d="M129.3 14.7c1 4.4 3.8 4.5 8 5.3l-5.3 4v2.7c3.4 2 5.6 3.6 8 6.6h-6.7c2.2 2.8 8 4.7 9.4-.3.7-2.3-1.1-4.6-2-6.7-3-7.2-3.4-9.3-11.4-11.6m46.7 0c-4 8.3-1 13.3 8 14.6v12c-30.7 0-61.5 3.2-92 5.4-16.8 1-35.7-.8-52 4 6.3 2.6 13.3.8 20 .2 8.3-.8 17-1.3 25.3-1.5 28-.7 56-2.3 84-4 18.2-1.4 39.5-4.3 57.4 0-4.5 14-5.4 29.4-7 44-2.4 23.5-3.7 46.9-3.7 70.6 0 9.7-3.6 31 5.3 37.3-2.6-32.6-2.9-64.6.3-97.3 1.8-19.5 6.9-39.2 7.7-58.7h-42.6c0-9.3 5-10.3 9.3-17.3l-8 1.3v-8h-2.7l-1.3 9.4c-6.7-2.7-6.9-5.4-5.3-12H176" fill="#00f"/><path d="M173.3 16l1.4 1.3-1.4-1.3" fill="#656565"/><path d="M188 16l1.3 1.3L188 16" fill="#434343"/><path d="M88 25.3c3.7-.4 7-.6 10.7 0-2.3 2.8-6 6.4-5.4 10.4 1.4 6.4 9.4 3.8 12 .3-3.2.3-6 .4-9.3 0 1.6-2.9 4.9-7 4-10.5-1.3-6.4-9.5-3.7-12-.2" fill="#00f"/><path d="M196 22.7l1.3 1.3-1.3-1.3" fill="#434343"/><path d="M50.7 41.3c5.3-3.1 9-8.8 13.3-13.3-.7 5.4-1.3 10.7-1.3 16 3.8-5 3.7-12.6 5.3-18.7-8.9-1.2-15.4 8.1-17.3 16" fill="#00f"/><path d="M130.7 24l1.3 1.3-1.3-1.3" fill="#434343"/><path d="M130.7 26.7L132 28l-1.3-1.3m62.6 1.3l1.4 1.3-1.4-1.3" fill="#888"/><path d="M138.7 30.7L140 32l-1.3-1.3" fill="#656565"/><path d="M144 32l1.3 1.3L144 32" fill="#888"/><path d="M105.3 36l1.4 1.3-1.4-1.3" fill="#ccc"/><path d="M182.7 36l1.3 1.3-1.3-1.3" fill="#434343"/><path d="M97.3 40l1.4 1.3-1.4-1.3" fill="#212121"/><path d="M99.6 40.4c-.6.6.8.6.8.5.6-.6-.8-.5-.8-.5" fill="#656565"/><path d="M218.7 40l1.3 1.3-1.3-1.3" fill="#212121"/><path d="M150.7 41.3l1.3 1.4-1.3-1.4" fill="#434343"/><path d="M152.9 41.8c-.6.6.8.5.9.4.6-.6-.8-.5-1-.4m-27.5.9l1.4 1.3-1.4-1.3" fill="#aaa"/><path d="M104 44l1.3 1.3L104 44" fill="#212121"/><path d="M170.7 45.3l1.3 1.4-1.3-1.4" fill="#aaa"/><path d="M172 45.3l1.3 1.4-1.3-1.4" fill="#656565"/><path d="M62.7 46.7L64 48l-1.3-1.3M224 48l1.3 1.3L224 48" fill="#aaa"/><path d="M100 49.3l1.3 1.4-1.3-1.4" fill="#434343"/><path d="M73.3 50.7l1.4 1.3-1.4-1.3" fill="#aaa"/><path d="M74.7 50.7L76 52l-1.3-1.3M136 52l1.3 1.3L136 52" fill="#656565"/><path d="M128 65.3c4.5-3.1 8.3-7 13.3-9.3v13.3h2.7c0-4 1.3-11.9-1.4-15.1-5.3-6-13.5 7.2-14.6 11.1" fill="#00f"/><path d="M144 53.3l1.3 1.4-1.3-1.4" fill="#434343"/><path d="M130.7 56l1.3 1.3-1.3-1.3" fill="#656565"/><path d="M90.7 66.7c3.5-1.4 6.2-3 9.3-5.4 0 4.7 0 8.9 1.3 13.4 4-5.4 2.2-11.5 0-17.4a17 17 0 0 0-10.6 9.4m-56-8c0 19.6-1.8 39-2.7 58.6-.7 17.8-.2 35.6-1.5 53.4-.7 11.5-2.5 23-2.5 34.6 49.3 0 98.7-4.4 148-6.6 14.3-.6 28.4 1.3 42.7 1.3-5.5-4-13.4-4-20-4-13.8 0-27.7-.7-41.4 1-25.4 3-51.7 1.4-77.3 3.1-15.4 1.2-34.2 4.8-49.3 1.2 3.6-12.3 1.9-27.1 2.6-40 2.5-34 4-68.4 4-102.6h-2.6" fill="#00f"/><path d="M94.7 58.7L96 60l-1.3-1.3" fill="#434343"/><path d="M18.7 60l1.3 1.3-1.3-1.3" fill="#888"/><path d="M12 72l8-5.3v10.6h2.7c0-5 .4-9.7 1.3-14.6-6.7-1-10.3 3-12 9.3" fill="#00f"/><path d="M104 65.3l1.3 1.4-1.3-1.4M12 72l1.3 1.3L12 72" fill="#aaa"/><path d="M104 72l1.3 1.3L104 72" fill="#434343"/><path d="M22.7 74.7L24 76l-1.3-1.3" fill="#aaa"/><path d="M145.3 78.7c-5.3 5.3-12.2 10.8-12 18.6 4.3-3.8 7.4-8.5 12-12-1.4 5-1.3 9.6-1.3 14.7 4-5.3 5.3-15.8 1.3-21.3" fill="#00f"/><path d="M148 78.7l1.3 1.3-1.3-1.3m70.7 2.6l1.3 1.4-1.3-1.4" fill="#212121"/><path d="M37.3 86.7l1.4 1.3-1.4-1.3" fill="#aaa"/><path d="M37.3 88l1.4 1.3-1.4-1.3" fill="#434343"/><path d="M134.7 88l1.3 1.3-1.3-1.3" fill="#ccc"/><path d="M138.7 90.7L140 92l-1.3-1.3" fill="#434343"/><path d="M222.7 90.7L224 92l-1.3-1.3" fill="#aaa"/><path d="M46.7 102.7L48 104c4-2.7 7.5-6 12-8 0 5-.1 9.8 1.3 14.7 2.2-3.3 3.7-17.9-2.8-17.7-5.2.3-9.2 6-11.8 9.7" fill="#00f"/><path d="M222.7 92l1.3 1.3-1.3-1.3" fill="#434343"/><path d="M10.7 93.3l1.3 1.4-1.3-1.4" fill="#212121"/><path d="M8 100l6.7-1.3c-2.2 6.7-4.4 13.4 4 16-1.4-2.6-2.9-5-2.8-8 0-2.7 1.8-6 .6-8.8-2.3-5.3-7.3-1.2-8.5 2.1" fill="#00f"/><path d="M57.3 96l1.4 1.3-1.4-1.3" fill="#aaa"/><path d="M62.7 97.3l1.3 1.4-1.3-1.4" fill="#888"/><path d="M17.3 100l1.4 1.3-1.4-1.3" fill="#ccc"/><path d="M45.3 101.3l1.4 1.4-1.4-1.4" fill="#aaa"/><path d="M48 104l1.3 1.3L48 104m173.3 6.7l1.4 1.3-1.4-1.3" fill="#434343"/><path d="M36 114.7l1.3 1.3-1.3-1.3" fill="#aaa"/><path d="M30.7 120l1.3 1.3-1.3-1.3" fill="#434343"/><path d="M186.7 138.7l12-10.7-1.4 12c7-4.5 4.7-20-5.3-11.8-1 1.1-2.1 2.5-3 3.8-1.4 2.2-1.8 4.2-2.3 6.7" fill="#00f"/><path d="M98.7 125.3l1.3 1.4-1.3-1.4" fill="#434343"/><path d="M86.7 140c5.2-2.7 9.1-7 14.6-9.3-.7 6.1-2.6 12 1.4 17.3.6-4.6 3.2-15.4 0-19.1-5.4-6-14.8 7.1-16 11.1" fill="#00f"/><path d="M57.3 129.3l1.4 1.4-1.4-1.4" fill="#aaa"/><path d="M44 141.3c4.3-2.2 8-5.2 12-8 .4 5.4 0 10.7 0 16h2.7a57 57 0 0 0 0-18.6c-7.2.7-12.6 3.4-14.7 10.6" fill="#00f"/><path d="M220 130.7l1.3 1.3-1.3-1.3M6.7 132l1.3 1.3-1.3-1.3m41.3 0l1.3 1.3L48 132" fill="#888"/><path d="M8 133.3v2.7l6.7 1.3v2.7c-6.7 4.3-2.8 8.9 0 14.7L8 156v2.7c10.4-.8 7-5.7 7.7-13.4.7-8 2.6-11.4-7.7-12" fill="#00f"/><path d="M53.3 134.7l1.4 1.3-1.4-1.3m6.7 0l1.3 1.3-1.3-1.3" fill="#434343"/><path d="M93.3 134.7l1.4 1.3-1.4-1.3" fill="#ccc"/><path d="M190.7 134.7l1.3 1.3-1.3-1.3" fill="#434343"/><path d="M60.4 136.9s-.1 1.5.5.9c0-.1.1-1.5-.5-1" fill="#ccc"/><path d="M214.7 136l1.3 1.3-1.3-1.3" fill="#212121"/><path d="M104 137.3l1.3 1.4-1.3-1.4" fill="#434343"/><path d="M214.7 137.3l1.3 1.4-1.3-1.4" fill="#aaa"/><path d="M46.7 140l1.3 1.3-1.3-1.3" fill="#656565"/><path d="M60.4 140.9s-.1 1.5.5.9c0-.1.1-1.5-.5-1m38.3-.8l1.3 1.3-1.3-1.3" fill="#aaa"/><path d="M34.7 142.7L36 144l-1.3-1.3" fill="#656565"/><path d="M60 142.7l1.3 1.3-1.3-1.3" fill="#212121"/><path d="M104 145.3l1.3 1.4-1.3-1.4" fill="#656565"/><path d="M16 148l1.3 1.3L16 148" fill="#434343"/><path d="M101.3 148l1.4 1.3-1.4-1.3m-72 1.3l1.4 1.4-1.4-1.4M12 150.7l1.3 1.3-1.3-1.3" fill="#656565"/><path d="M29.3 150.7l1.4 1.3-1.4-1.3" fill="#ccc"/><path d="M8 158.7l1.3 1.3-1.3-1.3" fill="#656565"/><path d="M4 166.7l1.3 1.3-1.3-1.3" fill="#434343"/><path d="M5.3 166.7c-2.6 9.9-2 14.6 9.4 14.6-1 4-1.1 6.7 0 10.7 3.5-4.6 2.6-10.3 2.6-16a18.6 18.6 0 0 1-12 1.3c1.4-3.6 2.3-6.6 2.7-10.6H5.3m144 16c5.8-1.9 10-6.7 14.7-10.7 0 7.2-.8 14.2-1.3 21.3 6-4.6 5.1-17 4-24-8.2 1.1-13.6 6.2-17.4 13.4" fill="#00f"/><path d="M166.7 169.3l1.3 1.4-1.3-1.4" fill="#aaa"/><path d="M157.3 170.7l1.4 1.3-1.4-1.3" fill="#888"/><path d="M162.7 172l1.3 1.3-1.3-1.3" fill="#fff"/><path d="M1.3 173.3l1.4 1.4-1.4-1.4" fill="#ccc"/><path d="M6.7 173.3l1.3 1.4-1.3-1.4" fill="#aaa"/><path d="M162.7 173.3l1.3 1.4-1.3-1.4" fill="#212121"/><path d="M1.3 178.7l1.4 1.3-1.4-1.3" fill="#aaa"/><path d="M2.7 178.7L4 180l-1.3-1.3" fill="#fff"/><path d="M162.7 178.7l1.3 1.3-1.3-1.3M2.7 180l1.3 1.3-1.3-1.3" fill="#434343"/><path d="M162.7 180l1.3 1.3-1.3-1.3" fill="#aaa"/><path d="M17.3 181.3l1.4 1.4-1.4-1.4" fill="#212121"/><path d="M214.7 182.7l1.3 1.3-1.3-1.3" fill="#ccc"/><path d="M12 184l1.3 1.3L12 184" fill="#212121"/><path d="M12 185.3v4c1-2 1-1.9 0-4" fill="#888"/><path d="M166.7 185.3l1.3 1.4-1.3-1.4" fill="#ccc"/><path d="M166.7 186.7l1.3 1.3-1.3-1.3" fill="#212121"/><path d="M162.7 193.3l1.3 1.4-1.3-1.4" fill="#ccc"/><path d="M164.4 194.2c0 .1-.1 1.5.5 1 0-.2.1-1.6-.5-1" fill="#212121"/><path d="M165.3 194.7l1.4 1.3-1.4-1.3" fill="#ccc"/><path d="M32 196l1.3 1.3L32 196" fill="#aaa"/><path d="M32 197.3l1.3 1.4-1.3-1.4" fill="#212121"/><path d="M116 197.3l1.3 1.4-1.3-1.4" fill="#888"/><path d="M221.3 197.3l1.4 1.4-1.4-1.4" fill="#aaa"/><path d="M82.2 199.1c-.6.6.8.5 1 .5.5-.6-.9-.6-1-.5" fill="#434343"/><path d="M84.9 199.1c-.6.6.8.5.9.5.6-.6-.8-.6-1-.5" fill="#aaa"/><path d="M48 200l1.3 1.3L48 200" fill="#888"/><path d="M213.3 200l1.4 1.3-1.4-1.3m-78.6 1.3l1.3 1.4-1.3-1.4" fill="#ccc"/><path d="M136 201.3l1.3 1.4-1.3-1.4" fill="#434343"/><path d="M105.3 202.7l1.4 1.3-1.4-1.3" fill="#888"/><path d="M106.7 202.7l1.3 1.3-1.3-1.3" fill="#434343"/><path d="M65.3 204l1.4 1.3-1.4-1.3" fill="#212121"/><path d="M29.3 205.3l1.4 1.4-1.4-1.4" fill="#656565"/><path d="M41.3 205.3l1.4 1.4-1.4-1.4" fill="#888"/></svg>