<svg xmlns="http://www.w3.org/2000/svg" height="172" width="258.7"><path d="M0 0v172h258.7V0H0" fill="#fff"/><path d="M196 8l9.3-2.7c-1.3 4.8-6.2 10.8-5.8 15.7.4 6.5 12.2 7.1 15.2 3-4-.7-8-1.2-12-1.3 1.7-4.9 6-10.5 4.8-15.9-1.7-7.6-9.8-4-11.5 1.2" fill="red"/><path d="M194.7 4l1.3 1.3-1.3-1.3" fill="#ccc"/><path d="M128 12l9.3-1.3-4 8c2 1.3 1.6 1.3 4 1.3-2.6 4.8-8 6.7-8 12 8.9-3.5 10.7-7 10.5-16 0-2.6.6-5.3-1.6-7.3-3.8-3.4-9.3-1-10.2 3.3m-85.3 4c13-1.6 27.6.6 40-4v12c-7.3 0-19.4-2.5-24 4h22.6L80 62.7c-5.6 0-11.4-1.1-14.7 4H80c.8 6.2 1.2 12.5 2.7 18.6-8.6-1.3-21.4 4-29-1.3-5-3.4-4.7-11.9-5.3-17.3-2-16 .3-33.8-3-49.4-6.3 8.2-2.2 23.8-1.5 33.4.7 11 2.5 22.3 2.7 33.3.4 15-1.3 30.2-1.3 45.3 0 6.8.8 13.4 1.2 20 .2 4-.2 8.4 2.5 11.6 2.3 2.9 6.2 3.6 9.7 4 9 1.3 18.9 1.8 28 1.8V148h16v-2.7c-5.5 0-10.7-.6-16-1.3.5-13 1.3-25.7 1.3-38.7h21.3v-2.6c-7.7 0-15-.4-22.6-1.4 0-11.6-2.5-23-2.7-34.6 11.7 0 23-.4 34.7-1.4a13.6 13.6 0 0 0-2.7 4c14.7-1.6 9-12-1.3-16 1.3 4.4 3.8 6 8 8V64l-4 1.3c1.7-2.5 1.7-1.3 0-4-8.4 1.6-16.9 1.5-25.4 1.4-3.2 0-7.3 0-9.3-3.1-1.8-3-.5-7-.2-10.3.7-7.5 1-15.1 1.5-22.6l29.4-1.4c-2 1.4-1.6 1.4-4 1.4 0 2.4 0 2 1.3 4 3.6-1.4 8.7-3.2 10.6-7C125.8 17 117 13 112 13.3c2.7 3 5.8 4.8 9.3 6.7l-5.3 4c-3-3.4-6.7-2-10.7-1.6-6.6.7-13.3.3-20 .3 1.2-5 1.4-9.7 1.4-14.7-4.5.7-8.8 2.2-13.4 2.7C64 11.3 48 7 42.7 16" fill="red"/><path d="M50.7 9.3l1.3 1.4-1.3-1.4" fill="#434343"/><path d="M52.9 9.8c-.6.6.8.5.9.4.6-.6-.8-.5-1-.4" fill="#888"/><path d="M54.7 9.3l1.3 1.4-1.3-1.4" fill="#ccc"/><path d="M66.7 9.3l1.3 1.4-1.3-1.4" fill="#aaa"/><path d="M169.3 10.7l1.4 1.3-1.4-1.3" fill="#656565"/><path d="M170.7 10.7C173 14 176 14.9 180 16c-1.7 4.2-5.7 5-6.7 9.3 2.2-.5 4.5-.9 6.5-2 10.4-6-3.2-12.3-9.1-12.6" fill="red"/><path d="M208 10.7l1.3 1.3-1.3-1.3" fill="#ccc"/><path d="M81.3 12c-7.4 3.6-16 2.2-24 2.7-2.8 0-7.2-.7-9.5 1.3-3.6 3.1-2.5 12-1.9 16 1.6 12.8.8 25.7 3 38.4.8 4.4-.1 10.6 3.8 13.6 7 5.4 21.7.8 30 1.3L80 66.7c-5.5 0-10.7 0-16-1.4 5.3-2.6 10-2.6 16-2.6L81.3 28H58.7c6.1-5.8 16-4.3 24-4-.1-4 0-8.3-1.4-12" fill="#fff"/><path d="M41.3 13.3l1.4 1.4-1.4-1.4" fill="#434343"/><path d="M78.7 13.3l1.3 1.4-1.3-1.4m92 0l1.3 1.4-1.3-1.4" fill="#aaa"/><path d="M45.3 16l1.4 1.3-1.4-1.3" fill="#434343"/><path d="M81.3 16l1.4 1.3-1.4-1.3" fill="#aaa"/><path d="M184 16l1.3 1.3L184 16" fill="#ccc"/><path d="M146.7 17.3V20c6.6 0 22.5 3 26.6-2.7h-26.6m-132 16c4.5-2.4 7.8-6.3 12-9.3 0 4.7-.2 8 4 10.7-.3-3.7 0-11-2.7-13.8-5.3-5.6-12.4 9-13.3 12.4" fill="red"/><path d="M21.3 20l1.4 1.3-1.4-1.3" fill="#aaa"/><path d="M41.3 20l1.4 1.3-1.4-1.3" fill="#212121"/><path d="M112 20l1.3 1.3L112 20" fill="#656565"/><path d="M114.7 20l1.3 1.3-1.3-1.3" fill="#212121"/><path d="M173.3 20l1.4 1.3-1.4-1.3" fill="#888"/><path d="M176 20l1.3 1.3L176 20" fill="#434343"/><path d="M89.3 21.3l1.4 1.4-1.4-1.4" fill="#656565"/><path d="M182.7 21.3l1.3 1.4-1.3-1.4" fill="#434343"/><path d="M76 22.7l1.3 1.3-1.3-1.3" fill="#656565"/><path d="M124 22.7l1.3 1.3-1.3-1.3" fill="#212121"/><path d="M104 25.3l1.3 1.4-1.3-1.4" fill="#aaa"/><path d="M121.3 25.3l1.4 1.4-1.4-1.4" fill="#434343"/><path d="M202.7 25.3l1.3 1.4-1.3-1.4" fill="#ccc"/><path d="M66.7 28l1.3 1.3-1.3-1.3" fill="#888"/><path d="M85.3 28l1.4 1.3-1.4-1.3" fill="#ccc"/><path d="M85.3 29.3l1.4 1.4-1.4-1.4" fill="#656565"/><path d="M13.3 30.7l1.4 1.3-1.4-1.3" fill="#212121"/><path d="M25.3 30.7l1.4 1.3-1.4-1.3" fill="#434343"/><path d="M26.7 34.7L28 36l-1.3-1.3" fill="#888"/><path d="M49.3 46.7c9.8-2.4 19.9.7 29.4-1.4-5.7-4.8-26.7-7.7-29.4 1.4" fill="red"/><path d="M78.7 45.3l1.3 1.4-1.3-1.4" fill="#aaa"/><path d="M74.7 46.7L76 48l-1.3-1.3" fill="#ccc"/><path d="M46.7 50.7L48 52l-1.3-1.3" fill="#212121"/><path d="M209.3 52v2.7l8 1.3c-1.4 2.7-2 4-2.6 6.7L220 64v2.7c-3.2.7-6 1.3-9.3 1.3v4c3.7 0 8.5 0 11.1-3.4 6.6-7.7-5.9-16.4-12.5-16.6M12 60l12-1.3c-.5 9.4-7 18.2 6.7 18.6-2.2-2-4-2.9-6.7-4 1.6-4 4.5-8.7 3.4-13.2-2-7.9-12-5-15.4-.1" fill="red"/><path d="M189.3 54.7l1.4 1.3-1.4-1.3" fill="#212121"/><path d="M184 56c2.5 3.3 5.3 3.6 9.3 4a29 29 0 0 1-6.6 4c0 2.4 0 2 1.3 4 5.2-1.8 7.5-4 9.3-9.3A34 34 0 0 0 184 56m-54.7 16c3.3-2.7 5-5.3 6.7-9.3 1.7 4.6-.3 10.8 5.3 12a93 93 0 0 1-1.3-17.4A15 15 0 0 0 129.3 72" fill="red"/><path d="M133.3 58.7l1.4 1.3-1.4-1.3" fill="#212121"/><path d="M172 60l1.3 1.3L172 60" fill="#434343"/><path d="M173.3 60l1.4 1.3-1.4-1.3" fill="#ccc"/><path d="M150.7 62.7c8.5 6.6 24.6 1.7 34.6 1.3 0-2.4 0-2-1.3-4-10.7 2.7-22.4 2.7-33.3 2.7" fill="red"/><path d="M42.7 61.3l1.3 1.4-1.3-1.4m28 0l1.3 1.4-1.3-1.4" fill="#656565"/><path d="M90.7 61.3l1.3 1.4-1.3-1.4" fill="#888"/><path d="M106.7 61.3l1.3 1.4-1.3-1.4" fill="#212121"/><path d="M216 62.7l1.3 1.3-1.3-1.3" fill="#656565"/><path d="M64 64l1.3 1.3L64 64" fill="#ccc"/><path d="M218.7 65.3l1.3 1.4-1.3-1.4" fill="#212121"/><path d="M96 66.7l1.3 1.3-1.3-1.3" fill="#656565"/><path d="M97.3 66.7l1.4 1.3-1.4-1.3" fill="#ccc"/><path d="M102.7 66.7L104 68l-1.3-1.3" fill="#aaa"/><path d="M224 66.7l1.3 1.3-1.3-1.3" fill="#212121"/><path d="M25.3 69.3l1.4 1.4-1.4-1.4m193.4 1.4L220 72l-1.3-1.3" fill="#656565"/><path d="M49.3 72l1.4 1.3-1.4-1.3" fill="#888"/><path d="M29.3 77.3l1.4 1.4-1.4-1.4" fill="#aaa"/><path d="M85.3 78.7l1.4 1.3-1.4-1.3" fill="#656565"/><path d="M85.3 80l1.4 1.3-1.4-1.3" fill="#ccc"/><path d="M45.3 84l1.4 1.3-1.4-1.3" fill="#434343"/><path d="M50.7 88c-1.4 11.1-1.4 22.1-1.4 33.3 7.5-1.8 26.7-7.3 29.4 2.7-9-4.8-19.7-.8-29.4 0l1.4 36c10.5 3.2 21.3 1.3 32 4 1.5-5.3 1.3-10.5 1.3-16-4.7.2-7 .2-9.3-4H84c0-12.8-.7-25.9 0-38.7-4.8-.6-8.7-1.3-13.3 0 3-4.6 8-4.3 13.3-4L82.7 88c-11 0-21.1 2-32 0" fill="#fff"/><path d="M240 92h5.3c-1.3 3.1-3.7 7.1-2.9 10.7 1.6 6.4 9.2 5.6 12.3 1.3h-9.4c.9-3.6 2.7-8 2.2-11.8-1-5.1-5.5-2.9-7.5-.2" fill="red"/><path d="M45.3 89.3l1.4 1.4-1.4-1.4m177.4 0l1.3 1.4-1.3-1.4" fill="#212121"/><path d="M81.3 90.7l1.4 1.3-1.4-1.3" fill="#888"/><path d="M190.7 90.7c0 8 .7 11.7 9.3 12v9.3c4-2.6 4.7-7.2 8-10.7-1.7-.9-2-1-4-1.3v-6.7c-3 2-3.4 3.1-4 6.7-5.4-1.6-6-5.3-9.3-9.3" fill="red"/><path d="M221.3 90.7l1.4 1.3-1.4-1.3" fill="#656565"/><path d="M222.7 90.7L224 92l-1.3-1.3" fill="#fff"/><path d="M222.7 92c3 2.7 5.3 3.4 9.3 4l-5.3 8c13.3-2.7 7.5-13.8-4-12" fill="red"/><path d="M169.3 93.3l1.4 1.4-1.4-1.4" fill="#ccc"/><path d="M172 93.3l1.3 1.4-1.3-1.4m-85.3 1.4L88 96l-1.3-1.3" fill="#212121"/><path d="M106.7 94.7c2.6 4 7.6 5.7 12 8-3.2 2.6-6 4.5-8 8 5.2-.7 13.8-4.8 8.3-11.2-3-3.5-8-4.4-12.3-4.8m28 0a53 53 0 0 0-8 14.6c4.7-1.6 6.3-4.7 8-9.3 2.1 4.4 2.4 9.3 6.6 12-.5-6.7-1.4-12.7-6.6-17.3m34.6 0c2.1 3.4 4 4.3 8 5.3v2.7a11 11 0 0 0-5.3 5.3c13.2-2.7 7.7-11.8-2.7-13.3" fill="red"/><path d="M198.7 94.7v4c.9-2.1.9-2 0-4" fill="#888"/><path d="M13.3 101.3l9.4-1.3c-2.7 6-.4 10.8-8 12v4c3-.3 6.2-.6 8.7-2.7 9.5-8-2-25.3-10-12" fill="red"/><path d="M229.3 96l1.4 1.3-1.4-1.3" fill="#aaa"/><path d="M138.7 97.3l1.3 1.4-1.3-1.4" fill="#656565"/><path d="M210.7 98.7c4.2 3.2 8.3 2.8 13.3 1.3-4.2-3.2-8.3-2.7-13.3-1.3" fill="red"/><path d="M110.7 98.7l1.3 1.3-1.3-1.3" fill="#656565"/><path d="M196 98.7l1.3 1.3-1.3-1.3" fill="#888"/><path d="M197.3 98.7l1.4 1.3-1.4-1.3" fill="#212121"/><path d="M198.7 98.7l1.3 1.3-1.3-1.3" fill="#fff"/><path d="M81.3 100l1.4 1.3-1.4-1.3" fill="#ccc"/><path d="M129.3 100l1.4 1.3-1.4-1.3" fill="#656565"/><path d="M149.3 100v4h20c-4-6-13.4-4-20-4" fill="red"/><path d="M169.3 100l1.4 1.3-1.4-1.3" fill="#888"/><path d="M208 100l1.3 1.3-1.3-1.3" fill="#656565"/><path d="M221.3 101.3l1.4 1.4-1.4-1.4" fill="#ccc"/><path d="M206.7 102.7l1.3 1.3-1.3-1.3" fill="#212121"/><path d="M226.7 104l1.3 1.3-1.3-1.3" fill="#888"/><path d="M108 105.3l1.3 1.4-1.3-1.4m62.7 1.4l1.3 1.3-1.3-1.3m1.3 1.3l1.3 1.3-1.3-1.3" fill="#aaa"/><path d="M82.7 109.3l1.3 1.4-1.3-1.4" fill="#ccc"/><path d="M14.7 110.7L16 112l-1.3-1.3" fill="#aaa"/><path d="M137.3 112l1.4 1.3-1.4-1.3m62.7 0l1.3 1.3-1.3-1.3m-186.7 2.7l1.4 1.3-1.4-1.3" fill="#434343"/><path d="M77.3 122.7l1.4 1.3-1.4-1.3m10.7 6.6l1.3 1.4-1.3-1.4" fill="#aaa"/><path d="M22.7 130.7L24 132l-1.3-1.3" fill="#888"/><path d="M21.3 132c-2.7 8-5.4 20 6.7 18.7v12h2.7c0-6.4.7-11.3 5.3-16-2.1-2.4-4-4-6.7-5.4a13.4 13.4 0 0 1-6.6 6.7c0-5.3.6-10.6 1.3-16h-2.7" fill="red"/><path d="M136 133.3l1.3 1.4-1.3-1.4" fill="#434343"/><path d="M129.3 134.7v2.6l8 1.4-2.6 8 5.3 2.6v2.7l-1.3 1.3-5.4-2.6v5.3c2.7 0 6.5.2 8.5-2.1 2.9-3.2-.5-14.5-3.6-17.1-2.5-2.1-5.8-2-8.9-2.1m-24 1.3c1.7 4.7 4.7 5.5 9.4 6.7v2.6c-3.3 1.4-4.4 2-5.4 5.4 4-.9 11.9-4.4 7.2-9.8-2.6-3-7.6-4-11.2-4.9" fill="red"/><path d="M112 137.3l1.3 1.4-1.3-1.4" fill="#aaa"/><path d="M132 137.3l1.3 1.4-1.3-1.4" fill="#434343"/><path d="M116 138.7l1.3 1.3-1.3-1.3" fill="#656565"/><path d="M17.3 144l1.4 1.3-1.4-1.3m84 0l1.4 1.3-1.4-1.3" fill="#212121"/><path d="M113.3 144l1.4 1.3-1.4-1.3" fill="#656565"/><path d="M17.3 146.7l1.4 1.3-1.4-1.3" fill="#aaa"/><path d="M108 146.7l1.3 1.3-1.3-1.3" fill="#ccc"/><path d="M76 148c1.7 1 2 1 4 1.3-1.7-.9-2-1-4-1.3" fill="#212121"/><path d="M45.3 154.7l1.4 1.3-1.4-1.3m5.4 1.3l1.3 1.3-1.3-1.3m26.6 5.3l1.4 1.4-1.4-1.4" fill="#434343"/><path d="M49.3 164l1.4 1.3-1.4-1.3" fill="#aaa"/><path d="M61.3 165.3l1.4 1.4-1.4-1.4" fill="#212121"/></svg>