<svg xmlns="http://www.w3.org/2000/svg" height="140" width="172"><path d="M0 0v140h172v-18.7c-4.1 3.2-6.8 4.7-12 4 2-1.3 1.6-1.3 4-1.3-3.2-10-11-23.8-20-29.3a35 35 0 0 0-5.3-16c-5.6 5.5-10.7 16-9.4 24-6.6 4.8-6.6 12.8-4 20-8.2 1.7-12.5 0-10.6-9.4l4 2.7c6-11.3 9.8-24 14.6-36-3.3-2-6.3-4-9.3-6.7l1.3-1.3 6.7 4c-5.4-7.5-13.3-12.5-20-18.7-6-5.7-11.1-12.5-18.7-16-.8-6.6-11.2-15.7-13.3-5.3-4 2.1-5 3.7-5.3 8-3 1.3-2.8.9-2.7 4-8.4 4.6-17.5 18-21.3 26.7 3.6 1.8.8 4 2.6 9.3l2.7 1.3c0 .2-2.7.6 1.3 1.4-2.7 5.4 2 8.6 5.4 12l-1.4 1.3H64l-1.3 2.7h2.6c.5 6.6 5.1 11.5 8 17.3a12 12 0 0 1 8 0c-4.7 6.4-12 7.2-14.6-1.3 2.1.7 2 .5 2.6 2.6.6-6.1-5.5-14.2-10.6-17.3-.4-5.2-2.3-10.3-6.7-13.3 0-6-1.9-9.7-8-10.7-2.3 8-8 15.5-8 24h-2.7l1.4 2.7c-3.1 2-3.7 3-4 6.6-2.4 2.3-1.8 5-3.7 7.6-2 2.7-5.3 3.5-8.3 4.4-1.4-5.3-.8-9 5.3-9.3 5.8-9.8 11.4-20 15.4-30.7 1.5-4.2.6-10.5 3.3-14.2 1.9-2.6 5.1-2 7.7-3.3 4.3-2.2 6.3-6.1 7-10.5 9.8-5 12.8-17.3 20-25.3L76 29.3c5.3-4 7.8-11.4 13.3-16C90 19 86.7 24.5 92 28c0 3.1-.3 2.7 2.7 4 1.6 10.9 19.8 29 30.6 30.7 1.2 2.7 2.2 4.3 4 6.6 3.6-2.1 9-5 12-.7 2.6 3.1.6 7.8 1.4 11.4 2 9.4 8.7 19.1 14.5 26.7 3.5 4.5 6.3 8 12.1 8l1.4 5.3c4.2-10.2 1.3-26.3 1.3-37.3V0H0" fill="#fff"/><path d="M88 13.3l1.3 1.4-1.3-1.4" fill="#ccc"/><path d="M24 116c-6.7-1-6.9 4-5.3 9.3 2.6-.6 6.4-1 8.5-3.4 2.4-2.8 2-7.8 3.5-11.2C35.4 100.7 42 90.9 44 80c7.3 2.2 9 9.5 12 16 4 8.9 10 16.8 14.7 25.3a14.6 14.6 0 0 0-4-2.6c1.3 9.3 11.4 9 13.3 0-2.7.2-4.3.6-6.7 1.3C69.6 108.7 61 99 56 88c-1.8-4.3-4.7-9.9-3.4-14.7 2-8 11.2-15.7 15.8-22.6C71.7 45.9 78.2 31 85.3 32c5.4.6 10 9.6 13.4 13.3C109 56.5 121.2 65.4 132 76l-6.7-4-1.3 1.3c2.7 3.3 5.3 5 9.3 6.7-6.3 11.1-10 24-14.6 36a14.6 14.6 0 0 0-4-2.7c-.8 2.7-2 6 0 8.6 2.2 2.7 7 2.2 8.4-1 1.4-3 .5-7 1.5-10.2 3.3-11 8.4-21.4 12.7-32 4.3 5.7 6.2 12.5 9.9 18.6 3.5 6.2 8.6 11.4 12.4 17.4 2.5 4 3.6 7.1.4 10.6 3.8 1 11.2 1 10.4-5.2-.5-4.1-7.3-7.8-10-10.8A86.7 86.7 0 0 1 144.6 84c-2-4.7.4-12.9-3-16.3-3.5-3.7-8-1-11 1.6-11-10.1-22.9-19-32.4-30.6-3.2-3.8-7.7-8.4-8.9-13.4-.6-3.3 1-7.3 1.4-10.6C79.4 16.5 75 34 69.3 42.7c-5 7.5-9.9 16.2-16.6 22.3-2.8 2.6-7.7 2.3-10 5.2C40 73.4 40.8 80 39.4 84c-4.2 11.2-10.8 21-15.4 32" fill="#00f"/><path d="M84 25.3l1.3 1.4-1.3-1.4" fill="#fff"/><path d="M90.7 28l1.3 1.3-1.3-1.3" fill="#888"/><path d="M76 29.3l1.3 1.4-1.3-1.4" fill="#212121"/><path d="M74.7 32l1.3 1.3-1.3-1.3m18.6 0l1.4 1.3-1.4-1.3m-14.6 2.7L80 36l-1.3-1.3" fill="#656565"/><path d="M93.3 40l1.4 1.3-1.4-1.3m-20 2.7l1.4 1.3-1.4-1.3" fill="#aaa"/><path d="M70.7 46.7L72 48l-1.3-1.3" fill="#434343"/><path d="M60 53.3l1.3 1.4-1.3-1.4m-2.7 4l1.4 1.4-1.4-1.4m66.7 5.4l1.3 1.3-1.3-1.3" fill="#aaa"/><path d="M130.7 66.7L132 68l-1.3-1.3" fill="#434343"/><path d="M133.3 70.7a12 12 0 0 0 6.7 4v-5.4c-2.7.3-4.3.6-6.7 1.4M44 72l1.3 1.3L44 72" fill="#fff"/><path d="M137.3 73.3l1.4 1.4-1.4-1.4M52 74.7l1.3 1.3-1.3-1.3" fill="#656565"/><path d="M52 77.3l1.3 1.4-1.3-1.4" fill="#aaa"/><path d="M54.7 84l1.3 1.3-1.3-1.3" fill="#656565"/><path d="M56 86.7l1.3 1.3-1.3-1.3m-4 2.6l1.3 1.4-1.3-1.4m92 4l1.3 1.4-1.3-1.4m-82.7 4l1.4 1.4-1.4-1.4m1.4 2.7l1.3 1.3-1.3-1.3" fill="#888"/><path d="M128 101.3l1.3 1.4-1.3-1.4m-93.3 1.4L36 104l-1.3-1.3" fill="#434343"/><path d="M58.7 102.7L60 104l-1.3-1.3" fill="#ccc"/><path d="M64 102.7l1.3 1.3-1.3-1.3" fill="#888"/><path d="M33.3 105.3l1.4 1.4-1.4-1.4" fill="#434343"/><path d="M29.3 112l1.4 1.3-1.4-1.3m138.7 2.7l1.3 1.3-1.3-1.3" fill="#888"/><path d="M76 117.3l1.3 1.4-1.3-1.4" fill="#656565"/><path d="M80.4 120.9s-.1 1.5.5.9c0-.1.1-1.5-.5-1m43.6.5l1.3 1.4-1.3-1.4" fill="#434343"/><path d="M161.3 121.3l1.4 1.4-1.4-1.4m-44 2.7l1.4 1.3-1.4-1.3" fill="#888"/></svg>