<svg xmlns="http://www.w3.org/2000/svg" height="345.3" width="721.3"><path d="M0 0v345.3h721.3V0H0" fill="#fff"/><path d="M418.2 12.4c-.6.6.8.6 1 .5.5-.6-.9-.5-1-.5" fill="#929292"/><path d="M408 28c0 2.4 0 2 1.3 4l2.7-1.3c1.3 5 2.2 10.2 6.7 13.3L416 30.7l10.7-1.4v-2.6c-3.7.1-7.1.6-10.7 1.3 0-3.6.7-7 1.3-10.7 1.6 1.6 2.1 2 4 2.7 0-3.4-2-7.5-5.7-3.5-3.6 4-2.6 8.6-7.6 11.5" fill="#00f"/><path d="M413.3 16l1.4 1.3-1.4-1.3" fill="#b6b6b6"/><path d="M417.3 17.3l1.4 1.4-1.4-1.4" fill="#fff"/><path d="M417.3 18.7l1.4 1.3-1.4-1.3" fill="#b6b6b6"/><path d="M420 20l1.3 1.3L420 20m-180 6.7l1.3 1.3-1.3-1.3" fill="#232323"/><path d="M242.7 26.7L244 28l-1.3-1.3" fill="#b6b6b6"/><path d="M366.7 26.7c4.7 6.9 17 11 24 16.3 13.1 10 23.8 23 32.7 37 14.2 22.3 33.2 51.3 34 78.7.2 10.6-2.7 28.4-16 29.9-5.1.5-10.7-2.7-14.7-5.3-10-6.4-18.4-15-26.7-23.3-32.3-32.4-62-76-56-124-4.8 3.1-4 8-4 13.3 0 12 1.3 24.7 5.2 36 10.8 33.4 36.4 66.2 62.8 88.8 9.7 8.3 22 20 36 17.6 7.4-1.3 11.8-7.7 14.4-14.4 5.2-13.5 2.3-26.6-1.8-40a224.4 224.4 0 0 0-52.6-88c-10-10-22.7-21.2-37.3-22.6" fill="red"/><path d="M242.7 40c.6 4.5 1.8 6.7 5.3 9.3a33.2 33.2 0 0 1 0-17.3c-2.8-1.2-2.8-1.2-4-4-7 2.1-10.4 10.7-1.3 12" fill="#00f"/><path d="M212 29.3l1.3 1.4-1.3-1.4m214.7 0l1.3 1.4-1.3-1.4" fill="#6c6c6c"/><path d="M181.3 57.3h4l1.4-9.3c.8 8.4-2.2 17.3-4.2 25.3-3.8 14.7-8.3 29-10.1 44-4.4 34.5 1.8 70.2 7.5 104 2.3 14 3.5 29.7 9.4 42.7 2.2 4.6 5.4 10.7 10.7 12.2 6.3 1.8 9.3-4.8 11-9.5 4.8-12.8 8.3-27.7 9-41.4 1.3-30.6-.4-61.2 2.7-92C226 103.1 236.3 69 222 40c-11.3-22.7-39.3 0-40.7 17.3" fill="red"/><path d="M236 30.7l1.3 1.3-1.3-1.3m134.7 0L372 32l-1.3-1.3" fill="#929292"/><path d="M240 36c2.7-1.2 2.7-1.2 4-4-2.8 1.3-2.8 1.3-4 4" fill="#fff"/><path d="M193.3 33.3l1.4 1.4-1.4-1.4" fill="#929292"/><path d="M194.7 40c-1.7 11.2-6.7 21.8-8 33.3 4.9-2.9 9.3-10.6 14.6-12 5-1 8.6 4.3 6.4 8.5-1.2 2.3-4.4 3.5-6.4 4.9l-4-4c-3.7 2.6-9.3 4.4-12 8.3-5.3 7.8-6.6 21-8 30-3.6 25-1.3 51.4 0 76.5.8 10.5 2 26.1 6.3 35.6 1.7 3.8 4.4 5 8.4 5.6 3.8 6.6 12 3.3 17.3 9.3 9.4-3 8-19.7 8-28 0-17.1-.6-34.3-.1-51.4.1-9 2.4-18 2.7-27 .3-9.4 6.5-21.6-3.9-27-.4-4.2-1.5-5.8-5.3-8 0-3 .2-2.6-2.7-4 0-5.7-2.7-9.3-6.7-13.3 2.4 0 2 0 4-1.3 4.6 9.7 10.4 21.3 18.7 28 .3-14.5 3.2-29.6.4-44-1-5-1.7-11.4-5.7-14.7.3-5.2-1.5-8.3-6.7-9.3-4.8-5.3-12.7.9-17.3 4" fill="#fff"/><path d="M376 33.3l1.3 1.4-1.3-1.4" fill="#929292"/><path d="M192 34.7l1.3 1.3-1.3-1.3" fill="#232323"/><path d="M212 34.7l1.3 1.3-1.3-1.3" fill="#212121"/><path d="M389.3 36l1.4 1.3-1.4-1.3" fill="#6c6c6c"/><path d="M417.3 36l1.4 1.3-1.4-1.3" fill="#484848"/><path d="M221.3 37.3l1.4 1.4-1.4-1.4" fill="#b6b6b6"/><path d="M196 38.7l1.3 1.3-1.3-1.3" fill="#aaa"/><path d="M194.7 41.3l1.3 1.4-1.3-1.4" fill="#434343"/><path d="M218.7 44l1.3 1.3-1.3-1.3" fill="#ccc"/><path d="M241.3 44l1.4 1.3-1.4-1.3" fill="#232323"/><path d="M394.7 46.7L396 48l-1.3-1.3" fill="#929292"/><path d="M190.7 52l1.3 1.3-1.3-1.3" fill="#212121"/><path d="M338.7 53.3l1.3 1.4-1.3-1.4" fill="#484848"/><path d="M357.3 54.7l1.4 1.3-1.4-1.3" fill="#6c6c6c"/><path d="M366.7 54.7L368 56l-1.3-1.3" fill="#232323"/><path d="M354.7 57.3c.9 3.1 1.3 3.7 4 5.4-2.3 6.8-8.6 10.7-10.7 17.3 5.6-2.6 9.3-6.4 12-12 9.2 4.8 13.2 19.3 18.3 28 10 17 23.9 30.7 35 46.7h-28c4 6.2 17.1 2.1 24 2.7 4.7.4 8.5 2.7 7.8 8-.4 2.6-1.7 5.3-2.4 8 3.6-2.1 5-4 6.6-8 0 7.5-5.3 13.8-6.6 21.3 6.1-4 9.3-13.4 12.7-20 1.5-2.7 3-6 1.6-9.2-2.3-5-7-4.2-11.1-6-2.8-1.4-4.9-3.9-6.9-6.2-16.7-18.9-35.9-42-43-66.6 4.9-1.6 6.7-6.6 1.1-9.4-4.5-2.1-9.8-1-14.4 0M186.7 76c3.4-.9 6.6-2.7 10-3.4 3.3-.5 6.5.7 9.4-1.6 5-4 1.7-11.4-4.8-10.3-5.6 1-12.2 10.4-14.6 15.3" fill="#00f"/><path d="M228 60l1.3 1.3L228 60" fill="#929292"/><path d="M368 60c-1.3 2-1.3 1.6-1.3 4 2-1 2.3-1 4-2.7L368 60" fill="#fff"/><path d="M373.3 64l1.4 1.3-1.4-1.3" fill="#929292"/><path d="M204 65.3c-1.6 1.6-2.1 2-4 2.7 2.7 1.3 5.3.8 4-2.7" fill="#fff"/><path d="M418.7 65.3l1.3 1.4-1.3-1.4" fill="#484848"/><path d="M224 66.7l1.3 1.3-1.3-1.3" fill="#aaa"/><path d="M224 68l1.3 1.3L224 68" fill="#212121"/><path d="M360 68c-2.3 4.5-7.5 9.4-10.7 13.3L348 80c.6 3.7 1 5.8 4 8-.7 5.6 1.8 9.7 4.3 14.7 4.9 9.6 11 19 17.6 27.6 2.9 3.8 5.5 9.7 10.1 11.6 8 3.2 20.8.8 29.3.8-3.2-7-9-14-16-17.4-.7-4-1.7-4.8-5.3-6.6-.5-3.4-1-3.7-4-5.4A43.7 43.7 0 0 0 372 88c0-3.1-.1-3.6-2.7-5.3 0-4-.6-5.8-4-8-.2-4-1.4-5.2-5.3-6.7" fill="#fff"/><path d="M362.7 68l1.3 1.3-1.3-1.3" fill="#212121"/><path d="M208 69.3l1.3 1.4-1.3-1.4m-1.3 1.4L208 72l-1.3-1.3" fill="#434343"/><path d="M194.7 72l1.3 1.3-1.3-1.3" fill="#aaa"/><path d="M205.3 72l1.4 1.3-1.4-1.3" fill="#212121"/><path d="M417.3 72l1.4 1.3-1.4-1.3" fill="#6c6c6c"/><path d="M200 73.3l1.3 1.4-1.3-1.4" fill="#aaa"/><path d="M349.3 73.3L348 76c1.7-1.3 1.9-1 1.3-2.7" fill="#484848"/><path d="M365.3 73.3l1.4 1.4-1.4-1.4m-174.6 1.4L192 76l-1.3-1.3" fill="#aaa"/><path d="M349.3 74.7l1.4 1.3-1.4-1.3" fill="#fff"/><path d="M185.3 76l1.4 1.3-1.4-1.3m18.7 0c0 10.3 10.7 24.5 18.7 30.7A73.5 73.5 0 0 0 204 76" fill="#00f"/><path d="M420 76l1.3 1.3L420 76" fill="#929292"/><path d="M80 158.7c4.7.5 8.7.7 13.3 0 4.6 9.7 14.4 16.8 22.7 23.4 19.7 15.8 42 29.7 64 41.9-3-9.3-17.3-15-25.3-20a341.3 341.3 0 0 1-44-31.2c-6.2-5.3-11.1-11.8-17.4-16.8 2-3.8 2.2-8.4 4.7-11.9 4.4-6.1 12.2-10.8 18-15.6 11.5-9.1 22.7-18.6 34.7-27.2 9.3-6.6 25.3-13.6 30.6-24C172 80.7 164 87.3 156 93c-18.7 12.7-36 27.3-53.3 41.5-3.7 3-7 6.4-10.7 9.2-7.4 5.5-12 4.4-12 15" fill="#00f"/><path d="M201.3 77.3l1.4 1.4-1.4-1.4" fill="#888"/><path d="M346.7 77.3l1.3 1.4-1.3-1.4" fill="#f0f"/><path d="M373.3 78.7l1.4 1.3-1.4-1.3" fill="#232323"/><path d="M180 80l1.3 1.3L180 80" fill="#f0f"/><path d="M349.3 80l1.4 1.3-1.4-1.3" fill="#656565"/><path d="M422.7 80l1.3 1.3-1.3-1.3" fill="#b6b6b6"/><path d="M178.7 81.3c-2.2 2-2.8 2.8-4 5.4-8.8.6-21.4 9.6-25.4 17.3-8 1-14 8-20 12.8-9.6 7.9-26 16.6-32.3 27.3-2 3.4-2.3 8.2-3.7 11.9 6 5.7 10.1 14.7 18.7 16 2.7 5.8 7 9.8 13.3 10.7 3.6 6.9 11 10.6 17.4 14.7 12 7.7 24.3 16.5 37.3 22.6-3.5-18-6.8-36.4-8-54.7-1-12.3 0-25-.2-37.3-.2-10.5 5-21.8 2.9-32 4-3.2 5.3-9.8 4-14.7" fill="#fff"/><path d="M342.7 81.3c-9.6 6.9-18.7 14.3-28 21.5-6.1 4.7-13.5 9.2-17.4 15.9 13-3.6 25.4-17.3 36-25.4 3.9-3 10.6-6.6 9.4-12" fill="#00f"/><path d="M369.3 81.3l1.4 1.4-1.4-1.4" fill="#434343"/><path d="M429.3 81.3l1.4 1.4-1.4-1.4" fill="#484848"/><path d="M224 84l1.3 1.3L224 84" fill="#656565"/><path d="M344 84c-11.1 8.2-29.7 18.2-36 30.7-4.1.6-5.4 2-8 5.3 2.7 1.3 3.7 1.4 6.7 1.3 4.3 7.1 18.5 16.4 26.6 17.4 3 5.5 7.4 5.3 13.4 5.3h32c-1.8-4.6-3.7-7.1-8-9.3-.4-4.3-1.6-6-5.4-8-.6-7.1-6-12.6-9.5-18.7-4.3-7.6-6.6-17-11.8-24" fill="#fff"/><path d="M708 84a65.3 65.3 0 0 0-2.7 14.7c-11.3-1.7-8.1 15-.8 9 1.2-.9 1.6-2.4 2.2-3.7 1.3 4.6 1.2 9 5.3 12-.2-8.6 1.1-25.2-4-32" fill="red"/><path d="M173.3 85.3l1.4 1.4-1.4-1.4" fill="#212121"/><path d="M224 85.3l1.3 1.4-1.3-1.4" fill="#ccc"/><path d="M617.3 85.3A85 85 0 0 0 612 108l8-4c1.3 3.6 2.2 5.9 5.3 8-.7-9-1.6-20-8-26.7" fill="red"/><path d="M705.3 85.3l1.4 1.4-1.4-1.4" fill="#484848"/><path d="M162.7 86.7L164 88l-1.3-1.3" fill="#929292"/><path d="M372 86.7l1.3 1.3-1.3-1.3" fill="#212121"/><path d="M657.3 86.7V108c-2.6-2.2-5-3.8-8-5.3l4-2.7c-6.8-4-8.4 4.2-4.3 9 3 3.4 8 2.8 12.3 3v-6.7h5.4c2.2 8 16.5 4.5 22.6 2.7 1.2 2.8 1.2 2.8 4 4-.9-3.6-2-6.2-4-9.3-1.9.6-2.4 1-4 2.6-.9-3-1.3-3.7-4-5.3v6.7a40.5 40.5 0 0 1-8-9.4 11 11 0 0 0-5.3 5.4c-8-3-7.1-8.7-8-16h-2.7" fill="red"/><path d="M160 88l1.3 1.3L160 88" fill="#232323"/><path d="M273.3 88l1.4 1.3-1.4-1.3" fill="#484848"/><path d="M288 98.7c-6 1.3-11.1 2.3-17.3 1.3 2.2-4.6 5.8-7 9.3-10.7-5 0-15.5 4.8-10.9 11.5 4.2 6 15.5 2.9 18.9-2.1" fill="#00f"/><path d="M345.3 88l1.4 1.3-1.4-1.3" fill="#212121"/><path d="M350.7 88l1.3 1.3-1.3-1.3" fill="#434343"/><path d="M542.7 88c-.8 5.7-4.2 17.3 1.7 21 3.5 2.4 9 1.7 13 1.7-3-4.6-8-2.6-11.2-6.2-3.2-3.4-.9-12.1-.9-16.5h-2.6" fill="red"/><path d="M208 89.3l1.3 1.4-1.3-1.4" fill="#ccc"/><path d="M629.3 89.3l1.4 1.4-1.4-1.4" fill="#929292"/><path d="M630.7 89.3c0 5.4-1.6 20 5.3 20.7 3.7.7 7.2-3.2 4.5-6.5-1.5-1.8-3.7-1.8-5.8-2.2v-12h-4" fill="red"/><path d="M165.3 90.7l1.4 1.3-1.4-1.3" fill="#212121"/><path d="M210.7 93.3l1.3 1.4-1.3-1.4" fill="#656565"/><path d="M381.3 93.3l1.4 1.4-1.4-1.4" fill="#232323"/><path d="M430.7 93.3l1.3 1.4-1.3-1.4m126.6 0l1.4 1.4-1.4-1.4m-406.6 1.4L152 96l-1.3-1.3" fill="#6c6c6c"/><path d="M322.7 94.7L324 96l-1.3-1.3" fill="#484848"/><path d="M558.7 94.7v2.6h2.6v-2.6h-2.6" fill="red"/><path d="M590.7 94.7L592 96l-1.3-1.3" fill="#b6b6b6"/><path d="M174.7 96l1.3 1.3-1.3-1.3" fill="#212121"/><path d="M228 96l1.3 1.3L228 96" fill="#929292"/><path d="M432 96l1.3 1.3L432 96" fill="#6c6c6c"/><path d="M573.3 96v2.7h2.7V96h-2.7m8 0c3.3 4.3 8.3 4 13.4 4-3.1-4.8-8-4-13.4-4" fill="red"/><path d="M617.3 96v5.3c1.4-2.4 1.4-2.6 0-5.3" fill="#fff"/><path d="M702.7 96l1.3 1.3-1.3-1.3M384 97.3l1.3 1.4-1.3-1.4" fill="#929292"/><path d="M145.3 98.7l1.4 1.3-1.4-1.3m134.7 0l1.3 1.3-1.3-1.3m332 0l1.3 1.3-1.3-1.3" fill="#232323"/><path d="M221.3 100l1.4 1.3-1.4-1.3" fill="#656565"/><path d="M216 101.3l1.3 1.4-1.3-1.4" fill="#434343"/><path d="M288 101.3l1.3 1.4-1.3-1.4" fill="#b6b6b6"/><path d="M574.7 101.3c-1.4 2-1.4 1.6-1.4 4 2.4-1.3 2.6-1.6 1.4-4" fill="red"/><path d="M588 101.3l1.3 1.4-1.3-1.4" fill="#484848"/><path d="M701.3 101.3c-.3 2.3-.3 3.1 0 5.4 1-2.4 1-3 0-5.4" fill="#fff"/><path d="M148 102.7l1.3 1.3-1.3-1.3" fill="#888"/><path d="M173.3 102.7l1.4 1.3-1.4-1.3" fill="#aaa"/><path d="M580 102.7c4.5 4.6 9.8 4 16 4v-4h-16" fill="red"/><path d="M630.7 102.7l1.3 1.3-1.3-1.3" fill="#484848"/><path d="M671.1 103.6s-.1 1.4.5.8c0 0 .1-1.4-.5-.8" fill="#fff"/><path d="M558.7 104c0 5.3-.8 10.2 4 13.3 0-4.6 0-8.8-1.4-13.3h-2.6" fill="red"/><path d="M557.3 105.3l1.4 1.4-1.4-1.4" fill="#929292"/><path d="M634.7 105.3c1.6 1 2 1 4 1.4-1.7-1-2.1-1-4-1.4" fill="#fff"/><path d="M692 105.3l1.3 1.4-1.3-1.4" fill="#b6b6b6"/><path d="M134.7 106.7l1.3 1.3-1.3-1.3" fill="#484848"/><path d="M220 106.7l1.3 1.3-1.3-1.3" fill="#212121"/><path d="M592 106.7l1.3 1.3-1.3-1.3" fill="#484848"/><path d="M593.3 106.7l1.4 1.3-1.4-1.3m-460 1.3l1.4 1.3-1.4-1.3" fill="#b6b6b6"/><path d="M613.3 108l1.4 1.3-1.4-1.3" fill="#484848"/><path d="M177.3 109.3l1.4 1.4-1.4-1.4" fill="#212121"/><path d="M226.7 109.3c1.8 8 7.6 13.4 13.3 18.7 0-7.6-7.5-14.4-13.3-18.7" fill="#00f"/><path d="M261.3 109.3c3.3 4.7 8 3.6 13.4 4.7 6 1.3 11.8 3.7 17.3 6.3a270.2 270.2 0 0 1 60 41.6c16.7 14.5 30 33.7 41 52.8 10.4 18.1 26 39.4 27 61 1.3 24.3-20.4 33.9-40 23.1-27-14.7-44.1-40.5-64.2-62.8-16.8-18.7-36-34.9-53.1-53.3-12.3-13.4-35.3-43.5-13.4-59.1 2.5-1.7 5.3-2.7 8-3.6 4.6-1.3 8.7-1.3 13.4-1.3-7.3-11.3-28.4 3-32 12-6.4 16.6 4 32.5 13.3 45.3 16.4 22.1 38.9 38.2 57 58.7 12.3 14 23.5 29.3 36.3 42.6 3.4 3.4 7 6.4 10.7 9.5 16.4 13.6 50.6 35.9 64.8 6.5 1.8-3.7 2.8-7.8 3-12 1.5-21.3-12.2-42.4-22.5-60-21.6-37-47.2-68.6-84-91.9-16.9-10.7-35.6-20-56-20" fill="red"/><path d="M304 109.3l1.3 1.4-1.3-1.4" fill="#232323"/><path d="M392 109.3l1.3 1.4-1.3-1.4" fill="#6c6c6c"/><path d="M445.3 109.3l1.4 1.4-1.4-1.4" fill="#232323"/><path d="M661.3 109.3l1.4 1.4-1.4-1.4" fill="#929292"/><path d="M666.7 109.3l1.3 1.4-1.3-1.4m9.3 0l1.3 1.4-1.3-1.4m5.3 0l1.4 1.4-1.4-1.4" fill="#232323"/><path d="M682.7 109.3l1.3 1.4-1.3-1.4" fill="#6c6c6c"/><path d="M281.3 110.7l1.4 1.3-1.4-1.3" fill="#b6b6b6"/><path d="M393.3 110.7l1.4 1.3-1.4-1.3" fill="#232323"/><path d="M706.7 110.7l1.3 1.3-1.3-1.3" fill="#929292"/><path d="M128 112l1.3 1.3-1.3-1.3" fill="#484848"/><path d="M136 112l1.3 1.3-1.3-1.3" fill="#656565"/><path d="M225.3 112l1.4 1.3-1.4-1.3" fill="#f0f"/><path d="M260 112l1.3 1.3-1.3-1.3" fill="#b6b6b6"/><path d="M388 112l1.3 1.3-1.3-1.3" fill="#ccc"/><path d="M652 112l1.3 1.3-1.3-1.3" fill="#484848"/><path d="M690.7 112l1.3 1.3-1.3-1.3" fill="#6c6c6c"/><path d="M225.3 113.3c-1.3 17-4 33.8-5.3 50.7-1.3 20 0 40.1 0 60a14 14 0 0 0 4-9.3c3.4-2.3 4-4 4-8h2.7l-1.4-2.7c7.7-4.6 11.6-22.1 13.7-30.7 1-3.8 1.7-8.3-1.7-10.6 0-5-2.6-8.6-3.4-13.4-1.6-7.2 0-14.4 2.1-21.3a88.3 88.3 0 0 1-12-14.7h-2.7" fill="#fff"/><path d="M288 113.3l1.3 1.4-1.3-1.4" fill="#6c6c6c"/><path d="M306.7 113.3l1.3 1.4-1.3-1.4" fill="#888"/><path d="M562.7 113.3l1.3 1.4-1.3-1.4" fill="#6c6c6c"/><path d="M233.3 114.7l1.4 1.3-1.4-1.3" fill="#929292"/><path d="M364 114.7l1.3 1.3-1.3-1.3" fill="#434343"/><path d="M220 116l1.3 1.3-1.3-1.3" fill="#656565"/><path d="M294.7 116l1.3 1.3-1.3-1.3" fill="#b6b6b6"/><path d="M442.7 116l1.3 1.3-1.3-1.3" fill="#232323"/><path d="M229.3 117.3l1.4 1.4-1.4-1.4" fill="#888"/><path d="M296 117.3l1.3 1.4-1.3-1.4" fill="#f0f"/><path d="M392 117.3l1.3 1.4-1.3-1.4" fill="#888"/><path d="M266.7 118.7l1.3 1.3-1.3-1.3" fill="#aaa"/><path d="M298.7 118.7l1.3 1.3-1.3-1.3" fill="#f0f"/><path d="M176 120l1.3 1.3-1.3-1.3" fill="#ccc"/><path d="M292 120l1.3 1.3-1.3-1.3" fill="#f0f"/><path d="M242.7 129.3c1.3 4.9 4 9 6.6 13.4L244 144c1.7-2.6 1.7-1.3 0-4-2.7 4-1.7 6 1.3 9.3-2 5-1.3 7.4 1.4 12h2.6c7.6-7.5 25.2 10 32 15.2 29.4 22.2 59 47.5 81.4 76.8l-33.4-1.3c13.3 10 32.8-3 41.4 16 5.3-1.8 16.7-6.7 9.3-13.3 5-12.4 14-25.1 14.7-38.7-5.9 7-9.4 17-12.8 25.3-1.7 4-3.2 9.5-7.5 11.2-4.5 1.7-8.2-1.6-11-4.5-6.4-7-12.4-14.3-19-21.1a468 468 0 0 0-57.7-50.9c-8.8-6.7-17.8-14.7-28-18.7 2.6-3.1 4.2-5.3 5.3-9.3l70.7-1.3c-5.7-4-13.4-2.7-20-2.7-16 0-32 1.3-48 1.3 9.2-8 20.7-14.1 28-24-9 2.1-15.6 9.4-22.7 14.9-3.4 2.6-7.3 6.5-12 5.7-8-.8-11-9.2-17.3-12.6" fill="#00f"/><path d="M294.7 121.3l1.3 1.4-1.3-1.4" fill="#f0f"/><path d="M305.3 121.3l1.4 1.4-1.4-1.4" fill="#656565"/><path d="M286.7 122.7l1.3 1.3-1.3-1.3" fill="#ccc"/><path d="M289.3 129.3c-8.1 1.4-17.5 9.7-22.6 16l64-1.3a86.9 86.9 0 0 0-25.4-17.7c-6.8-3.3-12.2-4.5-16 3" fill="#fff"/><path d="M170.7 124l1.3 1.3-1.3-1.3" fill="#212121"/><path d="M293.3 124l1.4 1.3-1.4-1.3" fill="#434343"/><path d="M397.3 124l1.4 1.3-1.4-1.3m-226.6 1.3l1.3 1.4-1.3-1.4" fill="#aaa"/><path d="M365.3 125.3l1.4 1.4-1.4-1.4" fill="#212121"/><path d="M117.3 126.7l1.4 1.3-1.4-1.3" fill="#434343"/><path d="M218.7 126.7l1.3 1.3-1.3-1.3" fill="#888"/><path d="M237.3 126.7l1.4 1.3-1.4-1.3" fill="#212121"/><path d="M108 128l1.3 1.3-1.3-1.3" fill="#929292"/><path d="M288 128l1.3 1.3-1.3-1.3" fill="#888"/><path d="M448 128l1.3 1.3-1.3-1.3" fill="#6c6c6c"/><path d="M105.3 130.7l1.4 1.3-1.4-1.3" fill="#929292"/><path d="M241.3 132c-.2 7-1.3 12.9 0 20 2.4 0 2 0 4-1.3a9.4 9.4 0 0 0-4-2.7c.7-3 1.4-5.3 2.7-8v4l5.3-1.3c-1.7-4.7-3.7-8-8-10.7" fill="#fff"/><path d="M376 132l1.3 1.3-1.3-1.3" fill="#212121"/><path d="M241.3 133.3l1.4 1.4-1.4-1.4" fill="#ccc"/><path d="M370.7 133.3l1.3 1.4-1.3-1.4" fill="#212121"/><path d="M108 134.7l1.3 1.3-1.3-1.3" fill="#656565"/><path d="M222.7 134.7l1.3 1.3-1.3-1.3" fill="#434343"/><path d="M450.7 134.7l1.3 1.3-1.3-1.3m-352 1.3l1.3 1.3-1.3-1.3" fill="#6c6c6c"/><path d="M553.3 137.3c-1.3 2.4-1.9 4.2-2.6 6.7 2.4.7 4 1.1 6.6 1.3-.5-3.8-1.3-5.3-4-8" fill="red"/><path d="M332 138.7l1.3 1.3-1.3-1.3" fill="#888"/><path d="M422.7 138.7l1.3 1.3-1.3-1.3" fill="#6c6c6c"/><path d="M457.3 138.7l1.4 1.3-1.4-1.3" fill="#929292"/><path d="M410.7 140l1.3 1.3-1.3-1.3" fill="#212121"/><path d="M261.3 142.7l1.4 1.3-1.4-1.3" fill="#aaa"/><path d="M356 142.7l1.3 1.3-1.3-1.3" fill="#212121"/><path d="M384 142.7l1.3 1.3-1.3-1.3" fill="#f0f"/><path d="M338.7 144c4.3 3.3 9.3 2.7 14.6 2.7h28c-4.3-3.3-9.3-2.7-14.6-2.7h-28" fill="#00f"/><path d="M458.7 144l1.3 1.3-1.3-1.3" fill="#232323"/><path d="M577.3 144l1.4 1.3-1.4-1.3m2.7 0l1.3 1.3-1.3-1.3" fill="#6c6c6c"/><path d="M388 146.7a68.8 68.8 0 0 0 26.7 26.6c2.6-6.6 6.6-12.8 8-20l-8 8c1.3-3.4 4-7.9 2.6-11.8-2.4-7.8-23.2-4.2-29.3-2.8m35.6-1c-.6.7.8.6.8.5.6-.6-.8-.5-.8-.4" fill="#fff"/><path d="M557.3 145.3l1.4 1.4-1.4-1.4" fill="#232323"/><path d="M577.3 145.3c.7 3.2.9 3.4 4 4a27 27 0 0 0-2.6 10.7c2.6.9 5 1.3 8 1.3-1.4-2.3-1.4-2-4-2.6 2.3-2.3 3.5-3.2 6.6-4v-4H584c-1.3-3.8-2.8-4.5-6.7-5.4m62.7 12l-8-2.6c1 6.2 11.1 8.7 10.5 1.3-.3-2.7-2.5-4.7-3.8-6.7 2.4 0 2 0 4-1.3-2.7-2-8.1-2.9-7 2.7.3 2.4 2.8 4.7 4.3 6.6" fill="red"/><path d="M80 146.7l1.3 1.3-1.3-1.3" fill="#6c6c6c"/><path d="M94.7 146.7L96 148l-1.3-1.3m146.6 0l1.4 1.3-1.4-1.3" fill="#aaa"/><path d="M250.7 146.7c.9 2 1 2.3 2.6 4-.9-1.9-1.3-2.5-2.6-4M264 148c-1.5 3.4-3.4 6.2-5.3 9.3 3.7 2 6.5 3.7 10.6 4 1.7 3 2 3.5 5.4 4 1.3 3 .9 2.8 4 2.7a38.3 38.3 0 0 0 22.6 17.3c4.6 9.4 15.3 15.6 22.7 22.7 4 4.1 7.5 8.3 13.3 9.3l1.4 1.4c.3 3.4.5 3.7 4 4l1.3 1.3c1.3 8 10.4 15 16 21 2.1 2.3 4.2 5.4 7 7 9.4 5.3 14.8-5.6 14.3-13.3 5.4-3.6 8-11 8-17.4 9.7-6.6-7.4-28-14.6-32-.6-3.3-1-3.7-4-5.3-1.4-9.3-11.5-17.1-18.7-22.7-5.5-4.7-10.2-11.6-17.3-13.9-6.7-2-14.7.6-21.4.6-16.4.2-32.9 0-49.3 0" fill="#fff"/><path d="M341.3 146.7l1.4 1.3-1.4-1.3" fill="#f0f"/><path d="M342.7 146.7c2 4 5.3 6.2 8.5 9.5 6.8 7 13.2 15.8 22.1 19.8 1.7 11.5 14.7 25 21.4 34.7 3.4-3.4 4.5-6 4-10.7 3.4-2.2 4-4 4-8 4-2.7 5.1-6 5.3-10.7 2.5-1.6 3-2.5 4-5.3a135.3 135.3 0 0 1-18-16.6c-3.6-4-6.4-8.7-11.3-11.4-4-2-9-1.3-13.4-1.3h-26.6" fill="#fff"/><path d="M494.7 162.7c-3.8-1.6-8-1.7-12-2.7 1.3-4.5 3.2-8.7 4-13.3-6.4 1.8-11.7 10.7-4.8 16 3.9 2.7 8.7 1.4 12.8 0" fill="#00f"/><path d="M278.7 148l1.3 1.3-1.3-1.3" fill="#434343"/><path d="M554.7 148v16h2.6v-16h-2.6m37.3 0c-1 5.3 1.1 10.4 6.7 6.7a18 18 0 0 0 9.3 4l-6.7-9.4-6.6 4c-.7-2.6-1-3.2-2.7-5.3" fill="red"/><path d="M586.2 149.8c-.6.6.8.5 1 .4.5-.6-.9-.5-1-.4" fill="#6c6c6c"/><path d="M597.3 149.3l1.4 1.4-1.4-1.4" fill="#929292"/><path d="M86.7 152l1.3 1.3-1.3-1.3" fill="#fff"/><path d="M221.3 152l1.4 1.3-1.4-1.3" fill="#888"/><path d="M348 152l1.3 1.3-1.3-1.3" fill="#656565"/><path d="M349.3 153.3l1.4 1.4-1.4-1.4" fill="#ccc"/><path d="M242.7 154.7l1.3 1.3-1.3-1.3"/><path d="M461.3 154.7l1.4 1.3-1.4-1.3" fill="#929292"/><path d="M216 156l1.3 1.3-1.3-1.3" fill="#434343"/><path d="M260 177.3c1.3 8.9 13.3 16.4 19.4 22.8 3.3 3.4 5.3 5.8 10 6.6 5.3 12.3 17.5 20.8 26.4 30.6 4 4.6 7.7 11.3 13.5 13.7 4 1.6 8.7.7 13 1 6.8.4 13.5 1 20.4 1.3-2.7-5-5.5-8.2-10.7-10.6-1.8-10.6-16.6-20.7-24-28-4-3.8-6.7-7.1-12-8-6.7-13.8-25.3-24.4-37.3-33.2-5.4-3.8-10.8-8.7-17.4-9.5-1.7-3.1-4.2-5.3-6.6-8-10.7 5.5-2.7 17.3 5.3 21.3" fill="#fff"/><path d="M78.7 157.3l1.3 1.4-1.3-1.4" fill="#929292"/><path d="M96 157.3l1.3 1.4-1.3-1.4" fill="#434343"/><path d="M244 157.3l1.3 1.4-1.3-1.4" fill="#f0f"/><path d="M256 158.7l1.3 1.3-1.3-1.3" fill="#434343"/><path d="M348 158.7l1.3 1.3-1.3-1.3" fill="#aaa"/><path d="M392 158.7l1.3 1.3-1.3-1.3" fill="#212121"/><path d="M398.7 158.7l1.3 1.3-1.3-1.3" fill="#ccc"/><path d="M586.7 158.7l1.3 1.3-1.3-1.3" fill="#b6b6b6"/><path d="M605.3 158.7l1.4 1.3-1.4-1.3" fill="#232323"/><path d="M170.7 160l1.3 1.3-1.3-1.3" fill="#ccc"/><path d="M170.7 161.3l1.3 1.4-1.3-1.4" fill="#434343"/><path d="M241.3 161.3l1.4 1.4-1.4-1.4" fill="#888"/><path d="M268 161.3l1.3 1.4-1.3-1.4" fill="#656565"/><path d="M401.3 161.3l1.4 1.4-1.4-1.4" fill="#aaa"/><path d="M261.3 162.7l1.4 1.3-1.4-1.3" fill="#ccc"/><path d="M244 164l1.3 1.3-1.3-1.3" fill="#f0f"/><path d="M555.6 164.4c-.6.6.8.6.8.5.6-.6-.8-.5-.8-.5" fill="#6c6c6c"/><path d="M46.7 165.3l1.3 1.4-1.3-1.4" fill="#232323"/><path d="M244 165.3c-1.3 14.7-8.5 29.8-15 42.7-3.8 7.6-8.5 14-9 22.7 10.7-12.5 17.3-31.2 22.7-46.7 2-6.2 5.6-13 1.3-18.7" fill="#00f"/><path d="M273.3 165.3l1.4 1.4-1.4-1.4" fill="#212121"/><path d="M405.3 165.3l1.4 1.4-1.4-1.4" fill="#aaa"/><path d="M50.7 188c-6.4-.7-10.7-3.8-16-6.7 1.8 5.1 5 8.4 10.6 9 2.3.4 6.3.4 6.7-2.7 1-5-6.3-7.3-7.2-11.6-.5-3.2 2.5-4.3 4.5-5.3 0-2.4 0-2-1.3-4-13.6 6.3-5 14 2.7 21.3" fill="#00f"/><path d="M242.7 166.7l1.3 1.3-1.3-1.3" fill="#aaa"/><path d="M461.3 166.7l1.4 1.3-1.4-1.3" fill="#484848"/><path d="M246.7 168l1.3 1.3-1.3-1.3" fill="#f0f"/><path d="M277.3 168l1.4 1.3-1.4-1.3" fill="#888"/><path d="M408 168l1.3 1.3-1.3-1.3" fill="#aaa"/><path d="M246.7 169.3c-1 13.4-12.3 25.4-12 38.7-4.7 3-6.7 8-6.7 13.3-4 2.5-5.3 4.8-5.3 9.4-2.9 2-3.3 3.2-4 6.6 11.5 3.3 28 10 40 6.7 3.8 4.4 14 4 19.7 4 14.8-.3 29.5 2.7 44.3 2.7a296.7 296.7 0 0 0-44-47c-6.7-5.8-12.1-13.3-20-17-1-6.7-6.7-13-12-17.4" fill="#fff"/><path d="M246.7 170.7l1.3 1.3-1.3-1.3m-136 1.3l1.3 1.3-1.3-1.3" fill="#888"/><path d="M276 173.3l1.3 1.4-1.3-1.4" fill="#434343"/><path d="M413.3 173.3l1.4 1.4-1.4-1.4" fill="#f0f"/><path d="M417.3 173.3l1.4 1.4-1.4-1.4" fill="#484848"/><path d="M245.3 174.7l1.4 1.3-1.4-1.3M372 176l1.3 1.3-1.3-1.3" fill="#656565"/><path d="M109.3 177.3l1.4 1.4-1.4-1.4" fill="#232323"/><path d="M258.7 177.3l1.3 1.4-1.3-1.4" fill="#888"/><path d="M412 177.3a109.4 109.4 0 0 0-16 36c7-4.6 10.7-17.8 14.3-25.3 1.7-3.7 3-6.7 1.7-10.7" fill="#00f"/><path d="M413.3 178.7l1.4 1.3-1.4-1.3" fill="#f0f"/><path d="M177.3 180l1.4 1.3-1.4-1.3m61.4 1.3l1.3 1.4-1.3-1.4" fill="#ccc"/><path d="M294.7 181.3l1.3 1.4-1.3-1.4" fill="#212121"/><path d="M408 181.3l1.3 1.4-1.3-1.4" fill="#888"/><path d="M52 182.7l1.3 1.3-1.3-1.3" fill="#6c6c6c"/><path d="M124 182.7l1.3 1.3-1.3-1.3" fill="#aaa"/><path d="M370.7 182.7l1.3 1.3-1.3-1.3" fill="#888"/><path d="M456 182.7l1.3 1.3-1.3-1.3" fill="#484848"/><path d="M412 184l1.3 1.3-1.3-1.3" fill="#6c6c6c"/><path d="M258.7 185.3l1.3 1.4-1.3-1.4" fill="#888"/><path d="M292 185.3l1.3 1.4-1.3-1.4" fill="#212121"/><path d="M300 185.3l1.3 1.4-1.3-1.4" fill="#888"/><path d="M46.7 186.7L48 188l-1.3-1.3" fill="#232323"/><path d="M266.7 186.7l1.3 1.3-1.3-1.3" fill="#656565"/><path d="M473.3 186.7c-.4 1.7-1 3.5-1 5.4-.4 11.2 9 8.5 17 7.9v-2.7H476v-10.6h-2.7" fill="red"/><path d="M261.3 188l1.4 1.3-1.4-1.3" fill="#656565"/><path d="M374.7 188l1.3 1.3-1.3-1.3" fill="#434343"/><path d="M173.3 189.3l1.4 1.4-1.4-1.4" fill="#ccc"/><path d="M269.3 189.3l1.4 1.4-1.4-1.4" fill="#888"/><path d="M428 189.3l1.3 1.4-1.3-1.4m-385.3 1.4L44 192l-1.3-1.3" fill="#929292"/><path d="M173.3 190.7l1.4 1.3-1.4-1.3m97.4 0l1.3 1.3-1.3-1.3" fill="#212121"/><path d="M298.7 190.7l1.3 1.3-1.3-1.3" fill="#656565"/><path d="M430.7 190.7l1.3 1.3-1.3-1.3" fill="#6c6c6c"/><path d="M470.7 190.7l1.3 1.3-1.3-1.3" fill="#929292"/><path d="M492 190.7v4h8l-1.3 5.3a9.4 9.4 0 0 1 2.6 4l-8 1.3c0 2.4 0 2 1.4 4 7.4-2 15.4-10.6 6-17-2.5-1.6-5.8-1.6-8.7-1.6" fill="red"/><path d="M501.3 190.7l1.4 1.3-1.4-1.3" fill="#232323"/><path d="M402.7 192l1.3 1.3-1.3-1.3" fill="#888"/><path d="M437.3 192l1.4 1.3-1.4-1.3m5.4 0l1.3 1.3-1.3-1.3" fill="#484848"/><path d="M494.7 194.7l1.3 1.3-1.3-1.3" fill="#929292"/><path d="M276 196l1.3 1.3-1.3-1.3" fill="#212121"/><path d="M488 196l1.3 1.3-1.3-1.3" fill="#232323"/><path d="M277.3 197.3l1.4 1.4-1.4-1.4" fill="#212121"/><path d="M278.7 198.7l1.3 1.3-1.3-1.3" fill="#888"/><path d="M398.7 200l1.3 1.3-1.3-1.3" fill="#212121"/><path d="M229.3 204l1.4 1.3-1.4-1.3" fill="#ccc"/><path d="M286.7 205.3l1.3 1.4-1.3-1.4" fill="#212121"/><path d="M316 205.3l1.3 1.4-1.3-1.4" fill="#ccc"/><path d="M228 206.7l1.3 1.3-1.3-1.3" fill="#656565"/><path d="M233.3 206.7l1.4 1.3-1.4-1.3" fill="#aaa"/><path d="M288 206.7l1.3 1.3-1.3-1.3" fill="#656565"/><path d="M332 213.3l1.3 1.4-1.3-1.4" fill="#212121"/><path d="M224 214.7l1.3 1.3-1.3-1.3" fill="#434343"/><path d="M334.7 216l1.3 1.3-1.3-1.3" fill="#212121"/><path d="M336 217.3l1.3 1.4-1.3-1.4" fill="#aaa"/><path d="M337.3 218.7l1.4 1.3-1.4-1.3" fill="#ccc"/><path d="M394.7 218.7l1.3 1.3-1.3-1.3" fill="#f0f"/><path d="M226.7 220l1.3 1.3-1.3-1.3" fill="#656565"/><path d="M394.7 220c-2 5-4.2 9.3-4 14.7-3.3 2.1-4.1 5.3-6.7 8 0 2.4 0 2 1.3 4-2 .9-1.8.4-1.3 2.6h-2.7c.3 2.2.7 2-1.3 2.7 3.7 9.9-1.6 13-10.7 16 1.3-2 1.4-1.6 1.4-4-4-2.6-6-3.9-5.4-6.7-11.5 0-23-2.6-34.6-2.6 7.7 11 17.7 21.4 28 30 4.5 3.9 8.7 7.9 14.6 8.6 7 11.5 38.3 17.5 41.4 0 6.6-4.3 6.3-14 5.2-21.3-2.7-19.3-15-34.6-22.6-52h-2.6" fill="#fff"/><path d="M340 221.3l1.3 1.4-1.3-1.4" fill="#434343"/><path d="M389.3 221.3l1.4 1.4-1.4-1.4" fill="#212121"/><path d="M341.3 222.7l1.4 1.3-1.4-1.3" fill="#434343"/><path d="M184 224c1.8 4.8 5.7 6.7 8.5 10.7 1.6 2.4 2.2 5.5 4.8 7 4.5 2.4 16.4-2.6 17.4-7l-5.4 1.3c-3.4-5.8-7.6-4-13.3-5.8-4.3-1.3-8-4.5-12-6.2" fill="#00f"/><path d="M342.7 224l1.3 1.3-1.3-1.3" fill="#434343"/><path d="M184 226.7l1.3 1.3-1.3-1.3" fill="#f0f"/><path d="M190.7 226.7l1.3 1.3-1.3-1.3m24 0l1.3 1.3-1.3-1.3" fill="#ccc"/><path d="M184 228c2.6 9.9 2 28.2 10.7 34.7 0 4 3.2 11.6 8.8 9 4.5-2 5.1-8.9 4.5-13 5-3.8 5.3-12.8 6.7-18.7-3.3-.8-4.5-1.2-6.7 1.3-5.3-.5-9.5.2-14.7-1.3 0-4.6-.6-7-5.3-8-1.3-2.7-1.3-2.7-4-4" fill="#fff"/><path d="M221.3 229.3l1.4 1.4-1.4-1.4" fill="#656565"/><path d="M180 230.7l1.3 1.3-1.3-1.3" fill="#929292"/><path d="M188 230.7l1.3 1.3-1.3-1.3" fill="#212121"/><path d="M219.1 231.6s-.1 1.4.5.8c0 0 .1-1.4-.5-.8m-4.4.4l1.3 1.3-1.3-1.3" fill="#f0f"/><path d="M389.3 233.3l1.4 1.4-1.4-1.4" fill="#ccc"/><path d="M200.4 235.6s-.1 1.4.5.8c0 0 .1-1.4-.5-.8" fill="#fff"/><path d="M218.7 237.3c5 7.4 18.4 7.7 26.6 9.4 25.4 5 52.7 6.6 78.7 6.6-7.5-5.6-21.6-3.3-30.7-4.3-11-1.4-22.2-1.3-33.3-2.9-14-2-27.5-6-41.3-8.8" fill="#00f"/><path d="M193.3 238.7l1.4 1.3-1.4-1.3" fill="#888"/><path d="M213.3 238.7l1.4 1.3-1.4-1.3m4 0l1.4 1.3-1.4-1.3" fill="#f0f"/><path d="M381.3 238.7l1.4 1.3-1.4-1.3" fill="#ccc"/><path d="M206.7 240l1.3 1.3-1.3-1.3" fill="#aaa"/><path d="M217.3 241.3l1.4 1.4-1.4-1.4" fill="#232323"/><path d="M352 241.3l1.3 1.4-1.3-1.4" fill="#434343"/><path d="M385.3 241.3l1.4 1.4-1.4-1.4" fill="#212121"/><path d="M226.7 242.7l1.3 1.3-1.3-1.3" fill="#484848"/><path d="M454.7 242.7l-4 14.6-6.7-2.6c-2.1 4.4-2.7 7.2-1.3 12 4.4-2.1 8-5.2 12-8 0 5.3-.3 10 5.3 12-3.3-9.2-2.7-18.4-2.7-28h-2.6M156 244c-2.7 9.3 1 11.3 9.3 13.3v2.7c-4.8.6-7.7-.5-12-2.7l-1.3 1.4c1.7 1.9 2.7 3.4 5.3 4.3 4.6 1.6 13.6-2 8.5-7.5-1.8-2-4.6-2-7.1-2.2V244H156" fill="#00f"/><path d="M257.3 244l1.4 1.3-1.4-1.3m126.7 1.3l1.3 1.4-1.3-1.4" fill="#212121"/><path d="M280 246.7l1.3 1.3-1.3-1.3m38.7 0l1.3 1.3-1.3-1.3m44 0l1.3 1.3-1.3-1.3" fill="#ccc"/><path d="M158.7 248l1.3 1.3-1.3-1.3" fill="#232323"/><path d="M382.7 248l1.3 1.3-1.3-1.3" fill="#212121"/><path d="M452 248l1.3 1.3-1.3-1.3" fill="#232323"/><path d="M358.7 249.3l1.3 1.4-1.3-1.4" fill="#434343"/><path d="M457.3 249.3V260c1.4-3.7 1.4-7 0-10.7" fill="#232323"/><path d="M210.7 250.7l1.3 1.3-1.3-1.3" fill="#212121"/><path d="M328 250.7l1.3 1.3-1.3-1.3" fill="#f0f"/><path d="M342.7 250.7l1.3 1.3-1.3-1.3" fill="#ccc"/><path d="M381.3 250.7l1.4 1.3-1.4-1.3" fill="#434343"/><path d="M285.3 252l1.4 1.3-1.4-1.3" fill="#929292"/><path d="M356 252l1.3 1.3-1.3-1.3" fill="#434343"/><path d="M313.3 253.3l1.4 1.4-1.4-1.4" fill="#232323"/><path d="M324 253.3l1.3 1.4-1.3-1.4" fill="#00f"/><path d="M360 257.3l1.3 1.4-1.3-1.4" fill="#ccc"/><path d="M208 258.7l1.3 1.3-1.3-1.3" fill="#656565"/><path d="M213.3 258.7l1.4 1.3-1.4-1.3" fill="#232323"/><path d="M364 258.7l1.3 1.3-1.3-1.3" fill="#434343"/><path d="M445.3 258.7l-1.3 2.6h2.7c0-2.4.4-1.8-1.4-2.6m-68 1.3v2.7c2.2-.8 2-.5 2.7-2.7h-2.7" fill="#fff"/><path d="M457.3 260l1.4 1.3-1.4-1.3" fill="#929292"/><path d="M153.3 262.7l1.4 1.3-1.4-1.3" fill="#232323"/><path d="M193.3 262.7l1.4 1.3-1.4-1.3" fill="#ccc"/><path d="M332 262.7l1.3 1.3-1.3-1.3m117.3 0l1.4 1.3-1.4-1.3" fill="#b6b6b6"/><path d="M158.7 264l1.3 1.3-1.3-1.3" fill="#6c6c6c"/><path d="M160.9 264.4c-.6.6.8.6.9.5.6-.6-.8-.5-1-.5" fill="#dbdbdb"/><path d="M162.7 264l1.3 1.3-1.3-1.3" fill="#6c6c6c"/><path d="M417.3 265.3l1.4 1.4-1.4-1.4m-48 1.4l1.4 1.3-1.4-1.3" fill="#212121"/><path d="M210.7 268l1.3 1.3-1.3-1.3m249.3 0l1.3 1.3-1.3-1.3" fill="#232323"/><path d="M208 273.3l1.3 1.4-1.3-1.4" fill="#484848"/><path d="M205.3 276l1.4 1.3-1.4-1.3m146.7 8l1.3 1.3-1.3-1.3" fill="#232323"/><path d="M186.7 285.3l1.3 1.4-1.3-1.4" fill="#6c6c6c"/><path d="M186.7 286.7c-.2 6.9-4.4 18.6-1.8 24.9 2.4 6 11.6 1.1 13.8-2.3-3.7.2-7.1.7-10.7 1.4 0-8 2.2-16 1.3-24h-2.6" fill="red"/><path d="M360 290.7l1.3 1.3-1.3-1.3" fill="#6c6c6c"/><path d="M372 293.3l1.3 1.4-1.3-1.4" fill="#888"/><path d="M414.7 293.3l1.3 1.4-1.3-1.4" fill="#656565"/><path d="M189.3 294.7l1.4 1.3-1.4-1.3" fill="#232323"/><path d="M388 301.3l1.3 1.4-1.3-1.4" fill="#434343"/><path d="M202.7 318.7c2.6-2.6 4-4.6 5.3-8l4 14.6c4-5.7.8-14.6 0-21.3-6.3 3-8.6 8-9.3 14.7" fill="red"/><path d="M212 305.3l1.3 1.4-1.3-1.4m172 0l1.3 1.4-1.3-1.4M196 308l1.3 1.3-1.3-1.3" fill="#232323"/><path d="M396.9 308.4c-.6.6.8.6.9.5.6-.6-.8-.5-1-.5" fill="#6c6c6c"/><path d="M398.7 308l1.3 1.3-1.3-1.3" fill="#232323"/><path d="M208 310.7l1.3 1.3-1.3-1.3" fill="#fff"/><path d="M208 312l1.3 1.3-1.3-1.3m-6.7 1.3l1.4 1.4-1.4-1.4" fill="#6c6c6c"/><path d="M213.3 313.3l1.4 1.4-1.4-1.4" fill="#232323"/><path d="M384 317.3c-1.3 3.8-3.1 9.4-1.7 13.4 2.2 6.1 10.9 4.3 13.7 0-3.3.1-6.2.5-9.3 1.3-1.4-5 0-10.5-2.7-14.7" fill="red"/><path d="M209.3 322.7l1.4 1.3-1.4-1.3" fill="#232323"/><path d="M405.3 322.7l1.4 1.3-1.4-1.3" fill="#6c6c6c"/><path d="M406.7 322.7l1.3 1.3-1.3-1.3" fill="#232323"/><path d="M405.3 324v5.3l5.4-1.3-4 8c5.2 1.5 10 2.3 13.3-2.7h-8c3.5-6.9.4-9-6.7-9.3" fill="red"/><path d="M413.3 324l1.4 1.3-1.4-1.3m-20 5.3l1.4 1.4-1.4-1.4" fill="#b6b6b6"/><path d="M414.7 332l1.3 1.3-1.3-1.3" fill="#232323"/><path d="M416 332l1.3 1.3-1.3-1.3m-10.7 1.3l1.4 1.4-1.4-1.4" fill="#929292"/></svg>