<svg xmlns="http://www.w3.org/2000/svg" height="172" width="284"><path d="M0 0v172h284V0H0" fill="#fff"/><path d="M202.7 10.7c5 2 10.6 1 16 1.4 14 1 36.3 4.9 43.5 18.6 4.3 8-1.4 16-7.6 20.8-12 9.6-28.2 13.4-42.6 17.4-39 11.1-78.8 13.9-118.7 7.2-17.8-2.8-36-6.7-52-15.1a60 60 0 0 1-8-4.9C22.7 48.2 25 40.7 36 34.7a126.6 126.6 0 0 1 40-12.8c21.7-3.6 44.7-6.8 66.7-5.8 14.2.6 28.4 3.7 42.6 5 17 1.6 32.8 1 49.4 5.6-2.1-6-7.7-6.3-13.4-7.2-12.5-2-25.9-1.3-38.6-2.2-10.3-1-20.4-3.1-30.7-3.8-32-2.2-66.7 1.2-97.3 9.7a146 146 0 0 0-17.4 6.2 53.8 53.8 0 0 0-8 4.3c-8.9 6.8-10 16.2-1.3 23.6a94 94 0 0 0 34.7 16.2c12.6 3.4 25.8 5.4 38.6 7.8-12 1.4-27 1.5-38.6-1.3-4 3.3-9.7 2.7-14.7 3.2-11.2 1.7-28 4.4-35 14.4-5.2 7.3.3 15.7 5.7 21A110.5 110.5 0 0 0 65.3 144c26.2 7 53.2 9 80 10.8 25.4 1.7 50.7 2.3 76-2.5 14.2-2.8 33-4.7 43.6-15.6 17-17.4-16.6-28.4-28.9-30 5.3 8.6 29.1 6.8 29.1 20.7 0 6.2-8.3 10.6-13.1 12.9-14.3 6.7-31.2 8.5-46.7 10.7-40.8 5.8-85 .5-125.3-7.5-21.8-4.4-45.7-12.8-60.7-30.2C11 104 17 97.7 26.7 93a98.4 98.4 0 0 1 42.6-7.7c48.8 0 95.8 6.2 144 13.4 18.6 2.6 36.5-.8 53.4 9.3 0-12-20.8-10.3-29.4-11.4-15.4-2-31.1-2.6-46.6-4.6-17.4-2.6-34.7-6.6-52-6.7 9.1-2.9 18.5-2.2 28-3.6 21.8-3 44.5-7.4 65.3-15 9.3-3.4 18.7-6.7 26.5-13 13.1-10.6 10.8-26-2.5-34.9a72.2 72.2 0 0 0-53.3-8.1" fill="#0ff"/><path d="M122.7 12l1.3 1.3-1.3-1.3m22.6 0l1.4 1.3-1.4-1.3" fill="#434343"/><path d="M216 12l1.3 1.3L216 12" fill="#656565"/><path d="M242.7 12l1.3 1.3-1.3-1.3" fill="#434343"/><path d="M101.3 13.3l1.4 1.4-1.4-1.4" fill="#ccc"/><path d="M164 13.3l1.3 1.4-1.3-1.4m18.7 2.7l1.3 1.3-1.3-1.3" fill="#aaa"/><path d="M238.7 16l1.3 1.3-1.3-1.3m-81.4 1.3l1.4 1.4-1.4-1.4" fill="#888"/><path d="M196 17.3l1.3 1.4-1.3-1.4" fill="#212121"/><path d="M81.3 21.3l1.4 1.4-1.4-1.4" fill="#aaa"/><path d="M185.3 21.3l1.4 1.4-1.4-1.4" fill="#212121"/><path d="M252 21.3l1.3 1.4-1.3-1.4" fill="#aaa"/><path d="M226.7 24l1.3 1.3-1.3-1.3" fill="#434343"/><path d="M265.3 26.7l1.4 1.3-1.4-1.3M50.7 28l1.3 1.3-1.3-1.3" fill="#aaa"/><path d="M24 36l1.3 1.3L24 36" fill="#434343"/><path d="M32 36l1.3 1.3L32 36" fill="#888"/><path d="M262.7 37.3l1.3 1.4-1.3-1.4" fill="#212121"/><path d="M221.3 50.7c1.4.5 2.7 1.3 4 1.6 1.4.3 2.7.7 4 .6 7.8-.9 2.4-9.8-3.3-7.2-2.1 1-3.4 3.2-4.7 5" fill="#00f"/><path d="M133.3 45.3l1.4 1.4-1.4-1.4" fill="#ccc"/><path d="M136 45.3l1.3 1.4-1.3-1.4m-89.3 1.4L48 48l-1.3-1.3" fill="#212121"/><path d="M129.3 56l5.4-4v6.7c1.6-.8 1.3-.7 2.6-2.7 3.7 7.7 14.5 20.2 22.7 22.7-4.8-8.5-12.3-13.7-18-21.3-2-2.6-1-6.3-3.3-8.6-5.4-6-10.3 2-9.4 7.2M44 57.3c1.9-.6 2.4-1 4-2.6.9 6.6 3.2 10.4 9.3 13.3-1.7-3.5-4.3-6.7-5.5-10.7-.6-2.1-.2-5.3-2-7-4.7-4-6.2 4.4-5.8 7" fill="#00f"/><path d="M50.7 48l1.3 1.3-1.3-1.3" fill="#aaa"/><path d="M136.4 50.2c0 .1-.1 1.5.5 1 0-.2.1-1.6-.5-1" fill="#fff"/><path d="M220 50.7a74 74 0 0 0-4 17.3l6.7-1.3L224 52l-1.3-1.3H220M132 52c-2.7 8.6-2.7 19-2.7 28h5.4c.4-9.7.7-18.3 0-28H132" fill="red"/><path d="M22.7 53.3l1.3 1.4-1.3-1.4" fill="#aaa"/><path d="M217.3 53.3l-20 17.4c6.7 2.1 21.4-10.3 20-17.4" fill="#00f"/><path d="M258.7 53.3l1.3 1.4-1.3-1.4" fill="#434343"/><path d="M24 54.7l1.3 1.3-1.3-1.3" fill="#888"/><path d="M46.7 54.7a15 15 0 0 0-1.4 9.3c2.7-3.3 3.7-5.6 1.4-9.3" fill="red"/><path d="M213.3 54.7l1.4 1.3-1.4-1.3" fill="#434343"/><path d="M136 56c.3 8.1-1.3 16-1.3 24H156c-2.3-5.9-6.9-13.3-13.3-14.7A27.8 27.8 0 0 0 136 56" fill="#fff"/><path d="M225.3 56c1.8 3.7 3.4 5.6 6.7 8l1.3-1.3c-2.3-3.7-4-5.4-8-6.7" fill="#00f"/><path d="M44 57.3l1.3 1.4-1.3-1.4m173.3 0l1.4 1.4-1.4-1.4" fill="#f0f"/><path d="M216 58.7l-12 10.6c2.7 1 3.5 1 5.3-1.3 2.7.5 4 .4 6.7 0 0-3.3 1-6.2 0-9.3" fill="#fff"/><path d="M238.7 58.7L240 60l-1.3-1.3" fill="#656565"/><path d="M214.7 60l1.3 1.3-1.3-1.3" fill="#ccc"/><path d="M248 60l1.3 1.3L248 60" fill="#aaa"/><path d="M48 61.3c.6 3.2.8 3.4 4 4-1.5-2-2-2.5-4-4" fill="#fff"/><path d="M136 61.3l1.3 1.4-1.3-1.4M36 62.7l1.3 1.3-1.3-1.3" fill="#888"/><path d="M46.7 62.7L48 64l-1.3-1.3" fill="#00f"/><path d="M142.7 64l1.3 1.3-1.3-1.3m72 0l1.3 1.3-1.3-1.3" fill="#888"/><path d="M233.3 65.3c3.2 8.2 9.4 14.4 14.5 21.4 3.6 5 6 10 12.2 12-5.4-10.7-16-27.8-26.7-33.4" fill="#00f"/><path d="M42.7 66.7L41.3 84h5.4c.2-6 1.3-11.4 0-17.3h-4" fill="red"/><path d="M57.3 66.7l1.4 1.3-1.4-1.3" fill="#aaa"/><path d="M206.7 66.7L208 68l-1.3-1.3" fill="#212121"/><path d="M256 98.7a12.6 12.6 0 0 0-5.3-5.4c-.5-4.9-2.3-7-6.7-9.3-.5-3.3-1.4-5.2-3.5-8-2-2.7-4.2-6.4-7.4-7.8-10.9-5-12.4 10.6-13.3 17.1-.4 2.9-1.6 7.2 1 9.4 2.5 2 7.1 1 10 1.3 8.5.6 16.8 1.9 25.2 2.7" fill="#fff"/><path d="M46.7 68l1.3 1.3-1.3-1.3" fill="#f0f"/><path d="M48 68l-1.3 16c4.5-1.3 8.6-1.3 13.3-1.3C58 75.3 55 71 48 68" fill="#fff"/><path d="M209.3 68l1.4 1.3-1.4-1.3" fill="#212121"/><path d="M66.7 69.3l1.3 1.4-1.3-1.4" fill="#ccc"/><path d="M148 69.3l1.3 1.4-1.3-1.4" fill="#656565"/><path d="M220 69.3l1.3 1.4-1.3-1.4M56 70.7c1.2 5 2.7 8.5 6.7 12-.8-5.4-2-9-6.7-12" fill="#00f"/><path d="M72 70.7l1.3 1.3-1.3-1.3" fill="#656565"/><path d="M213.3 94.7h5.4l2.6-24c-9.5 1.6-8 16.1-8 24" fill="red"/><path d="M77.3 72l1.4 1.3-1.4-1.3" fill="#aaa"/><path d="M128 72l1.3 1.3L128 72" fill="#212121"/><path d="M180 90.7c11.1.8 22.2 3.4 33.3 4-.1-7.6.8-15.2 1.4-22.7-14 3.3-25.5 6.7-34.7 18.7M60 73.3c4.5 11.1 18 8 28 8-2.7-3.7-5-3.7-9.3-2.6-4-4.5-13-4.9-18.7-5.4" fill="#fff"/><path d="M186.7 73.3l1.3 1.4-1.3-1.4" fill="#656565"/><path d="M208 73.3l1.3 1.4-1.3-1.4m5.3 0l1.4 1.4-1.4-1.4" fill="#434343"/><path d="M41.8 75.6c-.1 0-.2 1.4.4.8.1 0 .2-1.4-.4-.8" fill="#00f"/><path d="M93.3 74.7l1.4 1.3-1.4-1.3" fill="#212121"/><path d="M158.7 74.7L160 76l-1.3-1.3" fill="#888"/><path d="M221.3 74.7l1.4 1.3-1.4-1.3" fill="#b6b6b6"/><path d="M100 76l1.3 1.3L100 76" fill="#656565"/><path d="M169.3 76l1.4 1.3-1.4-1.3" fill="#434343"/><path d="M177.3 90.7A52.5 52.5 0 0 0 196 76c-8 2-15 7.1-18.7 14.7" fill="#00f"/><path d="M220 76v4c1-2 1-2 0-4M41.3 77.3l1.4 1.4-1.4-1.4" fill="#f0f"/><path d="M78.7 77.3l1.3 1.4-1.3-1.4" fill="#656565"/><path d="M108 77.3l1.3 1.4-1.3-1.4" fill="#212121"/><path d="M161.3 77.3l1.4 1.4-1.4-1.4" fill="#656565"/><path d="M165.3 81.3c4.5 9.1 13 9.4 17.4 0 3.5-.5 4.3-1.2 6.6-4-8 1.6-16 3.4-24 4" fill="#fff"/><path d="M88 78.7l1.3 1.3-1.3-1.3" fill="#212121"/><path d="M89.3 78.7c3.6 2.8 7.5 3.4 12 4-3.6-2.5-7.7-3-12-4" fill="#fff"/><path d="M121.3 78.7l1.4 1.3-1.4-1.3" fill="#656565"/><path d="M122.7 78.7L124 80l-1.3-1.3" fill="#212121"/><path d="M38.7 80l1.3 1.3-1.3-1.3" fill="#888"/><path d="M40 80v5.3c1-2.3 1-3 0-5.3" fill="#00f"/><path d="M65.3 80l1.4 1.3-1.4-1.3" fill="#656565"/><path d="M66.7 80l1.3 1.3-1.3-1.3" fill="#ccc"/><path d="M88 80l1.3 1.3L88 80" fill="#aaa"/><path d="M89.3 80l1.4 1.3-1.4-1.3" fill="#434343"/><path d="M248 80l1.3 1.3L248 80M50.7 81.3l1.3 1.4-1.3-1.4" fill="#656565"/><path d="M161.3 81.3c2 4 3.7 5.5 8 6.7-2.6-3.3-4.3-5-8-6.7" fill="#00f"/><path d="M182.7 81.3l1.3 1.4-1.3-1.4" fill="#ccc"/><path d="M190.7 81.3l1.3 1.4-1.3-1.4" fill="#434343"/><path d="M129.3 82.7c1.7.9 2.1 1 4 1.3-1.6-1-2-1-4-1.3" fill="#00f"/><path d="M144 84c6.2 3.3 14.4 3.5 21.3 4-5.5-6.7-13.4-5.9-21.3-4" fill="#fff"/><path d="M244 82.7l1.3 1.3-1.3-1.3" fill="#232323"/><path d="M138.7 84c1.6 1 2 1 4 1.3-1.7-.9-2.1-1-4-1.3" fill="#fff"/><path d="M142.7 84l1.3 1.3-1.3-1.3" fill="#ccc"/><path d="M30.7 85.3l1.3 1.4-1.3-1.4" fill="#656565"/><path d="M62.7 85.3c5.1 13.4 12.2 31.3 26.6 36.8 9.4 3.6 17.3-5 25.4 3.2 4-1.2 6.5-1 10.6 0 1.2-4 1.4-9.3-4.2-10-10.8-1.4-23 8-33.1 2a50.2 50.2 0 0 1-16.3-20c-2.5-4.8-3.7-10-9-12" fill="#00f"/><path d="M66.7 85.3l1.3 1.4-1.3-1.4" fill="#232323"/><path d="M66.7 86.7c4.7 7.5 7 16.3 12.9 24 2.8 3.6 4 5.9 8.4 5.3v2.7l2.7-1.4c3.8 4.4 9.6 1.4 14.6.2 4.7-.9 11.6-.6 15.6-3.3 6.3-4.4 6.5-20.5 7.1-27.5-19.4 0-42.7-5.6-61.3 0" fill="#fff"/><path d="M252 85.3l1.3 1.4-1.3-1.4" fill="#aaa"/><path d="M42.7 86.7L44 88l-1.3-1.3" fill="#00f"/><path d="M44 86.7l1.3 1.3-1.3-1.3" fill="#f0f"/><path d="M128 86.7c-1.3 10.2-4 20.3-4 30.6 8-5.3 7-20.6 9.3-29.3l-5.3-1.3" fill="red"/><path d="M132 86.7l1.3 1.3-1.3-1.3" fill="#00f"/><path d="M212 86.7l1.3 1.3-1.3-1.3" fill="#656565"/><path d="M246.7 86.7L248 88l-1.3-1.3" fill="#232323"/><path d="M38.7 88c-1.8 6.2-3.5 12.3-4 18.7 3.2-5.1 6-12.9 4-18.7" fill="#00f"/><path d="M40 88c-1.5 11-6.7 20.8-6.7 32 8-4.6 10-23.2 12-32H40" fill="red"/><path d="M45.3 88l1.4 1.3-1.4-1.3" fill="#434343"/><path d="M68 88l1.3 1.3L68 88" fill="#6c6c6c"/><path d="M134.7 88l1.3 1.3-1.3-1.3" fill="#ccc"/><path d="M173.3 88l1.4 1.3-1.4-1.3" fill="#656565"/><path d="M218.7 88l1.3 1.3-1.3-1.3" fill="#f0f"/><path d="M34.7 89.3l1.3 1.4-1.3-1.4" fill="#656565"/><path d="M193.3 90.7l1.4 1.3-1.4-1.3" fill="#aaa"/><path d="M36 92l1.3 1.3L36 92" fill="#656565"/><path d="M170.7 92a95.2 95.2 0 0 1-40 24l1.3 6.7c10.3-6.2 20.5-12.6 30.7-19 3.3-2 7.7-6.4 12-5.6 4.7 1 8.4 6.6 12 9.6 6.2 5.3 16.2 11 24 13.6-4.3-8-11.8-9.3-18.7-14.2-7.7-5.4-11.7-12.4-21.3-15.1" fill="#00f"/><path d="M202.7 92l1.3 1.3-1.3-1.3" fill="#888"/><path d="M250.7 92l1.3 1.3-1.3-1.3" fill="#484848"/><path d="M177.3 93.3c2.3 2.2 2.3 2.3 5.4 2.7 1 1.8.9 1.6 2.6 2.7-1 8.3 8.9 9.5 14.7 12.6 3.5 2 7.5 5 10.7 7.4 1.6-6.7.7-13.3 2.6-20a254.7 254.7 0 0 0-36-5.4" fill="#fff"/><path d="M166.7 94.7L168 96l-1.3-1.3" fill="#212121"/><path d="M188 94.7l1.3 1.3-1.3-1.3" fill="#ccc"/><path d="M226.7 94.7L228 96l-1.3-1.3" fill="#929292"/><path d="M181.3 96l1.4 1.3-1.4-1.3" fill="#888"/><path d="M246.7 96l1.3 1.3-1.3-1.3" fill="#6c6c6c"/><path d="M162.7 97.3l1.3 1.4-1.3-1.4" fill="#ccc"/><path d="M184 98.7l1.3 1.3-1.3-1.3" fill="#888"/><path d="M213.3 98.7c-1.8 8-2.1 16-2.6 24 7-4.3 6.3-16.5 6.6-24h-4" fill="red"/><path d="M260 98.7l1.3 1.3-1.3-1.3" fill="#00f"/><path d="M14.7 100l1.3 1.3-1.3-1.3m220 0l1.3 1.3-1.3-1.3" fill="#656565"/><path d="M236 100l1.3 1.3-1.3-1.3" fill="#aaa"/><path d="M41.3 101.3l1.4 1.4-1.4-1.4" fill="#ccc"/><path d="M210.7 102.7v4c.9-2.1.9-2 0-4" fill="#212121"/><path d="M152 104l1.3 1.3-1.3-1.3" fill="#656565"/><path d="M261.3 104l1.4 1.3-1.4-1.3" fill="#00f"/><path d="M9.3 105.3l1.4 1.4-1.4-1.4" fill="#656565"/><path d="M216 105.3l1.3 1.4-1.3-1.4" fill="#f0f"/><path d="M262.7 105.3l1.3 1.4-1.3-1.4" fill="#00f"/><path d="M268 105.3l1.3 1.4-1.3-1.4" fill="#aaa"/><path d="M124 106.7l1.3 1.3-1.3-1.3" fill="#f0f"/><path d="M210.7 106.7l1.3 1.3-1.3-1.3" fill="#656565"/><path d="M264 106.7l1.3 1.3-1.3-1.3M33.3 108c-1.3 2-1.3 1.6-1.3 4 1.7-2 1.9-1.6 1.3-4m-14.6 2.7c1.3 4.7 3.3 6.3 8 8 1.3-7-1-9.4-8-8" fill="#00f"/><path d="M234.7 109.3l1.3 1.4-1.3-1.4" fill="#656565"/><path d="M189.3 110.7l1.4 1.3-1.4-1.3" fill="#434343"/><path d="M237.3 110.7l1.4 1.3-1.4-1.3" fill="#212121"/><path d="M12 112l1.3 1.3L12 112" fill="#434343"/><path d="M123.1 112.9s-.1 1.5.5.9c0-.1.1-1.5-.5-1" fill="#f0f"/><path d="M245.3 112l1.4 1.3-1.4-1.3" fill="#888"/><path d="M257.3 112l1.4 1.3-1.4-1.3" fill="#656565"/><path d="M22.7 113.3l1.3 1.4-1.3-1.4" fill="#fff"/><path d="M214.7 117.3c.7 1 1.3 2.2 2.5 2.9 8.4 5.9 9.8-9 .7-5.5-1.3.3-2.4 1.8-3.2 2.6m57.3-4c-9 5 2.4 10.4 0 0" fill="#00f"/><path d="M116 114.7l1.3 1.3-1.3-1.3" fill="#929292"/><path d="M210.7 114.7l1.3 1.3-1.3-1.3" fill="#656565"/><path d="M225.3 114.7l1.4 1.3-1.4-1.3" fill="#ccc"/><path d="M86.7 116l1.3 1.3-1.3-1.3" fill="#6c6c6c"/><path d="M108 116l1.3 1.3-1.3-1.3" fill="#232323"/><path d="M141.3 116l1.4 1.3-1.4-1.3" fill="#ccc"/><path d="M208 116l1.3 1.3-1.3-1.3" fill="#434343"/><path d="M89.3 117.3l1.4 1.4-1.4-1.4" fill="#b6b6b6"/><path d="M100 117.3l1.3 1.4-1.3-1.4" fill="#484848"/><path d="M257.3 117.3l1.4 1.4-1.4-1.4" fill="#212121"/><path d="M214.7 118.7l1.3 1.3-1.3-1.3" fill="#f0f"/><path d="M36 120l1.3 1.3L36 120" fill="#888"/><path d="M104 120l1.3 1.3-1.3-1.3" fill="#fff"/><path d="M104 121.3l1.3 1.4-1.3-1.4" fill="#212121"/><path d="M109.3 121.3l1.4 1.4-1.4-1.4" fill="#ccc"/><path d="M213.3 121.3l1.4 1.4-1.4-1.4m-1.3 1.4l1.3 1.3-1.3-1.3" fill="#00f"/><path d="M33.3 124l1.4 1.3-1.4-1.3" fill="#aaa"/><path d="M264 124l1.3 1.3-1.3-1.3" fill="#434343"/><path d="M122.7 125.3l1.3 1.4-1.3-1.4" fill="#ccc"/><path d="M46.7 132l1.3 1.3-1.3-1.3" fill="#212121"/><path d="M38.7 133.3l1.3 1.4-1.3-1.4" fill="#434343"/><path d="M265.3 136l1.4 1.3-1.4-1.3" fill="#888"/><path d="M260 140l1.3 1.3-1.3-1.3" fill="#434343"/><path d="M256 142.7l1.3 1.3-1.3-1.3" fill="#212121"/><path d="M232 145.3l1.3 1.4-1.3-1.4" fill="#888"/><path d="M108 146.7l1.3 1.3-1.3-1.3" fill="#434343"/><path d="M222.7 146.7l1.3 1.3-1.3-1.3" fill="#656565"/><path d="M82.7 148l1.3 1.3-1.3-1.3" fill="#434343"/><path d="M118.7 148l1.3 1.3-1.3-1.3" fill="#ccc"/><path d="M216 148l1.3 1.3-1.3-1.3" fill="#888"/><path d="M89.3 149.3l1.4 1.4-1.4-1.4" fill="#ccc"/><path d="M236 149.3l1.3 1.4-1.3-1.4" fill="#656565"/><path d="M134.7 154.7l1.3 1.3-1.3-1.3" fill="#212121"/><path d="M162.2 156.4c-.6.6.8.6 1 .5.5-.6-.9-.5-1-.5m24.5-.4l1.3 1.3-1.3-1.3" fill="#434343"/></svg>