<svg xmlns="http://www.w3.org/2000/svg" height="370.7" width="317.3"><path d="M0 0v370.7h317.3V0H0" fill="#fff"/><path d="M245.3 4c-1.3 7.2 0 22.8 8 25.3 3.2-7.3 8.8-12.9 12-20-7.2 2.1-10.6 8-13.3 14.7-2.7-6.5-2.4-13.2-4-20h-2.7" fill="#ff0"/><path d="M248 4l1.3 1.3L248 4" fill="#434343"/><path d="M261.3 8l1.4 1.3-1.4-1.3" fill="#212121"/><path d="M249.3 9.3l1.4 1.4-1.4-1.4" fill="#aaa"/><path d="M265.3 10.7l1.4 1.3-1.4-1.3" fill="#656565"/><path d="M258.7 18.7L260 20l-1.3-1.3" fill="#212121"/><path d="M52 20c-3.7 12.4 1.2 26.7 4 38.7 7.1-2.3 7-9.7 9-16 1.7-5.4 4.6-10.3 5.7-16-8.2 4.6-10 16.7-12 25.3-3.6-9.3-1.4-24-6.7-32" fill="#ff0"/><path d="M245.3 20l1.4 1.3-1.4-1.3" fill="#888"/><path d="M262.7 25.3c2.4 0 2 0 4 1.4a26.3 26.3 0 0 0-5.4 10.6h17.4v-2.6h-12c1.1-2.7 2.6-6 2.1-9-1-4.4-4.4-2.7-6.1-.4" fill="#ff0"/><path d="M268 21.3l1.3 1.4-1.3-1.4" fill="#212121"/><path d="M49.3 29.3l1.4 1.4-1.4-1.4" fill="#ccc"/><path d="M49.3 30.7l1.4 1.3-1.4-1.3" fill="#656565"/><path d="M261.3 37.3l1.4 1.4-1.4-1.4" fill="#888"/><path d="M277.3 37.3l1.4 1.4-1.4-1.4" fill="#ccc"/><path d="M77.3 41.3l1.4 1.4-1.4-1.4" fill="#aaa"/><path d="M68 56c3.2-1.8 5.3-4 8-6.7-1.7 5.7-2.8 12.5 2.7 16V42.7C72 44.6 69.3 49.5 68 56" fill="#ff0"/><path d="M244 48l1.3 1.3L244 48" fill="#212121"/><path d="M74.2 49.8c-.6.6.8.5 1 .4.5-.6-.9-.5-1-.4" fill="#fff"/><path d="M189.3 157.3h5.4c.5-25 12-51.2 23-73.3 5-10 10.3-20.4 19.6-27 6.2-4.2 11.8-3.7 18.7-5-12-9-27 5.3-33.3 14.7a234 234 0 0 0-27.5 65.3c-2.3 8.4-3.2 17-5.9 25.3" fill="#ff0"/><path d="M73.3 50.7l1.4 1.3-1.4-1.3" fill="#434343"/><path d="M53.3 52l1.4 1.3-1.4-1.3" fill="#656565"/><path d="M258.7 53.3c5.3 11.2 17 17.4 22 29.4 7.3 18 11.2 37 15 56 9.6 47.6 11.3 96 3.3 144a112.5 112.5 0 0 1-27.1 60c-5.6 6-13.3 14.2-22.6 12.1-15.5-3.5-27.2-23.6-34.9-36.1-19.1-31.3-26-67.7-25.5-104 .2-10.6 1-21.4 2.1-32 .9-7.6 2.9-16.7 1-24-4 5.4-3 13.4-3.8 20-2.2 19-1.9 38.2-2.9 57.3 4 0 1.2 5.8 1.4 9.3.3 8.5 3.2 17.4 4.4 25.4 4 26.6 19.1 53.4 36.7 73.3 8 9.3 20.6 19.4 33.5 13.1 21.3-10.3 33.1-38.4 38.5-59.8a308 308 0 0 0 6.9-45.3c.8-8.4-.8-17 0-25.3 3.1-32.6-3-65.4-9.1-97.4-4-19.9-8.6-41-18.7-58.6-4.2-7.2-11.7-16.5-20.2-17.4" fill="#ff0"/><path d="M61.3 54.7l1.4 1.3-1.4-1.3" fill="#ccc"/><path d="M229.3 56l1.4 1.3-1.4-1.3" fill="#212121"/><path d="M73.3 57.3l1.4 1.4-1.4-1.4" fill="#aaa"/><path d="M269.3 58.7l1.4 1.3-1.4-1.3" fill="#434343"/><path d="M270.7 60l1.3 1.3-1.3-1.3m-1.4 5.3l1.4 1.4-1.4-1.4m-44 4l1.4 1.4-1.4-1.4" fill="#ccc"/><path d="M221.3 76l1.4 1.3-1.4-1.3" fill="#212121"/><path d="M220 78.7l1.3 1.3-1.3-1.3" fill="#888"/><path d="M280 84l1.3 1.3L280 84m6.7 2.7L288 88l-1.3-1.3" fill="#aaa"/><path d="M129.3 218.7h-4c0 18.9-1.8 37.3-4.3 56-2.5 18.3-4.3 40.9-16.2 56-9.2 11.7-24.1 16.7-36.8 7-4.2-3-8-7-11.1-11-5-6.3-9.5-13-13.3-20-25.3-45.8-29.1-101.4-18.8-152 7.2-35.7 31.8-64 69.9-64-7-5.3-17.7-2.1-25.4.4-24.5 8.3-38.6 29-45.7 52.9-4.7 15.6-5.6 32-6.3 48-1.8 40.2 2.7 78.3 21.7 114.7A141 141 0 0 0 54 329.3c3.7 4.7 7.9 9.1 12.8 12.5a25 25 0 0 0 14.6 4.9c33 .8 38.1-39.5 41.8-64 3-21 6.2-42.7 6.2-64" fill="#ff0"/><path d="M62.7 92l1.3 1.3-1.3-1.3" fill="#656565"/><path d="M93.3 93.3c2.1 10.4 12.8 15.3 18 24a93 93 0 0 1 9.5 25.4c1.2 4.5 1 10.2 4.5 13.3-.7 2.2-2.6 6.7-1.3 9.3.3.6 2.3.6 2.7 2.7.4 2.4-2.3.1-2.7 0 2.7 11 2.7 22 2.7 33.3 5.8-7.6 2.6-24 1.7-33.3-3.6-29.3-9.1-56.4-35-74.7" fill="#ff0"/><path d="M98.7 97.3l1.3 1.4-1.3-1.4" fill="#aaa"/><path d="M100 98.7l1.3 1.3-1.3-1.3" fill="#212121"/><path d="M206.7 108l1.3 1.3-1.3-1.3" fill="#aaa"/><path d="M108 113.3l1.3 1.4-1.3-1.4m96 2.7l1.3 1.3-1.3-1.3" fill="#434343"/><path d="M38.7 118.7L40 120l-1.3-1.3" fill="#aaa"/><path d="M112 120l1.3 1.3-1.3-1.3" fill="#ccc"/><path d="M292 126.7l1.3 1.3-1.3-1.3m-97.3 1.3l1.3 1.3-1.3-1.3" fill="#434343"/><path d="M26.7 132l1.3 1.3-1.3-1.3" fill="#ccc"/><path d="M198.7 133.3l1.3 1.4-1.3-1.4m72 0l1.3 1.4-1.3-1.4" fill="#aaa"/><path d="M268 134.7c-.7 3.5-1.3 7-1.3 10.6-2.7-1-6-3-8.6-1.2-3.6 2.6-2.8 12.5 1.9 13.3 3.1.6 5.9-2.4 8-4 0 4 .9 7 2.7 10.6 3-7.7 0-20.8 0-29.3H268" fill="red"/><path d="M124 138.7l1.3 1.3-1.3-1.3m133.3 2.6l1.4 1.4-1.4-1.4" fill="#656565"/><path d="M256 142.7l1.3 1.3-1.3-1.3" fill="#212121"/><path d="M125.3 144l1.4 1.3-1.4-1.3m-98.6 1.3l1.3 1.4-1.3-1.4m164 0l1.3 1.4-1.3-1.4" fill="#ccc"/><path d="M21.3 146.7l1.4 1.3-1.4-1.3" fill="#434343"/><path d="M258.7 146.7c0 3 .4 5.3 1.3 8 2.7-2.7 3-4 2.7-8h-4" fill="#fff"/><path d="M46.7 149.3c-2.7 5.4-3 9.4-1.4 14.7 2.4-1.3 3.5-2 5.4-4 2.3 1.8 4 2.8 6.6 4-2.2-6.3-4.2-12-10.6-14.7" fill="#00f"/><path d="M88 150.7l1.3 1.3-1.3-1.3" fill="#212121"/><path d="M220 161.3c0-1.2 0-3-.2-4-2.1-9.6-11-3-4.6 2.7 1.3 1.3 3.2 1 4.8 1.3" fill="red"/><path d="M25.3 152l1.4 1.3-1.4-1.3" fill="#ccc"/><path d="M88 153.3c-6.7 1.7-4.4 12 2.4 9.8 5.6-1.8 4-11.6-2.4-9.8" fill="#00f"/><path d="M210.7 152l1.3 1.3-1.3-1.3" fill="#aaa"/><path d="M48 153.3l-1.3 5.4c1.7-2.3 2-2.7 1.3-5.4" fill="#fff"/><path d="M110.7 153.3l1.3 1.4-1.3-1.4" fill="#434343"/><path d="M96 161.3c9.8 2 19.5 5.4 29.3 6.7-4-6.7-14-7.7-21.3-8v-2.7c6.7.6 13.2 1.4 20 1.4V156c-8.7-.7-24.6-5.3-28 5.3"/><path d="M189.3 154.7l1.4 1.3-1.4-1.3" fill="#ccc"/><path d="M124.4 156.9s-.1 1.5.5.9c0-.1.1-1.5-.5-1" fill="red"/><path d="M126.7 156c3.4 5 10.3 4.3 16 5 15.9 1.8 32-1 48-1-3.8-5.8-10-3-16-2.7-7.6.3-15.2 1.6-22.7 1.4-8.5-.4-16.8-2.5-25.3-2.7"/><path d="M142.7 156l1.3 1.3-1.3-1.3" fill="#ccc"/><path d="M166.7 156l1.3 1.3-1.3-1.3" fill="#888"/><path d="M206.7 156l1.3 1.3-1.3-1.3" fill="#212121"/><path d="M104 157.3v2.7c6.7.6 13.2 3 20 4v-5.3l-20-1.4" fill="#fff"/><path d="M190.7 157.3c.7 2.2.5 2 2.6 2.7v-2.7h-2.6" fill="red"/><path d="M193.3 157.3v2.7h13.4v-2.7h-13.4"/><path d="M24 158.7l1.3 1.3-1.3-1.3" fill="#ccc"/><path d="M128 158.7v8c7 1.6 14.2 5.4 21.3 5.3 3.4 5.3 10 8 16 8 1.3 6.3 9.6-.2 12-2.7l1.4 1.4V176c3 0 3.5 0 5.3-2.7 6.4-1.3 5.3-7.8 5.3-13.3-20.5 0-41 3.7-61.3-1.3" fill="#fff"/><path d="M137.3 160l1.4 1.3-1.4-1.3" fill="#888"/><path d="M176 160l1.3 1.3-1.3-1.3" fill="#656565"/><path d="M193.3 160l1.4 1.3-1.4-1.3" fill="#fff"/><path d="M194.7 160c3.5 1.5 6.6 1.3 10.6 1.3-3.5-1.3-6.9-1.3-10.6-1.3" fill="#212121"/><path d="M162.7 161.3l1.3 1.4-1.3-1.4" fill="#aaa"/><path d="M193.3 161.3l1.4 1.4-1.4-1.4" fill="#888"/><path d="M52 162.7l1.3 1.3-1.3-1.3" fill="#434343"/><path d="M84 162.7l1.3 1.3-1.3-1.3" fill="#ccc"/><path d="M128 164l1.3 1.3-1.3-1.3" fill="#aaa"/><path d="M125.3 165.3v4c1-2 1-1.9 0-4" fill="red"/><path d="M118.7 166.7l1.3 1.3-1.3-1.3" fill="#aaa"/><path d="M128 166.7c3.2 5.3 9.1 5.9 14.7 8 6.4 2.6 11.9 6.3 18.6 8-8.7 9.3-23.4 9.3-32 18.6 9.1.1 18.4-6.2 26.7-9.6 3.2-1 7.1-3.6 10.7-2.8 7.4 1.8 12.5 11.1 20 13.8-2.5-7.5-10.7-11.8-14.7-18.7 6.4-1.8 13.8-3.8 16-10.7-6.4 2.7-14.2 8.6-21.3 8-5-.4-10.3-4-14.7-6.3-7.7-3.9-15.4-7-24-8.3m64 8c5-1.2 9.1-2.4 12-6.7-5.5.6-9.3 1.8-12 6.7"/><path d="M128 169.3l1.3 1.4-1.3-1.4" fill="red"/><path d="M129.3 170.7l1.4 1.3-1.4-1.3" fill="#aaa"/><path d="M130.7 170.7c-2.7 8.7-1.4 18.8-1.4 28 3.2-.9 4.7-1.4 6.7-4 8 0 21-5.1 25.3-12-10.6-3.7-19.6-9.4-30.6-12" fill="#fff"/><path d="M192 170.7l1.3 1.3-1.3-1.3" fill="red"/><path d="M148 172l1.3 1.3-1.3-1.3" fill="#656565"/><path d="M191.1 172.9s-.1 1.5.5.9c0-.1.1-1.5-.5-1" fill="red"/><path d="M184 173.3l1.3 1.4-1.3-1.4" fill="#ccc"/><path d="M188 173.3v4c1-2 1-1.9 0-4" fill="red"/><path d="M305.3 173.3l1.4 1.4-1.4-1.4" fill="#aaa"/><path d="M178.7 176l1.3 1.3-1.3-1.3m-2.7 1.3l1.3 1.4-1.3-1.4" fill="#434343"/><path d="M186.7 177.3c-4.8 2.7-9.7 4.7-14.7 6.7a26 26 0 0 0 14.7 14.7c0-6.7 2.5-15.2 0-21.4" fill="#fff"/><path d="M164 180l1.3 1.3-1.3-1.3" fill="#aaa"/><path d="M16 181.3l1.3 1.4-1.3-1.4" fill="#656565"/><path d="M161.3 184l1.4 1.3-1.4-1.3" fill="#fff"/><path d="M301.3 185.3l1.4 1.4-1.4-1.4" fill="#888"/><path d="M156 193.3c-4.2-.3-7.2.3-9.3 4-11.7-.2-17.4 6.4-17.4 17.4 14.6 1.3 28.5-.5 43 0 5.8 0 14.7.5 14-8-.5-7.4-13.5-14.6-18.3-20-4.6 1.3-9.1 2.7-12 6.6" fill="#fff"/><path d="M169.3 189.3l1.4 1.4-1.4-1.4" fill="#434343"/><path d="M306.7 190.7l1.3 1.3-1.3-1.3" fill="#656565"/><path d="M154.7 192l1.3 1.3-1.3-1.3" fill="#ccc"/><path d="M150.7 193.3l1.3 1.4-1.3-1.4" fill="#aaa"/><path d="M136 194.7l1.3 1.3-1.3-1.3m9.3 1.3l1.4 1.3-1.4-1.3" fill="#656565"/><path d="M20 198.7l1.3 1.3-1.3-1.3" fill="#ccc"/><path d="M50.7 198.7L52 200l-1.3-1.3" fill="#656565"/><path d="M129.3 198.7l1.4 1.3-1.4-1.3m57.4 0v5.3c1-2.3 1-3 0-5.3" fill="red"/><path d="M20 200v4c1-2 1-2 0-4" fill="#656565"/><path d="M49.3 200c-.9 5.3-1 13.6 1.2 18.7 1 2.3 3.5 5.3 6.5 4.3s3-5.5.9-7.4c-1.9-1.7-3.8-1-5.9-1V200h-2.7" fill="#00f"/><path d="M128 200l-2.7 5.3c2.2-1.2 3.6-2.3 5.4-4L128 200" fill="red"/><path d="M121.3 201.3l1.4 1.4-1.4-1.4" fill="#656565"/><path d="M106.7 213.3c7.6-1.3 16.3-4.9 20-12-7.2 2-16.3 5.4-20 12m82.6-12c3.7 7.5 13.4 12.8 21.4 14.7-4.3-7.3-13.6-11.8-21.4-14.7"/><path d="M128 202.7l-2.7 12c5.4-1.2 4-7.3 5.4-12H128" fill="#ff0"/><path d="M130.7 202.7l1.3 1.3-1.3-1.3" fill="#ccc"/><path d="M194.7 202.7l1.3 1.3-1.3-1.3" fill="#656565"/><path d="M20 204l1.3 1.3L20 204" fill="#212121"/><path d="M189.3 204l1.4 1.3-1.4-1.3" fill="red"/><path d="M110.7 206.7l1.3 1.3-1.3-1.3" fill="#aaa"/><path d="M108 208l1.3 1.3-1.3-1.3" fill="#ccc"/><path d="M189.3 208l1.4 1.3-1.4-1.3" fill="#aaa"/><path d="M204 208l1.3 1.3-1.3-1.3" fill="#888"/><path d="M268 226.7a33 33 0 0 0-9.3-1.4c1.6-3 4.5-6.9 4.4-10.5-.2-4.7-4.8-4.6-6.9-1.2-5.3 8.6 2.9 19.1 11.8 13" fill="red"/><path d="M113.3 210.7l1.4 1.3-1.4-1.3" fill="#656565"/><path d="M56 212l1.3 1.3L56 212" fill="#212121"/><path d="M168 213.3l1.3 1.4-1.3-1.4" fill="#434343"/><path d="M184 213.3l1.3 4c1-1.6 1-2 1.4-4H184m4 0v4c1-2 1-1.9 0-4" fill="red"/><path d="M189.3 213.3c1.4 4.3 3.7 4.9 8 5.4-2.1-3.2-4.4-4-8-5.4"/><path d="M84 214.7l1.3 1.3-1.3-1.3" fill="#434343"/><path d="M87.4 216.2c-3.8 2.5-.7 11.5 3.8 8.9 3.8-2.3.4-11.4-3.8-8.9" fill="#00f"/><path d="M125.3 218.7c3-1 3.6-1.4 5.4-4-3.7.2-4.6.4-5.4 4" fill="red"/><path d="M129.3 218.7l56-1.4v-2.6c-13.8 0-27.5.7-41.3 1.3-5.6 0-11.2-2.6-14.7 2.7"/><path d="M144 214.7l1.3 1.3-1.3-1.3" fill="#aaa"/><path d="M149.3 214.7l1.4 1.3-1.4-1.3" fill="#656565"/><path d="M196 214.7l1.3 1.3-1.3-1.3" fill="#aaa"/><path d="M220 226.7c0-4-.4-8-1.3-12-6.7 3.6-5.8 9.8 1.3 12" fill="red"/><path d="M20 216v4c1-2 1-2 0-4" fill="#434343"/><path d="M100 220l25.3-1.3V216c-7.4 0-20.6-2.7-25.3 4"/><path d="M53.3 218.7a9.4 9.4 0 0 0 4 2.6v-4c-2.4 0-2 0-4 1.4" fill="#fff"/><path d="M60 217.3l1.3 1.4-1.3-1.4" fill="#aaa"/><path d="M129.3 218.7c0 6.4-3.5 16.4 0 22.2 2 3.4 7.2 4.7 10.7 6 13 4.2 19.9 1.1 32-4.2 4-2 9.7-3.5 12.4-7.2 3-4.2 1-13.2 1-18.2l-56 1.4" fill="#fff"/><path d="M189.3 217.3l1.4 1.4-1.4-1.4" fill="#888"/><path d="M20 220l1.3 1.3L20 220" fill="#aaa"/><path d="M102.7 222.7c2.6 7.7 14.6 14.1 21.3 18.6l1.3-1.3-9.3-12c-3.7-.8-5.5-2.5-8-5.3h-5.3"/><path d="M124 222.7l1.3 1.3-1.3-1.3" fill="#888"/><path d="M206.7 222.7l1.3 1.3-1.3-1.3" fill="#656565"/><path d="M189.3 232v5.3c6-2.2 11-6.9 17.4-8l1.3-5.3c-7 1.4-12 6.8-18.7 8"/><path d="M253.3 224l1.4 1.3-1.4-1.3" fill="#656565"/><path d="M200 225.3l1.3 1.4-1.3-1.4" fill="#ccc"/><path d="M196 228l1.3 1.3-1.3-1.3m-180 5.3l1.3 1.4-1.3-1.4" fill="#888"/><path d="M186.7 234.7l-1.4 5.3c1.8-2.2 2.1-2.7 1.4-5.3" fill="red"/><path d="M128 241.3c2.4 7.7 11.6 9 18.7 10.7-7.3 4.2-16 6.9-21.4 13.3 9.1-1.5 16.5-7.8 25.4-9.7 9.3-2 21.8 4.4 28 11l12 1.4c-2.4-3.8-5.5-4.3-9.4-6.3-8-4.1-13.4-8.3-22.6-8.4 8.4-5.9 23-8 28-17.3-11.2 3.2-23 13.3-34.7 13.5-8 .2-17-4.9-24-8.2"/><path d="M124 237.3l1.3 1.4-1.3-1.4m.4 3.6s-.1 1.5.5.9c0-.1.1-1.5-.5-1m2.3-.8v5.3c1-2.3 1-3 0-5.3" fill="red"/><path d="M169.3 249.3c-4.3-.5-6.8.6-10.6 2.7 2.6 1.1 5.6 1 8.3 2.3 7.9 3.3 13.5 8.9 22.3 9.7-.3-8-3-16-2.6-24a28 28 0 0 0-16 8l-1.4-1.3v2.6" fill="#fff"/><path d="M132 242.7l1.3 1.3-1.3-1.3" fill="#ccc"/><path d="M185.3 244l1.4 1.3-1.4-1.3" fill="#434343"/><path d="M22.7 245.3l1.3 1.4-1.3-1.4" fill="#aaa"/><path d="M128 245.3c-1.3 5.8-1.3 11.5-1.3 17.4 4-1.7 7-3 9.3-6.7 4 0 7-1.2 10.7-2.7-5.4-4-12.5-5.6-18.7-8" fill="#fff"/><path d="M190.7 245.3l1.3 1.4-1.3-1.4" fill="#888"/><path d="M170.7 246.7l1.3 1.3-1.3-1.3M168 248l1.3 1.3-1.3-1.3" fill="#434343"/><path d="M301.3 249.3l1.4 1.4-1.4-1.4" fill="#656565"/><path d="M265.3 278.7c-2.6.2-4.2.6-6.6 1.3 2.6 1.8 3.4 1.7 6.6 1.3l4 13.4c1.9-4.5 1.1-8.7 0-13.4 2.4 0 2 0 4-1.3-7.6-8-8.7-16-5.3-26.7a29 29 0 0 0 8 6.7c-1.1-5.3-8.3-13.6-12.1-5.1-3.2 6.9-.9 17.1 1.4 23.8" fill="red"/><path d="M164 252l1.3 1.3-1.3-1.3" fill="#ccc"/><path d="M262.7 252l1.3 1.3-1.3-1.3" fill="#212121"/><path d="M126.7 254.7l1.3 1.3-1.3-1.3" fill="#434343"/><path d="M129.3 266.7l-2.6-1.4A65.3 65.3 0 0 0 124 280h69.3c-2.2-9-4.1-14-14.6-13.3-9.4-15.4-39.5-14.6-49.4 0" fill="#fff"/><path d="M150.7 254.7l1.3 1.3-1.3-1.3" fill="#656565"/><path d="M266.7 254.7l1.3 1.3-1.3-1.3" fill="#888"/><path d="M269.3 254.7l1.4 1.3-1.4-1.3M136 256l1.3 1.3-1.3-1.3" fill="#ccc"/><path d="M69.3 274.7l-10.6 2.6c.3-6.3 2.6-10.4 5.3-16-6.1 1.9-11.1 10.7-6.7 16.7 3.9 5.2 10 .7 12-3.3" fill="#00f"/><path d="M125.3 262.7l1.4 1.3-1.4-1.3" fill="red"/><path d="M193.3 262.7l1.4 1.3-1.4-1.3" fill="#434343"/><path d="M121.3 264c-4.8 2.8-10.4 4.5-13.3 9.3 5.3-.5 14.7-2.5 13.3-9.3"/><path d="M122.7 264l1.3 1.3-1.3-1.3m66.6 0l1.4 1.3-1.4-1.3" fill="red"/><path d="M305.3 264l1.4 1.3-1.4-1.3" fill="#434343"/><path d="M124.9 265.8c-.6.6.8.5.9.4.6-.6-.8-.5-1-.4" fill="red"/><path d="M128 265.3l1.3 1.4-1.3-1.4" fill="#434343"/><path d="M190.7 266.7l1.3 1.3-1.3-1.3" fill="red"/><path d="M193.3 266.7c3.8 6 10.4 9.3 17.4 8-4.3-4.5-11.5-6.4-17.4-8"/><path d="M110.7 268l1.3 1.3-1.3-1.3" fill="#ccc"/><path d="M193.8 268.9c-.1 0-.2 1.5.4.9.1-.1.2-1.5-.4-1m24 2.2c-4.9 2.3-1.8 10 3.4 8.1 5.5-2 1.5-10.3-3.5-8" fill="red"/><path d="M200 273.3l1.3 1.4-1.3-1.4" fill="#434343"/><path d="M88.4 276c-4.4 2.9 0 9.4 4.4 7.5 5.5-2.5 1-10.7-4.4-7.4" fill="#00f"/><path d="M190.7 274.7l1.3 1.3-1.3-1.3" fill="#656565"/><path d="M268 276l1.3 1.3-1.3-1.3" fill="#aaa"/><path d="M124 284c8.7-2 17.8-1.2 26.7-1.3h44c-4-4-9.4-2.3-14.7-2.7-13.3-1.3-25.5 0-38.7 0-5.4 0-16-2.5-17.3 4m73.3-1.3c5.6 0 11.4 1 14.7-4-5.6 0-11.4-1.1-14.7 4"/><path d="M26.7 280l1.3 1.3-1.3-1.3" fill="#212121"/><path d="M122.7 280v4c.9-2 .9-2 0-4m70.6 0l1.4 1.3-1.4-1.3m3.1.9s-.1 1.5.5.9c0-.1.1-1.5-.5-1" fill="red"/><path d="M32 281.3l1.3 1.4-1.3-1.4" fill="#ccc"/><path d="M60 281.3l1.3 1.4-1.3-1.4" fill="#434343"/><path d="M110.7 285.3l9.3-1.3v-2.7c-4.5 0-8.3-1-9.3 4"/><path d="M120.4 282.2c0 .1-.1 1.5.5 1 0-.2.1-1.6-.5-1" fill="red"/><path d="M86.7 282.7L88 284l-1.3-1.3m64 0l1.3 1.3-1.3-1.3" fill="#656565"/><path d="M297.3 284l1.4 1.3-1.4-1.3m-26.6 1.3l1.3 1.4-1.3-1.4" fill="#ccc"/><path d="M194.7 288l1.3 1.3-1.3-1.3" fill="#888"/><path d="M30.7 290.7L32 292l-1.3-1.3" fill="#212121"/><path d="M296 290.7l1.3 1.3-1.3-1.3" fill="#888"/><path d="M201.3 292l1.4 1.3-1.4-1.3" fill="#656565"/><path d="M33.3 297.3l1.4 1.4-1.4-1.4" fill="#aaa"/><path d="M116 298.7l1.3 1.3-1.3-1.3" fill="#434343"/><path d="M200 301.3l1.3 1.4-1.3-1.4m-164 1.4l1.3 1.3-1.3-1.3" fill="#aaa"/><path d="M114.7 304l1.3 1.3-1.3-1.3" fill="#888"/><path d="M42.7 305.3l1.3 1.4-1.3-1.4" fill="#ccc"/><path d="M38.7 308l1.3 1.3-1.3-1.3" fill="#656565"/><path d="M209.3 309.3l1.4 1.4-1.4-1.4" fill="#aaa"/><path d="M205.3 312l1.4 1.3-1.4-1.3" fill="#656565"/><path d="M210.7 312l1.3 1.3-1.3-1.3" fill="#434343"/><path d="M116 316l1.3 1.3-1.3-1.3" fill="#888"/><path d="M293.3 317.3l1.4 1.4-1.4-1.4" fill="#aaa"/><path d="M292 320l1.3 1.3-1.3-1.3" fill="#ccc"/><path d="M53.3 321.3l1.4 1.4-1.4-1.4m162.7 0l1.3 1.4-1.3-1.4" fill="#434343"/><path d="M212 324l1.3 1.3-1.3-1.3" fill="#656565"/><path d="M57.3 326.7l1.4 1.3-1.4-1.3" fill="#888"/><path d="M105.3 328l1.4 1.3-1.4-1.3" fill="#434343"/><path d="M286.7 329.3l1.3 1.4-1.3-1.4" fill="#aaa"/><path d="M58.7 336l1.3 1.3-1.3-1.3m168 0l1.3 1.3-1.3-1.3" fill="#212121"/><path d="M68 337.3l1.3 1.4-1.3-1.4" fill="#ccc"/><path d="M221.3 337.3l1.4 1.4-1.4-1.4" fill="#212121"/><path d="M274.7 337.3l1.3 1.4-1.3-1.4" fill="#656565"/><path d="M94.7 338.7L96 340l-1.3-1.3" fill="#212121"/><path d="M233.3 344l1.4 1.3-1.4-1.3m-4 2.7l1.4 1.3-1.4-1.3" fill="#aaa"/><path d="M266.7 353.3l1.3 1.4-1.3-1.4" fill="#888"/><path d="M260 357.3l1.3 1.4-1.3-1.4" fill="#aaa"/></svg>