<svg xmlns="http://www.w3.org/2000/svg" height="44" width="524"><path d="M0 0v44h524V0H0" fill="#fff"/><path d="M245.3 2.7l1.4 1.3-1.4-1.3" fill="#aaa"/><path d="M245.3 4c-.8 5-.4 9.6 0 14.7 3.3-4.3 2.4-9.4 2.7-14.7h-2.7" fill="red"/><path d="M268 14.7c.8 2.2 1.3 3.3 2.7 5.3-15-5.3-42.7-2.4-50.7 13.3 16.3-7.6 28-14.3 46.7-12a10 10 0 0 0-2.7 5.4c4.3-.4 8-1.2 12-2.7-1.9-4.4-4-7-8-9.3" fill="#0ff"/><path d="M380 14.7l1.3 1.3-1.3-1.3" fill="#656565"/><path d="M381.3 14.7c0 4.1-4.4 2.6-8 2.6-7 0-25.5 2.9-22.6 12 8.9-6.4 17-8.8 28-8-1.7 2.7-1.7 1.5 0 4 4.7-1.1 9-1.7 13.3-4a16 16 0 0 0-10.7-6.6m34.7 2.6c-9-2.6-21.7-1-21.3 10.7 6.4-6 9.2-9.1 18.6-9.3-1.3 2.3-2 4.1-2.6 6.6 4-.7 7.9-1.2 12-1.3-.9-3.6-2-6.2-4-9.3-1.8 1-1.7.9-2.7 2.6" fill="#0ff"/><path d="M272 16l1.3 1.3L272 16" fill="#212121"/><path d="M282.7 29.3c8.4-1.3 15.5-6.6 24-8.4 9.3-2 18.6 0 28 1.8-2.8 1.6-4.8 2.7-6.7 5.3 6.5-.3 11.7-2.1 17.3-5.3a13.4 13.4 0 0 0-6.6-6.7c-1.4 2-1.4 1.6-1.4 4-17.8-3.7-41.3-6.3-54.6 9.3" fill="#0ff"/><path d="M341.3 16l1.4 1.3-1.4-1.3" fill="#888"/><path d="M12 29.3l1.3 1.4C18.7 27 24 22.4 30.7 21c6.6-1.4 9.8 2.2 8 8.2 4.5 1 7.6.3 12-1.3-1-3.3-2.5-6.2-4-9.3-14.7.2-24.6-3-34.7 10.6" fill="#0ff"/><path d="M246.7 17.3l1.3 1.4-1.3-1.4" fill="#f0f"/><path d="M382.7 17.3l1.3 1.4-1.3-1.4" fill="#fff"/><path d="M165.3 18.7c-10.1 7.7-26.3 2.8-36 13.3 13.8-1.3 24.3-9.3 38.7-6.7l-8 2.7c8.4 5.4 17.6-5 5.3-9.3m28 0v2.6c-7-1.3-11.6 1.1-16 6.7l1.4 1.3c4-2.6 7.5-5.1 12-6.6-1.5 1.8-3 3.2-4 5.3 2.6.7 3.2 1 5.3 2.7 5.9-1.9 11.2-6.2 17.3-6.7l-4 2.7c3.9 1.6 7.9 1.3 12 1.3-.6-3.7-1-5.8-4-8v5.3c-4.6-6.3-9.5-3.8-16-1.3l-1.3-5.3h-2.7" fill="#0ff"/><path d="M273.3 18.7l1.4 1.3-1.4-1.3" fill="#212121"/><path d="M385.3 18.7c.8 2.1.5 2 2.7 2.6-.7-2.1-.5-2-2.7-2.6" fill="#fff"/><path d="M421.3 18.7l1.4 1.3-1.4-1.3" fill="#434343"/><path d="M34.7 20l1.3 1.3-1.3-1.3" fill="#212121"/><path d="M85.3 20l1.4 1.3-1.4-1.3" fill="#434343"/><path d="M61.3 33.3c16.7-3 33-17.3 49.4-5.3l-8 2.7c4 3 17.2.8 13.2-6.4-2.6-4.3-9.2-3.6-13.2-4-13-1.2-32.6 2.8-41.4 13" fill="#0ff"/><path d="M113.3 20l1.4 1.3-1.4-1.3" fill="#434343"/><path d="M154.7 20l1.3 1.3-1.3-1.3" fill="#656565"/><path d="M274.7 20l1.3 1.3-1.3-1.3" fill="#888"/><path d="M340 20l1.3 1.3L340 20" fill="#fff"/><path d="M17.3 21.3l1.4 1.4-1.4-1.4" fill="#aaa"/><path d="M245.3 21.3c0 6.3-.4 12.6 1.4 18.7 2.3-5.6 1.3-12.6 1.3-18.7h-2.7" fill="red"/><path d="M328 21.3l1.3 1.4-1.3-1.4" fill="#656565"/><path d="M44 22.7c.7 2.1.5 2 2.7 2.6-.8-2.1-.5-2-2.7-2.6m149.8.9c-.1 0-.2 1.4.4.8.1 0 .2-1.4-.4-.8" fill="#fff"/><path d="M198.7 22.7L200 24l-1.3-1.3m89.3 0l1.3 1.3-1.3-1.3" fill="#212121"/><path d="M397.3 22.7l1.4 1.3-1.4-1.3" fill="#fff"/><path d="M398.7 22.7L400 24l-1.3-1.3" fill="#212121"/><path d="M422.7 22.7L424 24l-1.3-1.3" fill="#ccc"/><path d="M21.3 24l1.4 1.3-1.4-1.3" fill="#888"/><path d="M105.3 24l1.4 1.3-1.4-1.3" fill="#212121"/><path d="M141.3 24l1.4 1.3-1.4-1.3" fill="#888"/><path d="M157.3 24l1.4 1.3-1.4-1.3m228 0l1.4 1.3-1.4-1.3" fill="#212121"/><path d="M413.3 24l1.4 1.3-1.4-1.3" fill="#fff"/><path d="M414.7 24l1.3 1.3-1.3-1.3" fill="#212121"/><path d="M506.7 29.3c5.2 1 7 0 8-5.3-4.6.4-6.7 1-8 5.3" fill="#00f"/><path d="M38.7 25.3l1.3 1.4-1.3-1.4m124 0l1.3 1.4-1.3-1.4" fill="#888"/><path d="M412 26.7v2.6c4 .4 5.2.1 8-2.6-3.3-.9-4.7-.9-8 0" fill="#00f"/><path d="M418.7 25.3l1.3 1.4-1.3-1.4" fill="#aaa"/><path d="M66.7 26.7L68 28l-1.3-1.3" fill="#ccc"/><path d="M281.3 26.7l1.4 1.3-1.4-1.3" fill="#212121"/><path d="M344 26.7l1.3 1.3-1.3-1.3" fill="#656565"/><path d="M345.3 26.7L344 32c6 1 7-3.4 1.3-5.3m46.7 0c1 3 1.3 3.6 4 5.3l1.3-5.3H392" fill="#00f"/><path d="M397.3 26.7l1.4 1.3-1.4-1.3" fill="#888"/><path d="M170.7 28l1.3 1.3-1.3-1.3" fill="#aaa"/><path d="M273.3 29.3V32c4.6 1 6.5.6 8-4-3 .1-5.3.5-8 1.3" fill="#00f"/><path d="M410.7 28l1.3 1.3-1.3-1.3" fill="#434343"/><path d="M12 37.3c.3-2.6.3-5.1 0-8-5.4 2.2-5.7 6.1 0 8" fill="#00f"/><path d="M72 29.3l1.3 1.4-1.3-1.4" fill="#656565"/><path d="M116 29.3l1.3 1.4-1.3-1.4" fill="#434343"/><path d="M121.3 30.7c1.3 4 2.6 4.6 6.7 5.3-.2-2.5-.6-4.3-1.3-6.7l-5.4 1.4" fill="#00f"/><path d="M138.7 29.3l1.3 1.4-1.3-1.4" fill="#656565"/><path d="M168 29.3l1.3 1.4-1.3-1.4" fill="#212121"/><path d="M176 34.7h5.3v-5.4c-3.5 1.4-4.2 1.9-5.3 5.4" fill="#00f"/><path d="M181.3 29.3l1.4 1.4-1.4-1.4" fill="#212121"/><path d="M189.3 29.3l-1.3 1.4v2.6l5.3 1.4-1.3-5.4h-2.7" fill="#00f"/><path d="M197.3 29.3l1.4 1.4-1.4-1.4" fill="#888"/><path d="M210.7 29.3c.7 3.6 1.6 3.8 5.3 4-1.6-2.6-2.3-3-5.3-4" fill="#00f"/><path d="M412 29.3l1.3 1.4-1.3-1.4" fill="#656565"/><path d="M5.3 30.7L6.7 32l-1.4-1.3" fill="#888"/><path d="M61.3 32c-9.5-2.2-4.5 8 0 0" fill="#00f"/><path d="M350.7 30.7L352 32l-1.3-1.3" fill="#434343"/><path d="M174.7 33.3l1.3 1.4-1.3-1.4" fill="#aaa"/></svg>