<svg xmlns="http://www.w3.org/2000/svg" height="201.3" width="468"><path d="M0 0l1.3 1.3L0 0"/><path d="M0 201.3h468V0H9.3c-2.6 0-6 0-8 2.1C-1.3 5.6 0 13.3 0 17.3v184" fill="#fff"/><path d="M210.7 6.7L212 8l-1.3-1.3" fill="#ccc"/><path d="M208 14.7c5.2-.4 7.1-1.4 8-6.7-4.8.8-6.7 2-8 6.7" fill="#00f"/><path d="M206.7 13.3l1.3 1.4-1.3-1.4" fill="#212121"/><path d="M214.7 13.3l1.3 1.4-1.3-1.4" fill="#aaa"/><path d="M342.7 33.3c-4 1.1-3.3 7 1.2 5.7 4-1.2 3.5-7-1.2-5.7" fill="#00f"/><path d="M21.3 50.7l1.4 1.3-1.4-1.3" fill="#212121"/><path d="M22.7 64l4-10.7c-8.3-1.3-12.8 7.8-4 10.7" fill="#00f"/><path d="M24 60l1.3 1.3L24 60" fill="#ccc"/><path d="M440 89.3c6.2 0 9.1-1.3 8-8-5.3 1.1-7.1 2.8-8 8" fill="#00f"/><path d="M163.9 90.7c-4.9 1.3-9.6 6.1-13.2 9.5a121.9 121.9 0 0 0-26.9 38.5c-5.3 12.6-2.7 24.3 13.5 20.6a72 72 0 0 0 45.8-40.6c4-11.2-3.5-32.7-19.2-28" fill="red"/><path d="M166.7 92c-8.7 5.9-22.7 15.7-24 26.7-8.2 4.6-13.5 15.4-16.7 24-1.2 3.1-3 8.1-.7 11.2 1.8 2.2 5.4 2.1 8 2.1 8-.4 17.4-5 21.4-12 11.2-2 22.9-18.6 25.3-29.2 2.7-10.8-4.1-18.7-14.7-18.8 1.2-2 1.3-2 1.4-4" fill="#fff"/><path d="M165.3 94.7l1.4 1.3-1.4-1.3" fill="#aaa"/><path d="M150.7 98.7l1.3 1.3-1.3-1.3M176 100l1.3 1.3-1.3-1.3" fill="#ccc"/><path d="M152 104l1.3 1.3-1.3-1.3" fill="#888"/><path d="M158.7 104c0 1.5-.2 3.7.4 5.3 3.1 8 12.4-1.8 4.8-4.9-1.5-.4-3.9-.3-5.2-.4" fill="#00f"/><path d="M178.7 104l1.3 1.3-1.3-1.3" fill="#656565"/><path d="M168 108l1.3 1.3-1.3-1.3" fill="#434343"/><path d="M141.3 109.3l1.4 1.4-1.4-1.4m-1.3 1.4l1.3 1.3-1.3-1.3" fill="#ccc"/><path d="M180 110.7l1.3 1.3-1.3-1.3" fill="#434343"/><path d="M141.3 117.3l1.4 1.4-1.4-1.4" fill="#656565"/><path d="M137.3 122.7l1.4 1.3-1.4-1.3" fill="#212121"/><path d="M140 125.3l1.3 1.4-1.3-1.4" fill="#ccc"/><path d="M137.3 133.3c1.1.1 3 .5 4 .2 7.9-1.8 2.7-10.8-2.6-4.2-1 1.1-1 2.8-1.4 4" fill="#00f"/><path d="M46.7 132l1.3 1.3-1.3-1.3" fill="#434343"/><path d="M49.7 133.3c-4.6 1.4-1 7.6 3 5.8 4.1-1.7.6-7.1-3-5.8" fill="#00f"/><path d="M165.3 134.7l1.4 1.3-1.4-1.3" fill="#ccc"/><path d="M122.7 137.3l1.3 1.4-1.3-1.4" fill="#656565"/><path d="M121.3 140l1.4 1.3-1.4-1.3" fill="#212121"/><path d="M154.7 144l1.3 1.3-1.3-1.3" fill="#aaa"/><path d="M160 146.7l1.3 1.3-1.3-1.3" fill="#656565"/><path d="M336 161.3c5.8-.4 8-2.2 9.3-8-5.7.5-7.6 2.7-9.3 8" fill="#00f"/><path d="M336 156l1.3 1.3-1.3-1.3" fill="#ccc"/><path d="M334.7 157.3l1.3 1.4-1.3-1.4" fill="#434343"/><path d="M336 157.3l1.3 1.4-1.3-1.4" fill="#fff"/><path d="M342.7 160l1.3 1.3-1.3-1.3" fill="#656565"/><path d="M228 178.7c1.9 6.2 6.1 6.2 8 0-2.8-.4-5.3-.3-8 0" fill="#00f"/></svg>