<svg xmlns="http://www.w3.org/2000/svg" height="250.7" width="776"><path d="M0 0v250.7h776V0H0" fill="#fff"/><path d="M309.3 28c4.4-2.7 6-7.3 8-12 .3 8-2.3 16-2.6 24 7.5-4.9 7.9-24.8 8-33.3-7.7 4-12 13-13.4 21.3" fill="#0ff"/><path d="M316 9.3l1.3 1.4-1.3-1.4" fill="#aaa"/><path d="M74.7 24c5.7-3 9.2-6.3 16-6.7C88 25.7 81 31 77.3 38.7l1.4 1.3c6.6-1.3 14.6-2.3 20-6.7-4.7-.5-8.8.2-13.4 1.4 3.2-4.4 10-11 8-17-3-10-17.6-.3-18.6 6.3" fill="#0ff"/><path d="M92 13.3l1.3 1.4-1.3-1.4" fill="#888"/><path d="M322.7 13.3l1.3 1.4-1.3-1.4" fill="#434343"/><path d="M86.7 17.3l1.3 1.4-1.3-1.4" fill="#656565"/><path d="M88 17.3l1.3 1.4-1.3-1.4" fill="#212121"/><path d="M73.3 22.7l1.4 1.3-1.4-1.3" fill="#434343"/><path d="M86.7 32l1.3 1.3-1.3-1.3" fill="#212121"/><path d="M89.3 32l1.4 1.3-1.4-1.3" fill="#aaa"/><path d="M86.2 33.8c-.6.6.8.5 1 .4.5-.6-.9-.5-1-.4" fill="#fff"/><path d="M313.3 34.7l1.4 1.3-1.4-1.3" fill="#656565"/><path d="M520 36l1.3 1.3L520 36" fill="#434343"/><path d="M670.7 40c-12.1.6-25.4 6.9-26.7 20 10-8 16-18 30.7-16 1.7-2.6 1.7-1.3 0-4 8 6.7 4.7 12.5 5.3 21.3 4.8-5 6.2-15.5 1-21-3-3.5-9.6-6.1-10.3-.3m-160 1.3c15.5-.7 14.6 13.4 13.3 25.4 5-1.1 4-4.8 4-9.4 0-5.3.4-11.1-2.8-15.9-3.9-5.6-10.8-5-14.5 0" fill="#0f0"/><path d="M522.7 37.3l1.3 1.4-1.3-1.4" fill="#aaa"/><path d="M673.3 38.7l1.4 1.3-1.4-1.3" fill="#fff"/><path d="M314.7 40l1.3 1.3-1.3-1.3" fill="#656565"/><path d="M674.7 40v4c-12-2.6-22.7 4.2-28 14.7 3.5.6 7 1.5 10.6.5 3.2-.9 6-3.2 9.4-3.6 4-.1 8.3 3 12 4.4 3.1-7.4 4-15.7-4-20" fill="#fff"/><path d="M682.7 41.3l1.3 1.4-1.3-1.4" fill="#434343"/><path d="M736 46.7c5.3 3 7.8 9 13.3 12-1.4-4.8-7.6-20-13.3-12M713.3 44c-1.3 2-1.8 3.1-2.6 5.3 3.7-1 5-2 2.6-5.3" fill="#0f0"/><path d="M313.3 46.2c-13.6 3.6-26.6 23.5-24.7 37.8 1.6 12 18 14.2 27.4 11.1 13.3-4.3 16-24.7 13.3-36.4-1.8-8-7-15-16-12.5" fill="#0ff"/><path d="M716 45.3l1.3 1.4-1.3-1.4" fill="#656565"/><path d="M526.7 69.3c-5.4 3.2-6.2 10.3-12 12.6C501 87 496 68.2 500 58.7c2.3-5.4 7.4-7.6 10.7-12-16 1.3-21 24.4-11 35.4 7 7.7 19.3 4.9 24.2-3.4 1.7-3 2.3-6 2.8-9.4" fill="#0f0"/><path d="M736 46.7l1.3 1.3-1.3-1.3" fill="#ccc"/><path d="M88 48l1.3 1.3L88 48" fill="#656565"/><path d="M753.3 57.3A17 17 0 0 0 768 48c-6 1.4-10.4 4.9-14.7 9.3" fill="#0f0"/><path d="M84.6 50.4a40.7 40.7 0 0 0-25.2 23c-3.6 9.6-1 20.3 10 23.2 3 .8 6.2.7 9.3.7 4 0 8 0 12-1.3 14.9-4.7 17.8-18.7 12-32-2.8-6.7-9.4-16.4-18.1-13.6" fill="#0ff"/><path d="M92 49.3l1.3 1.4-1.3-1.4" fill="#ccc"/><path d="M320 49.3c-9.1 3.2-14.7 2.7-20 12 6.2 2.7 12 2.7 18.7 2.7v4h8c-.1-7.5-.9-13.6-6.7-18.7" fill="#fff"/><path d="M505.3 50.7l1.4 1.3-1.4-1.3" fill="#212121"/><path d="M572 50.7l1.3 1.3-1.3-1.3m174.7 0L748 52l-1.3-1.3m12 0L760 52l-1.3-1.3" fill="#656565"/><path d="M436 52c-.7 5.5 1.3 9.8 4 14.7 2.7-5.2-.3-10.6-4-14.7" fill="#0f0"/><path d="M497.3 52l1.4 1.3-1.4-1.3" fill="#888"/><path d="M570.7 52l2.6 13.3c4-4.7 2.6-10.1-2.6-13.3" fill="#0f0"/><path d="M74.7 53.3l1.3 1.4-1.3-1.4" fill="#ccc"/><path d="M88 53.3c-5.9 4.5-12.9 5-18.7 10.8a29.8 29.8 0 0 0-6.1 9.2c-11.5 26.7 38 29 39.5 2.7a44.6 44.6 0 0 0-17.4 0c3.5-5.3 10.3-3.6 16-5.3C99.2 62.8 96 56 88 53.3" fill="#fff"/><path d="M446.7 64c6-1.7 9.3-5 12-10.7a22.1 22.1 0 0 0-12 10.7" fill="#0f0"/><path d="M590.7 53.3l1.3 1.4-1.3-1.4" fill="#888"/><path d="M748 53.3l1.3 1.4-1.3-1.4" fill="#aaa"/><path d="M576 66.7c.9 6.6 1.8 12.7 8 16-1.1-3.7-5-8.3-4.7-12 .3-6.2 8.7-10.6 11.4-16-6.4 2.2-9.4 8-14.7 12" fill="#0f0"/><path d="M646.7 58.7c2.5 3.5 5 3.7 9.3 4 0 1.3 0 3 .4 4.1 5 13.3 16.3-2.4 22.3-5.5-10.9-10.4-19.4-1-32-2.6M752 56l-1.3 2.7c1.7-1.3 1.8-1 1.3-2.7" fill="#00f"/><path d="M757.3 56c-3.4 1.6-7 1.9-10.6 2.7.2 3.6.3 7 0 10.6 5.3-3.4 8.9.2 14.6 0v-2.6c-4.1-3.5-4.1-5.4-4-10.7"/><path d="M77.3 57.3l1.4 1.4-1.4-1.4m278.7 0l1.3 1.4-1.3-1.4" fill="#aaa"/><path d="M357.3 57.3c.5 9.4 3.5 17.4 2.7 26.7 3.7.5 4.6 4 8 5.3-.4-2.6-1.5-6.1-.6-8.7 3-8.9 16.4-14.3 22-22l-1.4-1.3c-8.6 5-15.4 12.4-24 17.4-.8-6-1.5-13.7-6.7-17.4" fill="#0ff"/><path d="M440 57.3l1.3 1.4-1.3-1.4" fill="#ccc"/><path d="M494.7 57.3l1.3 1.4-1.3-1.4" fill="#212121"/><path d="M762.7 66.7c-.4-3.6-1.1-6.1-2.7-9.4-6.2 3.6-3 7.7 2.7 9.4" fill="#00f"/><path d="M760 57.3l1.3 1.4-1.3-1.4m-312 1.4l1.3 1.3-1.3-1.3" fill="#212121"/><path d="M614.7 58.7L616 60l-1.3-1.3" fill="#888"/><path d="M578.7 68l1.3 6.7c4-2 5.3-3.7 6.7-8 18.6-.4 37.2-5.3 56-5.4v-2.6c-14.2 0-28.7 1.5-42.7 3.4-8 1.1-14.7.9-21.3 5.9" fill="#00f"/><path d="M642.7 58.7c1.3 2.6 2.5 2.6 4 0h-4"/><path d="M663.6 59.1c-.6.6.8.5.8.5.6-.6-.8-.6-.8-.5" fill="#fff"/><path d="M681.3 58.7c-1.3 1.5-2 1.7-4 2.6 2.7 1 4.6.4 4-2.6"/><path d="M694.7 58.7L696 60l-1.3-1.3" fill="#aaa"/><path d="M696 58.7l1.3 1.3-1.3-1.3" fill="#434343"/><path d="M761.3 58.7l1.4 1.3-1.4-1.3" fill="#656565"/><path d="M152 84l-5.3-18.7c-5 7.7 2.6 17.1 2.6 25.4 6.7 3.1 10.1 9.3 16 13.3-.5-6.6-7.6-11.4-7.4-17.3.2-3.7 3.8-6.7 6.1-9.4 5.2-5.3 11.3-9.9 13.3-17.3-10.1 4.7-17.4 16.1-25.3 24m429.3-24l1.4 1.3-1.4-1.3" fill="#0ff"/><path d="M681.3 61.3c7.5 3.2 17.3 2.2 25.4 3 9.3 1 21.1 5 30.6 3.2 4.6-.8 8.3-3.7 10.7-7.5-5 1-9.5 4.1-14.7 4.3-17 .5-35.1-8-52-3" fill="#00f"/><path d="M712 60l1.3 1.3L712 60" fill="#ccc"/><path d="M749.3 60c1.7 2.7 2.5 3 5.4 4-1.8-2-3-2.7-5.4-4" fill="#0f0"/><path d="M172 61.3l1.3 1.4-1.3-1.4" fill="#212121"/><path d="M228 61.3c0 6.4 5.6 10.8 6 17 .4 6-3.8 9.8-2 16.4 2.2-3.9 3.5-7.5 6.7-10.7.5 6.2 4.6 12.8 10.6 14.7-2.2-5.4-9.6-13.6-7.4-20 1.6-4.6 7.7-7.9 11.4-10.7-6.1-3.5-11.7 4-16 8l-6.6-14.7H228" fill="#0ff"/><path d="M246.7 73.3c11.3-1.3 22-5.2 33.3-6.6 5.3-1 11.5-.5 14.7-5.4-10.8 2-21.4 3-32 5.5-6 1.5-11.6 1.9-16 6.5" fill="#00f"/><path d="M493.3 61.3l1.4 1.4-1.4-1.4" fill="#434343"/><path d="M577.3 61.3V64c2.2-.7 2-.5 2.7-2.7h-2.7" fill="#00f"/><path d="M576 62.7c-1.6 4.4-2.9 7.7 1.3 10.6l-1.3-6.6c3.1-1.4 4.5-2.6 6.7-5.4l-6.7 1.4"/><path d="M642.7 61.3c-.6 3.1-1.4 6.2-1.4 9.4.3 10.6 9 16 18.7 12 9-3.6 16.6-11.9 21.3-20-2.6.7-4 1.3-6.1 3-6.7 5.9-28 26.3-29.9 5-.2-3.1 0-6.3 0-9.4h-2.6" fill="#0f0"/><path d="M645.3 61.3l1.4 1.4-1.4-1.4" fill="#0ff"/><path d="M646.7 61.3a19 19 0 0 0-1.1 7.6c0 2-.3 4.4.3 6.2 1.5 5.4 6.6 6.6 11.4 5 8-2.8 15.8-10.2 20-17.4l-1.3-1.4c-5.1 4.9-13.7 16.6-19.2 5.5-.8-1.2-.8-2.8-.8-4.1-3.3 0-6.1-.6-9.3-1.4m22.6 0c-1.3 2-1.3 1.6-1.3 4 1.7-1.9 1.9-1.6 1.3-4" fill="#fff"/><path d="M762.7 61.3l1.3 1.4-1.3-1.4" fill="#656565"/><path d="M298.7 62.7c1.3 2.3 1.2 2 4 2.6 1 14.7 17.5 12.2 24 2.7-9.4-.7-18.2-5-28-5.3" fill="#00f"/><path d="M353.3 62.7l1.4 1.3-1.4-1.3" fill="#656565"/><path d="M349.3 72c-6-2.2-12.2-3.5-18.6-4v4c8.5 0 17 3.7 25.3 1.3l-2.7-5.3c2.7-1.6 3.8-2.5 5.4-5.3-5.4 1.8-8 4-9.4 9.3m12-9.3c1 4 2.3 8 2.7 12 5.1-2 8.2-4.4 10.7-9.4-4.7-.3-8.8-1.7-13.4-2.6m81.4 0v2.6c2.1-.7 2-.5 2.6-2.6h-2.6" fill="#00f"/><path d="M441.3 64c-1.4 4.2-3.3 8-5.3 12a21 21 0 0 0 6.7-2.7l1.3 5.4c2.4 0 2 0 4-1.4-1.3-5.3-1.3-8.3 1.3-13.3h-8"/><path d="M498.7 65.3V68h8c-1 4.3-.2 13 6.6 10.4 4.8-1.7 8.5-7.5 10.7-11.7-10.1-4-15-2.6-25.3-1.4" fill="#00f"/><path d="M582.7 62.7L584 64l-1.3-1.3"/><path d="M625.3 62.7l1.4 1.3-1.4-1.3" fill="#ccc"/><path d="M626.7 62.7L628 64l-1.3-1.3" fill="#656565"/><path d="M628 62.7l1.3 1.3-1.3-1.3m22.7 0L652 64l-1.3-1.3" fill="#212121"/><path d="M652 62.7l1.3 1.3-1.3-1.3" fill="#aaa"/><path d="M661.3 62.7c-1.4 3-1.5 3.4-1.3 6.6l4-5.3-2.7-1.3" fill="#fff"/><path d="M250.7 64l1.3 1.3-1.3-1.3" fill="#888"/><path d="M266.7 64l1.3 1.3-1.3-1.3" fill="#212121"/><path d="M317.3 64l1.4 1.3-1.4-1.3" fill="#656565"/><path d="M373.3 64l1.4 1.3-1.4-1.3" fill="#434343"/><path d="M376 64l1.3 1.3L376 64" fill="#ccc"/><path d="M488 64l1.3 1.3L488 64" fill="#434343"/><path d="M489.3 64l1.4 1.3-1.4-1.3" fill="#888"/><path d="M490.7 64l1.3 1.3-1.3-1.3" fill="#ccc"/><path d="M581.3 64l1.4 1.3-1.4-1.3"/><path d="M748 64l1.3 1.3L748 64" fill="#0f0"/><path d="M104 65.3l1.3 1.4-1.3-1.4" fill="#212121"/><path d="M168 65.3l1.3 1.4-1.3-1.4" fill="#656565"/><path d="M297.3 65.3c-3.1 5.7-6.6 13.4-4.7 20 2.5 8.7 18 10.2 24.6 5.7 6-4 8.5-12.2 9.5-19-6.9-1-8.9 3.4-14.8 4-3.5.3-7.5-2.7-10.6-4 .8-2.4 1.1-4 1.4-6.7h-5.4" fill="#fff"/><path d="M298.7 65.3l1.3 1.4-1.3-1.4" fill="#6c6c6c"/><path d="M393.3 65.3l1.4 1.4-1.4-1.4" fill="#656565"/><path d="M445.3 65.3c-2.3 2.7-2.8 3.3-2.6 6.7 1.6-2.3 2.5-3.9 2.6-6.7" fill="#0f0"/><path d="M449.3 77.3c8.7-9.6 32.8-8.8 45.4-9.3v-2.7c-9.8.1-19.6 1.7-29.4 2.7-5.9.4-10 1.5-14.6-2.7-5.6 3.1-5 7.3-1.4 12" fill="#00f"/><path d="M495.1 66.2c0 .1-.1 1.5.5 1 0-.2.1-1.6-.5-1m2.7 0c-.1.1-.2 1.5.4 1 .1-.2.2-1.6-.4-1"/><path d="M564 65.3l1.3 1.4-1.3-1.4" fill="#ccc"/><path d="M573.3 65.3c-5.3 2.2-10.4 1.4-16 1.4H528v2.6c12.5 0 24.9.2 37.3 1.1 4 .4 9.2 0 8-5" fill="#00f"/><path d="M580 65.3l-1.3 2.7c1.7-1.3 1.8-1 1.3-2.7"/><path d="M601.3 65.3l1.4 1.4-1.4-1.4" fill="#434343"/><path d="M741.3 77.3c4-2.9 5.2-7.4 6.7-12-5.3 2.8-6.4 6.3-6.7 12" fill="#0f0"/><path d="M748 66.7c.7 3 1.7 4.2 0 6.6 4 .8 6.7.1 10.7-1.3-3.2-4-5.4-6-10.7-5.3" fill="#00f"/><path d="M754.7 65.3l1.3 1.4-1.3-1.4" fill="#0f0"/><path d="M233.3 66.7l1.4 1.3-1.4-1.3m90.7 0l1.3 1.3-1.3-1.3" fill="#656565"/><path d="M362.7 66.7L364 68l-1.3-1.3" fill="#fff"/><path d="M378.7 68c6.6 2.9 15.3 2.2 22.6 2.9 11.4 1.1 24.8 6.2 36 3.8-4.2-3.3-9.5-2.7-14.6-3.8-13.6-2.5-30.7-6.9-44-2.9" fill="#00f"/><path d="M405.3 66.7l1.4 1.3-1.4-1.3m56 0l1.4 1.3-1.4-1.3" fill="#656565"/><path d="M524 66.7v2.6h4v-2.6h-4"/><path d="M580 66.7l1.3 1.3-1.3-1.3" fill="#0ff"/><path d="M592 66.7l1.3 1.3-1.3-1.3" fill="#888"/><path d="M69.3 77.3c2.6 1.7 1.4 1.7 4 0 .7 1 1.2 2.7 2.3 3.3 10.7 7 9.3-16.4-1.7-11.2-1.2.5-2 1.8-2.6 2.7-1.1 1.6-1.4 3.5-2 5.2" fill="#00f"/><path d="M81.3 68l1.4 1.3-1.4-1.3" fill="#212121"/><path d="M152 68l1.3 1.3L152 68" fill="#ccc"/><path d="M152 73.3l5.3-1.3c-4.5 4.1-6.6 5.5-5.3 12 3.2-2.1 7.8-5 8.2-9.3.7-6-6.6-6.7-8.2-1.4m82.7-4l2.6 6.7a16 16 0 0 0 5.4-6.7c-3-.5-5-.5-8 0" fill="#00f"/><path d="M244 68l1.3 1.3L244 68" fill="#888"/><path d="M270.7 68l1.3 1.3-1.3-1.3" fill="#656565"/><path d="M498.7 68c.2 4.9 1 10.7 5.6 13.3 6.4 4 15.4 1 15.7-6.6 2.2-1.8 2.3-2.5 2.7-5.4-4.7 4-13.6 14.7-16.4 3-.3-1.4.2-3 .4-4.3-3 .5-5 .5-8 0" fill="#fff"/><path d="M500.9 68.4c-.6.6.8.6.9.5.6-.6-.8-.5-1-.5" fill="#aaa"/><path d="M503.6 68.4c-.6.6.8.6.8.5.6-.6-.8-.5-.8-.5" fill="#434343"/><path d="M577.8 68.9c-.1 0-.2 1.5.4.9.1-.1.2-1.5-.4-1"/><path d="M734.7 68c1.6 1 2 1 4 1.3-1.7-.9-2.1-1-4-1.3" fill="#434343"/><path d="M758.7 68l1.3 1.3-1.3-1.3m2.6 0c-1.3 2-1.3 1.6-1.3 4h4c-1-2.1-1-2.4-2.7-4" fill="#0f0"/><path d="M305.3 69.3l1.4 1.4-1.4-1.4" fill="#fff"/><path d="M345.3 69.3l1.4 1.4-1.4-1.4m9.4 0l1.3 1.4-1.3-1.4" fill="#656565"/><path d="M377.3 69.3l1.4 1.4-1.4-1.4" fill="#888"/><path d="M422.7 69.3l1.3 1.4-1.3-1.4" fill="#212121"/><path d="M438.7 69.3l1.3 1.4-1.3-1.4" fill="#00f"/><path d="M522.7 69.3l1.3 1.4-1.3-1.4m4 0l1.3 1.4-1.3-1.4" fill="#0ff"/><path d="M645.3 69.3l1.4 1.4-1.4-1.4" fill="#212121"/><path d="M100 70.7l1.3 1.3-1.3-1.3" fill="#434343"/><path d="M160 70.7l1.3 1.3-1.3-1.3" fill="#212121"/><path d="M301.3 70.7l1.4 1.3-1.4-1.3" fill="#6c6c6c"/><path d="M396 70.7l1.3 1.3-1.3-1.3" fill="#656565"/><path d="M433.3 70.7l1.4 1.3-1.4-1.3" fill="#434343"/><path d="M469.3 70.7l1.4 1.3-1.4-1.3" fill="#656565"/><path d="M493.3 70.7l1.4 1.3-1.4-1.3" fill="#212121"/><path d="M568 70.7l1.3 1.3-1.3-1.3" fill="#656565"/><path d="M572 70.7c-.3 2.2-.3 3 0 5.3 1.7-2.5 1.7-2.7 0-5.3" fill="#0f0"/><path d="M578.7 70.7v4c.9-2.1.9-2 0-4"/><path d="M74.7 72l1.3 2.7c2.2-.8 2-.5 2.7-2.7h-4" fill="#fff"/><path d="M85.3 76c6.1-.8 11.3-.8 17.4 0-2.5-5.3-16-6.7-17.4 0" fill="#00f"/><path d="M106.7 72l1.3 1.3-1.3-1.3" fill="#656565"/><path d="M144 72l1.3 1.3L144 72" fill="#ccc"/><path d="M364 72l1.3 1.3L364 72" fill="#fff"/><path d="M369.3 78.7c4-1.4 5.4-2.6 6.7-6.7a12 12 0 0 0-6.7 6.7" fill="#00f"/><path d="M437.3 72l1.4 1.3-1.4-1.3" fill="#0f0"/><path d="M509.3 72c.7 3.2.9 3.4 4 4-1.4-2-2-2.5-4-4m74.7 0l1.3 1.3L584 72" fill="#fff"/><path d="M585.3 72l1.4 1.3-1.4-1.3" fill="#aaa"/><path d="M645.3 72l1.4 1.3-1.4-1.3" fill="#212121"/><path d="M657.3 72l1.4 1.3-1.4-1.3" fill="#888"/><path d="M745.3 72l1.4 1.3-1.4-1.3" fill="#212121"/><path d="M760 72l1.3 1.3L760 72" fill="#888"/><path d="M764 72l1.3 1.3L764 72" fill="#aaa"/><path d="M105.3 73.3c2.7 4.4 7.2 4.6 12 6 10.5 2.8 19.9 3.4 30.7 3.4-4.6-3.5-10.4-2.6-16-3.5-9-1.4-17.6-4.5-26.7-5.9m126.7 0c-5.3 5.4-13 4.3-20 4-15.7-.7-32.4-5.9-48-1.3 7.5 3.1 17.3 1 25.3 1.4 13 .6 29.7 7.7 42.4 4 4.5-1.4 2.1-5.6.3-8" fill="#00f"/><path d="M249.3 73.3l1.4 1.4-1.4-1.4" fill="#888"/><path d="M376 73.3l1.3 1.4-1.3-1.4m40 0l1.3 1.4-1.3-1.4" fill="#aaa"/><path d="M438.7 73.3l1.3 1.4-1.3-1.4" fill="#0f0"/><path d="M441.3 73.3c-1.5 1.6-2 2.1-2.6 4l5.3 1.4c-.7-2.6-1-3.3-2.7-5.4" fill="#00f"/><path d="M444 73.3c.7 2.2.5 2 2.7 2.7-.8-2.2-.5-2-2.7-2.7" fill="#0f0"/><path d="M584 73.3l1.3 1.4-1.3-1.4" fill="#434343"/><path d="M665.3 73.3l1.4 1.4-1.4-1.4" fill="#888"/><path d="M68 74.7l1.3 1.3-1.3-1.3m81.3 0l1.4 1.3-1.4-1.3m52 0l1.4 1.3-1.4-1.3" fill="#656565"/><path d="M242.7 74.7c-1.4 2.8-2.2 4.9-2.7 8 3.2-2.3 4-4.3 2.7-8" fill="#00f"/><path d="M306.7 74.7L308 76l-1.3-1.3" fill="#232323"/><path d="M437.3 74.7c-2.6 3.3-3.2 5.3-2.6 9.3 2.6-3 3.8-5.3 2.6-9.3" fill="#0f0"/><path d="M520 74.7l1.3 1.3-1.3-1.3" fill="#212121"/><path d="M149.8 76.9c-.1 0-.2 1.5.4.9.1-.1.2-1.5-.4-1" fill="#fff"/><path d="M217.3 76l1.4 1.3-1.4-1.3" fill="#434343"/><path d="M228 76l1.3 1.3L228 76" fill="#212121"/><path d="M79.1 78.2c0 .1-.1 1.5.5 1 0-.2.1-1.6-.5-1" fill="#fff"/><path d="M162.7 77.3c-3 3.5-5 6.7-6.7 10.7 5.3-1.6 8.6-5 6.7-10.7" fill="#00f"/><path d="M360 77.3l1.3 1.4-1.3-1.4" fill="#212121"/><path d="M368 77.3l1.3 1.4-1.3-1.4" fill="#fff"/><path d="M446.7 77.3c-.3 4.9 1 7 5.3 9.4-1-4-2.3-6.5-5.3-9.4" fill="#0f0"/><path d="M448 77.3l1.3 1.4-1.3-1.4" fill="#0ff"/><path d="M69.3 78.7l1.4 1.3-1.4-1.3" fill="#aaa"/><path d="M113.3 78.7l1.4 1.3-1.4-1.3" fill="#656565"/><path d="M244 78.7l1.3 1.3-1.3-1.3" fill="#434343"/><path d="M368 78.7l1.3 1.3-1.3-1.3M56 81.3l1.3 1.4-1.3-1.4" fill="#212121"/><path d="M124 81.3l1.3 1.4-1.3-1.4" fill="#ccc"/><path d="M328 81.3l1.3 1.4-1.3-1.4" fill="#212121"/><path d="M236 84v2.7c2.2-.8 2-.5 2.7-2.7H236" fill="#00f"/><path d="M666.7 85.3l1.3 1.4-1.3-1.4m-341.4 1.4l1.4 1.3-1.4-1.3" fill="#ccc"/><path d="M662.7 94.7c2.6 2.2 3.6 3.1 4 6.6-2-1.3-1.6-1.3-4-1.3l1.3 5.3c7-3.7 6-8.3 2.7-14.6l8-1.4v-2.6c-6.8 0-10.7.9-12 8" fill="#00f"/><path d="M102.7 88l1.3 1.3-1.3-1.3" fill="#888"/><path d="M368 88l1.3 1.3L368 88" fill="#ccc"/><path d="M653.3 88l1.4 1.3-1.4-1.3" fill="#212121"/><path d="M644 100c4-1 6.2-2.6 9.3-5.3v9.3h2.7l1.3-14.7c-6 1.7-9.7 5.6-13.3 10.7m88 2.7l8-6.7v9.3c3.3-4 4-9.3 5.3-14.6l-1.3-1.4c-6 2.7-12.1 6.4-12 13.4" fill="#00f"/><path d="M757.3 89.3l1.4 1.4-1.4-1.4" fill="#ccc"/><path d="M762.7 89.3c-5.4 2-12.9 13.4-4.8 17.1 4.4 2.1 8.6-4 8.8-7.7 0-3.6-2.2-6.6-4-9.4" fill="#00f"/><path d="M152 90.7l1.3 1.3-1.3-1.3" fill="#ccc"/><path d="M496 94.7c0 8 0 9.7 5.3 16-3.5 1.3-4.2 1.8-5.3 5.3 1 0 2.7.5 4 0 9.2-4.3-2.4-11.6.2-17 1.7-3.4 6.8-4 9.1-7-4.6.4-8.9 1.4-13.3 2.7" fill="#00f"/><path d="M320 93.3l1.3 1.4-1.3-1.4" fill="#888"/><path d="M760 93.3c-2 4-2.4 6.4-1.3 10.7l5.3-2.7V96l-4-2.7" fill="#fff"/><path d="M320 94.7l1.3 1.3-1.3-1.3" fill="#ccc"/><path d="M554.7 109.3c6.9-2.2 12.7-6.6 18.6-10.6 0 4.5-.7 8.8 0 13.3 3.7-4.8 4-11.6 2.7-17.3-7.2 2-18.7 7.3-21.3 14.6" fill="#00f"/><path d="M657.3 94.7l1.4 1.3-1.4-1.3" fill="#888"/><path d="M308 101.3l-1.3 9.4 8 1.3-2.7 6.7c6.3-3.5 5.8-9.1-1.3-10.7 3-5.3 7.3-7 12-10.7-5.5-.6-9.8 1.4-14.7 4" fill="#00f"/><path d="M366.7 96l1.3 1.3-1.3-1.3" fill="#ccc"/><path d="M361.3 100c0 3.4-.4 6-1.3 9.3l8 4c-2 1.4-3.1 1.9-5.3 2.7 2.5 3.3 8 2.8 6.9-2.6-.6-2.7-3.3-4-5.6-5.4 2.6-5.3 5.3-7.7 10.7-10.7-4.9-1.7-9 .4-13.4 2.7" fill="#00f"/><path d="M312 97.3l1.3 1.4-1.3-1.4m50.7 0l1.3 1.4-1.3-1.4" fill="#434343"/><path d="M577.3 97.3l1.4 1.4-1.4-1.4" fill="#212121"/><path d="M730.7 97.3l1.3 1.4-1.3-1.4" fill="#ccc"/><path d="M762.7 97.3l1.3 1.4-1.3-1.4" fill="#aaa"/><path d="M242.7 98.7l1.3 1.3-1.3-1.3" fill="#656565"/><path d="M308 98.7l1.3 1.3-1.3-1.3m256 0l1.3 1.3-1.3-1.3" fill="#ccc"/><path d="M60 114.7c3.4-2.1 4.9-4.4 6.7-8 .8 5-.8 9.6 0 14.6 4.3-5.5 5-14.3 5.3-21.3-7 2-10.4 8-12 14.7m168-1.4c4 .8 7 1.7 10.7 4l-6.7 1.4c5 6.8 12.3-2.2 6.3-6.5-1.9-1.3-4.1-1.3-6.3-1.5 2.1-6.7 8.6-5.4 12-10.7-9.8.8-14.7 3.2-16 13.3" fill="#00f"/><path d="M244 100l1.3 1.3-1.3-1.3" fill="#ccc"/><path d="M429.3 110.7c5-1.7 8-4.4 12-8 0 5.3-2 13.3 4 14.6A93 93 0 0 1 444 100c-6.7 1-11.6 4.6-14.7 10.7M304 101.3c-4.5 4-8.2 8-10.7 13.4 3.3-1.4 5.4-3 8-5.4L300 120c5.3-3.4 6.3-13 4-18.7" fill="#00f"/><path d="M493.3 101.3l1.4 1.4-1.4-1.4" fill="#ccc"/><path d="M498.7 101.3l1.3 1.4-1.3-1.4m61.3 0l1.3 1.4-1.3-1.4m-408 1.4l1.3 1.3-1.3-1.3" fill="#212121"/><path d="M440 102.7l1.3 1.3-1.3-1.3" fill="#fff"/><path d="M566.7 102.7l1.3 1.3-1.3-1.3m193.3 0l1.3 1.3-1.3-1.3" fill="#434343"/><path d="M84 104l1.3 1.3L84 104" fill="#aaa"/><path d="M138.7 120c4.3-2.3 7.2-5.8 10.6-9.3L148 124h4l1.3-20a22.1 22.1 0 0 0-14.6 16" fill="#00f"/><path d="M162.7 104l1.3 1.3-1.3-1.3" fill="#212121"/><path d="M298.7 104l1.3 1.3-1.3-1.3" fill="#ccc"/><path d="M440 104l1.3 1.3-1.3-1.3" fill="#888"/><path d="M661.3 104l1.4 1.3-1.4-1.3" fill="#ccc"/><path d="M78.7 121.3c2.2 0 4.3 0 6.2-1.3 9.6-6.3-1-20.2-5.9-9.3-.5 1.3-.7 2.7-.8 4-.2 2.2.1 4.4.5 6.6" fill="#00f"/><path d="M297.3 105.3l1.4 1.4-1.4-1.4" fill="#aaa"/><path d="M298.7 105.3l1.3 1.4-1.3-1.4" fill="#fff"/><path d="M440 105.3l1.3 1.4-1.3-1.4" fill="#212121"/><path d="M576 105.3l1.3 1.4-1.3-1.4" fill="#656565"/><path d="M440 106.7l1.3 1.3-1.3-1.3" fill="#888"/><path d="M316 108l1.3 1.3-1.3-1.3" fill="#656565"/><path d="M358.7 108l1.3 1.3-1.3-1.3" fill="#888"/><path d="M553.3 108l1.4 1.3-1.4-1.3" fill="#ccc"/><path d="M570.7 108l1.3 1.3-1.3-1.3" fill="#212121"/><path d="M65.3 109.3l1.4 1.4-1.4-1.4" fill="#434343"/><path d="M81.3 118.7c3.5-2.7 4.7-5 5.4-9.4-5 1.7-5.4 4.4-5.4 9.4" fill="#fff"/><path d="M142.7 109.3l1.3 1.4-1.3-1.4" fill="#434343"/><path d="M317.3 109.3l1.4 1.4-1.4-1.4" fill="#212121"/><path d="M497.3 109.3l1.4 1.4-1.4-1.4" fill="#ccc"/><path d="M570.7 109.3l1.3 1.4-1.3-1.4" fill="#aaa"/><path d="M364 112l1.3 1.3-1.3-1.3" fill="#212121"/><path d="M573.3 112l1.4 1.3-1.4-1.3" fill="#888"/><path d="M62.7 113.3l1.3 1.4-1.3-1.4" fill="#434343"/><path d="M89.3 113.3l1.4 1.4-1.4-1.4" fill="#656565"/><path d="M494.7 113.3l1.3 1.4-1.3-1.4" fill="#aaa"/><path d="M138.7 114.7l1.3 1.3-1.3-1.3" fill="#ccc"/><path d="M304 114.7l1.3 1.3-1.3-1.3" fill="#212121"/><path d="M370.7 114.7l1.3 1.3-1.3-1.3m69.3 0l1.3 1.3-1.3-1.3" fill="#ccc"/><path d="M445.3 116l1.4 1.3-1.4-1.3" fill="#656565"/><path d="M142.7 117.3l1.3 1.4-1.3-1.4" fill="#434343"/><path d="M230.7 117.3l1.3 1.4-1.3-1.4" fill="#ccc"/><path d="M316 117.3l1.3 1.4-1.3-1.4" fill="#aaa"/><path d="M361.3 117.3l1.4 1.4-1.4-1.4" fill="#ccc"/><path d="M146.7 118.7l1.3 1.3-1.3-1.3" fill="#888"/><path d="M362.7 118.7l1.3 1.3-1.3-1.3" fill="#aaa"/><path d="M69.3 120l1.4 1.3-1.4-1.3" fill="#212121"/><path d="M230.7 120l1.3 1.3-1.3-1.3" fill="#656565"/><path d="M238.7 121.3l1.3 1.4-1.3-1.4" fill="#aaa"/><path d="M234.7 122.7l1.3 1.3-1.3-1.3" fill="#ccc"/><path d="M236 122.7l1.3 1.3-1.3-1.3" fill="#656565"/><path d="M286.7 149.3c0 8-1.9 17.8 4 24 .9-3.5 1.3-5.3 4-8-5-4.8-5.4-9.3-5.4-16h-2.6M153.3 152c-1.3 2-1.3 1.6-1.3 4 2.1-1 2.4-1 4-2.7l-2.7-1.3m74.7 0c-2.8 5.7-6 11-6.7 17.3 3.3-3.1 5.4-6.6 8-10.6 1.4 5.7 1.4 12.6 6.7 16-1-7.7-3-15.3-5.3-22.7H228m24 0c-2 6.7-2 13.5 0 20 4.2-.8 7.7-.6 12 0l-4-8c-2.7.6-4.2 1.3-6.7 2.7 0-5 1.4-10.4-1.3-14.7m-132 17.3v2.7c-3.7.7-5.8.9-8 4 3.9 0 12.3-.3 10.1-6.5-.8-2.5-3.6-4.2-4-6.8-.4-3.4 3-6.7 4.6-9.4-9.6 2.7-12.4 11.3-2.7 16" fill="#00f"/><path d="M122.7 153.3l1.3 1.4-1.3-1.4" fill="#888"/><path d="M172 153.3c.7 4.3 2.2 8 4 12-5.6 1.8-10 4.5-16 4 1.6-2.6 2.3-4.7 2.7-8-4.4 1.5-5.4 3.7-6.7 8l-2.7-6.6c-3.3 5.3-.6 9.4 5.4 10.1 7.1.8 12.3-2 18.6-4.8 3 4.4 5.9 2.9 10.7 3 9.3 0 13.8-.6 14.7-11l-5.4 1.3 1.4 6.7h-8l1.3-6.7c-6.2-1-7.6 4.4-12 8a29.3 29.3 0 0 0-8-16" fill="#00f"/><path d="M254.7 153.3l1.3 1.4-1.3-1.4" fill="#656565"/><path d="M78.7 154.7L80 156l-1.3-1.3" fill="#aaa"/><path d="M254.7 154.7l1.3 1.3-1.3-1.3" fill="#212121"/><path d="M70.7 158.7c0 5.3.8 8 5.3 10.6v2.7c-2.7.3-4.2.3-6.7 0 1.2 4.2 5.4 6.3 8 1.3 3.2-6-5-10.6 3.9-14 1.3-.4 2.8-.5 4.1-.6V156c-5.3.1-9.6 1.3-14.6 2.7" fill="#00f"/><path d="M113.3 156l1.4 1.3-1.4-1.3" fill="#656565"/><path d="M56 157.3l1.3 1.4-1.3-1.4" fill="#212121"/><path d="M48 165.3l9.3-4L52 176c5.3 1.5 9 1 12-4-2.9.7-5.3 1.5-8 2.7 1.3-3.6 4.8-9 3.1-13-2.6-6.2-9.8 0-11.1 3.6" fill="#00f"/><path d="M69.3 158.7l1.4 1.3-1.4-1.3M60 160l1.3 1.3L60 160m173.3 0l1.4 1.3-1.4-1.3" fill="#aaa"/><path d="M16 172c.9-3.4 1.1-11.6-5-8.9-7.2 3.1-7.1 18.8 1 20.4 9.3 1.8 12.7-7.8 4-11.5" fill="#00f"/><path d="M192.4 162.2c0 .1-.1 1.5.5 1 0-.2.1-1.6-.5-1" fill="#656565"/><path d="M266.7 161.3l1.3 1.4-1.3-1.4" fill="#ccc"/><path d="M268 172c5.1-2.3 9.2-2.2 14.7-2.7-5.8-5.3-21.4-10.6-14.7 2.7" fill="#00f"/><path d="M285.3 161.3l1.4 1.4-1.4-1.4" fill="#aaa"/><path d="M45.3 162.7l1.4 1.3-1.4-1.3m24 0l1.4 1.3-1.4-1.3" fill="#212121"/><path d="M90.7 162.7c0 2.8.5 5.3 1.3 8 1.3-3.4 1-5.3-1.3-8m41.3 18.6c2.7-2 2.7-3.1 2.7-6.6 6.1-2.5 7.8-5.4 8-12-11.1.8-11.7 9.3-10.7 18.6" fill="#00f"/><path d="M150.7 162.7l1.3 1.3-1.3-1.3" fill="#888"/><path d="M265.3 162.7l1.4 1.3-1.4-1.3" fill="#212121"/><path d="M285.3 162.7l1.4 1.3-1.4-1.3" fill="#434343"/><path d="M662.7 162.7l1.3 1.3-1.3-1.3" fill="#656565"/><path d="M664 162.7a354.7 354.7 0 0 0-16 25.3c2 1.3 1.6 1.3 4 1.3 3.4-6 7-12.5 12-17.3-1.5 6.2-1.3 12.3-1.3 18.7h2.6c.7-9 3.6-19.3 1.4-28H664" fill="#0ff"/><path d="M93.3 164l1.4 1.3-1.4-1.3" fill="#888"/><path d="M178.7 164l1.3 1.3-1.3-1.3" fill="#656565"/><path d="M220 164l1.3 1.3-1.3-1.3m65.3 0l1.4 1.3-1.4-1.3" fill="#ccc"/><path d="M294.7 164l1.3 1.3-1.3-1.3" fill="#aaa"/><path d="M10.7 165.3c0 5.4 0 10.7 1.3 16 3.2-1 5.3-1.9 8-4l-8-2.6c1.3-3.2 2.2-6 2.7-9.4h-4" fill="#fff"/><path d="M69.3 165.3l1.4 1.4-1.4-1.4" fill="#aaa"/><path d="M77.3 165.3l1.4 1.4-1.4-1.4" fill="#888"/><path d="M138.7 165.3a10 10 0 0 0-2.7 5.4c2.7-1.7 3.4-2.3 2.7-5.4" fill="#fff"/><path d="M197.3 165.3l1.4 1.4-1.4-1.4" fill="#ccc"/><path d="M269.3 165.3l1.4 1.4-1.4-1.4" fill="#fff"/><path d="M601.3 165.3l1.4 1.4-1.4-1.4" fill="#434343"/><path d="M5.3 166.7l1.4 1.3-1.4-1.3" fill="#888"/><path d="M28 173.3l13.3-4c-5.3-3.7-10.3-1.2-13.3 4" fill="#00f"/><path d="M41.3 166.7l1.4 1.3-1.4-1.3" fill="#888"/><path d="M113.3 166.7l1.4 1.3-1.4-1.3" fill="#656565"/><path d="M180 166.7l1.3 1.3-1.3-1.3" fill="#434343"/><path d="M192 166.7l1.3 1.3-1.3-1.3" fill="#ccc"/><path d="M605.3 190.7c-5 1.3-8 2.4-12-1.4h-2.6l-1.4 1.4c3.8 6.8 18.7 7.5 18.7-2.7-.1-6.7-10.2-11-14.7-14.7A37 37 0 0 1 604 172l1.3-1.3V168c-4.5-1-17.9 1.3-13.4 8.8 3.3 5.9 10.3 7.4 13.4 13.9" fill="#0ff"/><path d="M604 166.7l1.3 1.3-1.3-1.3" fill="#ccc"/><path d="M17.3 168l1.4 1.3-1.4-1.3" fill="#888"/><path d="M41.3 169.3l1.4 1.4-1.4-1.4" fill="#212121"/><path d="M277.3 169.3l1.4 1.4-1.4-1.4" fill="#ccc"/><path d="M34.7 170.7L36 172l-1.3-1.3" fill="#656565"/><path d="M38.7 170.7L40 172l-1.3-1.3" fill="#aaa"/><path d="M62.7 170.7L64 172l-1.3-1.3" fill="#ccc"/><path d="M69.3 170.7l1.4 1.3-1.4-1.3" fill="#888"/><path d="M150.7 170.7l1.3 1.3-1.3-1.3m120 0l1.3 1.3-1.3-1.3m318.6 0l1.4 1.3-1.4-1.3" fill="#212121"/><path d="M10.7 172l1.3 1.3-1.3-1.3" fill="#888"/><path d="M28 178.7c5-1 9.3-2 13.3-5.4-5.5-.5-10.3.4-13.3 5.4" fill="#00f"/><path d="M169.3 172l1.4 1.3-1.4-1.3" fill="#656565"/><path d="M236 172l1.3 1.3-1.3-1.3" fill="#888"/><path d="M569.3 172l1.4 1.3-1.4-1.3" fill="#212121"/><path d="M661.3 172c.8 2.2.5 2 2.7 2.7V172h-2.7" fill="#fff"/><path d="M41.3 173.3l1.4 1.4-1.4-1.4" fill="#434343"/><path d="M122.7 173.3l1.3 1.4-1.3-1.4" fill="#656565"/><path d="M138.7 173.3l1.3 1.4-1.3-1.4m21.3 0l1.3 1.4-1.3-1.4" fill="#aaa"/><path d="M289.3 173.3l1.4 1.4-1.4-1.4" fill="#888"/><path d="M566.7 173.3l1.3 1.4-1.3-1.4" fill="#aaa"/><path d="M569.6 174.7c-7.4 2.6-2.4 14.2 4.9 12 7.8-2.2 3.2-15.2-4.9-12" fill="#0ff"/><path d="M661.3 173.3l1.4 1.4-1.4-1.4" fill="#212121"/><path d="M64 174.7l1.3 1.3-1.3-1.3" fill="#aaa"/><path d="M565.3 174.7l1.4 1.3-1.4-1.3" fill="#434343"/><path d="M578.7 176l1.3 1.3-1.3-1.3" fill="#212121"/><path d="M612 176l1.3 1.3-1.3-1.3" fill="#434343"/><path d="M610.7 178.7c1.5 6.6.4 14.7 6.6 18.6V188c5.4-.3 9.4-6.7 3.6-10.6-3.6-2.2-7.1 0-10.2 1.3" fill="#0ff"/><path d="M600 177.3l1.3 1.4-1.3-1.4" fill="#aaa"/><path d="M658.7 177.3l1.3 1.4-1.3-1.4m8 0l1.3 1.4-1.3-1.4" fill="#888"/><path d="M5.3 178.7l1.4 1.3-1.4-1.3" fill="#656565"/><path d="M617.3 178.7c-.6 2.9-.6 3.7 0 6.6h2.7c.6-2.9.6-3.7 0-6.6h-2.7" fill="#fff"/><path d="M21.3 180l1.4 1.3-1.4-1.3" fill="#888"/><path d="M649.3 182.7l1.4 1.3-1.4-1.3" fill="#656565"/><path d="M240 184l-1.3 1.3v2.7c3.1-.6 3.3-.8 4-4H240" fill="#00f"/><path d="M80 185.3l1.3 1.4-1.3-1.4" fill="#ccc"/><path d="M80 190.7c3-1 3.6-1.4 5.3-4l-1.3-1.4c-2.7 1.8-3 2.4-4 5.4" fill="#00f"/><path d="M624 185.3l1.3 1.4-1.3-1.4" fill="#aaa"/><path d="M78.7 186.7L80 188l-1.3-1.3" fill="#656565"/><path d="M146.7 186.7c-2.8 7.6-2.7 14.6-2.7 22.6 4.5-2.6 5-7.6 10.7-9.3 1 5.3 2.5 8 8 8l-4-9.3c3.8 0 7-.3 10.6-1.4-6.8-2.6-16-.8-22.6 1.4.8-4.3 2.5-8 4-12h-4" fill="#00f"/><path d="M194.7 186.7l1.3 1.3-1.3-1.3" fill="#656565"/><path d="M628 186.7c-1.3 2-1.3 1.6-1.3 4 2-1 2.3-1.1 4-2.7l-2.7-1.3" fill="#0ff"/><path d="M193.3 188a48.4 48.4 0 0 0 0 22.7c7.2-3.2 11.6.5 18.7-1.4-2.4-1-4-1.2-6.7-1.3 2.3-3 4-5.7 5.4-9.3-5.4-1.2-7 .2-8 5.3-8.6-2.5-7.6-8.5-6.7-16h-2.7" fill="#00f"/><path d="M592 188l1.3 1.3-1.3-1.3" fill="#888"/><path d="M610.7 188l1.3 1.3-1.3-1.3" fill="#212121"/><path d="M588 190.7l1.3 1.3-1.3-1.3m29.3 0l1.4 1.3-1.4-1.3" fill="#656565"/><path d="M662.7 190.7l1.3 1.3-1.3-1.3" fill="#888"/><path d="M588 192l1.3 1.3-1.3-1.3m-574.7 1.3l1.4 1.4-1.4-1.4" fill="#212121"/><path d="M134.7 193.3l1.3 1.4-1.3-1.4" fill="#656565"/><path d="M142.7 193.3l1.3 1.4-1.3-1.4" fill="#434343"/><path d="M612 193.3l1.3 1.4-1.3-1.4" fill="#ccc"/><path d="M22.7 206.7v9.3h2.6c0-4.6 0-8.9-1.3-13.3-5.9 2.2-8.7 4.7-10.7 10.6h-2.6c-1.4-7.5.6-14.4 9.3-14.6-6.1-9.3-14.7 4.7-12.7 12 1 4 4.4 6.3 8.1 3.3 2.7-2 4.5-5.1 7.3-7.3m112 0c-2.3.3-3.1.3-5.4 0 1.8 8 13 0 2.7-4V200l5.3-1.3c0-2.4 0-2-1.3-4-7.6 3-9.3 8.2-1.3 12m49.3-1.4c1.2 2.9 1.2 2.8 4 4-.6-2.9-1.5-5.2-2.7-8-2.9.7-5.3 1.5-8 2.7l1.4-6.7c2 1.4 1.6 1.4 4 1.4-5.6-8.5-11.7 6.9-4 8 1.7.1 3.9-1 5.3-1.4m61.3-1.3c-.8-2.7-1.3-5-1.3-8h-2.7v10.7c5.4 0 10.7 1.3 16 0-2.2-1.3-4.2-2-6.6-2.7a23 23 0 0 0 4-9.3c-6.3.7-8.6 3-9.4 9.3m-17.3 5.3l1.3 6.7-5.3 1.3-1.3-5.3c-2.7 6.7 4.3 14.4 8.9 6.7 3.8-6.7-.6-15.6-1-22.7-2.9.2-6.3 0-8.6 2.2-6 5.5-.4 11.7 6 11.1" fill="#00f"/><path d="M97.3 197.3l1.4 1.4-1.4-1.4" fill="#434343"/><path d="M109.3 197.3v12a29 29 0 0 0 6.7-4c.2 2.7.6 4.3 1.3 6.7 2.6-4 1.4-7.6 0-12a24 24 0 0 0-5.3 2.7v-5.4h-2.7" fill="#00f"/><path d="M128 197.3l1.3 1.4-1.3-1.4" fill="#656565"/><path d="M137.3 197.3l1.4 1.4-1.4-1.4" fill="#ccc"/><path d="M36 198.7l1.3 1.3-1.3-1.3m13.3 0l1.4 1.3-1.4-1.3" fill="#aaa"/><path d="M86.7 198.7L88 200l-1.3-1.3" fill="#888"/><path d="M88 198.7c0 4.2 0 8 1.3 12 3-2 5.4-4 8-6.7l-1.3 5.3 1.3 1.4c2.4 0 2 0 4-1.4l-2.6-10.6c-3 1.4-5.4 3.2-8 5.3v-5.3H88" fill="#00f"/><path d="M126.7 198.7l1.3 1.3-1.3-1.3" fill="#aaa"/><path d="M211.1 199.6s-.1 1.4.5.8c0 0 .1-1.4-.5-.8" fill="#888"/><path d="M36 200c-1.6 3.3-3.2 6.8-2.2 10.7 1.6 6.6 7.5 4.3 10.2 0l-6.7 1.3c1.6-4.4 2.5-7.4 1.4-12H36m13.3 0c-1.4 7.4 2.7 18 9.4 8 2.6 1.5 5.8 3.8 9.1 2.8 6.9-2 2.9-9.2-2.5-9.5a9.4 9.4 0 0 0 4 2.7l-1.3 5.3a24 24 0 0 1-5.3-5.3c-4.1 1.1-7.1 3-10.7 5.3-.1-3.8-.3-6.2-2.7-9.3" fill="#00f"/><path d="M52 200l1.3 1.3L52 200" fill="#aaa"/><path d="M76 200c0 5-.5 9.1 4 12l-1.3-12H76" fill="#00f"/><path d="M225.3 200c-1.3 2-1.8 3.1-2.6 5.3 2.6-1.6 3.4-2.2 2.6-5.3" fill="#fff"/><path d="M100 201.3l1.3 1.4-1.3-1.4" fill="#434343"/><path d="M196 201.3l1.3 1.4-1.3-1.4" fill="#ccc"/><path d="M5.3 202.7l1.4 1.3-1.4-1.3" fill="#434343"/><path d="M126.7 202.7l1.3 1.3-1.3-1.3" fill="#ccc"/><path d="M128 204c.7 2.2.5 2 2.7 2.7-.8-2.2-.5-2-2.7-2.7" fill="#656565"/><path d="M129.3 204l1.4 1.3-1.4-1.3" fill="#fff"/><path d="M137.3 204l1.4 1.3-1.4-1.3" fill="#434343"/><path d="M130.7 205.3c1.3 2.4 1.2 2.2 4 2.7a9.4 9.4 0 0 0-4-2.7" fill="#fff"/><path d="M190.7 205.3l1.3 1.4-1.3-1.4" fill="#434343"/><path d="M54.7 206.7L56 208l-1.3-1.3" fill="#ccc"/><path d="M180 206.7l1.3 1.3-1.3-1.3" fill="#434343"/><path d="M247.6 207.1c-.6.6.8.5.8.5.6-.6-.8-.6-.8-.5" fill="#888"/><path d="M44 209.3l1.3 1.4-1.3-1.4" fill="#434343"/><path d="M58.7 209.3l1.3 1.4-1.3-1.4m52 0l1.3 1.4-1.3-1.4" fill="#212121"/><path d="M114.7 209.3l1.3 1.4-1.3-1.4m118.6 0l1.4 1.4-1.4-1.4" fill="#ccc"/><path d="M5.3 210.7l1.4 1.3-1.4-1.3" fill="#656565"/><path d="M196 210.7l1.3 1.3-1.3-1.3" fill="#aaa"/><path d="M56 212l1.3 1.3L56 212" fill="#ccc"/><path d="M218.7 214.7l1.3 1.3-1.3-1.3" fill="#212121"/><path d="M233.3 214.7l1.4 1.3-1.4-1.3" fill="#656565"/><path d="M605.3 214.7l1.4 1.3-1.4-1.3" fill="#888"/><path d="M22.7 216l1.3 1.3-1.3-1.3" fill="#aaa"/><path d="M226.7 216l1.3 1.3-1.3-1.3" fill="#434343"/><path d="M602.7 230.7v2.6c-3.5.7-6 .7-9.4 0l-1.3 5.4c4.3 0 14.7-1 12.9-8-1-3.4-5.4-6.6-7.6-9.4 4-.8 6.7-1 10.7 0-3.4-10.3-18.1-.9-11.6 5.8 1.7 1.8 4.1 2.6 6.3 3.6m42.6-6.7c1.7-2.7 2.3-3.1 5.4-4l-4 14.7c4.7 1.3 8.5 2.3 13.3 1.3-3-2.3-5.7-3-9.3-4 1-1.7 2.5-3.3 3-5.3 3-12.6-15.6-10.7-8.4-2.7" fill="#0f0"/><path d="M608 217.3l1.3 1.4-1.3-1.4" fill="#ccc"/><path d="M572 220c-7.4.2-7.3 12-.2 10.8 5.5-.8 6.8-11.2.1-10.8" fill="#0f0"/><path d="M574.7 218.7l1.3 1.3-1.3-1.3" fill="#888"/><path d="M608 220l1.3 1.3-1.3-1.3" fill="#212121"/><path d="M606.7 221.3l1.3 1.4-1.3-1.4" fill="#434343"/><path d="M649.3 221.3l1.4 1.4-1.4-1.4" fill="#ccc"/><path d="M228 222.7l1.3 1.3-1.3-1.3" fill="#656565"/><path d="M564 222.7l1.3 1.3-1.3-1.3" fill="#434343"/><path d="M614.7 245.3c2.6-3.4 2.6-6.4 2.6-10.6 4-1.3 9.3-9 2.3-10.6-10.6-2.5-7.1 16.7-5 21.2" fill="#0f0"/><path d="M644 224l1.3 1.3-1.3-1.3m-42.7 1.3l1.4 1.4-1.4-1.4" fill="#656565"/><path d="M612 226.7l1.3 1.3-1.3-1.3m-16 1.3l1.3 1.3-1.3-1.3" fill="#888"/><path d="M617.3 228v4a9.4 9.4 0 0 0 2.7-4h-2.7" fill="#fff"/><path d="M624 230.7c1.2 2.8 1.2 2.8 4 4-1.3-2.7-1.3-2.7-4-4" fill="#0f0"/><path d="M570.7 232l1.3 1.3-1.3-1.3" fill="#434343"/><path d="M593.3 232l1.4 1.3-1.4-1.3" fill="#ccc"/><path d="M621.3 233.3l1.4 1.4-1.4-1.4" fill="#888"/><path d="M610.7 238.7l1.3 1.3-1.3-1.3m6.6 0l1.4 1.3-1.4-1.3" fill="#212121"/></svg>