<svg xmlns="http://www.w3.org/2000/svg" height="342.7" width="664"><path d="M0 0v342.7h664V0H0" fill="#fff"/><path d="M504 10.7l1.3 1.3-1.3-1.3" fill="#aaa"/><path d="M502.7 12c-2 4-4 8.8-1.4 13 3.3 5.3 7.5 5.3 8 12.3h2.7c.3-4.6 2-7.8 4-12-2.8-1.2-2.8-1.1-4-4-3 1.4-2.7 1-2.7 4-6-3.1-5.3-7.2-4-13.3h-2.6" fill="red"/><path d="M540 29.3h-5.3c2 2.9 3.2 3.3 6.6 4v8a17.4 17.4 0 0 1-8-5.3c-2.8 5.3 4 9.7 8.8 6.7 3.1-2 3-6.1 3.2-9.4h5.4v-2.6c-9.4-1.4-10.7-10-2.7-14.7 1.3 2.7 1.3 2.8 4 4-1-5.7-6.7-9-11-3.6-3 3.8-2 8.7-1 13" fill="#00f"/><path d="M537.3 21.3l1.4 1.4-1.4-1.4" fill="#ccc"/><path d="M537.3 22.7l1.4 1.3-1.4-1.3" fill="#888"/><path d="M516 25.3l1.3 1.4-1.3-1.4" fill="#aaa"/><path d="M516 26.7l1.3 1.3-1.3-1.3" fill="#656565"/><path d="M545.3 34.7l1.4 1.3-1.4-1.3m-9.3 4l1.3 1.3-1.3-1.3" fill="#ccc"/><path d="M497.3 45.3l1.4 1.4-1.4-1.4" fill="#212121"/><path d="M197.3 121.3c-19.4 8.1-37.7 19.8-56 30.1-21 12-42.6 23.3-62.6 36.6-8.3 5.5-15.6 12.9-24 18-4 2.4-9.4 3.4-10.1 8.7-.6 3.4 1.4 7.1 4.7 8 4 .7 8-2 12-1.1 9.9 1.8 20 7.7 29.4 11.2 39.9 14.3 81 25.3 122.6 33.6 6 1.2 13 1.6 18.6 4.3 7.4 3.1 9.8 8.6 18.8 6.6 3.5 5.4 10 5.4 16 5.4 13.2.1 26.6-.6 40-1.4 33.7-2.4 67.6-5 101.3-8.2 21.3-2 42.5-5.1 64-5.1-1 10.9 8 5.3 10.7-1.3a75 75 0 0 0 13.3 2.6c-2.2-6.3-9-5.3-14.7-6.6 7.8-11 19.7-18.7 29.4-28 18.6-18 37.2-36.7 57.3-53.3 6.7-5.4 14-10.7 21.3-15.5 4-2.5 9.8-5.2 12.5-9.2 2.7-3.8-1-7.3-3.3-10-4.5-5.9-10.3-11.8-17.2-6.7-11.5-11.7-19.7-26-30.1-38.7-9.9-11.9-21.6-22.4-32.5-33.3-4.2-4-9-7.7-12.8-12-3.4-4-5.1-9-11.2-9-9.4 0-5.8 8.2-10 13.1-5.3 6.2-14.1 10.6-20.7 15.1-24.7 17.2-50.1 33.3-74.7 50.7-11 7.8-21.4 20.2-33.3 26.3a59.5 59.5 0 0 1-20 5.3c-8.7-.5-18.7-6.2-26.7-9-18.6-6.5-37-12.8-56-18.2-10.8-3.1-23-5.2-33.3-10-4.3-2-7.4-6.5-12-7.7-7.2-2-12 1.7-10.7 8.7" fill="#00f"/><path d="M497.3 52l-6.6 2.7c2.6 1.4 8 1.3 6.6-2.7m0 8c-3-.6-3.4-.9-5.3 1.3-6.7 1-13 6-16 12-5.3.5-9 3.5-13.3 6.5C454.3 85.4 441 91 436 100a33 33 0 0 0-21.3 14.7 16 16 0 0 0-13.4 9.3 26 26 0 0 0-18.6 13.3c-7.6 1-12 7.3-17.4 12 5.4 2.3 11 2.1 16.6 3 16.4 2.9 33.3 4.2 49.9 5 35.1 1.8 70.3 6.7 105.5 6.7 12.8 0 26 1 38.7-.2 5.3-.5 11.4-.6 14.7-5.1h-9.4c1.3-2.2 2.3-3.6 4-5.4a9.6 9.6 0 0 0-5.3-5.3c-.5-3.3-1-3.7-4-5.3-.8-5-3.8-8-6.8-12-5.2-6.7-9.5-16-17.2-20-2.2-13.4-21.4-26.7-30.7-36-4-4-7.5-8.4-13.3-9.4-1.4-3.9-7.5-11.4-10.7-5.3" fill="#fff"/><path d="M500 57.3l1.3 1.4-1.3-1.4m-4 1.4l1.3 1.3-1.3-1.3" fill="#212121"/><path d="M490.7 60l1.3 1.3-1.3-1.3" fill="#434343"/><path d="M508 64l1.3 1.3L508 64" fill="#212121"/><path d="M476 65.3l1.3 1.4-1.3-1.4" fill="#aaa"/><path d="M478.7 69.3l1.3 1.4-1.3-1.4" fill="#212121"/><path d="M474.7 72l1.3 1.3-1.3-1.3M456 78.7l1.3 1.3-1.3-1.3" fill="#434343"/><path d="M181.3 88l6.7-2.7c-2.2 4-4.3 7.6-5.3 12h18.6v-2.6H188c1.3-4 2.4-7.7 2.7-12-5 .1-7.7.4-9.4 5.3" fill="red"/><path d="M534.7 82.7L536 84l-1.3-1.3" fill="#434343"/><path d="M448 84l1.3 1.3L448 84" fill="#212121"/><path d="M222.7 97.3h6.6c.6 4 1.3 5.4 4 8l1.4-1.3c-2.4-5-3.6-8.4-9.4-9.3l1.4-4c2 1.3 1.6 1.3 4 1.3v-5.3c-5.9 1.7-7.6 4.7-8 10.6" fill="#00f"/><path d="M440 89.3l1.3 1.4-1.3-1.4" fill="#ccc"/><path d="M221.3 90.7l1.4 1.3-1.4-1.3" fill="#212121"/><path d="M181.3 93.3l1.4 1.4-1.4-1.4" fill="#434343"/><path d="M194.7 93.3l1.3 1.4-1.3-1.4" fill="#656565"/><path d="M432 94.7l1.3 1.3-1.3-1.3M232 96l1.3 1.3L232 96" fill="#434343"/><path d="M222.7 97.3l1.3 1.4-1.3-1.4" fill="#888"/><path d="M434.7 98.7l1.3 1.3-1.3-1.3" fill="#656565"/><path d="M549.3 98.7l1.4 1.3-1.4-1.3" fill="#888"/><path d="M424 100l1.3 1.3-1.3-1.3" fill="#656565"/><path d="M357.3 104l1.4 1.3-1.4-1.3" fill="#ccc"/><path d="M426.7 104l1.3 1.3-1.3-1.3" fill="#434343"/><path d="M356 105.3v2.7l8 1.3c-3.4 5.4-2.7 7.6 2.7 10.7-3.7 4.7-6.3 5.4-12 4 1.8 5.5 8.2 7 12.3 2 2.9-3.3 1.3-16.6-2.3-19.3-2.3-1.7-6-1.3-8.7-1.4" fill="red"/><path d="M362.7 109.3l1.3 1.4-1.3-1.4" fill="#ccc"/><path d="M410.7 109.3l1.3 1.4-1.3-1.4" fill="#656565"/><path d="M552 109.3l1.3 1.4-1.3-1.4" fill="#888"/><path d="M361.3 110.7l1.4 1.3-1.4-1.3" fill="#aaa"/><path d="M413.3 113.3l1.4 1.4-1.4-1.4" fill="#656565"/><path d="M198.7 117.3c3 .1 2.6.3 4-2.6-1.9.9-2.7 1.3-4 2.6m6.6 0l-1.3 5.4h5.3a14.3 14.3 0 0 0-4-5.4" fill="#fff"/><path d="M221.3 120l1.4 1.3-1.4-1.3" fill="#ccc"/><path d="M393.3 121.3l1.4 1.4-1.4-1.4" fill="#656565"/><path d="M126.7 165.3c-4.6.1-7 1.4-9.4 5.4-5.3 0-8.8 2.4-13.3 5-9.4 5.6-24.2 11.6-29.3 21.6-7.3 1-21.6 10.9-14 19.2 3.8 4 10 3.8 14 7.5 2.4 0 2 0 4-1.3 2.6 4 7.4 5.3 12 6.6 10.3 3.5 23.6 10.9 34.6 9.4 3.6 4.5 11.8 6 17.4 5.3 3.6 4.8 11.5 6.2 17.3 5.3 4.8 6 20.8 8.5 28 6.7 2.7 3.3 7.9 3.6 12 4.6 10.7 2.5 22.5 5.7 33.3 6.7 3.8.4 7-2 10.5-1.8 4.8.5 6.2 6.7 6.9 10.5 4 1.6 6.4 2 10.6 1.3 4.4 5 10.7 1.6 16.3.9 5.8-.8 12.5.5 18.4.5 17 0 34.5-2.2 51.4-4 14.4-1.4 28.9-1.4 43.3-3.3 6.3-.7 12.9-1.7 19.2-2 4.4-.4 8.4.8 11.4-2.7 6.7 2 13 .6 20 0 11.5-.8 22.5-1.4 33.4-5.4-3-5.2-8.2-7.4-13.4-10.4-8-4.8-16.1-9.6-24-14.9-5.3-3.4-9.8-7.5-16-8a14 14 0 0 0-12-8c-3.7-7-14.7-15-22.6-16-2.3-4.4-4.4-6.2-9.4-6.7-2.4-4.8-5.3-7.3-10.6-8-1.4-2.9-1-2.6-4-2.6-2-4-5.6-8.8-10.7-7.6-5 1-9.6 6.6-13.3 9.7-10 8.3-25.1 18-30.7 29.9-6.3 1-10.2 6.2-14.7 10.6-10.3 10.3-25.3 20.4-32 33.4-2.7 0-4 .4-6.6 1.3l4-8c8-1.3 15.3-10.2 18.6-17.3 5.1-.6 8.4-4.5 12-8 6.2-6.1 13.7-12 17.4-20 6-1 9.3-5.2 12-10.7 8.9-1.3 22.6-14.5 26.6-22.7 7.8-.8 2-12-4-12-4.8-6.4-21.6-11.6-29.3-10.6-1.5-2.5-1.1-2-4-1.4-2.1-2.6-3.2-2.6-6.7-2.6-2.9-3.9-7.5-4.8-12-6.3-10.2-3.4-24-10.1-34.6-8.4-4-5.6-15.7-6.5-22.1-8-5.2-1.2-10-4.4-15.3-4.9-4-.3-7 2.2-10.6 2-2.8 0-5.4-1.6-8-1.1-6 .9-12.3 5.9-17.4 8.8-9.3 5.2-18.8 9.9-28 15.2-8 4.6-22.1 9-26.6 17.3" fill="#fff"/><path d="M400 122.7l1.3 1.3-1.3-1.3" fill="#888"/><path d="M236 124l1.3 1.3-1.3-1.3" fill="#212121"/><path d="M352 141.3v-2.6c-1.3 0-3 0-4.2-.6-9.1-3.4-1.7-8.6.2-14.1-6.3 1-13.3 8.8-7 14.9 2.8 2.7 7.4 2.4 11 2.4" fill="#00f"/><path d="M389.3 124l1.4 1.3-1.4-1.3" fill="#212121"/><path d="M569.3 125.3l1.4 1.4-1.4-1.4M228 126.7l1.3 1.3-1.3-1.3" fill="#434343"/><path d="M232 128l1.3 1.3-1.3-1.3" fill="#aaa"/><path d="M337.3 129.3l1.4 1.4-1.4-1.4" fill="#ccc"/><path d="M378.7 132l1.3 1.3-1.3-1.3" fill="#434343"/><path d="M170.7 133.3l1.3 1.4-1.3-1.4" fill="#ccc"/><path d="M250.7 133.3l1.3 1.4-1.3-1.4" fill="#656565"/><path d="M268 133.3l1.3 1.4-1.3-1.4" fill="#aaa"/><path d="M341.3 133.3l1.4 1.4-1.4-1.4" fill="#212121"/><path d="M254.7 134.7l1.3 1.3-1.3-1.3M276 136l1.3 1.3-1.3-1.3m105.3 0l1.4 1.3-1.4-1.3" fill="#aaa"/><path d="M586.7 136l1.3 1.3-1.3-1.3" fill="#434343"/><path d="M581.3 137.3l1.4 1.4-1.4-1.4" fill="#212121"/><path d="M285.3 138.7l1.4 1.3-1.4-1.3m53.4 0l1.3 1.3-1.3-1.3" fill="#888"/><path d="M585.3 140c-.5 4.5.4 6.8 2.7 10.7l6.7-1.4c-1.4-5.3-4.2-7.5-9.4-9.3" fill="#fff"/><path d="M594.7 140l1.3 1.3-1.3-1.3m-428 1.3l1.3 1.4-1.3-1.4" fill="#212121"/><path d="M576 141.3l1.3 1.4-1.3-1.4" fill="#888"/><path d="M584 141.3l1.3 1.4-1.3-1.4" fill="#434343"/><path d="M637.3 158.7c-5.3 1.4-9.3 2.6-14.6 1.3v-2.7c6.5-3.3 8.5-9 6.6-16-6.7 2.7-13.5 12.6-8.1 19.6 4.1 5.8 13 2.8 16.1-2.2" fill="#00f"/><path d="M621.3 144l1.4 1.3-1.4-1.3" fill="#212121"/><path d="M626.7 145.3a23 23 0 0 0-4 9.4c2.6-2.7 4.6-5.3 4-9.4" fill="#fff"/><path d="M580 146.7l1.3 1.3-1.3-1.3" fill="#656565"/><path d="M593.3 146.7l1.4 1.3-1.4-1.3" fill="#888"/><path d="M366.7 148l1.3 1.3-1.3-1.3" fill="#656565"/><path d="M301.3 149.3l1.4 1.4-1.4-1.4" fill="#212121"/><path d="M314.7 149.3l1.3 1.4-1.3-1.4m44 0l1.3 1.4-1.3-1.4m9.3 0l1.3 1.4-1.3-1.4" fill="#ccc"/><path d="M369.3 149.3l1.4 1.4-1.4-1.4m220 0l1.4 1.4-1.4-1.4M380 150.7l1.3 1.3-1.3-1.3" fill="#656565"/><path d="M308 152l1.3 1.3-1.3-1.3" fill="#ccc"/><path d="M598.7 152v4l2.6-1.3c-.7-2.2-.5-2-2.6-2.7" fill="#fff"/><path d="M312 153.3l1.3 1.4-1.3-1.4" fill="#434343"/><path d="M350.7 168c0 2.4 0 2 1.3 4 5-2.3 8.8-6.2 13.3-9.3-2.6 4-13.4 13.6-4 14.6A21 21 0 0 0 376 188c1.3 3 .9 2.7 4 2.7 3 5.8 8 10 14.7 10.6a25.6 25.6 0 0 0 18.6 13.4c5.4 10 21.1 16.7 30.7 22.7 4.8 3 9 6.2 14.7 6.6a19 19 0 0 0 16 9.3c5.3 7.2 12.7-2.2 17.3-6.3 13-11.4 32.3-24.3 40-40.3 4.6-.7 7.3-3.6 10.7-6.7 6.2-6 14.6-12.4 18.6-20 4-.7 4.9-1.7 6.7-5.3 5.3-.7 8.2-3.2 10.7-8-20 1.3-41.5 1.3-61.4 0-15.6-1.3-34-5-49.3-1.4-4.1-4.7-19-3.3-25.3-3.8-17.1-1.4-34.7-2-51.5-4.2-8-1.2-19.2-5.5-27.2-3.5-5.3 1.3-3.3 6.2-5.4 9.9-1.8 3-4.8 3.7-8 4.3" fill="#fff"/><path d="M398.7 153.3l1.3 1.4-1.3-1.4" fill="#ccc"/><path d="M132 154.7l1.3 1.3-1.3-1.3" fill="#212121"/><path d="M414.7 154.7l1.3 1.3-1.3-1.3" fill="#888"/><path d="M416 154.7l1.3 1.3-1.3-1.3M129.3 156l1.4 1.3-1.4-1.3" fill="#434343"/><path d="M433.3 156l1.4 1.3-1.4-1.3" fill="#aaa"/><path d="M345.3 157.3L344 160c4.4 3.1 10 5 13.3 0-2.4 0-2 0-4 1.3-1-4.4-4-3.6-8-4" fill="#fff"/><path d="M348 157.3l1.3 1.4-1.3-1.4" fill="#ccc"/><path d="M349.3 157.3l1.4 1.4-1.4-1.4" fill="#212121"/><path d="M390.7 157.3l1.3 1.4-1.3-1.4" fill="#ccc"/><path d="M581.3 157.3l1.4 1.4-1.4-1.4" fill="#656565"/><path d="M602.7 157.3l1.3 1.4-1.3-1.4" fill="#434343"/><path d="M344 158.7l1.3 1.3-1.3-1.3m60 0l1.3 1.3-1.3-1.3m196 0l1.3 1.3-1.3-1.3" fill="#888"/><path d="M478.7 160l1.3 1.3-1.3-1.3" fill="#ccc"/><path d="M625.3 160l1.4 1.3-1.4-1.3" fill="#212121"/><path d="M517.3 161.3l1.4 1.4-1.4-1.4" fill="#888"/><path d="M518.7 161.3l1.3 1.4-1.3-1.4" fill="#212121"/><path d="M450.7 162.7l1.3 1.3-1.3-1.3" fill="#aaa"/><path d="M634.7 162.7l1.3 1.3-1.3-1.3M125.3 164l1.4 1.3-1.4-1.3" fill="#434343"/><path d="M341.3 164l1.4 1.3-1.4-1.3" fill="#656565"/><path d="M468 164l1.3 1.3-1.3-1.3" fill="#212121"/><path d="M469.3 164l1.4 1.3-1.4-1.3" fill="#888"/><path d="M622.7 164l1.3 1.3-1.3-1.3" fill="#ccc"/><path d="M498.7 165.3l1.3 1.4-1.3-1.4" fill="#656565"/><path d="M526.7 166.7l1.3 1.3-1.3-1.3" fill="#212121"/><path d="M528 166.7l1.3 1.3-1.3-1.3" fill="#ccc"/><path d="M576 166.7l1.3 1.3-1.3-1.3" fill="#656565"/><path d="M578.7 166.7l1.3 1.3-1.3-1.3" fill="#888"/><path d="M580 166.7l1.3 1.3-1.3-1.3" fill="#fff"/><path d="M116 169.3l1.3 1.4-1.3-1.4" fill="#656565"/><path d="M101.3 172l1.4 1.3-1.4-1.3" fill="#888"/><path d="M606.7 173.3a87 87 0 0 1-2.7 12c4.5 1.7 7.4 3 10.7 6.7-4.5.8-7.7 0-12-1.3 3.8 11.7 20.8 3.4 10.5-5.7-1.5-1.3-3.4-1.7-5.2-2.3 6-5.7 15.4-1.4 20-8-7.5 0-14 .3-21.3-1.4" fill="red"/><path d="M626.7 173.3l1.3 1.4-1.3-1.4m-58.7 1.4l1.3 1.3-1.3-1.3" fill="#212121"/><path d="M345.3 177.3l1.4 1.4-1.4-1.4m14.7 0l1.3 1.4-1.3-1.4" fill="#434343"/><path d="M609.3 178.7l1.4 1.3-1.4-1.3" fill="#ccc"/><path d="M621.3 178.7l1.4 1.3-1.4-1.3" fill="#434343"/><path d="M561.3 180l1.4 1.3-1.4-1.3" fill="#aaa"/><path d="M365.3 181.3l1.4 1.4-1.4-1.4" fill="#888"/><path d="M560 181.3l1.3 1.4-1.3-1.4M337.3 184l1.4 1.3-1.4-1.3" fill="#212121"/><path d="M80 185.3l1.3 1.4-1.3-1.4" fill="#888"/><path d="M362.7 185.3l1.3 1.4-1.3-1.4m200 0l1.3 1.4-1.3-1.4m-228 1.4l1.3 1.3-1.3-1.3m273.3 0l1.3 1.3-1.3-1.3" fill="#ccc"/><path d="M366.7 188l1.3 1.3-1.3-1.3" fill="#212121"/><path d="M374.7 188l1.3 1.3-1.3-1.3" fill="#656565"/><path d="M552 188l1.3 1.3-1.3-1.3" fill="#212121"/><path d="M337.3 190.7l1.4 1.3-1.4-1.3" fill="#ccc"/><path d="M378.7 190.7l1.3 1.3-1.3-1.3" fill="#434343"/><path d="M554.7 192l1.3 1.3-1.3-1.3" fill="#ccc"/><path d="M66.7 194.7L68 196l-1.3-1.3m485.3 0l1.3 1.3-1.3-1.3" fill="#212121"/><path d="M73.3 196l1.4 1.3-1.4-1.3" fill="#434343"/><path d="M377.3 196l1.4 1.3-1.4-1.3" fill="#656565"/><path d="M329.3 197.3l1.4 1.4-1.4-1.4" fill="#212121"/><path d="M610.2 197.8c-.6.6.8.5 1 .4.5-.6-.9-.5-1-.4m-540.9.9l1.4 1.3-1.4-1.3" fill="#ccc"/><path d="M60 200l1.3 1.3L60 200m258.7 0l1.3 1.3-1.3-1.3" fill="#656565"/><path d="M393.3 201.3l1.4 1.4-1.4-1.4" fill="#ccc"/><path d="M386.7 202.7l1.3 1.3-1.3-1.3" fill="#888"/><path d="M56 204l1.3 1.3L56 204" fill="#656565"/><path d="M321.3 204l1.4 1.3-1.4-1.3" fill="#212121"/><path d="M390.7 205.3l1.3 1.4-1.3-1.4m142.6 0l1.4 1.4-1.4-1.4" fill="#ccc"/><path d="M532 206.7l1.3 1.3-1.3-1.3" fill="#212121"/><path d="M536 209.3l1.3 1.4-1.3-1.4" fill="#ccc"/><path d="M306.7 210.7l1.3 1.3-1.3-1.3" fill="#434343"/><path d="M525.3 213.3l1.4 1.4-1.4-1.4" fill="#aaa"/><path d="M412 214.7l1.3 1.3-1.3-1.3" fill="#888"/><path d="M524 214.7l1.3 1.3-1.3-1.3" fill="#ccc"/><path d="M52 217.3l1.3 1.4-1.3-1.4" fill="#fff"/><path d="M306.7 217.3l1.3 1.4-1.3-1.4m-1.4 1.4l1.4 1.3-1.4-1.3" fill="#656565"/><path d="M409.3 218.7l1.4 1.3-1.4-1.3" fill="#888"/><path d="M526.7 218.7l1.3 1.3-1.3-1.3" fill="#ccc"/><path d="M73.3 221.3l1.4 1.4-1.4-1.4" fill="#888"/><path d="M45.3 222.7l1.4 1.3-1.4-1.3" fill="#212121"/><path d="M64 222.7l1.3 1.3-1.3-1.3" fill="#888"/><path d="M77.3 222.7l1.4 1.3-1.4-1.3" fill="#212121"/><path d="M522.7 222.7l1.3 1.3-1.3-1.3" fill="#656565"/><path d="M421.3 226.7l1.4 1.3-1.4-1.3" fill="#212121"/><path d="M77.3 228l1.4 1.3-1.4-1.3" fill="#ccc"/><path d="M25.3 245.3c-4.7 2-8.2 2.2-13.3 1.4 2.4 3.7 6.1 4.7 10.6 3.4 2.4-.7 5.8-2.6 4.7-5.6-1.3-3.8-9.4-5.4-12.6-7.2 4-1.6 7-3 9.3-6.6-4 .5-14.7 4-9.8 9.7 2.4 3 7.7 3.8 11.1 5" fill="#00f"/><path d="M98.7 230.7l1.3 1.3-1.3-1.3" fill="#888"/><path d="M45.3 249.3L56 240c-1.6 5.3-1.3 10.7-1.3 16 6.4-4 4.6-16 2.6-22.7-6.6 3-12.2 8.6-12 16" fill="red"/><path d="M282.7 233.3l1.3 1.4-1.3-1.4" fill="#212121"/><path d="M281.3 234.7l1.4 1.3-1.4-1.3" fill="#656565"/><path d="M17.3 236l1.4 1.3-1.4-1.3" fill="#212121"/><path d="M118.7 237.3l1.3 1.4-1.3-1.4" fill="#656565"/><path d="M20 238.7l1.3 1.3-1.3-1.3m28 0l1.3 1.3-1.3-1.3" fill="#434343"/><path d="M108 238.7l1.3 1.3-1.3-1.3" fill="#212121"/><path d="M124 238.7l1.3 1.3-1.3-1.3" fill="#888"/><path d="M277.3 238.7l1.4 1.3-1.4-1.3" fill="#aaa"/><path d="M24 240l1.3 1.3L24 240" fill="#888"/><path d="M26.7 241.3l1.3 1.4-1.3-1.4" fill="#212121"/><path d="M136 242.7l1.3 1.3-1.3-1.3" fill="#434343"/><path d="M141.3 244l1.4 1.3-1.4-1.3m137.4 0l1.3 1.3-1.3-1.3" fill="#888"/><path d="M457.3 244l1.4 1.3-1.4-1.3" fill="#aaa"/><path d="M42.7 245.3l1.3 1.4-1.3-1.4" fill="#656565"/><path d="M452 246.7l1.3 1.3-1.3-1.3" fill="#434343"/><path d="M137.3 248l1.4 1.3-1.4-1.3" fill="#212121"/><path d="M158.7 249.3l1.3 1.4-1.3-1.4" fill="#434343"/><path d="M58.7 250.7L60 252l-1.3-1.3" fill="#656565"/><path d="M490.7 252l1.3 1.3-1.3-1.3" fill="#434343"/><path d="M473.3 253.3l1.4 1.4-1.4-1.4" fill="#888"/><path d="M186.7 256l1.3 1.3-1.3-1.3" fill="#212121"/><path d="M258.7 256l1.3 1.3-1.3-1.3" fill="#aaa"/><path d="M169.3 257.3l1.4 1.4-1.4-1.4" fill="#888"/><path d="M192 257.3l1.3 1.4-1.3-1.4" fill="#aaa"/><path d="M174.7 258.7l1.3 1.3-1.3-1.3" fill="#656565"/><path d="M261.3 260l1.4 1.3-1.4-1.3" fill="#aaa"/><path d="M260 261.3l1.3 1.4-1.3-1.4" fill="#434343"/><path d="M218.7 262.7l1.3 1.3-1.3-1.3" fill="#212121"/><path d="M421.3 266.7l1.4 1.3-1.4-1.3" fill="#434343"/><path d="M408 268l1.3 1.3-1.3-1.3" fill="#656565"/><path d="M465.3 268l1.4 1.3-1.4-1.3" fill="#aaa"/><path d="M474.7 272c2.6-1.2 2.6-1.2 4-4-3.2.6-3.4.8-4 4" fill="#fff"/><path d="M450.7 269.3l1.3 1.4-1.3-1.4" fill="#434343"/><path d="M529.3 269.3l1.4 1.4-1.4-1.4" fill="#aaa"/><path d="M530.7 269.3l-4 9.4c-2-.4-4.1-1.1-6 .1-5.1 3.3-2 11.3 4.2 7.2 1.2-.7 2-2 3-3.3 1.2-1.7 1.9-3.5 2.8-5.4 2 6.7 0 14.7 6.6 18.7-2-8.8-1.5-18.2-4-26.7h-2.6" fill="#00f"/><path d="M364 272l1.3 1.3-1.3-1.3" fill="#aaa"/><path d="M528 272l1.3 1.3-1.3-1.3" fill="#434343"/><path d="M346.7 273.3l1.3 1.4-1.3-1.4" fill="#212121"/><path d="M332 274.7l1.3 1.3-1.3-1.3" fill="#434343"/><path d="M392 274.7l1.3 1.3-1.3-1.3" fill="#ccc"/><path d="M526.7 274.7l1.3 1.3-1.3-1.3m-288 1.3l1.3 1.3-1.3-1.3" fill="#434343"/><path d="M372 276l1.3 1.3-1.3-1.3" fill="#212121"/><path d="M258.7 277.3l1.3 1.4-1.3-1.4" fill="#888"/><path d="M260 277.3l1.3 1.4-1.3-1.4m15.6.5c-.6.6.8.5.8.4.6-.6-.8-.5-.8-.4" fill="#434343"/><path d="M277.3 277.3c1.7 1 2.1 1 4 1.4-1.6-1-2-1-4-1.4" fill="#656565"/><path d="M525.3 277.3l1.4 1.4-1.4-1.4" fill="#ccc"/><path d="M344 278.7l1.3 1.3-1.3-1.3" fill="#656565"/><path d="M517.3 278.7l1.4 1.3-1.4-1.3" fill="#212121"/><path d="M302.7 281.3l1.3 1.4-1.3-1.4" fill="#ccc"/><path d="M304 281.3l1.3 1.4-1.3-1.4" fill="#888"/><path d="M305.3 281.3l1.4 1.4-1.4-1.4" fill="#434343"/><path d="M521.3 281.3v2.7c2.2-.7 2-.5 2.7-2.7h-2.7" fill="#fff"/><path d="M516 282.7l1.3 1.3-1.3-1.3" fill="#888"/><path d="M525.3 285.3l1.4 1.4-1.4-1.4" fill="#aaa"/><path d="M530.7 286.7l1.3 1.3-1.3-1.3m5.3 2.6l1.3 1.4-1.3-1.4" fill="#212121"/><path d="M245.3 300l1.4 1.3-1.4-1.3" fill="#656565"/><path d="M246.7 301.3c-2 7.4-2.3 14 6.6 14.7v2.7l-9.3-1.4c1.3 2.8 3 5.1 6.6 4.6 3.1-.4 7-4.2 4-7.2-1.3-1.7-4.5-2.1-6.6-2.7.9-3.6 1.3-7 1.3-10.7h-2.6" fill="#00f"/><path d="M497.3 313.3c2.7-3.6 5-5.3 9.4-6.6l-1.4-5.4c-5.3 2.7-20.5 16.5-8 20.4 3.5 1 7.3-1.7 5.3-5.2-1.3-1.8-3.3-2.4-5.3-3.2" fill="red"/><path d="M496 305.3l1.3 1.4-1.3-1.4" fill="#888"/><path d="M249.3 306.7l1.4 1.3-1.4-1.3" fill="#656565"/><path d="M494.7 306.7l1.3 1.3-1.3-1.3" fill="#aaa"/><path d="M270.7 313.3c4-.7 8-1.3 12-2.6l1.3 1.3c-2.7 5.7-5.9 7.2-10.7 10.7 2.4.7 4 1 6.7 1.3-.8 4.7-1.6 8 2.7 10.7.3-11.2 6.2-8.4 14.6-10.7-4-2.3-7.5-2.6-12-2.7.6-3.2 2.3-8.2 0-11.2-4-5.1-12.2-.8-14.6 3.2" fill="red"/><path d="M269.3 312l1.4 1.3-1.4-1.3m6.7 0l1.3 1.3-1.3-1.3" fill="#434343"/><path d="M281.3 314.7l1.4 1.3-1.4-1.3" fill="#656565"/><path d="M502.7 314.7l1.3 1.3-1.3-1.3" fill="#ccc"/><path d="M498.2 317.8c-.6.6.8.5 1 .4.5-.6-.9-.5-1-.4" fill="#fff"/><path d="M504 317.3l1.3 1.4-1.3-1.4m-213.3 8l1.3 1.4-1.3-1.4" fill="#434343"/><path d="M281.3 334.7l1.4 1.3-1.4-1.3" fill="#aaa"/></svg>