<svg xmlns="http://www.w3.org/2000/svg" height="148" width="306.7"><path d="M0 0v148h306.7V0H0" fill="#fff"/><path d="M24 14.7l1.3 1.3-1.3-1.3" fill="#aaa"/><path d="M12 41.3c2 1.4 1.6 1.4 4 1.4l1.3-1.4c0-4.6 2.1-7.8 4-12 6 11.2 3.8 25.1 4 37.4.3 12 2.6 24 2.7 36 0 4 0 8-1.3 12-.9 2.6-3.1 5.3-3 8 0 2 1.2 3.7 3 4.4 6.5 2.2 7.2-5.6 11-8.2 4.5-2.9 11.6-2.8 17-2.9v-2.7L36 114.7c5.3-10.4 12.9-13 22.7-18.5C68.8 90.7 79 85.3 89.3 79.6c11.7-6.3 23.3-13 34.7-19.9 6-3.6 12-8.6 18.7-10.8 10.6-3.5 24.6-2.6 36-4 30.9-3.6 62.1-6.2 93.3-6.2-5.4 3.5-11.5 6.2-14.7 12 6.5-2 12-7.6 18.7-8.8 4-.6 9.6 1.6 11.7-3.2 1.2-3.1-1.4-5-3.8-5.7-4.8-1.5-9.8-.4-14.6-2-5.7-1.7-9.9-5.9-16-5.7 4.3 5 10 7 16 9.4-14.8 4.4-33.8 1.7-49.3 2.8-13.7.9-27.7 2.6-41.3 4.2-8.3 1-18.3 3.6-26.7 2-4.5-.9-9-3.4-13.3-5-1.4 2-1.4 1.6-1.4 4-6-6-11.7-12.5-18.6-17.4l-1.4 1.4c3.5 6 8.3 10 13.4 14.6-24.3-1.9-48.4-8.3-72-13.8C48.4 25.3 35.4 24.1 28 16c-8 2.4-13.3 17.7-16 25.3" fill="#00f"/><path d="M30.7 24l1.3 1.3-1.3-1.3" fill="#212121"/><path d="M40 49.3c-5.5-1.2-8-4.3-10.7-9.3-3.5 8.4-.5 19 0 27.8 1.3 15.5 1.4 31.2 1.4 46.9 6.1-7.5 6.3-17.6 12-25.4.3 3.8-.7 7-1.4 10.7 9.2-1.6 24-8 29.4-16 8 0 15.7-6.2 22.6-10.1 14.7-8.4 29.4-17 44-25.9-8.3-3.3-22.4 4.6-29.3 9.3l-1.3-4c1.7-1 1.6-.9 2.6-2.6 3.5.1 4.6 0 6.7-2.7 3.6.4 4.6.3 6.7-2.7a9 9 0 0 0 5.3 0c-7.4-4.4-18.2-4-26.7-5.3-15.7-2.7-31.1-6.6-46.6-10.2-6-1.4-18-7.1-24-4.1-9 4.7 5 20 9.3 23.6" fill="#fff"/><path d="M121.3 26.7l1.4 1.3-1.4-1.3" fill="#656565"/><path d="M122.7 28l1.3 1.3-1.3-1.3" fill="#434343"/><path d="M72 29.3l1.3 1.4-1.3-1.4" fill="#ccc"/><path d="M268 29.3l1.3 1.4-1.3-1.4" fill="#aaa"/><path d="M258.7 30.7L260 32l-1.3-1.3" fill="#888"/><path d="M270.7 30.7L272 32l-1.3-1.3" fill="#aaa"/><path d="M126.7 32l1.3 1.3-1.3-1.3m134.6 0l1.4 1.3-1.4-1.3M128 33.3l1.3 1.4-1.3-1.4" fill="#212121"/><path d="M265.3 33.3l1.4 1.4-1.4-1.4" fill="#ccc"/><path d="M238.7 34.7L240 36l-1.3-1.3" fill="#434343"/><path d="M240 34.7l1.3 1.3-1.3-1.3" fill="#aaa"/><path d="M22.7 37.3l1.3 1.4-1.3-1.4" fill="#888"/><path d="M125.3 37.3l1.4 1.4-1.4-1.4" fill="#212121"/><path d="M196 38.7l1.3 1.3-1.3-1.3" fill="#aaa"/><path d="M10.7 40l1.3 1.3-1.3-1.3" fill="#434343"/><path d="M146.7 40l1.3 1.3-1.3-1.3" fill="#aaa"/><path d="M178.7 40l1.3 1.3-1.3-1.3" fill="#888"/><path d="M217.3 41.3l1.4 1.4-1.4-1.4" fill="#aaa"/><path d="M204 42.7l1.3 1.3-1.3-1.3" fill="#888"/><path d="M262.7 42.7L264 44l-1.3-1.3" fill="#aaa"/><path d="M185.3 44l1.4 1.3-1.4-1.3m-62.6 1.3l1.3 1.4-1.3-1.4" fill="#656565"/><path d="M164 46.7l1.3 1.3-1.3-1.3" fill="#434343"/><path d="M38.7 48l1.3 1.3-1.3-1.3" fill="#212121"/><path d="M116 48l1.3 1.3L116 48" fill="#656565"/><path d="M33.3 49.3l1.4 1.4-1.4-1.4" fill="#212121"/><path d="M140 49.3l1.3 1.4-1.3-1.4" fill="#aaa"/><path d="M109.3 50.7l1.4 1.3-1.4-1.3" fill="#888"/><path d="M204 50.7l1.3 1.3-1.3-1.3" fill="#212121"/><path d="M205.3 50.7l1.4 1.3-1.4-1.3m88 0l1.4 1.3-1.4-1.3" fill="#888"/><path d="M136 52l1.3 1.3L136 52" fill="#212121"/><path d="M197.3 66.7h2.7c1-5 2.7-7.6 6.7-10.7 1.3 4.5 2.6 8 6.6 10.7-.7-4-2.2-11.5-7-13-6.7-2-8.7 8.6-9 13" fill="#00f"/><path d="M208 52l1.3 1.3L208 52" fill="#434343"/><path d="M286.7 65.3c-1.1-4.2-.6-7.7 0-12-5.7 3.7-4.4 11.5-2.7 17.4 6-3.2 11-12 12-18.7-5.5 2.9-7.6 7.5-9.3 13.3" fill="#00f"/><path d="M286.7 56c.7 2.2.5 2 2.6 2.7-.7-2.2-.5-2-2.6-2.7" fill="#aaa"/><path d="M285.3 57.3v8c2.2-2.6 2.7-4.4 2.7-8h-2.7" fill="#fff"/><path d="M125.3 58.7l1.4 1.3-1.4-1.3" fill="#656565"/><path d="M196 60l1.3 1.3L196 60" fill="#aaa"/><path d="M204 61.3c.5 6.7-.3 17.4 5.3 21.4-.5-7-.7-14.7-2.6-21.4H204" fill="#00f"/><path d="M24 62.7l1.3 1.3-1.3-1.3m266.7 0L292 64l-1.3-1.3" fill="#434343"/><path d="M141.3 64c-1.3 4.5-1.3 8.7-1.3 13.3l8-4c1 4.5 2.1 6 6.7 6.7-2-4-4-7.7-5.4-12h-4l-1.3 4c-.7-3-1-5.3-2.7-8" fill="#00f"/><path d="M289.3 65.3l1.4 1.4-1.4-1.4" fill="#ccc"/><path d="M138.7 68l1.3 1.3-1.3-1.3" fill="#212121"/><path d="M29.3 69.3l1.4 1.4-1.4-1.4" fill="#888"/><path d="M288 69.3l1.3 1.4-1.3-1.4" fill="#212121"/><path d="M150.7 73.3l1.3 1.4-1.3-1.4" fill="#aaa"/><path d="M138.7 76l1.3 1.3-1.3-1.3" fill="#ccc"/><path d="M144 76l1.3 1.3L144 76" fill="#656565"/><path d="M209.3 77.3l1.4 1.4-1.4-1.4" fill="#212121"/><path d="M88 80l1.3 1.3L88 80" fill="#434343"/><path d="M70.7 84l1.3 1.3-1.3-1.3m5.3 2.7l1.3 1.3-1.3-1.3" fill="#656565"/><path d="M73.3 88l1.4 1.3-1.4-1.3" fill="#aaa"/><path d="M30.7 89.3l1.3 1.4-1.3-1.4" fill="#212121"/><path d="M30.7 90.7L32 92l-1.3-1.3" fill="#656565"/><path d="M232 93.3c2.6 1.7 1.3 1.7 4 0a56 56 0 0 1 5.3 28c6.7-4.8 3.2-16 .6-22.6-2-5-5-8.6-9.9-5.4" fill="#00f"/><path d="M30.7 92l1.3 1.3-1.3-1.3" fill="#aaa"/><path d="M42.7 93.3l1.3 1.4-1.3-1.4" fill="#ccc"/><path d="M56 97.3l1.3 1.4-1.3-1.4" fill="#aaa"/><path d="M242.7 98.7l1.3 1.3-1.3-1.3" fill="#212121"/><path d="M229.3 101.3c-2.6 4.8-4 9.6-8 13.4-.5-3.8-1.3-7.1-2.6-10.7-2 5-.3 9.7 1.3 14.7 7.8-2.3 10-10 12-17.4h-2.7m-50.6 25.4c-8.2-10-6.1-13.9 0-24-12 2-13.6 24 0 24" fill="#00f"/><path d="M178.7 102.7l1.3 1.3-1.3-1.3m-8 1.3l1.3 1.3-1.3-1.3" fill="#434343"/><path d="M185.3 105.3l1.4 1.4-1.4-1.4" fill="#212121"/><path d="M193.3 105.3l1.4 1.4-1.4-1.4" fill="#ccc"/><path d="M185.3 106.7c-.5 5 0 9.7 1.4 14.6a16 16 0 0 0 6.6-5.3c2.7 4 4.6 4.9 9.4 4a25 25 0 0 1-8-13.3c-2.7 2.8-4 5.7-5.4 9.3-1.3-3.5-1.7-6.5-4-9.3" fill="#00f"/><path d="M216 108l1.3 1.3-1.3-1.3" fill="#aaa"/><path d="M168 109.3l1.3 1.4-1.3-1.4m72 0l1.3 1.4-1.3-1.4" fill="#888"/><path d="M45.3 112l1.4 1.3-1.4-1.3" fill="#434343"/><path d="M46.7 112l1.3 1.3-1.3-1.3" fill="#ccc"/><path d="M188 113.3l1.3 1.4-1.3-1.4" fill="#656565"/><path d="M205.3 113.3l1.4 1.4-1.4-1.4" fill="#888"/><path d="M188 114.7l1.3 1.3-1.3-1.3" fill="#fff"/><path d="M206.7 114.7l-1.4 1.3c2.2 4.1 3.6 7.7 8 9.3a20 20 0 0 0-6.6-10.6" fill="#00f"/><path d="M217.3 114.7l1.4 1.3-1.4-1.3" fill="#212121"/><path d="M205.3 117.3l1.4 1.4-1.4-1.4" fill="#656565"/><path d="M218.7 117.3l1.3 1.4-1.3-1.4" fill="#ccc"/><path d="M34.7 121.3l1.3 1.4-1.3-1.4" fill="#434343"/><path d="M169.3 124l1.4 1.3-1.4-1.3" fill="#656565"/></svg>