<svg xmlns="http://www.w3.org/2000/svg" height="205.3" width="348"><path d="M0 0v205.3h348V0H0" fill="#fff"/><path d="M222.7 18.7l10.6-5.4c-1.3 6.2-2.4 12.4-2.6 18.7h2.6c.8-5.6 3.8-12.9 2.3-18.5-2.4-8.6-11.2 1.6-13 5.2" fill="#00f"/><path d="M226.7 10.7L228 12l-1.3-1.3" fill="#ccc"/><path d="M229.3 14.7l1.4 1.3-1.4-1.3" fill="#888"/><path d="M81.3 16l1.4 1.3-1.4-1.3" fill="#aaa"/><path d="M236 16l1.3 1.3L236 16" fill="#ccc"/><path d="M69.3 32c5.4-1.6 8.8-6 13.4-9.3A54 54 0 0 0 80 36c5.3-4 5.3-12.3 5.3-18.7-7.4 2.1-12.5 8-16 14.7" fill="#00f"/><path d="M70.7 26.7L72 28l-1.3-1.3" fill="#434343"/><path d="M229.3 26.7l1.4 1.3-1.4-1.3" fill="#656565"/><path d="M280 26.7c-2.7 9.3-2.7 19.7-2.7 29.3-.1 5.3-1.3 9.7 0 14.7 3.4-5 2.5-10.3 2.7-16 .4-9 3.6-19.5 0-28" fill="#00f"/><path d="M76 28l1.3 1.3L76 28" fill="#434343"/><path d="M192 34.7c-1.3 10.2-1.3 20.3-1.3 30.6h2.6c0-3.3-.3-7.3 1.6-10.2 3.6-5.4 16.7-4.4 22.4-4.4 5.8 0 11.6-1.4 17.4-1.2 13 .5 25.7 4 38.6 5.2-6.4-6.2-15.5-6.2-24-6.7-18.6-1.3-36.1 0-54.6 1.3 0-4.9.5-9.8 0-14.6H192m-68 2.6V68h2.7V37.3H124" fill="#00f"/><path d="M37.3 38.7l1.4 1.3-1.4-1.3" fill="#212121"/><path d="M38.7 38.7c-1.8 7.2-5.4 27.7 1.3 32v-16c20.4 4.6 40.5 2.6 61.3 2.6 6 0 16 4 20-1.3-26.6-2-56 3-81.3-5.3 1.2-4 1.3-7.8 1.3-12h-2.6" fill="#00f"/><path d="M41.3 44l1.4 1.3-1.4-1.3" fill="#656565"/><path d="M227.6 45.8c-.6.6.8.5.8.4.6-.6-.8-.5-.8-.4" fill="#212121"/><path d="M229.3 45.3c3.5 1.5 6.7 1.4 10.7 1.4-3.5-1.4-6.9-1.4-10.7-1.4m-28 1.4l1.4 1.3-1.4-1.3" fill="#434343"/><path d="M212 50.7l1.3 1.3-1.3-1.3" fill="#888"/><path d="M112 53.3l1.3 1.4-1.3-1.4" fill="#656565"/><path d="M264 53.3l1.3 1.4-1.3-1.4" fill="#888"/><path d="M268 54.7l1.3 1.3-1.3-1.3" fill="#656565"/><path d="M50.7 57.3l1.3 1.4-1.3-1.4" fill="#434343"/><path d="M113.3 58.7l1.4 1.3-1.4-1.3m5.4 1.3l1.3 1.3-1.3-1.3" fill="#888"/><path d="M274.7 64l1.3 1.3-1.3-1.3" fill="#656565"/><path d="M274.7 65.3l1.3 1.4-1.3-1.4" fill="#aaa"/><path d="M238.7 72h8c-1.4 2.3-2 4.1-2.7 6.7h5.3c-4 4-6.8 3.5-12 2.6.9 1.6 1.3 3.2 3.1 4 1.6.7 3.2 1.4 5 .7 13.8-4 .2-24.6-6.7-14" fill="#00f"/><path d="M249.3 69.3l1.4 1.4-1.4-1.4" fill="#aaa"/><path d="M238.7 72l1.3 1.3-1.3-1.3" fill="#888"/><path d="M336 73.3l1.3 1.4-1.3-1.4" fill="#212121"/><path d="M334.7 74.7c0 6.7.7 19.6-6 24-3.4 2-7.8.6-11.4.2L292 96c-25.3-3.7-52.5-5.2-77.3 1.3l1.3-6.6c-5.6 4-5.3 12.3-5.3 18.6h2.6l1.4-9.3c18.2-1.6 36-5.2 54.6-3.9 20 1.4 39.8 6.6 60 6.6-.7 3.1-1.3 6-1.3 9.3 3.2-2.4 3.8-5.3 5-9.3 2.2-7.4 9.4-22.5 1.7-28" fill="#00f"/><path d="M73.3 80l1.4 1.3-1.4-1.3" fill="#434343"/><path d="M70.7 88l8-4c-1.4 4.4-5.4 9.9-4.7 14.7 1 8.2 12.5 1.8 15.3-1.4-4.6.8-8.6 2-13.3 1.4 2.2-3.8 6.4-9.7 4.5-14.3-2.6-6.1-10-1.2-9.8 3.6" fill="#00f"/><path d="M68 82.7l1.3 1.3-1.3-1.3" fill="#ccc"/><path d="M333.3 82.7l1.4 1.3-1.4-1.3" fill="#888"/><path d="M242.7 86.7L244 88l-1.3-1.3" fill="#aaa"/><path d="M337.3 88l1.4 1.3-1.4-1.3" fill="#ccc"/><path d="M17.3 90.7c0 9.4-1.3 18.6-1.3 28 0 4.7-1.3 9.5 4 10.6-.7-3.8-2.4-9.1 0-12.7 4.5-6.6 22.5-3.7 29.3-3 16 1.5 32-.2 48 1.3 15 1.4 33.4 5.4 48 1.1l-1.3 20h4c0-5.3-.9-11.9.3-17.3.7-3.4 4.1-5.9 4.3-9.3.1-2.7-1.4-2.5-3.3-2.7 0-5.4.3-10.7-1.3-16-4.6 6 .7 18-5.8 22.4-2.8 2-7 1.6-10.2 1.6-9.3 0-18.7-1.6-28-2.5-18.9-1.8-38.4-1.5-57.3-1.5-9.4 0-17.6-1.7-26.7 0 0-6.6 1-13.6 0-20h-2.7" fill="#00f"/><path d="M236 92l1.3 1.3L236 92" fill="#aaa"/><path d="M276 92l1.3 1.3L276 92m-126.7 1.3l1.4 1.4-1.4-1.4" fill="#656565"/><path d="M330.7 93.3l1.3 1.4-1.3-1.4" fill="#434343"/><path d="M302.7 96l1.3 1.3-1.3-1.3" fill="#888"/><path d="M317.3 97.3l1.4 1.4-1.4-1.4" fill="#ccc"/><path d="M222.7 98.7l1.3 1.3-1.3-1.3" fill="#434343"/><path d="M16 100l1.3 1.3L16 100" fill="#656565"/><path d="M321.3 102.7l1.4 1.3-1.4-1.3M24 108l1.3 1.3L24 108m8 0l1.3 1.3L32 108" fill="#aaa"/><path d="M148.9 108.4c-.6.6.8.6.9.5.6-.6-.8-.5-1-.5" fill="#fff"/><path d="M58.7 109.3l1.3 1.4-1.3-1.4" fill="#ccc"/><path d="M60 109.3l1.3 1.4-1.3-1.4m270.7 1.4l1.3 1.3-1.3-1.3" fill="#434343"/><path d="M113.3 112l1.4 1.3-1.4-1.3" fill="#ccc"/><path d="M152 112l1.3 1.3-1.3-1.3" fill="#aaa"/><path d="M329.3 112l1.4 1.3-1.4-1.3" fill="#656565"/><path d="M37.3 113.3l1.4 1.4-1.4-1.4m-22.6 1.4L16 116l-1.3-1.3" fill="#ccc"/><path d="M68 114.7l1.3 1.3-1.3-1.3" fill="#434343"/><path d="M69.3 114.7l1.4 1.3-1.4-1.3" fill="#aaa"/><path d="M102.7 116l1.3 1.3-1.3-1.3" fill="#212121"/><path d="M104 116l1.3 1.3-1.3-1.3" fill="#ccc"/><path d="M125.3 117.3l1.4 1.4-1.4-1.4" fill="#434343"/><path d="M252 128c.5 6.7.7 17.5 6.7 21.3-.9-6.6-1.4-17.1-6.7-21.3" fill="#00f"/><path d="M18.7 129.3l1.3 1.4-1.3-1.4" fill="#ccc"/><path d="M148.4 132.9s-.1 1.5.5.9c0-.1.1-1.5-.5-1" fill="#656565"/><path d="M256 133.3l1.3 1.4-1.3-1.4" fill="#888"/><path d="M252 138.7l1.3 1.3-1.3-1.3" fill="#212121"/><path d="M102.7 144v28c3.8-2.9 3.4-8 7-11 4.5-3.7 12.8-4 18.3-5-6.4-2.5-14.7.8-21.3 1.3 0-5 .3-10-4-13.3" fill="#00f"/><path d="M240 146.7l1.3 1.3-1.3-1.3m8 0l1.3 1.3-1.3-1.3m-60 1.3l1.3 1.3-1.3-1.3" fill="#434343"/><path d="M108 162.7c13.8-.6 27.6-4.6 41.3-6.3 23.5-3 47.2-3.5 70.7-3.5 13.1 0 25.3-1.2 38.7.4-1-4.6-5-4.4-9.4-5-8.6-1.2-16.8.8-25.3 1-14.1.4-28.6-1.3-42.7.1-14.7 1.5-29.3 3.7-44 5.3-7.4.6-25.8.8-29.3 8" fill="red"/><path d="M254.7 148l1.3 1.3-1.3-1.3" fill="#f0f"/><path d="M101.3 149.3l1.4 1.4-1.4-1.4" fill="#aaa"/><path d="M101.3 150.7l1.4 1.3-1.4-1.3m45.4 1.3l1.3 1.3-1.3-1.3" fill="#212121"/><path d="M202.7 152c3.8 1.6 7.8 1.3 12 1.3-4-1.6-8-1.3-12-1.3" fill="#00f"/><path d="M215.6 152.4c-.6.6.8.6.8.5.6-.6-.8-.5-.8-.5m7-.4c2 1 3.2 1.1 5.4 1.3-2-.9-3-1-5.3-1.3" fill="#f0f"/><path d="M228 152l1.3 1.3-1.3-1.3m18.7 0c2.6 1.3 6.2 2 8 4.6 4.6 7-.8 18.3 1.3 26 4.8-8 2.7-20 2.7-29.3-4-.7-8-1.2-12-1.3" fill="#00f"/><path d="M136 153.3c2 1 3 1.1 5.3 1.4-2-1-3-1.1-5.3-1.4" fill="#f0f"/><path d="M176 153.3c7.6 3.2 18.4 1.4 26.7 1.4-7.7-3.2-18.5-1.4-26.7-1.4" fill="#00f"/><path d="M217.3 153.3l1.4 1.4-1.4-1.4" fill="#aaa"/><path d="M114.7 154.7l1.3 1.3-1.3-1.3" fill="#ccc"/><path d="M128 154.7l1.3 1.3-1.3-1.3m30.7 0c2.3 1 4 1.3 6.6 1.3-2.3-1-4-1.2-6.6-1.3" fill="#f0f"/><path d="M165.3 154.7c2.4 1 4 1.3 6.7 1.3-2.4-1-4-1.2-6.7-1.3" fill="#00f"/><path d="M194.7 154.7l1.3 1.3-1.3-1.3" fill="#888"/><path d="M146.7 156l1.3 1.3-1.3-1.3" fill="#f0f"/><path d="M168 156l1.3 1.3-1.3-1.3" fill="#aaa"/><path d="M169.3 156l1.4 1.3-1.4-1.3" fill="#434343"/><path d="M130.7 158.7l1.3 1.3-1.3-1.3" fill="#656565"/><path d="M101.3 165.3l1.4 1.4-1.4-1.4" fill="#888"/><path d="M178.7 169.3l1.3 1.4-1.3-1.4m20 0l1.3 1.4-1.3-1.4" fill="#aaa"/><path d="M173.3 170.7l1.4 1.3-1.4-1.3" fill="#434343"/><path d="M165.3 186.7c4.6-2.5 7.3-6.7 10.7-10.7-1.6 5.7-3.2 11.4-4 17.3 6-1.2 7.7-16.8 8-22.6-8 2.2-12.3 8.5-14.7 16m24 6.6c6-2.2 9.6-7 11.2-13.3.6-2.4 1.2-6.3-1.3-7.8-2.7-1.5-6.2.8-8 2.8-4.8 5.3-4.5 12.2-1.9 18.3" fill="#00f"/><path d="M188 176l1.3 1.3-1.3-1.3" fill="#aaa"/><path d="M253.3 176l1.4 1.3-1.4-1.3" fill="#888"/><path d="M178.7 177.3l1.3 1.4-1.3-1.4" fill="#aaa"/><path d="M192 177.3c-1 4-1.3 8-1.3 12a20 20 0 0 0 6.6-10.6l-5.3-1.4" fill="#fff"/><path d="M254.7 182.7l1.3 1.3-1.3-1.3" fill="#aaa"/><path d="M177.3 184l1.4 1.3-1.4-1.3" fill="#434343"/><path d="M172 185.3l1.3 1.4-1.3-1.4" fill="#ccc"/><path d="M185.3 185.3l1.4 1.4-1.4-1.4" fill="#656565"/><path d="M185.3 186.7l1.4 1.3-1.4-1.3" fill="#212121"/><path d="M193.3 192l1.4 1.3-1.4-1.3" fill="#434343"/></svg>