<svg xmlns="http://www.w3.org/2000/svg" height="188" width="402.7"><path d="M0 0v188h402.7V0H0" fill="#fff"/><path d="M46.7 32c5.6-4 9.7-11 14.6-16-1.3 6.3-3.4 12.3-4 18.7 5.9-4.4 8-15.8 6.7-22.7-8.9 3-16 10.7-17.3 20" fill="#00f"/><path d="M65.3 13.3l1.4 1.4-1.4-1.4" fill="#434343"/><path d="M65.3 16l1.4 1.3-1.4-1.3" fill="#ccc"/><path d="M52 25.3l1.3 1.4-1.3-1.4" fill="#212121"/><path d="M382.7 44c-1.8 3.1-3 6-4 9.3 6.6-3.7 9.6-11.3 10.6-18.6-7 4.4-9.7 7.4-18.6 5.3 2.6-3.9 5-7.6 6.6-12-4 2-12.7 10-7.1 14.7 2.9 2.4 9 1.3 12.5 1.3" fill="#00f"/><path d="M228 29.3l1.3 1.4-1.3-1.4" fill="#ccc"/><path d="M228 33.3l10.7-1.3-5.4 5.3a13 13 0 0 0 5.4 4V44l-12 2.7c6 4.4 17.7 0 12-8 1.2-1.8 3.3-3.8 2.6-6.3-1.3-6.2-11.2-2.1-13.3 1" fill="#00f"/><path d="M45.3 30.7l1.4 1.3-1.4-1.3" fill="#888"/><path d="M56 32l1.3 1.3L56 32" fill="#656565"/><path d="M237.3 32l-1.3 2.7c1.7-1.3 1.9-1 1.3-2.7" fill="#212121"/><path d="M237.3 33.3l1.4 1.4-1.4-1.4" fill="#fff"/><path d="M242.7 33.3l1.3 1.4-1.3-1.4" fill="#aaa"/><path d="M70.7 42.7c6.4 5.3 7.2 12 8 20 2 14.6 1.3 29.3 1.3 44 0 6.6 1.3 14.8-.4 21.3-1.1 4.1-5.3 6-7.6 9.3l8-1.3c-1.4 4.3-2.2 6.8-6.7 8 1.1 4.6 2.6 8.2 6.7 10.7 4-6.6 15.2-6.4 9.9-17.2-.8-1.5-2.2-2.8-3.2-4.2 40.6-9.3 79.5-30.5 117.3-47.6 8.8-4 17.6-7.9 26.7-11.3 5.7-2.2 10.6-2.8 14.6-7.7-8.7-2.7-17.6-3-26.6-4.4-14.3-2-28.5-4.5-42.7-6.7-21.6-3.3-42.7-9-64-13.2-8.3-1.6-17.3-1-25.3-2.8-3.5-.8-7-4-10.7-3-3 .9-4 3.5-5.3 6" fill="#00f"/><path d="M73.3 36l1.4 1.3-1.4-1.3" fill="#656565"/><path d="M100 38.7l1.3 1.3-1.3-1.3" fill="#434343"/><path d="M69.3 40l1.4 1.3-1.4-1.3" fill="#aaa"/><path d="M76.9 40.4c-.6.6.8.6.9.5.6-.6-.8-.5-1-.5" fill="#fff"/><path d="M106.7 40l1.3 1.3-1.3-1.3" fill="#212121"/><path d="M233.3 40l1.4 1.3-1.4-1.3" fill="#888"/><path d="M366.7 41.3l1.3 1.4-1.3-1.4" fill="#aaa"/><path d="M78.7 44c.9 3.3 1.3 5.8 4 8-2.1 7.3 0 16.3 0 24v54.7c10-.9 29.7-4.9 36-13.4 6.9.8 18.6-3.4 22.6-9.3 8.7.5 28.4-7.4 33.4-14.7 11.4.3 24.2-8.8 34.6-13.3 5-2 10.3-3.5 13.4-8 2 1.3 1.6 1.3 4 1.3L228 72c-3.5-8.7-21.3-10.2-29.3-8-3.1-3.5-10.1-3.3-14.7-4-9-1.7-18.3-2.5-27.2-4.4-6.7-1.4-12.8-4-19.5-2.3v-2.6c-5.6-1-10.6-1.3-16-2.7l-22.6-5.3c-3.2-.8-5.8 1.3-8 1.3-2.7.2-5.8-2-9.4-1.3L80 45.3 78.7 44" fill="#fff"/><path d="M88 42.7c1.7.9 2 1 4 1.3-1.7-1-2-1-4-1.3" fill="#434343"/><path d="M118.7 42.7L120 44l-1.3-1.3" fill="#888"/><path d="M236 42.7l1.3 1.3-1.3-1.3" fill="#656565"/><path d="M388 42.7l1.3 1.3-1.3-1.3M80 44l1.3 1.3L80 44" fill="#212121"/><path d="M226.7 44l1.3 1.3-1.3-1.3m6.6 0l1.4 1.3-1.4-1.3" fill="#ccc"/><path d="M385.3 45.3l1.4 1.4-1.4-1.4" fill="#212121"/><path d="M136 46.7l1.3 1.3-1.3-1.3" fill="#888"/><path d="M382.7 50.7L384 52l-1.3-1.3" fill="#656565"/><path d="M81.3 52l1.4 1.3-1.4-1.3" fill="#ccc"/><path d="M137.3 52l1.4 1.3-1.4-1.3" fill="#888"/><path d="M181.3 54.7l1.4 1.3-1.4-1.3m-24 1.3l1.4 1.3-1.4-1.3" fill="#434343"/><path d="M189.3 56l1.4 1.3-1.4-1.3" fill="#aaa"/><path d="M353.3 62.7c6.6 3.3 13.4 4.6 17.4-2.7-6.1-1.3-11.7.3-17.4 2.7" fill="#00f"/><path d="M214.7 60l1.3 1.3-1.3-1.3" fill="#434343"/><path d="M190.7 61.3l1.3 1.4-1.3-1.4" fill="#656565"/><path d="M28 84c-1.3 4-2.3 6.7 1.3 9.3L30.7 80c-3.7.6-6.1 1.4-8.9 4.2-2 2-4.5 7-8 5.9-4-1.3-2.4-7.4-1.4-10.1 2.7-7.6 9-12.5 17-13.3-3.3-4.9-8-2.7-12 .5C11.3 72 8 78.9 8 86.7c.2 7 5.3 11 11.5 6 3.1-2.7 5.2-6 8.5-8.7" fill="#00f"/><path d="M82.7 62.7L84 64l-1.3-1.3" fill="#656565"/><path d="M198.7 62.7L200 64l-1.3-1.3" fill="#ccc"/><path d="M370.7 62.7L372 64l-1.3-1.3" fill="#656565"/><path d="M18.7 64l1.3 1.3-1.3-1.3m274.6 0l1.4 1.3-1.4-1.3" fill="#212121"/><path d="M294.7 64l1.3 1.3-1.3-1.3" fill="#ccc"/><path d="M336 64l1.3 1.3L336 64" fill="#434343"/><path d="M261.3 65.3l1.4 1.4-1.4-1.4" fill="#212121"/><path d="M262.7 65.3l1.3 1.4-1.3-1.4" fill="#656565"/><path d="M264 65.3l1.3 1.4-1.3-1.4" fill="#aaa"/><path d="M249.3 68c0 2.4 0 2 1.4 4 35.2-8.5 73.5-2.7 109.3-2.7v-2.6a626 626 0 0 0-76-1.3c-11.6.5-23.1 2.4-34.7 2.6" fill="#00f"/><path d="M14.7 66.7L16 68l-1.3-1.3m230.6 0l1.4 1.3-1.4-1.3" fill="#aaa"/><path d="M242.7 69.3l1.3 1.4-1.3-1.4" fill="#656565"/><path d="M272.9 69.8c-.6.6.8.5.9.4.6-.6-.8-.5-1-.4" fill="#aaa"/><path d="M274.7 69.3l1.3 1.4-1.3-1.4" fill="#656565"/><path d="M276 69.3l1.3 1.4-1.3-1.4m78.7 0l1.3 1.4-1.3-1.4" fill="#212121"/><path d="M356 69.3l1.3 1.4-1.3-1.4" fill="#656565"/><path d="M17.3 70.7l1.4 1.3-1.4-1.3" fill="#aaa"/><path d="M222.7 72l1.3 1.3-1.3-1.3" fill="#212121"/><path d="M9.3 73.3l1.4 1.4-1.4-1.4" fill="#656565"/><path d="M8 76l1.3 1.3L8 76" fill="#212121"/><path d="M79.1 84.9s-.1 1.5.5.9c0-.1.1-1.5-.5-1" fill="#ccc"/><path d="M30.7 86.7L32 88l-1.3-1.3" fill="#888"/><path d="M78.7 86.7v4c.9-2.1.9-2 0-4" fill="#aaa"/><path d="M17.3 88l1.4 1.3-1.4-1.3" fill="#888"/><path d="M16 89.3l1.3 1.4-1.3-1.4" fill="#656565"/><path d="M17.3 89.3l1.4 1.4-1.4-1.4" fill="#fff"/><path d="M21.3 90.7l1.4 1.3-1.4-1.3" fill="#ccc"/><path d="M79.1 91.6s-.1 1.4.5.8c0 0 .1-1.4-.5-.8m110.2.4l1.4 1.3-1.4-1.3" fill="#888"/><path d="M25.3 93.3l1.4 1.4-1.4-1.4" fill="#212121"/><path d="M79.1 94.2c0 .1-.1 1.5.5 1 0-.2.1-1.6-.5-1m95.6-.9l1.3 1.4-1.3-1.4" fill="#656565"/><path d="M78.7 96v5.3c1-2.3 1-3 0-5.3" fill="#434343"/><path d="M78.7 101.3v9.4c1.3-3.4 1.3-6 0-9.4m62.6 6.7l1.4 1.3-1.4-1.3" fill="#212121"/><path d="M118.7 117.3l1.3 1.4-1.3-1.4m13.3 0l1.3 1.4-1.3-1.4m-6.7 2.7l1.4 1.3-1.4-1.3" fill="#434343"/><path d="M78.7 121.3v4c.9-2 .9-1.9 0-4" fill="#212121"/><path d="M78.7 125.3v4c.9-2 .9-1.9 0-4" fill="#434343"/><path d="M79.1 130.2c0 .1-.1 1.5.5 1 0-.2.1-1.6-.5-1" fill="#ccc"/><path d="M86.7 133.3l1.3 1.4-1.3-1.4" fill="#fff"/><path d="M88 133.3l1.3 1.4-1.3-1.4" fill="#ccc"/><path d="M84 137.3c-.3 2.3-.3 3.1 0 5.4-2 1.8-1.3 5.8 2 3.7 3-2 1.4-6.4.7-9H84" fill="#fff"/><path d="M82.7 141.3l1.3 1.4-1.3-1.4" fill="#ccc"/><path d="M86.7 150.7L88 152l-1.3-1.3" fill="#aaa"/><path d="M74.7 152l1.3 1.3-1.3-1.3" fill="#656565"/><path d="M45.3 161.3c4-2 7.4-3.6 12-4-1.7 6-4.9 11-5.3 17.4h6.7c-1.4-2.4-1.4-2.2-4-2.7 2-3.8 6.3-9.7 4.4-14.2-3.1-7.4-12.4-1.3-13.8 3.5" fill="#00f"/><path d="M60 156l1.3 1.3L60 156" fill="#aaa"/><path d="M50.7 168l1.3 1.3-1.3-1.3" fill="#212121"/></svg>