<svg xmlns="http://www.w3.org/2000/svg" height="78.7" width="346.7"><path d="M0 0v78.7h346.7V0H0" fill="#fff"/><path d="M290.7 4c1.3 13.6-12.2 12.8-22.7 13.3-16.3.7-33.3-1.2-49.3-3.4-4-.5-8.2 0-12-1-3.5-.9-6-3.6-9.4-4.9l1.4 17.3h2.6c0-3.2.6-6.1 1.4-9.3 10.2 2.7 21.3 2.3 32 2.7 18.9.8 37 .8 56 0v12h2.6L294.7 4h-4M128 6.7v6.6c-16 2-32 4.6-48 5.4-16 .6-32.1-.7-48 1.3-.1-4.4-.2-6.9-4-9.3l-1.3 18.6h4c2.9-9.6 15.8-6.6 24-6.6 24 0 48-2.4 72-5.4V32h2.6l1.4-25.3H128" fill="#0ff"/><path d="M200 6.7l1.3 1.3-1.3-1.3" fill="#656565"/><path d="M214.7 12l1.3 1.3-1.3-1.3" fill="#ccc"/><path d="M89.3 16l1.4 1.3-1.4-1.3" fill="#212121"/><path d="M72 17.3l1.3 1.4-1.3-1.4m45.3 1.4l1.4 1.3-1.4-1.3" fill="#888"/><path d="M224 18.7l1.3 1.3-1.3-1.3" fill="#ccc"/><path d="M98.7 20l1.3 1.3-1.3-1.3" fill="#aaa"/><path d="M68 22.7l1.3 1.3-1.3-1.3" fill="#888"/><path d="M125.3 22.7l1.4 1.3-1.4-1.3" fill="#434343"/><path d="M25.3 25.3l1.4 1.4-1.4-1.4m100 4l1.4 1.4-1.4-1.4m4 2.7l1.4 1.3-1.4-1.3" fill="#ccc"/><path d="M105.3 37.3c-6 20.2 17.3 13.4 29.4 13.4-7.7-3.3-19.6-2-28-2.7 0-3.8 0-7.2-1.4-10.7M48 38.7c2 10.6-2.8 10-8 17.3h8c.9 3 1.3 3.7 4 5.3 0-7 2.5-18.4-4-22.6M6.7 40c-2 6.4-3.6 17.3 2.6 21.3.6-7.7 4.5-10.2 12-10.6-4-1.7-8-1.4-12-1.4V40H6.7" fill="#0ff"/><path d="M336 40l1.3 1.3L336 40" fill="#ccc"/><path d="M200 41.3c-.9 3.2-1.4 7.4-4.4 9.4-3.2 2-8 1.3-11.6 1.3h-28c7.7 4 17 2.4 25.3 2.7 6.2.3 11.3 1.4 17.4 0v8h2.6l1.4-21.4H200m136 0l-1.3 9.4h-24c7.1 3.2 16.2 3 24 4-1 3.2-1.4 6-1.4 9.3 3.3-2.5 5-6.4 8-9.3-1.9-4.6-2.6-8.4-2.6-13.4H336" fill="#0ff"/><path d="M202.7 45.3l1.3 1.4-1.3-1.4" fill="#ccc"/><path d="M202.7 46.7L204 48l-1.3-1.3" fill="#888"/><path d="M202.7 48l1.3 1.3-1.3-1.3" fill="#434343"/><path d="M21.3 49.3l1.4 1.4-1.4-1.4" fill="#00f"/><path d="M23.6 49.8c-.6.6.8.5.8.4.6-.6-.8-.5-.8-.4" fill="#f0f"/><path d="M9.3 54.7c10.7 1 21-2 32 0-3.4-9.8-25.8-5.4-32 0" fill="red"/><path d="M104 49.3l1.3 1.4-1.3-1.4" fill="#00f"/><path d="M144 49.3l1.3 1.4-1.3-1.4" fill="#ccc"/><path d="M197.3 49.3l1.4 1.4-1.4-1.4m69.4 0l1.3 1.4-1.3-1.4" fill="#212121"/><path d="M13.3 50.7l1.4 1.3-1.4-1.3" fill="#00f"/><path d="M52 50.7l1.3 1.3-1.3-1.3" fill="#aaa"/><path d="M102.7 50.7c5 7.7 13.3 4.6 21.3 4 18.7-1.2 36.2 5.3 54.7 5.3 6.3 0 14.6 1.7 18.6-4-7 0-14.4 1.7-21.3 1-8.6-1-16.7-4.3-25.3-4.9-16-1.1-32 .6-48-1.4" fill="red"/><path d="M106.7 50.7L108 52l-1.3-1.3" fill="#fff"/><path d="M122.7 50.7c5.2 2.2 11.6 1.3 17.3 1.3-5.3-2.2-11.6-1.3-17.3-1.3" fill="#00f"/><path d="M140.9 51.1c-.6.6.8.5.9.5.6-.6-.8-.6-1-.5m107.2-.4c0 5.9-.3 11.6 1.3 17.3 3.8-5 2.3-11.5 1.4-17.3H248" fill="#0ff"/><path d="M268 50.7c1.7.9 2 1 4 1.3-1.7-1-2-1-4-1.3" fill="#f0f"/><path d="M250.7 57.3c14.4-1.8 29.3-4.6 44-4 9.8.5 21 4.8 30.6 2.7-4.7-3.7-10.2-3.6-16-4a203 203 0 0 0-41.3-.2c-6.7.6-13.4-.8-17.3 5.5" fill="red"/><path d="M305.3 50.7c2 .9 3.1 1 5.4 1.3-2-1-3.1-1.1-5.4-1.3" fill="#00f"/><path d="M154.7 52l1.3 1.3-1.3-1.3" fill="#f0f"/><path d="M317.3 52l1.4 1.3-1.4-1.3" fill="#00f"/><path d="M20 53.3l1.3 1.4-1.3-1.4" fill="#212121"/><path d="M32 53.3c2.4 1 4 1.4 6.7 1.4-2.4-1-4-1.2-6.7-1.4" fill="#0ff"/><path d="M250.7 53.3l1.3 1.4-1.3-1.4" fill="#00f"/><path d="M281.3 53.3l1.4 1.4-1.4-1.4m18.7 0l1.3 1.4-1.3-1.4" fill="#f0f"/><path d="M104 54.7v8h2.7v-8H104" fill="#0ff"/><path d="M166.7 54.7c6.6 3.3 14 2.6 21.3 1.3-6.3-2.6-14.7-1.3-21.3-1.3m29.3 0l1.3 4c1-1.7 1-2.1 1.4-4H196" fill="#fff"/><path d="M257.3 56l1.4 1.3-1.4-1.3" fill="#ccc"/><path d="M314.7 56l1.3 1.3-1.3-1.3" fill="#434343"/><path d="M165.3 58.7l1.4 1.3-1.4-1.3m32.5.9c-.1 0-.2 1.4.4.8.1 0 .2-1.4-.4-.8m48.9-1L248 60l-1.3-1.3M173.3 60l1.4 1.3-1.4-1.3" fill="#212121"/><path d="M246.7 60l1.3 1.3-1.3-1.3" fill="#ccc"/><path d="M200 62.7l1.3 1.3-1.3-1.3" fill="#212121"/></svg>