<svg xmlns="http://www.w3.org/2000/svg" height="128" width="292"><path d="M0 0v128h292V0H0" fill="#fff"/><path d="M158.7 8l1.3 1.3-1.3-1.3" fill="#aaa"/><path d="M158.7 17.3c-12.7 7 5.2 18.1 12 6.7 1-2 1.6-4.5 1.5-6.7-.2-2.2-.5-4.3-2.2-6-6-6-12.7-1.2-11.3 6" fill="red"/><path d="M156 12c-10.7 8.8-25.7 7.5-38.7 9.3a395.8 395.8 0 0 0-60 13.4C48.6 37.4 33 40 28 48l10.7-1.3c7.2-6.4 18.6-8 28-10.7 19.3-5.3 38.9-8.6 58.6-11.9 11.3-1.9 22.7-1.9 33.4-6.8-.8-2.3-1.4-3.4-2.7-5.3m5.3 0c2.2 3.7 3.7 4.4 8 4a13.5 13.5 0 0 0-8-4"/><path d="M165.3 12l1.4 1.3-1.4-1.3" fill="#fff"/><path d="M258.7 20c.7 2.8.8 6.7 2.2 9 1.1 2.3 3.4 3.1 5.8 3.3 4 .3 9.6-1.4 11-5.6 1.5-4.6-2-11.9-7.2-11.4-4 .3-7.9 3.6-11.8 4.7" fill="#00f"/><path d="M172 22.7c10.7-2.6 22.4-1.4 33.3-1.4 18.7 0 37.7-.8 56 4l-2.6-5.3c3.6-.6 4.7-1 6.6-4-5 .5-9.6 2.3-14.6 2.7-18.7 1-37.4-1.4-56-1.4-6 0-21.4-1.2-22.7 5.4"/><path d="M244 17.3l1.3 1.4-1.3-1.4" fill="#656565"/><path d="M268 20c2.7-.5 2.7-.3 4-2.7-2.1 1-2.4 1.1-4 2.7"/><path d="M276 17.3l1.3 1.4-1.3-1.4" fill="#212121"/><path d="M276 18.7l1.3 1.3-1.3-1.3" fill="#888"/><path d="M38.7 46.7c-7.8-1-9.6 4.2-12 10.6 20.4 8.8 44.7 10.2 66 16.1 10.3 2.9 22 9.7 32.6 8 9.3 11.4 35.1.3 40 17.3 9.2-.4 18.7 1.7 28 2.6 23.7 2 47.1 5 70.7 8 1.8-3.7 6.6-5.7 7.6-9.6 1.7-6.6-.4-14.4-1-21C269.9 64 267 48 268 33.3c-5-2.3-7.5-7.6-12.2-9.6-3.1-1.3-7.1-1-10.5-1.5-14.7-2.2-30.6-.9-45.3-.9-7.5 0-16.7-1.3-24 .5-5 1.2-8.3 5.7-13.3 7-6.3 1.9-8.6-3.5-9.4-8.8-28 5.3-55.6 8-83.2 14.9-9 2.2-25.6 4-31.4 11.8" fill="#fff"/><path d="M249.3 22.7l1.4 1.3-1.4-1.3M88 25.3l1.3 1.4-1.3-1.4m28 0l1.3 1.4-1.3-1.4" fill="#ccc"/><path d="M265.3 26.7c3.1 1.3 4.8.9 8 0-3-1.3-4.7-1-8 0"/><path d="M157.3 29.3l1.4 1.4-1.4-1.4" fill="#212121"/><path d="M81.3 32l1.4 1.3-1.4-1.3" fill="#888"/><path d="M268 32c-.6 6 .8 11.4 1.2 17.3.9 12.5 1 25 2.4 37.4.8 6.3-1.3 13.3 4.4 17.3 0-24-3.4-48-5.3-72H268"/><path d="M53.3 34.7l1.4 1.3-1.4-1.3" fill="#434343"/><path d="M70.7 34.7L72 36l-1.3-1.3" fill="#888"/><path d="M48 36l1.3 1.3L48 36" fill="#434343"/><path d="M17.3 45c-9.5 3.8-7.3 19.6 4 15.5 10.7-4 8.4-20.4-4-15.5" fill="#00f"/><path d="M272 45.3l1.3 1.4-1.3-1.4" fill="#434343"/><path d="M9.3 50.7l1.4 1.3-1.4-1.3" fill="#212121"/><path d="M268 56l1.3 1.3L268 56" fill="#aaa"/><path d="M24 61.3c6.7 1 13.2 3.4 20 4.9 20 4.2 40.4 8 60 14.3 12.6 4 30.7 12.8 44 8.8-8.2-4.4-19-5.2-28-7.8-21.7-6.2-43.4-11.5-65.3-17-7-1.8-26.1-9.8-30.7-3.2"/><path d="M30.7 62.7L32 64l-1.3-1.3" fill="#656565"/><path d="M50.7 62.7L52 64l-1.3-1.3" fill="#888"/><path d="M56 64l1.3 1.3L56 64" fill="#aaa"/><path d="M52 68l1.3 1.3L52 68" fill="#ccc"/><path d="M60 69.3l1.3 1.4-1.3-1.4" fill="#656565"/><path d="M92 72l1.3 1.3L92 72" fill="#ccc"/><path d="M76 73.3l1.3 1.4-1.3-1.4" fill="#aaa"/><path d="M274.7 76l1.3 1.3-1.3-1.3" fill="#ccc"/><path d="M124 81.3l1.3 1.4-1.3-1.4" fill="#aaa"/><path d="M146.7 86.7L148 88l-1.3-1.3" fill="#656565"/><path d="M129.3 88l1.4 1.3-1.4-1.3" fill="#aaa"/><path d="M148.4 89.8c-4 2.2-2.3 9.5.4 12 2.9 2.8 7.7 2.3 11 .5 12-6.6-3.2-16.8-11.4-12.5" fill="#00f"/><path d="M140 90.7l1.3 1.3-1.3-1.3" fill="#aaa"/><path d="M270.7 93.3l1.3 1.4-1.3-1.4" fill="#656565"/><path d="M145.8 95.6c-.1 0-.2 1.4.4.8.1 0 .2-1.4-.4-.8"/><path d="M166.7 97.3l1.3 1.4-1.3-1.4m109.3 0l1.3 1.4-1.3-1.4" fill="#434343"/><path d="M162.7 98.7v2.6c33.2 2.7 68.8 4.2 101.3 12-1.6-7.6-16.3-5.9-22.7-7.4-10-2.5-21.5-2.3-32-3.2-15.4-1.7-31.1-4-46.6-4"/><path d="M185.3 98.7l1.4 1.3-1.4-1.3" fill="#656565"/><path d="M266.7 102.7l1.3 1.3-1.3-1.3" fill="#434343"/><path d="M269.3 103.5c-8 2.1-5.7 16.5 2.7 15.2 14.7-2.7 12-19-2.7-15.2" fill="red"/><path d="M276.9 103.1c-.6.6.8.5.9.5.6-.6-.8-.6-1-.5" fill="#00f"/><path d="M280 104l1.3 1.3-1.3-1.3" fill="#f0f"/><path d="M213.3 106.7l1.4 1.3-1.4-1.3" fill="#656565"/><path d="M261.3 108l1.4 1.3-1.4-1.3" fill="#aaa"/><path d="M272 109.3l1.3 1.4-1.3-1.4m5.3 5.4l1.4 1.3-1.4-1.3"/><path d="M264 116l1.3 1.3-1.3-1.3" fill="#aaa"/><path d="M276 116l1.3 1.3-1.3-1.3"/></svg>