<svg xmlns="http://www.w3.org/2000/svg" height="130.7" width="533.3"><path d="M0 0v130.7h533.3V0H0" fill="#fff"/><path d="M173.3 14.7l1.4 1.3-1.4-1.3" fill="#888"/><path d="M285.3 14.7l1.4 1.3-1.4-1.3" fill="#aaa"/><path d="M286.7 14.7L288 16l-1.3-1.3" fill="#434343"/><path d="M146.7 16l1.3 1.3-1.3-1.3" fill="#212121"/><path d="M2.7 53.3V56c4.8.4 10.2 1.3 14.2 4.1 4.4 3.2 5 6.1 11.1 6.6-1.9-2-3-2.7-5.3-4l14.6-1.4c-1.6-5.6-4-10.5-8-14.6 0 5 2.1 8.7 4 13.3-3.7-.5-7-1.3-10.6-2.7 3-6.6 5.8-13.1 12-17.9 7.3-5.6 16.6-7.2 25.3-9.2 19.4-4.4 40-6.5 60-7.5 64.8-3.7 129.7-5.4 194.7-2.6 24.5 1.2 48.8 4.5 73.3 6.6 26 2 52.7 6.3 77.3 14.6 10.4 3.6 23.1 8.3 28 18.7-9.3.4-15.5-4.2-24-6.7 3.5 6.2 10.7 8.5 17.4 10.7-10.3 3-21.5 0-32 0-23.7 0-48.6 1.5-72-1.6-4.6-.6-10.4-1-14.7-2.4-4.5-1.3-7.1-4-12-4l10.7 10.7c-20.5 0-40.9-1.4-61.4-1.4-14.3 0-29.8 1.7-44-.4-5.7-.8-13.3-2-18.6-4-4.8-1.6-8.3-4.9-13.4-6.2 2.4 4 5.3 5.9 9.4 8-13 4-29.4 1.3-42.7 1.3a450 450 0 0 0-42.7 1.6c-9.8 1-22.4 2.7-32-.9-4.5-1.6-8-6-12-8.7-1.3 2-1.3 1.6-1.3 4l9.3 8c-22.7 0-46.7 4.2-69.3 1.3-4-.7-7-3-10.7-3.9-4.4-1-8.8 1.5-8.1 6.6 1.5 12 15.3.5 21.5 0 21-1.3 42.6 0 64 0-5.8 4.6-13.7 8.7-16 16 8-3.7 14-12 22.6-14.4 3.8-1 6.7 1.4 10.6 1 4-.7 6.8-4.2 10.8-5 20.2-3.7 42.1-3 62.6-3 11.3 0 30.7-4 38.7 5.4-4.7 1.7-9 4.1-13.3 6.7 10 3.4 21.3-9.9 32-10.6 34.1-2.5 71.4-1.7 105.3 2.6-4.5 2.3-9.3 3.7-12 8 11-2 20-10.4 30.7-11.8 9.3-1.4 19.8-.2 29.3-.2 24 0 48 1.3 72 1.3-3.6 3-7.7 4.9-9.3 9.3 7.7-2.6 13.3-8.6 21.3-10.6-3.5-16-17.5-23-32-28-28.2-9.7-58.7-13.3-88-16.3a1427.8 1427.8 0 0 0-294.7.5c-16 1.7-35.2 3.5-49.3 11.3a34.9 34.9 0 0 0-12 11.1c-1.6 2.8-2.8 7.5-5.9 9-3.8 2-11.2-.9-15.4-1" fill="#00f"/><path d="M320 16l1.3 1.3L320 16" fill="#aaa"/><path d="M110.7 18.7L112 20l-1.3-1.3" fill="#434343"/><path d="M112 18.7l1.3 1.3-1.3-1.3m245.3 0l1.4 1.3-1.4-1.3" fill="#aaa"/><path d="M358.7 18.7L360 20l-1.3-1.3" fill="#434343"/><path d="M96 20l1.3 1.3L96 20" fill="#ccc"/><path d="M166.7 20l1.3 1.3-1.3-1.3" fill="#656565"/><path d="M296 20l1.3 1.3L296 20" fill="#888"/><path d="M373.3 20l1.4 1.3-1.4-1.3" fill="#aaa"/><path d="M142.7 21.3l1.3 1.4-1.3-1.4m182.6 0l1.4 1.4-1.4-1.4" fill="#434343"/><path d="M384 21.3l1.3 1.4-1.3-1.4" fill="#ccc"/><path d="M77.3 22.7l1.4 1.3-1.4-1.3m42.7 0l1.3 1.3-1.3-1.3" fill="#aaa"/><path d="M121.3 22.7l1.4 1.3-1.4-1.3" fill="#434343"/><path d="M348 22.7l1.3 1.3-1.3-1.3" fill="#212121"/><path d="M349.3 22.7l1.4 1.3-1.4-1.3" fill="#888"/><path d="M350.7 22.7L352 24l-1.3-1.3" fill="#ccc"/><path d="M365.3 24l1.4 1.3-1.4-1.3" fill="#656565"/><path d="M402.7 24l1.3 1.3-1.3-1.3" fill="#aaa"/><path d="M58.7 25.3l1.3 1.4-1.3-1.4" fill="#ccc"/><path d="M93.3 25.3l1.4 1.4-1.4-1.4m282.7 0l1.3 1.4-1.3-1.4" fill="#aaa"/><path d="M416 25.3l1.3 1.4-1.3-1.4" fill="#ccc"/><path d="M84 26.7l1.3 1.3-1.3-1.3" fill="#aaa"/><path d="M424 26.7l1.3 1.3-1.3-1.3" fill="#434343"/><path d="M74.7 28l1.3 1.3-1.3-1.3" fill="#212121"/><path d="M397.3 28l1.4 1.3-1.4-1.3" fill="#888"/><path d="M430.7 28l1.3 1.3-1.3-1.3" fill="#434343"/><path d="M437.3 29.3l1.4 1.4-1.4-1.4m-380 1.4l1.4 1.3-1.4-1.3" fill="#212121"/><path d="M445.3 30.7l1.4 1.3-1.4-1.3" fill="#434343"/><path d="M52 32l1.3 1.3L52 32m380 1.3l1.3 1.4-1.3-1.4" fill="#212121"/><path d="M454.7 33.3l1.3 1.4-1.3-1.4" fill="#888"/><path d="M450.7 37.3l1.3 1.4-1.3-1.4" fill="#434343"/><path d="M30.7 45.3l1.3 1.4-1.3-1.4" fill="#212121"/><path d="M8 52l1.3 1.3L8 52" fill="#434343"/><path d="M496 54.7l1.3 1.3-1.3-1.3" fill="#ccc"/><path d="M228 56l1.3 1.3L228 56" fill="#212121"/><path d="M237.3 57.3l1.4 1.4-1.4-1.4m244 0l1.4 1.4-1.4-1.4" fill="#ccc"/><path d="M492 57.3l1.3 1.4-1.3-1.4" fill="#434343"/><path d="M37.8 59.6c-.1 0-.2 1.4.4.8.1 0 .2-1.4-.4-.8" fill="#656565"/><path d="M373.3 58.7l1.4 1.3-1.4-1.3" fill="#ccc"/><path d="M374.7 58.7L376 60l-1.3-1.3" fill="#888"/><path d="M473.3 58.7l1.4 1.3-1.4-1.3" fill="#aaa"/><path d="M489.3 58.7l1.4 1.3-1.4-1.3" fill="#888"/><path d="M476 60l1.3 1.3L476 60" fill="#ccc"/><path d="M497.3 60l1.4 1.3-1.4-1.3" fill="#656565"/><path d="M109.3 61.3l1.4 1.4-1.4-1.4" fill="#aaa"/><path d="M234.7 61.3l-1.4 2.7c1.7-1.3 1.9-1 1.4-2.7" fill="#212121"/><path d="M234.7 64h4l-1.4-2.7c-2.1.8-2 .5-2.6 2.7" fill="#fff"/><path d="M478.7 61.3l1.3 1.4-1.3-1.4" fill="#212121"/><path d="M181.3 62.7l1.4 1.3-1.4-1.3" fill="#ccc"/><path d="M448 62.7l1.3 1.3-1.3-1.3" fill="#656565"/><path d="M18.7 64l1.3 1.3-1.3-1.3" fill="#ccc"/><path d="M122.7 64l1.3 1.3-1.3-1.3" fill="#656565"/><path d="M129.3 64l1.4 1.3-1.4-1.3m21.4 0l1.3 1.3-1.3-1.3" fill="#434343"/><path d="M152 64l1.3 1.3L152 64" fill="#ccc"/><path d="M342.2 64.4c-.6.6.8.6 1 .5.5-.6-.9-.5-1-.5" fill="#888"/><path d="M344.9 64.4c-.6.6.8.6.9.5.6-.6-.8-.5-1-.5" fill="#434343"/><path d="M373.3 65.3l1.4 1.4-1.4-1.4" fill="#fff"/><path d="M61.3 68l1.4 1.3-1.4-1.3" fill="#212121"/><path d="M62.7 68l1.3 1.3-1.3-1.3" fill="#888"/><path d="M248 68l1.3 1.3L248 68" fill="#fff"/><path d="M270.7 68l1.3 1.3-1.3-1.3" fill="#212121"/><path d="M272 68l1.3 1.3L272 68m-126.7 1.3l1.4 1.4-1.4-1.4" fill="#aaa"/><path d="M354.7 69.3l1.3 1.4-1.3-1.4" fill="#212121"/><path d="M33.3 70.7c.4 2.8.5 3.5 2.7 5.3-.8-2.3-1.3-3.4-2.7-5.3" fill="#fff"/><path d="M241.3 70.7l1.4 1.3-1.4-1.3" fill="#aaa"/><path d="M377.3 70.7l1.4 1.3-1.4-1.3" fill="#434343"/><path d="M101.3 72l1.4 1.3-1.4-1.3" fill="#ccc"/><path d="M102.7 72l1.3 1.3-1.3-1.3" fill="#888"/><path d="M104 72l1.3 1.3L104 72" fill="#212121"/><path d="M120 73.3l1.3 1.4-1.3-1.4" fill="#ccc"/><path d="M245.3 73.3l1.4 1.4-1.4-1.4" fill="#aaa"/><path d="M358.7 73.3l1.3 1.4-1.3-1.4" fill="#434343"/><path d="M41.3 74.7l1.4 1.3-1.4-1.3" fill="#aaa"/><path d="M242.7 76l1.3 1.3-1.3-1.3m240 0l1.3 1.3-1.3-1.3" fill="#434343"/><path d="M36 78.7l1.3 1.3-1.3-1.3" fill="#888"/><path d="M108 81.3l1.3 1.4-1.3-1.4" fill="#434343"/><path d="M486.7 81.3l1.3 1.4-1.3-1.4" fill="#656565"/><path d="M488 82.7a48 48 0 0 0 1.3 18.6c8-2.3 12-9.3 13.4-17.3-5.1 3.3-7.1 9.5-12 13.3V82.7H488" fill="#00f"/><path d="M97.3 84l1.4 1.3-1.4-1.3" fill="#ccc"/><path d="M18.7 86.7L20 88l-1.3-1.3" fill="#888"/><path d="M380 86.7c-2.3 4.8-4.6 18.1 5.3 14.7 5.2-1.7 8.6-7.4 10.7-12-5.6 2.6-9.6 7-14.7 10.6-.1-4.6.7-8.8 1.4-13.3H380" fill="#00f"/><path d="M497.3 86.7l1.4 1.3-1.4-1.3" fill="#888"/><path d="M20 88c-1 4.6-1.3 16.5 5.3 17.4 6.7 1 8.9-10.2 9.4-14.7-4.4 3-6 9-9.4 13.3a50.3 50.3 0 0 1-2.6-16H20" fill="#00f"/><path d="M496 89.3l1.3 1.4-1.3-1.4" fill="#656565"/><path d="M17.3 90.7l1.4 1.3-1.4-1.3" fill="#aaa"/><path d="M249.3 90.7c0 3.7-.5 9.4 2.5 12.3 6.8 6.3 11.5-7.7 10.9-12.3-3.4 4-4.5 8.1-9.4 10.6-.6-3.5-1.3-7-1.3-10.6h-2.7" fill="#00f"/><path d="M396 90.7l1.3 1.3-1.3-1.3" fill="#ccc"/><path d="M130.2 92.4c-.6.6.8.6 1 .5.5-.6-.9-.5-1-.5m128.5-.4l1.3 1.3-1.3-1.3" fill="#434343"/><path d="M376 92l1.3 1.3L376 92" fill="#aaa"/><path d="M510.7 92l1.3 1.3-1.3-1.3" fill="#212121"/><path d="M512 92l1.3 1.3L512 92" fill="#888"/><path d="M508 97.3l18.7-2.6V92c-6.2.3-15 0-18.7 5.3m-378.7-4c-3.1 4.2-6 7.1-10.6 9.4-.9-4-1.6-5.4-5.4-6.7.8 2.7 1.4 6.3 3.8 8.2 6.4 5.3 13.3-6.1 14.9-10.9h-2.7" fill="#00f"/><path d="M126.7 94.7L128 96l-1.3-1.3" fill="#434343"/><path d="M486.7 94.7L488 96l-1.3-1.3" fill="#888"/><path d="M525.3 94.7l1.4 1.3-1.4-1.3" fill="#ccc"/><path d="M486.7 96l1.3 1.3-1.3-1.3" fill="#212121"/><path d="M497.3 96l1.4 1.3-1.4-1.3" fill="#ccc"/><path d="M518.7 96l1.3 1.3-1.3-1.3" fill="#888"/><path d="M401.3 97.3l1.4 1.4-1.4-1.4" fill="#656565"/><path d="M505.3 97.3l1.4 1.4-1.4-1.4M376 98.7l1.3 1.3-1.3-1.3" fill="#434343"/><path d="M400 98.7c-3.2 10.7 4.5 13.5 8 22.6 1.9-2.4 2.3-3.6 2.7-6.6 3-1 3.7-1.3 5.3-4h-5.3l1.3-9.4c-3.8 2.5-4 5-4 9.4-5.6-2.7-5.9-6-5.3-12H400m106.7 0c-1.4 5.3.2 7.4 5.3 9.3v2.7a14.3 14.3 0 0 0-6.7 5.3c12.7-2 6.3-9.3 4-17.3h-2.6" fill="#00f"/><path d="M24 100l1.3 1.3L24 100" fill="#aaa"/><path d="M118.7 100l1.3 1.3-1.3-1.3" fill="#212121"/><path d="M397.3 100l1.4 1.3-1.4-1.3" fill="#888"/><path d="M494.7 100l1.3 1.3-1.3-1.3" fill="#ccc"/><path d="M504.4 100.9s-.1 1.5.5.9c0-.1.1-1.5-.5-1" fill="#656565"/><path d="M509.3 100l1.4 1.3-1.4-1.3" fill="#434343"/><path d="M118.7 101.3l1.3 1.4-1.3-1.4" fill="#fff"/><path d="M120 101.3l1.3 1.4-1.3-1.4" fill="#ccc"/><path d="M33.3 106.7l1.4 5.3c3.9-1.3 7.1-3.2 10.6-5.3v9.3H48c.4-4.6.9-8.7 0-13.3-5.1 1.3-9.4 3.7-14.7 4m233.4-1.4c2.6 1 3.8.8 6.6 0l1.4 1.4c-1.4 2-1.4 1.6-1.4 4 2.2 1.7 3.6 3.1 5.4 5.3-3.2 0-6.2-.4-9.4 0 2.6 2 11 5 12-.4 2.1-9.2-8-13.3-14.6-10.3" fill="#00f"/><path d="M380 102.7l1.3 1.3-1.3-1.3m32 0l1.3 1.3-1.3-1.3" fill="#ccc"/><path d="M129.3 104c2.2 3.4 4 3.7 8 4-1.3 2.3-1.9 4.2-2.6 6.7 4.4 1.3 8.7 1.3 13.3 1.3v-2.7h-9.3c1.3-3.2 2.2-5.9 2.6-9.3-4 .2-8 .4-12 0" fill="#00f"/><path d="M504 104l1.3 1.3-1.3-1.3" fill="#212121"/><path d="M21.3 105.3l1.4 1.4-1.4-1.4" fill="#434343"/><path d="M29.3 105.3l1.4 1.4-1.4-1.4m6.7 0l1.3 1.4-1.3-1.4" fill="#ccc"/><path d="M122.7 105.3l1.3 1.4-1.3-1.4" fill="#888"/><path d="M254.7 105.3l1.3 1.4-1.3-1.4" fill="#aaa"/><path d="M401.3 105.3l1.4 1.4-1.4-1.4m-130.6 1.4l1.3 1.3-1.3-1.3" fill="#888"/><path d="M401.3 106.7l1.4 1.3-1.4-1.3" fill="#ccc"/><path d="M506.7 106.7l1.3 1.3-1.3-1.3" fill="#656565"/><path d="M402.7 108l1.3 1.3-1.3-1.3" fill="#212121"/><path d="M134.7 109.3l1.3 1.4-1.3-1.4" fill="#ccc"/><path d="M412 109.3l1.3 1.4-1.3-1.4" fill="#212121"/><path d="M38.7 110.7L40 112l-1.3-1.3m234.6 0l1.4 1.3-1.4-1.3" fill="#ccc"/><path d="M34.7 112l1.3 1.3-1.3-1.3" fill="#656565"/><path d="M140 112l1.3 1.3-1.3-1.3" fill="#212121"/><path d="M270.7 118.7l1.3 1.3-1.3-1.3" fill="#ccc"/><path d="M278.7 118.7l1.3 1.3-1.3-1.3" fill="#888"/></svg>