<svg xmlns="http://www.w3.org/2000/svg" height="282.7" width="426.7"><path d="M0 0v282.7h426.7V0H0" fill="#fff"/><path d="M246.7 5.3c-4.1 6.9-7.5 11.2-16 9.4 1.3 10.3 1.3 18-1.4 28l5.4-1.4-1.4-5.3 12 2.7c-6.6-13-2.3-20 4-32l-2.6-1.4m17.3 20c-2.4.8-4.2 1.1-6.7 1.4 5.4 8.1 14-3.5 2.7-5.4.8-4.7 2-6.6 6.7-8v-4c-11.3 1.4-14.2 12.3-2.7 16M90.7 32c3-1 3.6-1.3 5.3-4l2.7 8h2.6a52.3 52.3 0 0 0 1.4-24c-6.3 4.1-10.4 12.8-12 20" fill="red"/><path d="M240 13.3l1.3 1.4-1.3-1.4" fill="#434343"/><path d="M245.3 13.3l1.4 1.4-1.4-1.4" fill="#ccc"/><path d="M97.3 14.7l1.4 1.3-1.4-1.3" fill="#888"/><path d="M229.3 16l1.4 1.3-1.4-1.3" fill="#ccc"/><path d="M244 16l1.3 1.3L244 16" fill="#434343"/><path d="M96 17.3l1.3 1.4-1.3-1.4" fill="#656565"/><path d="M238.7 17.3c-2.7 3-3.3 4.5-1.4 8 1.3-3 2-4.8 1.4-8" fill="#fff"/><path d="M173.3 21.3c1.4 5.7 3.6 8.2 9.4 9.4-3.2 2-5.7 3-9.4 4 8.9 6.6 14.7-6.2 4-8 2-3.8 4-5.1 8-6.7-4.3-1.7-7.7 0-12 1.3" fill="#00f"/><path d="M240 24l1.3 1.3L240 24m21.3 1.3l1.4 1.4-1.4-1.4" fill="#434343"/><path d="M262.7 25.3l1.3 1.4-1.3-1.4" fill="#fff"/><path d="M256 26.7l1.3 1.3-1.3-1.3" fill="#888"/><path d="M96 28l-1.3 1.3a9.4 9.4 0 0 0 4 2.7c-1-2.1-1.1-2.4-2.7-4m137.3 0v2.7c2.2-.8 2-.5 2.7-2.7h-2.7" fill="#fff"/><path d="M241.3 29.3l1.4 1.4-1.4-1.4" fill="#ccc"/><path d="M281.3 29.3l1.4 1.4-1.4-1.4" fill="#aaa"/><path d="M94.7 30.7L96 32l-1.3-1.3" fill="#212121"/><path d="M237.3 30.7c-1.3 2-1.3 1.6-1.3 4 2.4-1.3 2.6-1.7 1.3-4" fill="#fff"/><path d="M241.3 30.7l1.4 1.3-1.4-1.3M96 32l1.3 1.3L96 32" fill="#656565"/><path d="M176 32l1.3 1.3L176 32" fill="#aaa"/><path d="M230.7 32l1.3 1.3-1.3-1.3" fill="#434343"/><path d="M282.7 32l1.3 1.3-1.3-1.3" fill="#888"/><path d="M120 33.3l-1.3 8-2.7-4c-.5 2.9 0 4 1.3 6.7 1.8-1 1.7-1 2.7-2.7l5.3 1.4a32.5 32.5 0 0 1-2.6-9.4H120" fill="#00f"/><path d="M122.7 33.3l1.3 1.4-1.3-1.4" fill="#888"/><path d="M277.3 33.3V36l-5.3-1.3c.8 3.2 1.3 6 1.3 9.3 2.2-.7 2-.5 2.7-2.7l6.7 4c-2.3-4.4-3.8-6.9-2.7-12h-2.7" fill="#00f"/><path d="M230.7 34.7L232 36l-1.3-1.3" fill="#ccc"/><path d="M98.7 36l1.3 1.3-1.3-1.3m17.3 0l1.3 1.3L116 36" fill="#212121"/><path d="M274.7 36l1.3 1.3-1.3-1.3" fill="#fff"/><path d="M278.7 36l1.3 1.3-1.3-1.3" fill="#656565"/><path d="M312 45.3l5.3-2.6c-.2 4.6-1 8.8 0 13.3l13.4-4c-4-2.7-6.7-1.7-10.7 0 1.2-6.6-2.7-15.9-8-6.7m-65.3 0c3.6 4 7.3 7 12 9.4v2.6c-4.2.8-7 1-8 5.4 4-1 8-2.5 12-4v-4L249.3 44l-2.6 1.3" fill="#00f"/><path d="M278.7 44l1.3 1.3-1.3-1.3" fill="#656565"/><path d="M314.7 44l1.3 1.3-1.3-1.3" fill="#888"/><path d="M257.3 46.7v2.6h2.7v-2.6h-2.7" fill="#00f"/><path d="M269.3 48l1.4 1.3-1.4-1.3" fill="#656565"/><path d="M108 49.3l1.3 1.4-1.3-1.4" fill="#ccc"/><path d="M267.2 50.9c-4.5 2.4-2 10.9 2.5 7.8 3-2.3 1.9-10.2-2.5-7.8" fill="#00f"/><path d="M322.7 49.3l1.3 1.4-1.3-1.4" fill="#212121"/><path d="M108 50.7a14 14 0 0 1-8 6.6c4 1.7 9 2 13.3 2.7.7-5.2-.2-7.7-5.3-9.3m8 1.3c6.3 9 22.7 4 32 4 23.6 0 47.1-1.3 70.7-1.3 10 0 22.5 3.7 32 1.3-9.8-7.4-27.2-4-38.7-4-21.3.1-42.7 1.3-64 1.3-11.3 0-20.8.9-32-1.3" fill="#00f"/><path d="M264 50.7l1.3 1.3-1.3-1.3" fill="#212121"/><path d="M137.3 52l1.4 1.3-1.4-1.3" fill="#656565"/><path d="M146.7 52l1.3 1.3-1.3-1.3" fill="#888"/><path d="M148 52l1.3 1.3L148 52" fill="#212121"/><path d="M149.3 52l1.4 1.3-1.4-1.3" fill="#656565"/><path d="M328 53.3l1.3 1.4-1.3-1.4" fill="#434343"/><path d="M114.7 54.7L116 56l-1.3-1.3" fill="#ccc"/><path d="M224 54.7l1.3 1.3-1.3-1.3" fill="#aaa"/><path d="M227.6 55.1c-.6.6.8.5.8.5.6-.6-.8-.6-.8-.5" fill="#656565"/><path d="M229.3 54.7l1.4 1.3-1.4-1.3" fill="#ccc"/><path d="M256 54.7l1.3 1.3-1.3-1.3" fill="#212121"/><path d="M262.7 54.7L264 56l-1.3-1.3" fill="#656565"/><path d="M277.3 54.7c-5.4 8.6 11.4 10.8 17.4 11.6C311 68.4 328 68 344 72.2c7.1 2 13.9 3.5 17.3 10.5-4.6 1-6.6 2.1-8 6.6 5.4-1.2 10.7-3 16-5.3-.7-2.4-1.3-4-1.3-6.7l-14.7-12a9 9 0 0 0 0 5.4c-14.2-4-28-6-42.6-6.6-10.9-.5-25.4-1.2-33.4-9.4" fill="red"/><path d="M278.7 54.7L280 56l-1.3-1.3" fill="#aaa"/><path d="M142.7 56l1.3 1.3-1.3-1.3m12 0l1.3 1.3-1.3-1.3" fill="#212121"/><path d="M162.7 56l1.3 1.3-1.3-1.3" fill="#434343"/><path d="M170.7 56l1.3 1.3-1.3-1.3m69.3 0l1.3 1.3L240 56" fill="#656565"/><path d="M262.7 56l1.3 1.3-1.3-1.3" fill="#fff"/><path d="M272 56l1.3 1.3L272 56" fill="#212121"/><path d="M93.3 57.3L92 62.7h5.3C84 76.9 69.1 89.7 55.8 104c-4.2 4.5-9.9 8.2-13.1 13.3 10-2.4 14.4-8.9 21.3-15.7 13.3-13 26.7-25.6 40-39L100 76c7-2.4 9.3-12 8-18.7-5.3 1-9.7 2-14.7 0" fill="red"/><path d="M250.7 57.3l1.3 1.4-1.3-1.4m12 0l1.3 1.4-1.3-1.4" fill="#434343"/><path d="M90.7 58.7L92 60l-1.3-1.3" fill="#212121"/><path d="M96 58.7l1.3 1.3-1.3-1.3" fill="#f0f"/><path d="M273.3 58.7l1.4 1.3-1.4-1.3m1.4 1.3l1.3 1.3-1.3-1.3" fill="#00f"/><path d="M68 61.3l1.3 1.4-1.3-1.4" fill="#434343"/><path d="M69.3 61.3C67 67.3 65 73 60 77.3l1.3 4c4-3.4 6-7.2 8-12 .9 2.8 1.2 5 1.4 8h2.6a68 68 0 0 0-1.3-16h-2.7" fill="#00f"/><path d="M104 61.3l1.3 1.4-1.3-1.4" fill="#f0f"/><path d="M249.3 61.3l1.4 1.4-1.4-1.4" fill="#ccc"/><path d="M277.3 61.3l1.4 1.4-1.4-1.4" fill="#f0f"/><path d="M94.7 62.7L96 64l-1.3-1.3" fill="#434343"/><path d="M96 62.7l1.3 1.3-1.3-1.3" fill="#00f"/><path d="M102.7 62.7L104 64l-1.3-1.3" fill="#f0f"/><path d="M112 62.7c-3.2 25.3-2.7 52-2.7 77.3-2-1.3-1.6-1.3-4-1.3.8 7.4 3.9 16.3 10.7 20 2.5-7.7 5.2-14.5 9.3-21.4-6.8 0-9 6.1-10.6 12-4.3-14.6-1.4-33-.2-48 1-12.7.2-25.8.2-38.6H112" fill="red"/><path d="M281.3 62.7l1.4 1.3-1.4-1.3" fill="#00f"/><path d="M312 62.7l1.3 1.3-1.3-1.3" fill="#aaa"/><path d="M94.7 64l1.3 1.3-1.3-1.3" fill="#f0f"/><path d="M103.1 64.9s-.1 1.5.5.9c0-.1.1-1.5-.5-1m8 0c0 .2-.1 1.6.5 1 0-.1.1-1.5-.5-1" fill="#00f"/><path d="M258.7 64l1.3 1.3-1.3-1.3" fill="#656565"/><path d="M261.3 64c-4 5-6.8 9.7-8 16 4.3-2.2 6-5 8-9.3 3 11.7-4 26.6-5 38.6-1.7 16.8 1.6 34.1 3.7 50.7h2.7c-.4-15.6-3.3-31-2.7-46.7.5-9.9 3.6-19.4 4-29.3 2.7.4 4 .5 6.7 0-2.7-7-3.5-14.7-9.4-20" fill="red"/><path d="M285.3 64l1.4 1.3-1.4-1.3" fill="#00f"/><path d="M326.7 64l1.3 1.3-1.3-1.3" fill="#212121"/><path d="M258.7 65.3l1.3 1.4-1.3-1.4" fill="#f0f"/><path d="M290.7 65.3l1.3 1.4-1.3-1.4" fill="#00f"/><path d="M292 65.3l1.3 1.4-1.3-1.4" fill="#f0f"/><path d="M101.3 66.7v4c1-2.1 1-2 0-4" fill="#00f"/><path d="M110.7 66.7L112 68l-1.3-1.3" fill="#f0f"/><path d="M290.7 66.7L292 68l-1.3-1.3" fill="#aaa"/><path d="M294.7 66.7L296 68l-1.3-1.3" fill="#f0f"/><path d="M296 66.7c12 6.4 29.3 5.5 42.7 9.6 5 1.6 10.6 6.4 14.6 1-19.2-4.5-37.3-10.6-57.3-10.6" fill="#00f"/><path d="M318.7 68l1.3 1.3-1.3-1.3" fill="#f0f"/><path d="M349.3 68l1.4 1.3-1.4-1.3" fill="#00f"/><path d="M90.7 69.3l1.3 1.4-1.3-1.4" fill="#f0f"/><path d="M96 69.3l1.3 1.4-1.3-1.4" fill="#212121"/><path d="M256 69.3l1.3 1.4-1.3-1.4m94.7 0l1.3 1.4-1.3-1.4" fill="#f0f"/><path d="M352 69.3l1.3 1.4-1.3-1.4" fill="#fff"/><path d="M261.3 70.7c-4.7 8.5-4 17.3-4 26.6 3.2-6 6.5-20.3 4-26.6" fill="#00f"/><path d="M253.3 72l1.4 1.3-1.4-1.3" fill="#ccc"/><path d="M254.7 72l1.3 1.3-1.3-1.3" fill="#f0f"/><path d="M62.7 73.3l1.3 1.4-1.3-1.4" fill="#ccc"/><path d="M85.3 73.3l1.4 1.4-1.4-1.4" fill="#888"/><path d="M86.7 73.3l1.3 1.4-1.3-1.4" fill="#f0f"/><path d="M326.7 73.3l1.3 1.4-1.3-1.4" fill="#888"/><path d="M362.7 73.3l1.3 1.4-1.3-1.4" fill="#212121"/><path d="M66.7 74.7L68 76l-1.3-1.3" fill="#888"/><path d="M85.3 74.7l1.4 1.3-1.4-1.3m168 0l1.4 1.3-1.4-1.3" fill="#f0f"/><path d="M332 74.7l1.3 1.3-1.3-1.3" fill="#ccc"/><path d="M353.3 74.7l1.4 1.3-1.4-1.3" fill="#00f"/><path d="M397.3 74.7l1.4 1.3-1.4-1.3" fill="#656565"/><path d="M398.7 74.7L400 76l-1.3-1.3" fill="#aaa"/><path d="M84 76l1.3 1.3L84 76" fill="#f0f"/><path d="M268 76l1.3 1.3L268 76" fill="#aaa"/><path d="M354.7 76a16 16 0 0 0 6.6 5.3c-1.8-3.2-3.1-4-6.6-5.3" fill="#00f"/><path d="M357.3 76l1.4 1.3-1.4-1.3"/><path d="M397.3 76c-1.3 4-3.5 7-5.3 10.7 2.4 0 2 0 4-1.4 0 2.9-.7 7.3 1.3 9.7 4 4.7 12.4-2.1 14.7-5.7l-13.3 5.4c-1-8 2.6-11 6.6-17.4-3 0-5.3-.4-8-1.3" fill="#00f"/><path d="M65.3 77.3l1.4 1.4-1.4-1.4" fill="#aaa"/><path d="M82.7 77.3l1.3 1.4-1.3-1.4m178.6 0l1.4 1.4-1.4-1.4" fill="#f0f"/><path d="M256 78.7l1.3 1.3-1.3-1.3" fill="#fff"/><path d="M60 80l1.3 1.3L60 80" fill="#aaa"/><path d="M256 80l1.3 1.3L256 80" fill="#ccc"/><path d="M76 81.3l1.3 1.4-1.3-1.4" fill="#aaa"/><path d="M260.4 82.2c0 .1-.1 1.5.5 1 0-.2.1-1.6-.5-1m107.6-.9l1.3 1.4-1.3-1.4" fill="#f0f"/><path d="M372 81.3c-.1 1.1-.6 3-.5 4.2 1.3 11.6 15.6.5 4.5-3.7-1-.5-2.9-.4-4-.5" fill="#00f"/><path d="M109.3 85.3l1.4 1.4-1.4-1.4" fill="#434343"/><path d="M109.3 86.7l1.4 1.3-1.4-1.3" fill="#888"/><path d="M77.3 88l1.4 1.3-1.4-1.3" fill="#656565"/><path d="M128 88a44.4 44.4 0 0 0-5.3 14.7c3-2.3 3.4-4.4 4-8l2.6 14.6c4.6-6 1.4-14.2 1.4-21.3H128m228.9.4c-.6.6.8.6.9.5.6-.6-.8-.5-1-.5m-2.6 1.4c-.6.6.8.5 1 .4.5-.6-.9-.5-1-.4" fill="#00f"/><path d="M380 89.3l1.3 1.4-1.3-1.4" fill="#ccc"/><path d="M373.3 90.7l1.4 1.3-1.4-1.3m32 0l1.4 1.3-1.4-1.3" fill="#aaa"/><path d="M262.7 92l1.3 1.3-1.3-1.3" fill="#888"/><path d="M378.7 92l1.3 1.3-1.3-1.3" fill="#aaa"/><path d="M402.7 92l1.3 1.3-1.3-1.3" fill="#ccc"/><path d="M352 97.3l6.7-1.3c-16.5 16.2-35.7 29.7-53.4 44.6-7 6-17.3 11.4-20 20.7 8-4.3 15.6-12.2 22.7-18.3 11.4-9.7 23-19 34.7-28.3 6.6-5.3 17.1-11.2 18.6-20l5.4 1.3c-1.8 4.1-4.2 7.7-5.4 12 1.9-1 3.5-1.3 4.9-3 9.3-11.2-8.5-15.7-14.2-7.7" fill="#00f"/><path d="M62.7 96l1.3 1.3-1.3-1.3" fill="#f0f"/><path d="M109.3 98.7l1.4 1.3-1.4-1.3" fill="#212121"/><path d="M125.3 100l1.4 1.3-1.4-1.3" fill="#888"/><path d="M57.3 101.3l1.4 1.4-1.4-1.4" fill="#00f"/><path d="M238.7 101.3l1.3 1.4-1.3-1.4" fill="#434343"/><path d="M240 101.3l-4 12c2.5-1.6 3-2.5 4-5.3 1.6 2.8 2.7 4.8 5.3 6.7-.2-4.8-1.3-8.9-2.6-13.4H240m-184 1.4l1.3 1.3-1.3-1.3" fill="#00f"/><path d="M61.3 102.7l1.4 1.3-1.4-1.3" fill="#656565"/><path d="M54.7 104l1.3 1.3-1.3-1.3" fill="#00f"/><path d="M237.3 104l1.4 1.3-1.4-1.3" fill="#656565"/><path d="M53.3 105.3l1.4 1.4-1.4-1.4" fill="#00f"/><path d="M113.3 105.3l1.4 1.4-1.4-1.4m142.7 0l1.3 1.4-1.3-1.4" fill="#f0f"/><path d="M353.3 105.3l1.4 1.4-1.4-1.4" fill="#aaa"/><path d="M50.7 106.7L52 108l-1.3-1.3" fill="#434343"/><path d="M52 106.7l1.3 1.3-1.3-1.3m61.3 0v42.6c1.8-4 1.4-8.7 1.4-13.3 0-9 2.1-21-1.4-29.3" fill="#00f"/><path d="M364 106.7l1.3 1.3-1.3-1.3" fill="#656565"/><path d="M50.7 108l1.3 1.3-1.3-1.3" fill="#00f"/><path d="M240 108l1.3 1.3-1.3-1.3" fill="#fff"/><path d="M245.3 108l1.4 1.3-1.4-1.3" fill="#434343"/><path d="M397.3 108l1.4 1.3-1.4-1.3" fill="#212121"/><path d="M49.3 109.3l1.4 1.4-1.4-1.4" fill="#00f"/><path d="M56 109.3l1.3 1.4-1.3-1.4m184 0l1.3 1.4-1.3-1.4" fill="#656565"/><path d="M341.3 109.3l1.4 1.4-1.4-1.4" fill="#434343"/><path d="M397.3 109.3a29 29 0 0 0-4 6.7 18.2 18.2 0 0 0-6.6-5.3c-1.4 2.3-2 4.1-2.7 6.6l-5.3-6.6c-.8 4.9 3.2 8.4 3.7 13.3.6 4.3-2 8.2-3.7 12l5.3 1.3c-1.3-2.1-1.6-2.6-1.3-5.3 4 3.5 8.2 4 13.3 5.3a21.5 21.5 0 0 0-8-12c3.6-4.5 9.8-10 9.3-16" fill="red"/><path d="M48 110.7l1.3 1.3-1.3-1.3m-1.3 1.3l1.3 1.3-1.3-1.3" fill="#00f"/><path d="M402.7 113.3c2.6 1.4 5 1.4 8 1.4-1.4 4-2.7 5.3-6.7 6.6 0 2.4 0 2 1.3 4l5.4-2.6-2.7 10.6c4.3-2.6 2.9-6.2 5.3-10.3 1.4-2.4 4.5-4 6.7-5.7a17 17 0 0 0-6.7 0c-2.6-4.5-5.6-4.2-10.6-4" fill="red"/><path d="M16 130.7c-2.8 5-6.7 5.3-12 5.3v2.7c6.3 0 22.4-3.5 10.6-11-1.6-1-3.5-1.7-5.3-2.4l1.4-6.6c3.7-.7 4.2-1.7 5.3-5.4-10.7 3.2-10.7 14.7 0 17.4" fill="#00f"/><path d="M16 113.3l1.3 1.4-1.3-1.4m225.3 0l1.4 1.4-1.4-1.4" fill="#ccc"/><path d="M108 164l-10.7 2.7c0 2.4 0 2 1.4 4 7-2.3 13-1.4 20-2.7v-6.7c-9.9.8-13.4-8-21.4-12l4 6.7c-15.1-7.5-29.8-17.8-44-27.1-2.7-1.8-15.2-8-13.3-10.2-2.4-1.7-14.2-4.7-10.4 2.2 1.8 3.4 13.4 5.8 17 8 13.4 8.5 26.6 17.2 40 25.5 5.8 3.5 13.4 4.3 17.4 9.6" fill="#00f"/><path d="M382.7 114.7l1.3 1.3-1.3-1.3" fill="#212121"/><path d="M8 116l1.3 1.3L8 116" fill="#ccc"/><path d="M41.3 116l1.4 1.3-1.4-1.3" fill="#f0f"/><path d="M48 116l1.3 1.3L48 116" fill="#212121"/><path d="M382.7 116l1.3 1.3-1.3-1.3m4 0l-1.4 5.3c1.4-2.2 1.9-2.6 1.4-5.3M12 117.3l1.3 1.4-1.3-1.4" fill="#fff"/><path d="M6.7 118.7L8 120l-1.3-1.3" fill="#212121"/><path d="M41.3 118.7l1.4 1.3-1.4-1.3" fill="#fff"/><path d="M42.7 118.7L44 120l-1.3-1.3" fill="#212121"/><path d="M404 124l1.3 1.3-1.3-1.3" fill="#434343"/><path d="M53.3 125.3l1.4 1.4-1.4-1.4m54.7 0l1.3 1.4-1.3-1.4" fill="#212121"/><path d="M29.3 136c3.6-2.4 6.7-4.9 10.7-6.7.7 4 1.2 8 1.3 12 2.7-3.5 4.4-13.8-2.8-13.8-4.7 0-7.4 4.9-9.2 8.5" fill="#00f"/><path d="M320 126.7l1.3 1.3-1.3-1.3" fill="#888"/><path d="M386.7 128c-.1 3.7.4 4.3 4 5.3a14.3 14.3 0 0 0-4-5.3" fill="#fff"/><path d="M58.7 129.3l1.3 1.4-1.3-1.4" fill="#aaa"/><path d="M44 130.7l1.3 1.3-1.3-1.3" fill="#656565"/><path d="M380 130.7l1.3 1.3-1.3-1.3" fill="#aaa"/><path d="M54.7 132l1.3 1.3-1.3-1.3" fill="#434343"/><path d="M260.4 132.9s-.1 1.5.5.9c0-.1.1-1.5-.5-1" fill="#f0f"/><path d="M28 134.7l1.3 1.3-1.3-1.3" fill="#212121"/><path d="M121.3 134.7l1.4 1.3-1.4-1.3" fill="#888"/><path d="M261.3 136l1.4 1.3-1.4-1.3" fill="#212121"/><path d="M325.3 136l1.4 1.3-1.4-1.3" fill="#656565"/><path d="M326.7 136l1.3 1.3-1.3-1.3" fill="#ccc"/><path d="M2.7 137.3l1.3 1.4-1.3-1.4" fill="#212121"/><path d="M34.7 137.3A160.2 160.2 0 0 0 22 170.7a45.8 45.8 0 0 0 19.2 52c7.3 4.7 15.9 7.3 24 10.2 16.6 5.9 33 11.8 50.7 13.5 31.1 3 60.8-3.3 90.7-10.9 27.6-7 62-27 62.6-59.5 5.2-1.7 6.3-7.4 1-10.6-2.5-1.4-5-.6-7.6 0 .9 5.3 4 10.6 3.3 16-.7 5.6-4.7 11.3-7.8 16a79 79 0 0 1-40.9 31.2C183 240.9 144.3 248 108 242c-10.3-1.6-19.5-5.4-29.3-8.5-19.4-6.2-43.5-13.1-52.5-33.6-9.3-21.2 6.5-42.7 11.1-62.7h-2.6m73.7 1s-.1 1.4.5.8c0 0 .1-1.5-.5-.9m139.6-.9v5.4l-5.3-2.7v4c-1.6-1.6-2.1-2-4-2.7.7 2.7 1.3 4.4 2.6 6.7 1.9-.9 2.5-1.3 4-2.7.8 2.2.5 2 2.7 2.7 1.2-4 1.6-6.7 0-10.7" fill="#00f"/><path d="M261.3 137.3l1.4 1.4-1.4-1.4" fill="#ccc"/><path d="M325.3 137.3c-.5 6.7-1.9 12.3 0 18.7l5.4-2.7v6.7c3-4 3.4-7.9 8-10.7a44.2 44.2 0 0 1-6.7-5.3c-1.5 3.5-3 6.3-5.3 9.3 0-5.3.3-10.6 1.3-16h-2.7" fill="#00f"/><path d="M14.7 138.7L16 140l-1.3-1.3" fill="#212121"/><path d="M32 138.7l1.3 1.3-1.3-1.3" fill="#888"/><path d="M246.7 138.7l1.3 1.3-1.3-1.3" fill="#212121"/><path d="M304 140l1.3 1.3-1.3-1.3" fill="#aaa"/><path d="M310.7 140l1.3 1.3-1.3-1.3" fill="#434343"/><path d="M41.3 141.3l1.4 1.4-1.4-1.4m64 2.7l1.4 1.3-1.4-1.3" fill="#656565"/><path d="M136 144c-1.3 2.7-2 5.3-2.7 8l-4-6.7c-.7 4.6 1.4 8.2 5.4 10.7 1-4 2.5-8 1.3-12" fill="#00f"/><path d="M114.7 145.3l1.3 1.4-1.3-1.4" fill="#f0f"/><path d="M126.7 145.3l1.3 1.4-1.3-1.4" fill="#aaa"/><path d="M118.7 148l1.3 1.3-1.3-1.3" fill="#f0f"/><path d="M300 149.3l1.3 1.4-1.3-1.4" fill="#888"/><path d="M261.3 150.7l1.4 1.3-1.4-1.3" fill="#f0f"/><path d="M117.3 152l1.4 1.3-1.4-1.3" fill="#00f"/><path d="M296 152l1.3 1.3-1.3-1.3" fill="#ccc"/><path d="M53.3 162.7l5.4-5.4c0 4.2-.5 8-1.4 12l8 1.4C61.1 174 55.2 176 52 180c7.3-.4 23.4-9 9.3-13.3 0-2.7.4-6.5-1.3-8.9-3.8-5-6.7 1.7-6.7 4.9" fill="#00f"/><path d="M258.7 154.7l1.3 1.3-1.3-1.3" fill="#f0f"/><path d="M328 154.7l1.3 1.3-1.3-1.3" fill="#aaa"/><path d="M93.3 156l1.4 1.3-1.4-1.3" fill="#ccc"/><path d="M110.7 156l1.3 1.3-1.3-1.3m5.3 0l1.3 1.3-1.3-1.3" fill="#f0f"/><path d="M244 156c1.3 2.8 2.5 3.7 5.3 5.3-6 1.4-11.3-.8-17.3-1.2-12.9-.9-25.8-1.4-38.7-1.4-12.7 0-26 .1-38.6 1.7-11.4 1.4-21.8 5-33.4 5v2.6c17 0 33.7-3.5 50.7-5.1 25.7-2.4 55-1 80 5.1a17.7 17.7 0 0 0-5.3 8c5.8-1.6 10-5.3 14.6-9.3-4.5-5.4-10.6-9.1-17.3-10.7" fill="red"/><path d="M290.7 156l1.3 1.3-1.3-1.3" fill="#888"/><path d="M108 157.3l1.3 1.4-1.3-1.4" fill="#212121"/><path d="M110.7 157.3l1.3 1.4-1.3-1.4" fill="#888"/><path d="M112 157.3l1.3 1.4-1.3-1.4" fill="#00f"/><path d="M176 157.3l1.3 1.4-1.3-1.4" fill="#888"/><path d="M182.7 157.3c2 1 3 1.1 5.3 1.4-2-1-3-1.1-5.3-1.4m22.6 0c2 1 3.1 1.1 5.4 1.4-2-1-3.1-1.1-5.4-1.4" fill="#eee"/><path d="M241.3 157.3l1.4 1.4-1.4-1.4" fill="#aaa"/><path d="M242.7 157.3l1.3 1.4-1.3-1.4" fill="#f0f"/><path d="M262.7 157.3l1.3 1.4-1.3-1.4" fill="#212121"/><path d="M61.3 158.7l1.4 1.3-1.4-1.3" fill="#aaa"/><path d="M108 158.7l1.3 1.3-1.3-1.3" fill="#fff"/><path d="M109.3 158.7l1.4 1.3-1.4-1.3" fill="#656565"/><path d="M116 158.7l1.3 1.3-1.3-1.3" fill="#aaa"/><path d="M228 158.7l1.3 1.3-1.3-1.3" fill="#212121"/><path d="M289.3 158.7l1.4 1.3-1.4-1.3M128 160l1.3 1.3-1.3-1.3" fill="#888"/><path d="M129.3 160v2.7h2.7V160h-2.7" fill="#00f"/><path d="M152 160l1.3 1.3-1.3-1.3" fill="#f0f"/><path d="M237.3 160l1.4 1.3-1.4-1.3" fill="#212121"/><path d="M245.3 160l1.4 1.3-1.4-1.3" fill="#434343"/><path d="M260 160v2.7h2.7V160H260" fill="#00f"/><path d="M332 160l1.3 1.3-1.3-1.3" fill="#888"/><path d="M112 161.3l1.3 1.4-1.3-1.4m30.7 0l1.3 1.4-1.3-1.4" fill="#212121"/><path d="M286.2 161.8c-.6.6.8.5 1 .4.5-.6-.9-.5-1-.4" fill="#656565"/><path d="M168.9 163.1c-.6.6.8.5.9.5.6-.6-.8-.6-1-.5" fill="#f0f"/><path d="M170.7 162.7c9.3 4 24.4 2.4 34.6 2.7 13 .3 25.7 2.6 38.7 2.6-6.4-4.3-16.5-3.6-24-4a612 612 0 0 0-49.3-1.3" fill="#00f"/><path d="M215.6 163.1c-.6.6.8.5.8.5.6-.6-.8-.6-.8-.5" fill="#fff"/><path d="M217.3 162.7l1.4 1.3-1.4-1.3" fill="#f0f"/><path d="M260 162.7l1.3 1.3-1.3-1.3" fill="#aaa"/><path d="M268 162.7l1.3 1.3-1.3-1.3" fill="#ccc"/><path d="M57.3 164l1.4 1.3-1.4-1.3" fill="#888"/><path d="M128 164c2.4 1 4 1.3 6.7 1.3-2.4-1-4-1.2-6.7-1.3m101.3 0c1.7 1 2.1 1 4 1.3-1.6-.9-2-1-4-1.3m30.7 0l1.3 1.3-1.3-1.3m-140 1.3l1.3 1.4-1.3-1.4" fill="#f0f"/><path d="M148 165.3l1.3 1.4-1.3-1.4" fill="#434343"/><path d="M241.3 165.3l1.4 1.4-1.4-1.4"/><path d="M120 166.7l1.3 1.3-1.3-1.3" fill="#00f"/><path d="M216 166.7l1.3 1.3-1.3-1.3" fill="#212121"/><path d="M218.2 167.1c-.6.6.8.5 1 .5.5-.6-.9-.6-1-.5" fill="#888"/><path d="M220 166.7l1.3 1.3-1.3-1.3" fill="#ccc"/><path d="M124 168l1.3 1.3-1.3-1.3" fill="#aaa"/><path d="M96 169.3l1.3 1.4-1.3-1.4" fill="#434343"/><path d="M101.3 169.3l1.4 1.4-1.4-1.4" fill="#212121"/><path d="M116 169.3l1.3 1.4-1.3-1.4" fill="#434343"/><path d="M249.3 169.3l1.4 1.4-1.4-1.4m-1.3 1.4l1.3 1.3-1.3-1.3" fill="#f0f"/><path d="M62.7 172l1.3 1.3-1.3-1.3" fill="#ccc"/><path d="M244 172v2.7h2.7V172H244" fill="#00f"/><path d="M65.3 176l1.4 1.3-1.4-1.3" fill="#888"/><path d="M249.3 176l1.4 1.3-1.4-1.3" fill="#434343"/><path d="M24 177.3l1.3 1.4-1.3-1.4" fill="#656565"/><path d="M177.3 185.3L188 180c1.1 7-1.4 11-4 17.3 6.2 2 12 2 18.7 1.4V196H188c2.7-4.2 5.3-9.3 3-14.5-3.6-8-12-1.8-13.7 3.8" fill="#00f"/><path d="M50.7 178.7L52 180l-1.3-1.3" fill="#aaa"/><path d="M104 185.3c-6.8-3.2-10.7 1-17.3 2.7 2.4 3 4.7 4.7 8 6.7a31 31 0 0 0-8 16c4-1.3 5.1-2.4 5.3-6.7 6.3-.6 10-.8 16 1.3-1-3-1.4-3.6-4-5.3 1.7-7 3-13 5.3-20-3 1.5-4 2.3-5.3 5.3" fill="red"/><path d="M275.1 186.2c0 .1-.1 1.5.5 1 0-.2.1-1.6-.5-1" fill="#212121"/><path d="M276 185.3l1.3 13.4 5.4-1.4c0 4.7-.2 8 4 10.7a26.7 26.7 0 0 1 2.6-18.7L284 192c-.4-2.7-.5-3.6-2.7-5.3 0 4-.4 5.8-2.6 9.3v-10.7H276" fill="red"/><path d="M90.7 186.7L92 188l-1.3-1.3" fill="#ccc"/><path d="M97.3 186.7c-1.5 1.5-2 2-4 2.6 2.6.5 3.6 0 4-2.6" fill="#fff"/><path d="M110.7 192c2.5-.6 4.3-1.3 6.6-2.7l-4 12c5.8 1.5 11.3.7 13.4-5.3l-8 2.7c.7-2.4 2-5.3 1.3-7.8-1.5-6.5-7.5-2.3-9.3 1.1M84 190.7v2.6h2.7v-2.6H84" fill="red"/><path d="M88 190.7l1.3 1.3-1.3-1.3" fill="#656565"/><path d="M190.7 190.7l1.3 1.3-1.3-1.3" fill="#212121"/><path d="M274.7 192l1.3 1.3-1.3-1.3" fill="#888"/><path d="M86.7 193.3l1.3 1.4-1.3-1.4" fill="#ccc"/><path d="M280 193.3l1.3 1.4-1.3-1.4" fill="#212121"/><path d="M286.7 193.3l1.3 1.4-1.3-1.4" fill="#888"/><path d="M98.7 194.7c.7 2.1.5 2 2.6 2.6v-2.6h-2.6" fill="#fff"/><path d="M113.3 196l1.4 1.3-1.4-1.3" fill="#aaa"/><path d="M261.3 198.7l1.4 1.3-1.4-1.3" fill="#434343"/><path d="M125.3 200l1.4 1.3-1.4-1.3" fill="#aaa"/><path d="M254.7 200l1.3 1.3-1.3-1.3" fill="#888"/><path d="M98.7 202.7l1.3 1.3-1.3-1.3" fill="#656565"/><path d="M85.3 206.7l1.4 1.3-1.4-1.3" fill="#ccc"/><path d="M90.7 206.7L92 208l-1.3-1.3" fill="#fff"/><path d="M25.3 208l1.4 1.3-1.4-1.3" fill="#888"/><path d="M38.7 221.3l1.3 1.4-1.3-1.4m190.6 6.7l1.4 1.3-1.4-1.3" fill="#212121"/><path d="M77.3 232l1.4 1.3-1.4-1.3" fill="#434343"/><path d="M77.3 237.3l1.4 1.4-1.4-1.4" fill="#888"/><path d="M81.3 238.7l1.4 1.3-1.4-1.3m94.7 0l1.3 1.3-1.3-1.3" fill="#ccc"/><path d="M102.7 240l1.3 1.3-1.3-1.3m48 1.3l1.3 1.4-1.3-1.4" fill="#434343"/><path d="M126.7 246.7l1.3 1.3-1.3-1.3" fill="#ccc"/><path d="M133.3 260l-2.6 9.3c2.5-1.6 3-2.5 4-5.3 2 4.1 2.6 8.1 6.6 10.7-.8-6.4-1.3-12.6-8-14.7" fill="#00f"/><path d="M129.3 266.7l1.4 1.3-1.4-1.3" fill="#aaa"/><path d="M129.3 269.3l1.4 1.4-1.4-1.4" fill="#212121"/></svg>