<svg xmlns="http://www.w3.org/2000/svg" height="125.3" width="280"><path d="M0 0v125.3h280V0H0" fill="#fff"/><path d="M206.7 14.7c4.6 6.7 16 8 22.6 13.3a88.3 88.3 0 0 0-10.6 5.3c5.1 1.8 16.6-3.2 11.1-9.8-4.6-5.6-16.5-7.8-23.1-8.8" fill="#00f"/><path d="M213.3 14.7l1.4 1.3-1.4-1.3" fill="#aaa"/><path d="M80 20l1.3 1.3L80 20m48 0l1.3 1.3L128 20" fill="#212121"/><path d="M69.3 26.7c8.3.5 16.8-2.7 25.4-2.7-2.4 5-6.8 8.4-9.4 13.3 4.4-1.2 17.1-9.3 10-14.6-6.1-4.6-21-.7-26 4m50.7-4c9.6 4.6 22.7 4 33.3 4 20.5 0 40.8-1.4 61.4-1.4v-2.6c-20.4 0-41 1.3-61.4.7-10.6-.2-23.2-3.6-33.3-.7" fill="#00f"/><path d="M174.7 21.3l1.3 1.4-1.3-1.4" fill="#656565"/><path d="M176 21.3l1.3 1.4-1.3-1.4" fill="#ccc"/><path d="M217.3 21.3l1.4 1.4-1.4-1.4" fill="#656565"/><path d="M229.3 21.3l1.4 1.4-1.4-1.4" fill="#aaa"/><path d="M118.7 22.7L120 24l-1.3-1.3" fill="#888"/><path d="M224 24l1.3 1.3L224 24" fill="#434343"/><path d="M130.7 25.3l1.3 1.4-1.3-1.4" fill="#ccc"/><path d="M206.7 25.3l1.3 1.4-1.3-1.4" fill="#aaa"/><path d="M242.7 25.3l1.3 1.4-1.3-1.4" fill="#434343"/><path d="M144 26.7l1.3 1.3-1.3-1.3" fill="#656565"/><path d="M145.3 26.7l1.4 1.3-1.4-1.3" fill="#aaa"/><path d="M163.6 27.1c-.6.6.8.5.8.5.6-.6-.8-.6-.8-.5" fill="#888"/><path d="M165.3 26.7l1.4 1.3-1.4-1.3" fill="#434343"/><path d="M242.7 26.7l-1.4 1.3c6.4 11.4 14.4 21.7 17.4 34.7 1.7 6.6 1.3 13.3 1.3 20 3.4-4.5 3-10.5 2.4-16a65.3 65.3 0 0 0-19.7-40" fill="#00f"/><path d="M104.9 28.4c-.6.6.8.6.9.5.6-.6-.8-.5-1-.5" fill="#888"/><path d="M14.7 81.3c3.3 1.4 8 3.4 11.2.5 2.6-2.4 2.1-6.8 4.2-9.7 3.2-5.1 9.4-9.2 13.9-13.2 7.2-6.5 14.7-12.7 22.7-18.3C71.5 37 77 34.6 80 29.3c-18.7 4.4-35.4 24.1-49.3 36-6.2 5.4-13.4 8-16 16m89.3-52c1.1 5.4 8.8 7.6 13.3 10.2 10.3 5.9 20.9 11.6 32 15.6 6 2.2 13.4 4.2 16 10.2h8A1910 1910 0 0 0 136 88.7c-4.6 3-12.6 4.9-14.7 10 12.6-1.4 24.3-12 34.7-18.6 7.2-4.6 15.5-8.4 21.3-14.8-1.3 5.5-5.3 8.6-8 13.4 20-5.6 7.1-32.3-8-34.7 4 5.5 9 10 12 16-6-.4-10.6-3.2-16-5.3-12-4.8-23.4-10.2-34.6-16.4-6.2-3.4-11.7-7.6-18.7-9" fill="#00f"/><path d="M72 30.7l1.3 1.3-1.3-1.3m162.2.4c-.6.6.8.5 1 .5.5-.6-.9-.6-1-.5" fill="#212121"/><path d="M86.7 32l1.3 1.3-1.3-1.3" fill="#aaa"/><path d="M225.3 45.3c1.3-3.5 2.6-5.3 5.4-8a68.7 68.7 0 0 0-5.9 29.4c.4 5.9 2.4 10.3 8.5 10.6-9.3-12.6-4.7-28.6 2.7-41.3 1.3 4.6 1.3 10.9 6.7 12-1-4.5-1.7-13.2-7-14.7-6.4-2-17.2 6.8-10.4 12" fill="#00f"/><path d="M77.3 33.3l1.4 1.4-1.4-1.4" fill="#212121"/><path d="M217.3 33.3l1.4 1.4-1.4-1.4" fill="#888"/><path d="M238.7 33.3l1.3 1.4-1.3-1.4" fill="#ccc"/><path d="M224 36l1.3 1.3L224 36M70.7 37.3l1.3 1.4-1.3-1.4" fill="#656565"/><path d="M125.3 38.7l1.4 1.3-1.4-1.3M58.7 40l1.3 1.3-1.3-1.3" fill="#ccc"/><path d="M117.3 40l1.4 1.3-1.4-1.3" fill="#434343"/><path d="M253.3 40l1.4 1.3-1.4-1.3" fill="#aaa"/><path d="M220 41.3l1.3 1.4-1.3-1.4" fill="#888"/><path d="M165.3 42.7l1.4 1.3-1.4-1.3" fill="#ccc"/><path d="M53.3 44l1.4 1.3-1.4-1.3" fill="#aaa"/><path d="M61.3 44l1.4 1.3-1.4-1.3" fill="#656565"/><path d="M222.7 45.3l1.3 1.4-1.3-1.4" fill="#888"/><path d="M50.7 46.7L52 48l-1.3-1.3" fill="#aaa"/><path d="M140 46.7l1.3 1.3-1.3-1.3" fill="#888"/><path d="M225.3 46.7l1.4 1.3-1.4-1.3" fill="#656565"/><path d="M257.3 48l1.4 1.3-1.4-1.3" fill="#aaa"/><path d="M54.7 49.3l1.3 1.4-1.3-1.4" fill="#888"/><path d="M137.3 50.7l1.4 1.3-1.4-1.3" fill="#434343"/><path d="M253.3 50.7l1.4 1.3-1.4-1.3M144 53.3l1.3 1.4-1.3-1.4" fill="#656565"/><path d="M169.3 54.7l1.4 1.3-1.4-1.3" fill="#212121"/><path d="M224 56l1.3 1.3L224 56" fill="#ccc"/><path d="M64 76c-6-4.6-14.7-1.7-21.3-5.3 12.2-1.1 23.8-5.4 36-7.4 7.4-1.2 15.2-.6 22.6-.6 10 0 20.7.6 30.7 1.5 6.7.7 13.2 3 20 1.1-8.7-5.9-22-3.6-32-4-10.1-.5-20.5-2.6-30.7-2.3-13.7.4-26.8 4.6-40 7.7 3.5-3 7-5.4 9.4-9.4A28.6 28.6 0 0 0 43 66.8c-1.8 2.1-3.5 5.6-1 7.9C46.5 78.3 58.7 76 64 76" fill="#00f"/><path d="M165.3 57.3l1.4 1.4-1.4-1.4m96 0l1.4 1.4-1.4-1.4" fill="#656565"/><path d="M50.7 58.7L52 60l-1.3-1.3m26.6 0l1.4 1.3-1.4-1.3" fill="#212121"/><path d="M78.7 58.7L80 60l-1.3-1.3" fill="#ccc"/><path d="M106.2 59.1c-.6.6.8.5 1 .5.5-.6-.9-.6-1-.5" fill="#888"/><path d="M108 58.7l1.3 1.3-1.3-1.3" fill="#434343"/><path d="M165.3 58.7l1.4 1.3-1.4-1.3" fill="#fff"/><path d="M166.7 58.7L168 60l-1.3-1.3" fill="#aaa"/><path d="M34.7 60l1.3 1.3-1.3-1.3" fill="#656565"/><path d="M137.3 60l1.4 1.3-1.4-1.3" fill="#ccc"/><path d="M33.3 61.3l1.4 1.4-1.4-1.4" fill="#888"/><path d="M46.7 61.3l1.3 1.4-1.3-1.4" fill="#656565"/><path d="M52 62.7c-1.6 1.5-2 2-2.7 4 2.6-.7 3.3-1 5.4-2.7L52 62.7" fill="#fff"/><path d="M53.3 62.7l1.4 1.3-1.4-1.3" fill="#434343"/><path d="M84 62.7l1.3 1.3-1.3-1.3" fill="#888"/><path d="M85.3 62.7l1.4 1.3-1.4-1.3" fill="#212121"/><path d="M95.6 63.1c-.6.6.8.5.8.5.6-.6-.8-.6-.8-.5" fill="#656565"/><path d="M97.3 62.7l1.4 1.3-1.4-1.3" fill="#aaa"/><path d="M150.7 62.7L152 64l-1.3-1.3" fill="#212121"/><path d="M54.7 64l1.3 1.3-1.3-1.3" fill="#aaa"/><path d="M164 64l1.3 1.3L164 64" fill="#434343"/><path d="M41.3 65.3L40 68c1.7-1.3 1.9-1 1.3-2.7" fill="#656565"/><path d="M68 65.3l1.3 1.4-1.3-1.4" fill="#ccc"/><path d="M34.7 66.7L36 68l-1.3-1.3" fill="#888"/><path d="M41.3 66.7l1.4 1.3-1.4-1.3" fill="#fff"/><path d="M146.7 66.7L148 68l-1.3-1.3m4 0L152 68l-1.3-1.3" fill="#212121"/><path d="M262.7 68l1.3 1.3-1.3-1.3" fill="#434343"/><path d="M181.3 69.3l1.4 1.4-1.4-1.4" fill="#ccc"/><path d="M45.3 70.7l1.4 1.3-1.4-1.3" fill="#aaa"/><path d="M170.7 70.7L172 72l-1.3-1.3" fill="#888"/><path d="M250.7 73.3c.4 8.6 10.9 25.4 17.1 10.7 1-2.2 1.2-4.4 1.5-6.7-4 2.7-5 6.5-6.6 10.7-5.4-4-8.2-8-9.4-14.7h-2.6" fill="#00f"/><path d="M14.7 76l1.3 1.3-1.3-1.3" fill="#434343"/><path d="M233.3 76l1.4 1.3-1.4-1.3" fill="#888"/><path d="M265.3 76l1.4 1.3-1.4-1.3" fill="#656565"/><path d="M38.7 77.3l1.3 1.4-1.3-1.4m112 0l1.3 1.4-1.3-1.4" fill="#434343"/><path d="M13.3 78.7l1.4 1.3-1.4-1.3" fill="#888"/><path d="M34.7 78.7c3.5 4.8 10.6 7 16 9.6a243 243 0 0 0 40 17c-1.9 2.8-2 3.4-1.4 6.7 5.4-1.3 10.7-3.3 16-5.3a31.4 31.4 0 0 0-20-18.7c3.6 6.7 10.7 12 16 17.3-7 .9-11-3.3-17.3-6-8-3.5-16.2-6.4-24-10.3-8.1-4-16.2-9.4-25.3-10.3" fill="#00f"/><path d="M14.7 82.7L16 84l-1.3-1.3m34.6 0l1.4 1.3-1.4-1.3" fill="#434343"/><path d="M268 84l1.3 1.3L268 84" fill="#888"/><path d="M138.7 85.3l1.3 1.4-1.3-1.4" fill="#aaa"/><path d="M57.3 86.7l1.4 1.3-1.4-1.3" fill="#656565"/><path d="M86.7 86.7L88 88l-1.3-1.3" fill="#aaa"/><path d="M136 86.7l1.3 1.3-1.3-1.3" fill="#212121"/><path d="M226.7 86.7v2.6c6 1 11.4 3.7 17.3 5.4a13.9 13.9 0 0 1-9.3 8c0 2.4 0 2 1.3 4 1.8-.8 3.7-1.4 5.3-2.7 13.6-10.4-5.6-17-14.6-17.3" fill="#00f"/><path d="M60 88l1.3 1.3L60 88m194.7 0l1.3 1.3-1.3-1.3" fill="#aaa"/><path d="M256 88l1.3 1.3L256 88" fill="#fff"/><path d="M62.7 89.3l1.3 1.4-1.3-1.4" fill="#ccc"/><path d="M141.3 89.3l1.4 1.4-1.4-1.4" fill="#656565"/><path d="M256 89.3l1.3 1.4-1.3-1.4" fill="#888"/><path d="M65.3 90.7l1.4 1.3-1.4-1.3" fill="#656565"/><path d="M84 90.7l1.3 1.3-1.3-1.3" fill="#aaa"/><path d="M258.7 90.7L260 92l-1.3-1.3" fill="#656565"/><path d="M262.7 90.7L264 92l-1.3-1.3" fill="#212121"/><path d="M57.3 92l1.4 1.3-1.4-1.3" fill="#aaa"/><path d="M94.7 92l1.3 1.3-1.3-1.3" fill="#656565"/><path d="M241.3 94.7l1.4 1.3-1.4-1.3M65.3 96l1.4 1.3-1.4-1.3m13.4 0l1.3 1.3-1.3-1.3" fill="#212121"/><path d="M101.3 98.7l1.4 1.3-1.4-1.3m18.7 0l1.3 1.3-1.3-1.3" fill="#aaa"/><path d="M125.3 98.7l1.4 1.3-1.4-1.3" fill="#656565"/><path d="M225.3 98.7l1.4 1.3-1.4-1.3" fill="#888"/><path d="M126.7 113.3c8.8 3.7 20.3-.2 29.3-1.8 17.3-3.2 35.5-5.7 53.3-6.2 7.6 0 21 .3 25.4-6.6-29 5.6-58.9 6.1-88 11.4-6.7 1.2-13.6 1.3-20 3.2" fill="#00f"/><path d="M93.3 102.7l1.4 1.3-1.4-1.3m5.4 0l1.3 1.3-1.3-1.3M172 104l1.3 1.3-1.3-1.3" fill="#aaa"/><path d="M91.6 107.1c-.6.6.8.5.8.5.6-.6-.8-.6-.8-.5" fill="#fff"/><path d="M194.7 106.7l1.3 1.3-1.3-1.3" fill="#aaa"/><path d="M236 106.7l1.3 1.3-1.3-1.3" fill="#656565"/><path d="M97.3 109.3l1.4 1.4-1.4-1.4" fill="#ccc"/><path d="M140 109.3l1.3 1.4-1.3-1.4" fill="#aaa"/><path d="M169.3 109.3l1.4 1.4-1.4-1.4" fill="#212121"/><path d="M86.7 110.7L88 112l-1.3-1.3" fill="#434343"/></svg>