<svg xmlns="http://www.w3.org/2000/svg" height="233.3" width="356"><path d="M0 0c2.7 24.6 0 51.2 0 76v157.3h356V0H0" fill="#fff"/><path d="M0 1.3v4c1-2 1-1.9 0-4"/><path d="M340 16c-.8 5 1 9.6 1.3 14.7.4 8.1-.7 16-1.3 24 8.9-6.3 6.4-31.3 0-38.7m-17.3 30.7c-4.9-10.2-4.2-16.8 1.3-26.7-11 .5-13.3 24.7-1.3 26.7M308 56c-2.7-4.6-4-8-4-13.3 2.7-.5 4.3-1 6.7-2.7-3-.6-3.8-.6-6.7 0 0-8.8 2.1-12.8 6.7-20-2.7.2-5 .1-6.9 2.1-2.5 2.7-2.2 6.6-2.7 9.9-1.2 8.4-4.6 22 6.9 24M17.3 52c9-4.8 10.5-17.6 18.7-24 .7 7.3 3.7 14.7 6.7 21.3 4-6.6-3.3-20-6.7-26.6C26.2 28 20.3 41.6 17.3 52" fill="#0ff"/><path d="M277.3 28l1.4 1.3-1.4-1.3" fill="#656565"/><path d="M285.3 41.3c-11.7.4-4.6-7-2.6-13.3-2.4.8-4.4 1.4-6.2 3.2-8 8.5 4.8 21 8.8 10.1m41.4-10.6c0 4.1.3 8 1.3 12h4l1.3-4 2.7 6.6c2.4-3.8 1.3-7.5 1.3-12-2.7.7-4.2 1.4-6.6 2.7l-1.4-5.3h-2.6" fill="#0ff"/><path d="M278.7 33.3l1.3 1.4-1.3-1.4" fill="#212121"/><path d="M340.4 35.6s-.1 1.4.5.8c0 0 .1-1.4-.5-.8" fill="#aaa"/><path d="M290.7 36c-1.4 2-1.4 1.6-1.4 4 2.1-1 2.4-1 4-2.7l-2.6-1.3" fill="#0ff"/><path d="M37.3 37.3l1.4 1.4-1.4-1.4" fill="#aaa"/><path d="M293.3 37.3l1.4 1.4-1.4-1.4" fill="#212121"/><path d="M340.4 38.2c0 .1-.1 1.5.5 1 0-.2.1-1.6-.5-1" fill="#ccc"/><path d="M42.7 38.7L44 40l-1.3-1.3M33.3 40l1.4 1.3-1.4-1.3" fill="#434343"/><path d="M33.3 41.3c-2.6 10.3-1.7 21.5-3 32-3.2 25.8-6.5 51.4-7.7 77.4-.6 12.8-5.3 27.4-2.6 40 37.6-7 78.1-1.7 116 0 40.4 1.7 81-1.9 121.3 1.3-3.6 4.3-8.8 6.7-10.6 12 7-3 13.3-6.7 20-10.7 2.5-1.7 6.3-3.4 6.6-6.6 1.1-7.3-16-15.3-21.3-17.4 2.6 8 12.7 12 18.7 17.4-8 3.3-13.4 1.5-21.4 1.3-11-.3-22.2 0-33.3 0-22.2 0-44.5 1-66.7 0-22.6-1-45.3-3.4-68-4-14.2-.3-28.4.5-42.6 1.7-3.8.3-12 2-14.3-2.2-1.7-3.2-.5-9.3-.4-12.8 0-6 0-16.3 3.5-21.2 2.7-3.8 7.6-5.3 11-8.5 6.3-5.7 15.7-22 14.8-30.3-9.6 10-11.2 28.9-26.6 32 0-34 9.3-67.4 9.3-101.4h-2.7m152 28c7.9 3 10.5-6.6 17.4-8.5 4-.8 7.9 1.9 12 1 8.7-1.5 16-9.2 24-12.5 4.8-2.2 10.2-2.2 13.3-6.6-14.2.3-22.4 8.9-34.7 14-5.6 2.4-10.4-1.3-16 0-6.6 1.4-11 8.6-16 12.6" fill="#0ff"/><path d="M306.7 42.7L308 44l-1.3-1.3" fill="#ccc"/><path d="M330.7 42.7L332 44l-1.3-1.3" fill="#212121"/><path d="M338.7 42.7L340 44l-1.3-1.3" fill="#ccc"/><path d="M18.7 44l1.3 1.3-1.3-1.3" fill="#434343"/><path d="M276 45.3l1.3 1.4-1.3-1.4" fill="#888"/><path d="M280 46.7l1.3 1.3-1.3-1.3" fill="#434343"/><path d="M317.3 46.7l1.4 1.3-1.4-1.3" fill="#888"/><path d="M241.3 48l1.4 1.3-1.4-1.3" fill="#aaa"/><path d="M21.3 49.3l1.4 1.4-1.4-1.4" fill="#212121"/><path d="M344 50.7l1.3 1.3-1.3-1.3" fill="#ccc"/><path d="M300 52l1.3 1.3L300 52" fill="#888"/><path d="M36 53.3l1.3 1.4-1.3-1.4" fill="#ccc"/><path d="M36 54.7l1.3 1.3-1.3-1.3" fill="#434343"/><path d="M264 54.7l1.3 1.3-1.3-1.3" fill="#212121"/><path d="M340.9 55.1c-.6.6.8.5.9.5.6-.6-.8-.6-1-.5" fill="#aaa"/><path d="M216 56l1.3 1.3L216 56" fill="#434343"/><path d="M141.3 90.7c-9.4 0-15.7-4.3-24-8.4-5-2.3-10.6-4.8-16-2-9.7 5-15 20.2-20.8 29-2.6 4-6 10-11.2 11-3.5.6-6.6-2-8.7-4.3-4.6-5.3-5-13.3-10.5-17.9-6.7-5.4-19.4-2.8-20.8 5.9 3.1-1.8 5.7-4.5 9.4-5 17.2-2.4 13.7 29.5 32 25.3C89 120.1 88 88.8 105.3 83c3.8-1.3 7.6 1.4 10.7 3 6.4 3.5 13.3 9.3 21.3 8.4 6.1-.7 7.5-6 10.5-10.4 3.2-4.8 7.7-9 13.5-10.2 11.7-2.4 24.4.3 36 .9 16 .6 35.7-1.4 50.7-7.7 6.7-2.7 15.9-4.7 20-11-17.5 2.7-32.5 12.7-50.7 14.4-12.5 1.3-26 .8-38.6.3-6.4-.4-12.3-2-18.7-.5a24 24 0 0 0-18.7 20.5" fill="#0f0"/><path d="M216 61.3l1.3 1.4-1.3-1.4" fill="#aaa"/><path d="M248 61.3l1.3 1.4-1.3-1.4" fill="#212121"/><path d="M190.7 62.7L192 64l-1.3-1.3" fill="#ccc"/><path d="M254.7 64l1.3 1.3-1.3-1.3" fill="#aaa"/><path d="M230.7 66.7L232 68l-1.3-1.3" fill="#656565"/><path d="M248 66.7l1.3 1.3-1.3-1.3" fill="#434343"/><path d="M162.7 68l1.3 1.3-1.3-1.3" fill="#212121"/><path d="M300 69.3c-.6 6.1 1.6 12.5 2 18.7.3 5.3-.7 10.7-.7 16 8-6 5.2-28.3-1.3-34.7" fill="#0f0"/><path d="M153.3 70.7l1.4 1.3-1.4-1.3" fill="#888"/><path d="M260 77.3V80c3.4 0 6.1-.4 9.3-1.3l1.4 1.3c-2 6.7-3.8 18.7 2.6 22.7 0-6.7-1.7-16.3.8-22.5 1.4-3.4 5.2-5.2 7.2-8.2-7.3 0-14 4.3-21.3 5.3" fill="#0f0"/><path d="M129.3 88l2.7-12c5 1.3 9.3 3.3 14.7 2.7-3.3-3.1-9.5-7.1-14.3-5.6-5.7 1.7-7.3 11.8-3 14.9" fill="#0ff"/><path d="M136 72l1.3 1.3L136 72" fill="#434343"/><path d="M284 72c-3.1 6.2-4.5 13-4 20 .6 5.9 4.7 7.1 6.7 1.3-2.4 0-2 0-4 1.4 0-8 1.7-14.3 5.3-21.4-2-1.3-1.6-1.3-4-1.3" fill="#0f0"/><path d="M152 78.7c10.7.8 17.8.1 28-4-8.1-3.4-22-2.6-28 4" fill="#fff"/><path d="M149.3 80c10.7 6.7 24.6 1.3 34.7-4 .2 2.7.6 4.3 1.3 6.7 2.2-2.7 3.7-7.9-1.5-8.8-5.2-1-10.9 3.6-15.8 4.9-6.3 1.6-12.4-.6-18.7 1.2" fill="#0ff"/><path d="M269.3 73.3l1.4 1.4-1.4-1.4m10.7 1.4l1.3 1.3-1.3-1.3M33.3 76l1.4 1.3-1.4-1.3" fill="#ccc"/><path d="M132 76l-4 13.3 13.3 1.4 4-10.7a62.2 62.2 0 0 0-13.3-4" fill="#fff"/><path d="M100 78.7l1.3 1.3-1.3-1.3" fill="#212121"/><path d="M289.3 80c-1.3 4-1.3 6.7 0 10.7h2.7c1.3-2 1.3-1.6 1.3-4 2 1.3 3.2 1.8 5.4 2.6-.5-3.4-1.4-6.1-2.7-9.3h-6.7" fill="#0f0"/><path d="M97.3 92c-3 1.9-4 3.4-5.3 6.7 12.7 4.6 26.7 6 32-9.4-9.3-4-24-13.7-26.7 2.7" fill="#fff"/><path d="M117.3 81.3l1.4 1.4-1.4-1.4m161.4 1.4L280 84l-1.3-1.3" fill="#ccc"/><path d="M185.3 85.3c-.6 3-.6 3.8 0 6.7 2-2.4 2.3-3.6 2.7-6.7h-2.7" fill="#0ff"/><path d="M298.7 85.3l1.3 1.4-1.3-1.4" fill="#656565"/><path d="M293.3 86.7l1.4 1.3-1.4-1.3" fill="#fff"/><path d="M26.7 88l1.3 1.3-1.3-1.3" fill="#212121"/><path d="M293.3 88l1.4 1.3-1.4-1.3" fill="#434343"/><path d="M132 89.3l1.3 1.4-1.3-1.4" fill="#888"/><path d="M134.2 89.8c-.6.6.8.5 1 .4.5-.6-.9-.5-1-.4" fill="#434343"/><path d="M136.9 89.8c-.6.6.8.5.9.4.6-.6-.8-.5-1-.4" fill="#656565"/><path d="M138.7 89.3l1.3 1.4-1.3-1.4m149.3 0l1.3 1.4-1.3-1.4" fill="#aaa"/><path d="M297.3 89.3l1.4 1.4-1.4-1.4" fill="#888"/><path d="M96 90.7l1.3 1.3-1.3-1.3" fill="#ccc"/><path d="M124 90.7c-1.7 2.2-3.4 4.5-5.5 6.4-9.2 8.2-17.5 3.3-27.8 1.6 4.6 7.6 19.3 8.6 26.6 4.2 4.5-2.7 9-7.2 6.7-12.2" fill="#0ff"/><path d="M285.3 92l1.4 1.3-1.4-1.3" fill="#212121"/><path d="M273.3 93.3l1.4 1.4-1.4-1.4" fill="#aaa"/><path d="M37.3 94.7l1.4 1.3-1.4-1.3" fill="#ccc"/><path d="M41.3 94.7l1.4 1.3-1.4-1.3m46.7 0l1.3 1.3-1.3-1.3" fill="#212121"/><path d="M273.8 95.6c-.1 0-.2 1.4.4.8.1 0 .2-1.4-.4-.8" fill="#656565"/><path d="M57.3 110.7c5.6-3.7 10.7-8.4 17.4-10.4 4.3-1.3 8.9-.6 13.3-1.6-8.9-6-30.9 0-30.7 12M88 96l1.3 1.3L88 96" fill="#0ff"/><path d="M26.7 142.7c11.1-1.3 18.6-13.2 18.6-24 5-2.7 10-9 4-13.4-1.5-8.3-14.4-9-18.6-1.7-1.7 3.3-1.4 7.4-2 11a213 213 0 0 0-2 28m60-42.6c-8.1-1.3-26.9 1-28 12-.5 5.7 7 10 11.8 8.5 4.5-1.4 7.6-6.2 10-9.8 2.2-3.5 4.4-7 6.2-10.7" fill="#fff"/><path d="M281.3 98.7l1.4 1.3-1.4-1.3" fill="#434343"/><path d="M73.3 100l1.4 1.3-1.4-1.3m226.7 0l1.3 1.3-1.3-1.3" fill="#212121"/><path d="M49.3 104l1.4 1.3-1.4-1.3" fill="#888"/><path d="M54.7 104l1.3 1.3-1.3-1.3" fill="#434343"/><path d="M182.7 105.3a9.4 9.4 0 0 0 4 2.7v-4c-2.4 0-2 0-4 1.3" fill="#0ff"/><path d="M182.7 108l1.3 1.3-1.3-1.3M84 110.7l1.3 1.3-1.3-1.3" fill="#434343"/><path d="M182.7 114.7c0 2.4 0 2 1.3 4a9.4 9.4 0 0 0 2.7-4h-4" fill="#0ff"/><path d="M74.7 116l1.3 1.3-1.3-1.3" fill="#888"/><path d="M80 117.3l1.3 1.4-1.3-1.4m-34.7 1.4l1.4 1.3-1.4-1.3" fill="#434343"/><path d="M50.7 120l1.3 1.3-1.3-1.3" fill="#ccc"/><path d="M57.3 120l1.4 1.3-1.4-1.3" fill="#888"/><path d="M22.7 124l1.3 1.3-1.3-1.3m25.3 0l1.3 1.3L48 124" fill="#656565"/><path d="M184 125.3l-1.3 5.4c2.6-1.9 3-2.5 1.3-5.4" fill="#0ff"/><path d="M181.3 128l1.4 1.3-1.4-1.3" fill="#656565"/><path d="M182.7 137.3v4a9.4 9.4 0 0 0 2.6-4h-2.6" fill="#0ff"/><path d="M21.3 142.7l1.4 1.3-1.4-1.3" fill="#212121"/><path d="M21.3 144l1.4 1.3-1.4-1.3" fill="#888"/><path d="M34.7 144l1.3 1.3-1.3-1.3" fill="#aaa"/><path d="M21.3 145.3l1.4 1.4-1.4-1.4" fill="#ccc"/><path d="M181.3 152l1.4 1.3a9.4 9.4 0 0 0 2.6-4c-2 1-2.3 1.1-4 2.7" fill="#0ff"/><path d="M25.3 157.3l1.4 1.4-1.4-1.4" fill="#aaa"/><path d="M182.7 157.3l-1.4 1.4 1.4 2.6 2.6-1.3c-.7-2.2-.5-2-2.6-2.7" fill="#0ff"/><path d="M25.3 158.7l1.4 1.3-1.4-1.3" fill="#212121"/><path d="M250.7 172l1.3 1.3-1.3-1.3" fill="#ccc"/><path d="M24 174.7l1.3 1.3-1.3-1.3" fill="#434343"/><path d="M181.3 174.7c0 2.4 0 2 1.4 4a9.4 9.4 0 0 0 2.6-4h-4" fill="#0ff"/><path d="M66.7 182.7c1.6.9 2 1 4 1.3-1.7-1-2.1-1-4-1.3" fill="#212121"/><path d="M96 184l1.3 1.3L96 184" fill="#aaa"/><path d="M268 184l1.3 1.3-1.3-1.3" fill="#656565"/><path d="M136 185.3l1.3 1.4-1.3-1.4" fill="#ccc"/><path d="M137.3 185.3l1.4 1.4-1.4-1.4" fill="#434343"/><path d="M58.7 188l1.3 1.3-1.3-1.3" fill="#656565"/><path d="M76 188l1.3 1.3L76 188" fill="#212121"/><path d="M77.3 188l1.4 1.3-1.4-1.3" fill="#aaa"/><path d="M25.3 189.3l1.4 1.4-1.4-1.4" fill="#656565"/><path d="M116 189.3l1.3 1.4-1.3-1.4" fill="#212121"/><path d="M117.3 189.3l1.4 1.4-1.4-1.4" fill="#ccc"/><path d="M262.7 189.3l1.3 1.4-1.3-1.4" fill="#656565"/><path d="M169.3 201.3c1.3 5 2 10 4 14.7 1.7-2 2-2.7 2.7-5.3 1.6 4.2 2.3 6.6 6.7 8 0 3.3-.4 7.3 1.5 10.2 3.8 5.7 8.3-.6 8.8-4.9.8-7.6-5.3-15.9-10.3-6.7l-4-13.3-5.4 1.3c1.3-2 1.4-1.6 1.4-4l-1.4-1.3c-2.4 0-2 0-4 1.3" fill="#0ff"/><path d="M178.7 202.7l1.3 1.3-1.3-1.3" fill="#434343"/><path d="M181.3 210.7l1.4 1.3-1.4-1.3" fill="#212121"/><path d="M181.3 212l1.4 1.3-1.4-1.3" fill="#ccc"/><path d="M184 212l1.3 1.3-1.3-1.3" fill="#434343"/><path d="M192 214.7l1.3 1.3-1.3-1.3" fill="#888"/><path d="M186.7 217.3c-1.4 4.6-1.4 8 2.6 10.7v-10.7h-2.6" fill="#fff"/><path d="M193.8 222.2c-.1.1-.2 1.5.4 1 .1-.2.2-1.6-.4-1" fill="#656565"/><path d="M193.3 224l1.4 1.3-1.4-1.3" fill="#212121"/><path d="M190.7 230.7l1.3 1.3-1.3-1.3" fill="#888"/></svg>