<svg xmlns="http://www.w3.org/2000/svg" height="98.7" width="680"><path d="M0 0l1.3 1.3L0 0"/><path d="M0 98.7h680V0H14.7C11 0 5.2-1 2 1.4-2.7 5.4 0 21 0 26.7v72" fill="#fff"/><path d="M516 6.7c-1.3 7 .5 13.9 4 20 5-4.3 7.5-9.8 9.3-16-4.6 2.6-6 5.9-8 10.6-2-4.9-2.6-9.3-2.6-14.6H516M645.3 8c-.6 5.8 0 11.7 1.4 17.3 7-2.1 10.6-9.3 13.3-16-5.8 2-8.2 7.5-12 12V8h-2.7" fill="#00f"/><path d="M656 8l1.3 1.3L656 8" fill="#434343"/><path d="M660 9.3l1.3 1.4-1.3-1.4" fill="#aaa"/><path d="M558.7 12c-.6 6 1 11.6 2.6 17.3h4a111 111 0 0 1 8-16L572 12a29 29 0 0 0-8 12c-1.5-4-2.3-7.7-2.7-12h-2.6m40 0c0 6.7 0 12.5 2.6 18.7 6-3.3 9.4-10.6 9.4-17.4-3.4 3.5-5 7.5-6.7 12a28.2 28.2 0 0 1-2.7-13.3h-2.6" fill="#00f"/><path d="M652 13.3l1.3 1.4-1.3-1.4" fill="#888"/><path d="M665.3 14.7l1.4 1.3-1.4-1.3" fill="#212121"/><path d="M673.3 14.7l1.4 1.3-1.4-1.3" fill="#aaa"/><path d="M648 16l1.3 1.3L648 16m8 0l1.3 1.3L656 16" fill="#ccc"/><path d="M665.3 16c-1.3 3.6-2 7-2.6 10.7l6.6 1.3c.3 2.7.6 4.3 1.4 6.7 2.6-5.8 2.5-12.4 2.6-18.7-3 2.1-4.3 5.3-6.6 8 .6-3.6.7-5-1.4-8" fill="#00f"/><path d="M668 16l1.3 1.3L668 16" fill="#212121"/><path d="M557.3 17.3l1.4 1.4-1.4-1.4" fill="#434343"/><path d="M610.7 17.3l1.3 1.4-1.3-1.4" fill="#656565"/><path d="M317.3 30.7l1.4 1.3c10.6-4.8 20.6-3.3 32-4 22.3-1.6 44.2-2.7 66.6-2.7.7 2.2 1 4 3.1 5.4 5.9 3.5 15.4-3.1 8.7-8.9-4.6-4-19-.5-25.1-.5-21.3.3-43 1.8-64 3.8-8.4.8-16.4-1.1-22.7 5.6" fill="#00f"/><path d="M537.3 18.7l1.4 1.3-1.4-1.3" fill="#ccc"/><path d="M562.7 18.7L564 20l-1.3-1.3M401.3 20a22 22 0 0 0 9.4 1.3c-3.1-1.3-6-1.3-9.4-1.3" fill="#212121"/><path d="M411.6 20.4c-.6.6.8.6.8.5.6-.6-.8-.5-.8-.5" fill="#434343"/><path d="M414.2 20.4c-.6.6.8.6 1 .5.5-.6-.9-.5-1-.5" fill="#656565"/><path d="M416.9 20.4c-.6.6.8.6.9.5.6-.6-.8-.5-1-.5" fill="#ccc"/><path d="M534.7 20l-8 12 1.3 1.3 8-6.6v8h2.7V20h-4" fill="#00f"/><path d="M575.6 20.4c-.6.6.8.6.8.5.6-.6-.8-.5-.8-.5m33.7-.4l1.4 1.3-1.4-1.3" fill="#434343"/><path d="M612 20l1.3 1.3L612 20" fill="#ccc"/><path d="M634.7 20c-1 5.6 0 11.6 0 17.3 3.7-4.9 3.7-12.4 0-17.3" fill="#00f"/><path d="M372 21.3l1.3 1.4-1.3-1.4" fill="#888"/><path d="M548 21.3c.7 8.8 0 15.4-1.3 24 7.4-4.7 7-18 1.3-24m22.7 5.4l5.3-1.4c-2.4 7.8-2.3 11.7 6.7 12v-2.6h-5.4a27 27 0 0 0 0-13.4c-3.5 1.4-4.8 2.1-6.6 5.4m41.3-4c1.7.9 2 1 4 1.3l-1.3 5.3c2.6 1.7 3.8 2.7 5.3 5.4l-5.3-1.4-1.4 1.4v2.6c13.4 2.7 9.1-16.2-1.3-14.6" fill="#00f"/><path d="M644 21.3l1.3 1.4-1.3-1.4" fill="#aaa"/><path d="M353.3 22.7l1.4 1.3-1.4-1.3" fill="#212121"/><path d="M568 22.7l1.3 1.3-1.3-1.3m42.7 0L612 24l-1.3-1.3" fill="#656565"/><path d="M661.3 22.7l1.4 1.3-1.4-1.3" fill="#434343"/><path d="M420 25.3V28l5.3 1.3 1.4-5.3c-2.7.2-4.3.6-6.7 1.3" fill="#fff"/><path d="M590.7 24l-1.4 18.7h2.7l1.3-18.7h-2.6M21.3 37.3l4 8c4-1.3 7.9-3.7 12-4.7 8-2 17.2-.4 25.4-.6 16.8-.4 33.7-1.3 50.6-1.3 7.6 0 15.2-1 22.7-.8 4.9.2 9.8 1.3 14.7.8 4.8-1 8.4-4.7 13.3-5 6.6-.3 13.3 2 20 2.3 19 .8 38.5.7 57.3-1.1 14.7-1.4 29.4-1.3 44-2.7 6.7-.6 12.6.4 18.7-2.9l-2.7 6.7 9.4-2.7c-.8-4.4-2.8-7.7-8-7.3-3.8.2-7 2.6-10.7 3.3a487 487 0 0 1-45.3 2.7c-19.6.5-39 2.1-58.7 1.3-12.6-.6-24.6-3.1-37.3-2.6-7 .3-13.4 3.2-20 4C114 36 96.7 36 80 36c-11.4 0-23.3 2.4-34.7 1-9-1-16.7-7.2-24 .3" fill="#00f"/><path d="M308 25.3l1.3 1.4-1.3-1.4" fill="#434343"/><path d="M318.7 25.3l1.3 1.4-1.3-1.4" fill="#212121"/><path d="M552 25.3l1.3 1.4-1.3-1.4" fill="#ccc"/><path d="M661.3 25.3l1.4 1.4-1.4-1.4" fill="#212121"/><path d="M349.3 28l1.4 1.3-1.4-1.3" fill="#434343"/><path d="M560 28l1.3 1.3L560 28" fill="#888"/><path d="M149.3 29.3l1.4 1.4-1.4-1.4" fill="#656565"/><path d="M153.3 29.3l1.4 1.4-1.4-1.4" fill="#212121"/><path d="M322.7 29.3l1.3 1.4-1.3-1.4" fill="#888"/><path d="M561.3 29.3l1.4 1.4-1.4-1.4" fill="#212121"/><path d="M564 29.3l1.3 1.4-1.3-1.4" fill="#888"/><path d="M593.3 29.3l1.4 1.4-1.4-1.4" fill="#434343"/><path d="M614.7 29.3l1.3 1.4-1.3-1.4" fill="#888"/><path d="M140 30.7l1.3 1.3-1.3-1.3" fill="#ccc"/><path d="M176 30.7l1.3 1.3-1.3-1.3" fill="#aaa"/><path d="M177.3 30.7l1.4 1.3-1.4-1.3" fill="#434343"/><path d="M237.3 30.7l1.4 1.3-1.4-1.3" fill="#212121"/><path d="M239.6 31.1c-.6.6.8.5.8.5.6-.6-.8-.6-.8-.5" fill="#888"/><path d="M241.3 30.7l1.4 1.3-1.4-1.3m360 0l1.4 1.3-1.4-1.3" fill="#ccc"/><path d="M420 32l1.3 1.3L420 32" fill="#434343"/><path d="M34.7 33.3l1.3 1.4-1.3-1.4" fill="#212121"/><path d="M125.3 33.3l1.4 1.4-1.4-1.4" fill="#434343"/><path d="M126.7 33.3l1.3 1.4-1.3-1.4" fill="#aaa"/><path d="M276 33.3l1.3 1.4-1.3-1.4" fill="#ccc"/><path d="M588 33.3l1.3 1.4-1.3-1.4" fill="#212121"/><path d="M21.3 34.7l1.4 1.3-1.4-1.3" fill="#aaa"/><path d="M145.3 34.7l1.4 1.3-1.4-1.3m3.6.4c-.6.6.8.5.9.5.6-.6-.8-.6-1-.5" fill="#fff"/><path d="M168 34.7l1.3 1.3-1.3-1.3" fill="#212121"/><path d="M254.7 34.7L256 36l-1.3-1.3" fill="#ccc"/><path d="M256 34.7l1.3 1.3-1.3-1.3" fill="#656565"/><path d="M588 34.7l1.3 1.3-1.3-1.3" fill="#aaa"/><path d="M156 36l1.3 1.3L156 36" fill="#ccc"/><path d="M186.7 36l1.3 1.3-1.3-1.3m37.3 0l1.3 1.3L224 36" fill="#888"/><path d="M110.7 38.7L112 40l-1.3-1.3" fill="#aaa"/><path d="M112 38.7l1.3 1.3-1.3-1.3" fill="#656565"/><path d="M113.3 38.7l1.4 1.3-1.4-1.3" fill="#212121"/><path d="M40 40l1.3 1.3L40 40" fill="#434343"/><path d="M41.3 40l1.4 1.3-1.4-1.3" fill="#888"/><path d="M60 40c1.7 1 2 1 4 1.3-1.7-.9-2-1-4-1.3" fill="#aaa"/><path d="M64.9 40.4c-.6.6.8.6.9.5.6-.6-.8-.5-1-.5" fill="#212121"/><path d="M545.3 41.3l1.4 1.4-1.4-1.4" fill="#434343"/><path d="M22.7 42.7L24 44l-1.3-1.3" fill="#ccc"/><path d="M25.3 45.3l1.4 1.4-1.4-1.4" fill="#656565"/><path d="M26.7 45.3l1.3 1.4-1.3-1.4" fill="#212121"/><path d="M418.7 49.3c0 6.8 1 12.6 4 18.7h2.6l8-17.3-1.3-1.4c-4.2 3.7-6 8.2-8 13.4a36.8 36.8 0 0 1-2.7-13.4h-2.6" fill="#00f"/><path d="M433.3 49.3l1.4 1.4-1.4-1.4" fill="#434343"/><path d="M426.7 52l1.3 1.3-1.3-1.3" fill="#ccc"/><path d="M145.3 53.3l1.4 1.4-1.4-1.4" fill="#212121"/><path d="M148 53.3l1.3 1.4-1.3-1.4" fill="#434343"/><path d="M145.3 54.7c0 5.6-.9 13.3 2.2 18.2 4.8 7.8 10.4-4.9 11.2-8.9-3.6 2.4-5 5.4-6.7 9.3-3.3-6-2.7-12-4-18.6h-2.7m168 1.3a61.7 61.7 0 0 0-5.3 16h-2.7a50.4 50.4 0 0 0-5.3-13.3c-1.6 7.7 1.3 15 9.3 17.3 2-5.9 7-14.3 4-20m-300 1.3c.6 6.9 2.6 13.7 5.4 20h2.6c3-5.1 6-10.4 8-16-4.4 2.3-7 6-10.6 9.4-.2-4.8-1-9-2.7-13.4h-2.7" fill="#00f"/><path d="M149.3 57.3l1.4 1.4-1.4-1.4" fill="#ccc"/><path d="M442.7 57.3c-1.5 4.5-2.3 8.5-5.4 12 .9-3.6 1.3-7 1.4-10.6H436c-.7 5.3-1.5 9.5 0 14.6l4-1.3v9.3h2.7c.3-8 1.2-16 2.6-24h-2.6" fill="#00f"/><path d="M148 58.7V64c1-2.3 1-3 0-5.3" fill="#fff"/><path d="M149.3 58.7v6.6c1.1-2.6 1.1-4 0-6.6" fill="#434343"/><path d="M301.3 58.7l1.4 1.3-1.4-1.3m13.4 1.3l1.3 1.3-1.3-1.3" fill="#ccc"/><path d="M24 61.3l1.3 1.4-1.3-1.4m394.7 0l1.3 1.4-1.3-1.4" fill="#212121"/><path d="M297.3 62.7l1.4 1.3-1.4-1.3" fill="#aaa"/><path d="M154.7 64l1.3 1.3-1.3-1.3" fill="#ccc"/><path d="M318.7 64l1.3 1.3-1.3-1.3" fill="#656565"/><path d="M149.3 65.3l1.4 1.4-1.4-1.4" fill="#aaa"/><path d="M316 69.3l1.3 1.4c2-.7 2.5-1.1 4-2.7l-2.6 6.7 6.6 1.3c-3 3.3-6.8 5.7-9.3 9.3 4-.7 9.7-2 11-6.6 1.8-6.7-5.2-15-11-9.4" fill="#00f"/><path d="M26.7 66.7L28 68l-1.3-1.3" fill="#212121"/><path d="M304 66.7l1.3 1.3-1.3-1.3m8 1.3l1.3 1.3L312 68" fill="#aaa"/><path d="M26.7 82.7c3.8-2.4 5.8-6.5 9.3-9.4l-1.3 12h2.6c.3-3.8 2.1-9.2.4-12.9-4.4-8.9-10.5 7-11 10.3" fill="#00f"/><path d="M16 73.3l1.3 1.4-1.3-1.4" fill="#212121"/><path d="M33.3 73.3l1.4 1.4-1.4-1.4" fill="#434343"/><path d="M436 73.3l1.3 1.4-1.3-1.4M148 76l1.3 1.3L148 76" fill="#ccc"/><path d="M170.7 76l1.3 1.3-1.3-1.3" fill="#434343"/><path d="M18.7 77.3l1.3 1.4-1.3-1.4" fill="#888"/><path d="M162.7 82.7l6.6-2.7c-1.3 3.1-4.7 8.2-3.4 11.6 2.6 7 13.3 0 15.4-3.6-4.4 1-8.7 2.3-13.3 2.7 2-2.7 5.2-6.6 4-10.3-1.7-5.6-9.4-2.7-9.3 2.3" fill="#00f"/><path d="M321.3 78.7l1.4 1.3-1.4-1.3" fill="#434343"/><path d="M328 78.7l1.3 1.3-1.3-1.3M168 80l1.3 1.3L168 80m146.7 1.3l1.3 1.4-1.3-1.4" fill="#656565"/><path d="M166.7 84l1.3 1.3-1.3-1.3" fill="#434343"/><path d="M162.7 90.7L164 92l-1.3-1.3" fill="#212121"/><path d="M168.9 95.1c-.6.6.8.5.9.5.6-.6-.8-.6-1-.5" fill="#aaa"/></svg>