<svg xmlns="http://www.w3.org/2000/svg" height="209.3" width="194.7"><path d="M0 0v209.3h194.7V0H0" fill="#fff"/><path d="M85.3 8c-5.3 7.7-14.6 15.4-12 25.3-4.2-.7-9.3-1.6-12.3 2-3.3 3.8-2.6 10.8-5 15.4-9 16.8-18.7 33.4-26.7 50.6-1.6-5.5-.7-10.3 0-16-6.3 4.2-3.3 13.4-6.6 19.8-1.6 3.1-5 5.7-4.6 9.6.2 3 2.7 5.8 5.9 5.8 5.3 0 7.4-6.4 10-9.8 3.8-5 9-8.4 14-12-6.3-3.5-12.9 5.3-18.7 8 9.4-14 16.5-29.3 24.3-44 2.4-4.5 5.8-14 11.7-14.7 5.4-.9 11.4 11 14.2 14.7 12.3 16.3 26 29.6 40.5 44L98.7 108v2.7c7.1 0 18.6-2.2 25.2 1.3 8.4 4.8 5.1 13.5 1.4 20-7.7 13.6-18 29.3-22.6 44-1-3.2-1.4-6-1.4-9.3-6 4-1.6 10.6-6.1 15.3-3.8 4-10.2 1.7-13.9 6a59.3 59.3 0 0 1-14.6-16c-2.4 7.2 5.3 13.3 9.3 18.7-9.3-.7-14-7.7-19.4-14.7a281 281 0 0 1-22.3-33.3c-3.4-6-6.3-14.7-11.6-18.7 3.8 25.8 27.5 47.2 41.3 68-4 .4-5.8.8-8 4 6.6-.8 13.3-2 20-1.1 4 .5 7.8 3.3 12 3.4 3.7.4 7-1.5 10.7-2 4.4-.6 9 0 13.3-1 7.3-1.7 13.8-6.8 20-10.8 20-13 37.7-32.8 46.7-55.2 15.5-37.7 6.6-85.7-32-104.8a77.3 77.3 0 0 0-28-7.2A65.3 65.3 0 0 0 85.3 20c4 2.7 7.4.9 12 .2 6.7-1 13.3-.6 20 0a71.7 71.7 0 0 1 60 41.1c16.6 38.3-3.1 80-30.6 106.7a112.2 112.2 0 0 1-33.4 23.3c-6.6 2.8-13.3 3.4-17.3-3.3a71 71 0 0 0 21.3-9.3c-5.3-.9-9.7.5-14.6 2.6 8-15 16-30.5 24.5-45.3 3-5.3 9.9-11.5 11-17.3 1.4-7.9-7-13.6-11.2-18.7-3-3.3-4.3-6.5-8.3-8 1.3 6.2 5 10.1 9.3 14.7-7-3.3-11.7-9.3-17.3-14.5A225 225 0 0 1 84 62.7c-3.6-4.7-8.9-10.2-10.7-16-1-4 0-9.1 0-13.4 7 1.8 14.2 3.1 21.4 4-3.7-5.6-13.7-5.3-20-6.6C78 24 88 16 85.3 8" fill="#00f"/><path d="M80 13.3l1.3 1.4-1.3-1.4" fill="#212121"/><path d="M102.7 14.7L104 16l-1.3-1.3" fill="#656565"/><path d="M104 14.7c2 .9 3 1 5.3 1.3-2-1-3-1.1-5.3-1.3" fill="#eee"/><path d="M110.2 15.1c-.6.6.8.5 1 .5.5-.6-.9-.6-1-.5" fill="#888"/><path d="M112 14.7l1.3 1.3-1.3-1.3" fill="#434343"/><path d="M124 16l1.3 1.3L124 16" fill="#aaa"/><path d="M76 18.7l1.3 1.3-1.3-1.3" fill="#ccc"/><path d="M76 26.7l1.3 1.3-1.3-1.3m-17.3 8L60 36l-1.3-1.3" fill="#656565"/><path d="M76 34.7l1.3 1.3-1.3-1.3" fill="#888"/><path d="M57.3 40l1.4 1.3-1.4-1.3" fill="#434343"/><path d="M165.3 44l1.4 1.3-1.4-1.3m-116 16l1.4 1.3-1.4-1.3" fill="#888"/><path d="M54.7 60l1.3 1.3-1.3-1.3m28 0l1.3 1.3-1.3-1.3" fill="#212121"/><path d="M53.3 62.7l1.4 1.3-1.4-1.3" fill="#aaa"/><path d="M45.3 66.7l1.4 1.3-1.4-1.3M82.7 68l1.3 1.3-1.3-1.3" fill="#434343"/><path d="M49.3 69.3l1.4 1.4-1.4-1.4" fill="#aaa"/><path d="M41.3 74.7l1.4 1.3-1.4-1.3" fill="#434343"/><path d="M180 76l1.3 1.3L180 76" fill="#212121"/><path d="M40 77.3l1.3 1.4-1.3-1.4" fill="#aaa"/><path d="M100 81.3l1.3 1.4-1.3-1.4" fill="#212121"/><path d="M102.7 84l1.3 1.3-1.3-1.3" fill="#aaa"/><path d="M29.3 88l1.4 1.3-1.4-1.3m5.4 0l1.3 1.3-1.3-1.3" fill="#888"/><path d="M106.7 88l1.3 1.3-1.3-1.3" fill="#aaa"/><path d="M109.3 90.7l1.4 1.3-1.4-1.3" fill="#ccc"/><path d="M110.7 92l1.3 1.3-1.3-1.3" fill="#656565"/><path d="M117.3 92l1.4 1.3-1.4-1.3" fill="#aaa"/><path d="M32 93.3l1.3 1.4-1.3-1.4" fill="#888"/><path d="M105.3 93.3l1.4 1.4-1.4-1.4" fill="#ccc"/><path d="M46.7 94.7L48 96l-1.3-1.3" fill="#888"/><path d="M36 96l1.3 1.3L36 96" fill="#aaa"/><path d="M46.7 96l1.3 1.3-1.3-1.3" fill="#fff"/><path d="M48 96l1.3 1.3L48 96" fill="#212121"/><path d="M108 96l1.3 1.3L108 96m-60 1.3l1.3 1.4-1.3-1.4" fill="#ccc"/><path d="M22.7 98.7L24 100l-1.3-1.3" fill="#212121"/><path d="M38.7 98.7L40 100l-1.3-1.3" fill="#aaa"/><path d="M22.7 100l1.3 1.3-1.3-1.3" fill="#656565"/><path d="M33.3 100l1.4 1.3-1.4-1.3" fill="#888"/><path d="M45.3 100l1.4 1.3-1.4-1.3" fill="#434343"/><path d="M22.7 101.3v4c.9-2 .9-1.9 0-4" fill="#ccc"/><path d="M41.3 102.7l1.4 1.3-1.4-1.3" fill="#aaa"/><path d="M30.7 104l1.3 1.3-1.3-1.3" fill="#ccc"/><path d="M180 104l1.3 1.3-1.3-1.3" fill="#212121"/><path d="M115.6 105.8c-.6.6.8.5.8.4.6-.6-.8-.5-.8-.4" fill="#656565"/><path d="M18.7 108l1.3 1.3-1.3-1.3" fill="#888"/><path d="M109.3 110.7l1.4 1.3-1.4-1.3" fill="#aaa"/><path d="M122.7 110.7l1.3 1.3-1.3-1.3" fill="#212121"/><path d="M32 113.3l1.3 1.4-1.3-1.4" fill="#aaa"/><path d="M133.3 113.3l1.4 1.4-1.4-1.4" fill="#fff"/><path d="M178.7 114.7l1.3 1.3-1.3-1.3" fill="#656565"/><path d="M128 116l1.3 1.3-1.3-1.3" fill="#aaa"/><path d="M182.7 118.7l1.3 1.3-1.3-1.3" fill="#434343"/><path d="M138.7 120l1.3 1.3-1.3-1.3" fill="#656565"/><path d="M181.3 122.7l1.4 1.3-1.4-1.3m-48 2.6l1.4 1.4-1.4-1.4" fill="#aaa"/><path d="M22.7 130.7L24 132l-1.3-1.3" fill="#434343"/><path d="M124 141.3l1.3 1.4-1.3-1.4m48 1.4l1.3 1.3-1.3-1.3" fill="#212121"/><path d="M165.3 144l1.4 1.3-1.4-1.3" fill="#656565"/><path d="M121.3 146.7l1.4 1.3-1.4-1.3m41.4 1.3l1.3 1.3-1.3-1.3" fill="#ccc"/><path d="M157.3 154.7l1.4 1.3-1.4-1.3" fill="#212121"/><path d="M110.7 157.3l1.3 1.4-1.3-1.4" fill="#aaa"/><path d="M114.7 160l1.3 1.3-1.3-1.3" fill="#888"/><path d="M106.7 164l1.3 1.3-1.3-1.3" fill="#212121"/><path d="M149.3 164l1.4 1.3-1.4-1.3" fill="#888"/><path d="M153.3 165.3l1.4 1.4-1.4-1.4" fill="#fff"/><path d="M154.7 165.3l1.3 1.4-1.3-1.4" fill="#212121"/><path d="M153.3 166.7l1.4 1.3-1.4-1.3m-44 2.6l1.4 1.4-1.4-1.4" fill="#aaa"/><path d="M54.7 173.3l1.3 1.4-1.3-1.4" fill="#ccc"/><path d="M50.7 176l1.3 1.3-1.3-1.3" fill="#434343"/><path d="M113.3 176l1.4 1.3-1.4-1.3" fill="#656565"/><path d="M108 177.3l1.3 1.4-1.3-1.4" fill="#ccc"/><path d="M133.3 177.3l1.4 1.4-1.4-1.4" fill="#888"/><path d="M60 180l1.3 1.3L60 180m68 1.3l1.3 1.4-1.3-1.4m8 0l1.3 1.4-1.3-1.4" fill="#ccc"/><path d="M62.7 182.7L64 184l-1.3-1.3" fill="#434343"/><path d="M89.3 182.7l1.4 1.3-1.4-1.3" fill="#656565"/><path d="M108 182.7l1.3 1.3-1.3-1.3" fill="#434343"/><path d="M125.3 182.7l1.4 1.3-1.4-1.3" fill="#aaa"/><path d="M81.3 184l1.4 1.3-1.4-1.3" fill="#656565"/><path d="M78.7 186.7L80 188l-1.3-1.3m-5.4 1.3l1.4 1.3-1.4-1.3" fill="#aaa"/><path d="M86.7 192l1.3 1.3-1.3-1.3" fill="#fff"/><path d="M72 194.7c1.7.9 2 1 4 1.3-1.7-1-2-1-4-1.3" fill="#656565"/><path d="M76 194.7l1.3 1.3-1.3-1.3" fill="#ccc"/><path d="M110.7 196l1.3 1.3-1.3-1.3m-21.4 2.7l1.4 1.3-1.4-1.3" fill="#888"/></svg>