<svg xmlns="http://www.w3.org/2000/svg" height="361.3" width="770.7"><path d="M0 0v361.3h770.7V0H0" fill="#fff"/><path d="M437.3 2.7l1.4 1.3-1.4-1.3" fill="#888"/><path d="M484 2.7c-.2 3-.3 2.9 1.3 5.3 0-2.7 0-3-1.3-5.3M312 4c-2.4 9.1-4 18.7-4 28 2.4-1.3 2.1-1.2 2.7-4 4.5 1.5 8.5 3 13.3 2.7-3.2-3-6.4-4-10.7-5.4 4.5-3 7.8-5.3 9.4-10.6L312 21.3 314.7 4H312" fill="#00f"/><path d="M365.3 4l1.4 1.3-1.4-1.3" fill="#656565"/><path d="M436 4l-4 13.3c-2.2-.3-4.2-1-6.3.2-7 3.8-3.8 14.5 4.8 7.8 1.4-1 2.8-2.6 4.2-4 .9 3.1 1.3 3.7 4 5.4-1.5-8-.4-14.7 0-22.7H436m-73.3 22.7c-2.9.3-5.4.3-8 0 1.3 4.4 7.6 6.8 9.8 1 2-5.4-4.3-9-4-14.2 0-3.4 4.3-5.5 6.2-8.2-14.8 1.7-9 12.4-4 21.4m26.6-21.4c-1.5 12-3.4 21-17.3 21.4 2.2-4 3.5-5.2 8-5.4l-1.3-5.3c-4.7 1.6-15 11.4-5.4 14 6.7 1.8 18.2-3.1 24-6l-1.3 6.7c4-2.7 4-6 4-10.7-4 .6-6 1.6-9.3 4 0-6.6 1.2-12.3 2.6-18.7h-4" fill="#00f"/><path d="M465.3 5.3l1.4 1.4-1.4-1.4" fill="#888"/><path d="M466.7 5.3l-1.4 25.4h2.7l1.3-25.4h-2.6" fill="#00f"/><path d="M268 6.7l1.3 1.3-1.3-1.3" fill="#ccc"/><path d="M272 6.7l1.3 1.3-1.3-1.3" fill="#aaa"/><path d="M237.3 22.7c6-3.6 10-7.3 17.4-8 0 7.6-.8 15-1.4 22.6 7-5 1.8-14.3 5.8-21 3-5 9.6-3.6 12.9-8.3-10.7 1.3-32.5 1.4-34.7 14.7" fill="#00f"/><path d="M244 12l1.3 1.3L244 12m21.3 0l1.4 1.3-1.4-1.3" fill="#ccc"/><path d="M432 12l1.3 1.3L432 12" fill="#888"/><path d="M293.3 13.3l1.4 1.4-1.4-1.4" fill="#434343"/><path d="M297.3 13.3l1.4 1.4-1.4-1.4m22.7 0l1.3 1.4-1.3-1.4" fill="#212121"/><path d="M386.7 13.3l1.3 1.4-1.3-1.4" fill="#434343"/><path d="M253.3 14.7l1.4 1.3-1.4-1.3" fill="#888"/><path d="M296 26.7v2.6l-9.3 2.7c8 5.8 16.2-6 5.3-9.3 2.3-2.5 3.4-3.2 6.7-4 0-2.4 0-2-1.4-4-7.6 2.7-9.4 8.5-1.3 12" fill="#00f"/><path d="M253.3 16l1.4 1.3-1.4-1.3" fill="#ccc"/><path d="M373.3 16l1.4 1.3-1.4-1.3" fill="#656565"/><path d="M406.7 16l1.3 1.3-1.3-1.3" fill="#212121"/><path d="M404 30.7c5.8.6 11 1.3 14.7-4l-9.4 1.3c2.7-4.3 4-7 2.7-12-6 3.2-6.8 8.3-8 14.7" fill="#00f"/><path d="M469.3 16l1.4 1.3-1.4-1.3" fill="#aaa"/><path d="M492 16a27 27 0 0 0 0 16c4.6-2.2 7-4.8 9.3-9.3 2.1 3.3 3.4 6 6.7 8-2.4-12.4-5.6-11.7-14.7-4 0-3.8 0-7.2-1.3-10.7M274.7 29.3c4 2.7 7.3 4.2 10.6 0h-6.6c-.1-1.7 0-3.6-.5-5.3-.3-1-.5-2.5-1.3-3.4-7.6-8.6-16.6 14.8-5.3 11.5 1.3-.4 2.2-1.9 3-2.8" fill="#00f"/><path d="M298.7 17.3l1.3 1.4-1.3-1.4m9.3 0l1.3 1.4-1.3-1.4" fill="#ccc"/><path d="M356 17.3l1.3 1.4-1.3-1.4" fill="#212121"/><path d="M437.3 17.3l1.4 1.4-1.4-1.4" fill="#aaa"/><path d="M469.3 17.3l1.4 1.4-1.4-1.4" fill="#212121"/><path d="M504 17.3l1.3 1.4-1.3-1.4" fill="#888"/><path d="M514.7 30.7c3.2-1.4 5.3-3 8-5.4 1 5.6 4.4 23.4-6.7 21.4-2.3-.4-4.6-2.7-6.7-4 1.3 7.4 11.4 11.2 16 3.7 3.8-6.2 1.3-18.3 0-25l-5.3 1.3-1.3-5.4c-5.4 3.4-5.7 7.6-4 13.4" fill="#00f"/><path d="M394.7 18.7L396 20l-1.3-1.3" fill="#434343"/><path d="M421.3 18.7l1.4 1.3-1.4-1.3" fill="#888"/><path d="M452 18.7l1.3 1.3-1.3-1.3" fill="#212121"/><path d="M333.3 20v2.7c3.4 0 6.1-.4 9.4-1.4-3.1-1.3-6-1.3-9.4-1.3" fill="#00f"/><path d="M342.7 20l1.3 1.3-1.3-1.3" fill="#aaa"/><path d="M425.3 20l-1.3 5.3c3-1.3 3.8-2.3 5.3-5.3h-4" fill="#fff"/><path d="M448 20l-1.3 9.3c5.3-.7 9-2.2 14.6-1.3l-4-6.7c-2.7.7-4.2 1.4-6.6 2.7l1.3-4h-4m30.7 0c-1 4-1 6.7 0 10.7h2.6l1.4-1.4c-.8-3.7-1.6-6.4-4-9.3" fill="#00f"/><path d="M240 21.3l1.3 1.4-1.3-1.4" fill="#ccc"/><path d="M266.7 21.3l1.3 1.4-1.3-1.4" fill="#888"/><path d="M272 21.3c-1.8 3.1-3 6-4 9.4 4-2 5.8-4 8-8-2-1.3-1.6-1.4-4-1.4" fill="#fff"/><path d="M358.7 21.3l1.3 1.4-1.3-1.4m54.6 0l1.4 1.4-1.4-1.4" fill="#656565"/><path d="M506.7 21.3l1.3 1.4-1.3-1.4" fill="#aaa"/><path d="M404 22.7l1.3 1.3-1.3-1.3" fill="#656565"/><path d="M516 26.7c2-1.4 2.5-2 4-4-2.8 1.3-2.8 1.3-4 4" fill="#fff"/><path d="M404 24l1.3 1.3L404 24m90.7 0l1.3 1.3-1.3-1.3" fill="#ccc"/><path d="M290.7 25.3l1.3 1.4-1.3-1.4" fill="#aaa"/><path d="M500 25.3l1.3 1.4-1.3-1.4" fill="#656565"/><path d="M521.3 25.3l1.4 1.4-1.4-1.4" fill="#fff"/><path d="M321.3 26.7l1.4 1.3-1.4-1.3" fill="#212121"/><path d="M353.3 26.7l1.4 1.3-1.4-1.3" fill="#aaa"/><path d="M434.7 26.7L436 28l-1.3-1.3" fill="#656565"/><path d="M453.3 26.7l1.4 1.3-1.4-1.3" fill="#ccc"/><path d="M498.7 26.7L500 28l-1.3-1.3" fill="#aaa"/><path d="M521.3 26.7l1.4 1.3-1.4-1.3" fill="#212121"/><path d="M264 28l1.3 1.3L264 28m104 0l1.3 1.3L368 28" fill="#888"/><path d="M418.7 28l1.3 1.3-1.3-1.3" fill="#aaa"/><path d="M445.3 28l1.4 1.3-1.4-1.3" fill="#888"/><path d="M417.3 29.3l1.4 1.4-1.4-1.4" fill="#656565"/><path d="M464 29.3l1.3 1.4-1.3-1.4" fill="#aaa"/><path d="M264 30.7l1.3 1.3-1.3-1.3" fill="#ccc"/><path d="M324 30.7l1.3 1.3-1.3-1.3" fill="#888"/><path d="M374.2 31.1c-.6.6.8.5 1 .5.5-.6-.9-.6-1-.5" fill="#656565"/><path d="M398.7 30.7L400 32l-1.3-1.3" fill="#aaa"/><path d="M414.7 30.7L416 32l-1.3-1.3" fill="#ccc"/><path d="M506.7 30.7L508 32l-1.3-1.3m20 0L528 32l-1.3-1.3" fill="#434343"/><path d="M284 32l1.3 1.3L284 32" fill="#ccc"/><path d="M306.7 32l1.3 1.3-1.3-1.3" fill="#888"/><path d="M358.7 32l1.3 1.3-1.3-1.3" fill="#656565"/><path d="M410.7 32l1.3 1.3-1.3-1.3M508 42.7l1.3 1.3-1.3-1.3" fill="#888"/><path d="M526.7 44l1.3 1.3-1.3-1.3m-13.4 1.3l1.4 1.4-1.4-1.4" fill="#656565"/><path d="M466.7 60l1.3 1.3-1.3-1.3" fill="#aaa"/><path d="M26.7 128c3.2 0 8 .7 10.4-2.1 2.3-3 1.1-7.2 3.6-10.2 2.8-3.7 7.3-6.2 11.3-8.5C71.4 96 94 90 116 86c41-7.2 83.9-5.1 125.3-3.2 36.5 1.5 73 1.3 109.4 4-5.6 2.7-11.2 6.8-17.4 7.7-13.3 2-28-2.4-41.3-2.4-22.3 0-44.7 3-66.7 6.7-12.4 2-35 3.1-42.6 14.6 7.7-1.6 15-5.3 22.6-7.6 11.6-3 24-5.1 36-6.7a406 406 0 0 1 50.7-4c12.9 0 25.8 2.3 38.7 2.3-8.6 7.5-17.4 16-28 20 0 2.4 0 2 1.3 4 11.7-5.3 21-18.6 33.3-22 7-1.9 16.9.9 24 2 19.4 2.7 38.2 6.8 57.4 10.7-4.5 1.3-8.7 1.3-13.4 1.3v2.7c6.4 0 15.6 1.4 21-2.7 7.8-6.3-9.2-10-13-10.6 2.7 4.1 7.4 5.3 12 6.6-8.7.1-18-3.3-26.6-5-18.7-3.8-38.3-8-57.4-8.3 5.4-3.1 11.2-7.4 17.4-8.6 7.6-1.4 17.6.6 25.3 1.6 12 1.4 24 2.4 36 4.4 7.7 1.3 16.3 4.9 24 4-5.6-5-14.2-5.3-21.3-6.7-18.4-3.6-37.5-4.4-56-6.7 9.3-5 20.3-7.3 30.6-10.3 24.6-7 49.3-10.3 74.7-8.4 12.4.8 26 2.3 37.3 7.8 13.7 6.6 15.4 23.4 28 29.6-4-9-9.8-21-17.4-27.3-17-14-45.8-14-66.6-14-22 0-44.3 5.3-65.3 11.6-10.4 3-22.7 9.7-33.3 10-12.5.4-25-1.3-37.4-1.6-32.5-.8-64.8-1.4-97.3-2.7-26.7-1.2-53.6-2.7-80 .7-30.7 4.2-61.8 9-89.3 24.6-10.2 5.5-23.7 11.2-24 24" fill="#00f"/><path d="M424 62.7l1.3 1.3-1.3-1.3" fill="#434343"/><path d="M489.3 62.7l1.4 1.3-1.4-1.3M416 64l1.3 1.3L416 64" fill="#656565"/><path d="M410.7 65.3l1.3 1.4-1.3-1.4m32 0l1.3 1.4-1.3-1.4m28 0l1.3 1.4-1.3-1.4" fill="#434343"/><path d="M430.7 66.7L432 68l-1.3-1.3" fill="#888"/><path d="M482.7 66.7L484 68l-1.3-1.3m22.6 0l1.4 1.3-1.4-1.3" fill="#656565"/><path d="M518.7 73.3l1.3 1.4-1.3-1.4" fill="#888"/><path d="M376 74.7l1.3 1.3-1.3-1.3M176 76l1.3 1.3L176 76" fill="#212121"/><path d="M178.2 76.4c-.6.6.8.6 1 .5.5-.6-.9-.5-1-.5" fill="#888"/><path d="M189.3 76c1.7 1 2.1 1 4 1.3-1.6-.9-2-1-4-1.3" fill="#aaa"/><path d="M194.2 76.4c-.6.6.8.6 1 .5.5-.6-.9-.5-1-.5" fill="#212121"/><path d="M389.3 76l1.4 1.3-1.4-1.3" fill="#aaa"/><path d="M516 77.3l1.3 1.4-1.3-1.4" fill="#888"/><path d="M260 78.7l1.3 1.3-1.3-1.3" fill="#434343"/><path d="M121.3 80l1.4 1.3-1.4-1.3" fill="#656565"/><path d="M317.3 80c1.7 1 2.1 1 4 1.3-1.6-.9-2-1-4-1.3" fill="#aaa"/><path d="M321.3 80l1.4 1.3-1.4-1.3" fill="#434343"/><path d="M361.3 80l1.4 1.3-1.4-1.3" fill="#212121"/><path d="M113.3 81.3l1.4 1.4-1.4-1.4" fill="#656565"/><path d="M165.3 81.3l1.4 1.4-1.4-1.4" fill="#ccc"/><path d="M166.7 81.3l1.3 1.4-1.3-1.4" fill="#434343"/><path d="M208 81.3l1.3 1.4-1.3-1.4" fill="#888"/><path d="M348 81.3l1.3 1.4-1.3-1.4" fill="#656565"/><path d="M144 82.7l1.3 1.3-1.3-1.3m94.7 0L240 84l-1.3-1.3" fill="#434343"/><path d="M240 82.7l1.3 1.3-1.3-1.3" fill="#888"/><path d="M126.7 84l1.3 1.3-1.3-1.3" fill="#212121"/><path d="M293.3 84l1.4 1.3-1.4-1.3" fill="#434343"/><path d="M377.3 84l1.4 1.3-1.4-1.3m60 0l1.4 1.3-1.4-1.3" fill="#aaa"/><path d="M438.7 84c4.3 7.6 14.5 9 20 16-10.4.8-20.3 0-30.7 0v2.7c8.9 0 23.6 4.8 31.6-.5 3.9-2.5 1.7-6.6-1.1-8.9a58 58 0 0 0-19.8-9.3" fill="#00f"/><path d="M94.7 85.3l1.3 1.4-1.3-1.4" fill="#212121"/><path d="M332 85.3l1.3 1.4-1.3-1.4" fill="#aaa"/><path d="M394.7 85.3l1.3 1.4-1.3-1.4" fill="#888"/><path d="M522.7 85.3l1.3 1.4-1.3-1.4" fill="#434343"/><path d="M356 88l1.3 1.3L356 88" fill="#212121"/><path d="M414.7 88l1.3 1.3-1.3-1.3" fill="#ccc"/><path d="M533.3 88c5.2 7.6 12 13.8 17.4 21.3-15.2 0-30.2-3.8-45.4-4 3.2 5 8 4 13.4 4 10.2.5 20.3 2.7 30.6 2.7a29 29 0 0 0-4 6.7 30.7 30.7 0 0 0-25.3 0c5 3 13.7.1 20 1.3v2.7c-9 2.6-17.7 7-26.7 10-18.6 6.2-38 11.3-57.3 14.7-27.7 5-54.8 3.5-82.7 3.3 16.4-6.2 34-9.6 50.7-14.7 7.1-2.2 15.3-3.5 21.3-8-8.1-1.2-17.4 3.3-25.3 5.5-19.2 5.5-40 14.5-60 15.8a87.4 87.4 0 0 1-44-11.8c-5.7-3.3-10-8-16-10.8 5.1 16 33.1 23.3 48 24-15.8 6.6-35.2 5.3-52 5.3-25.4 0-51 0-76-4.3-11.3-2-23-3.7-33.3-9-5.8-3.2-9.9-7.9-14.7-12 .4 10 11.6 14.7 20 17.7 21.3 7.8 46.7 10 69.3 10.3 21.1.2 41.6 1.3 62.7 0 13-1 25.7-5.2 38.7-5.3 19.4 0 39 2 58.6 1.3 26.2-1.2 52-7 77.4-14.1 15-4.3 30.4-8.6 44-16.6-2.7 3.7-6 6.7-8 10.7 8-2.5 12.2-7.4 10.6-16 7.2-1.9 14 .4 21.4-1.4-2.7-5-7.2-5-11-8.7-7.3-6.8-12.3-17.8-22.4-20.6" fill="#00f"/><path d="M384 89.3l1.3 1.4-1.3-1.4" fill="#212121"/><path d="M385.3 89.3l1.4 1.4-1.4-1.4" fill="#888"/><path d="M442.7 89.3l1.3 1.4-1.3-1.4" fill="#656565"/><path d="M77.3 90.7l1.4 1.3-1.4-1.3" fill="#888"/><path d="M286.7 90.7c3.5 1.4 6.6 1.3 10.6 1.3-3.5-1.3-6.9-1.3-10.6-1.3" fill="#212121"/><path d="M340 90.7l1.3 1.3-1.3-1.3" fill="#656565"/><path d="M430.7 90.7L432 92l-1.3-1.3" fill="#212121"/><path d="M89.3 92l1.4 1.3-1.4-1.3" fill="#aaa"/><path d="M337.3 92l1.4 1.3-1.4-1.3" fill="#888"/><path d="M408 92l1.3 1.3L408 92" fill="#ccc"/><path d="M458.7 92l1.3 1.3-1.3-1.3" fill="#434343"/><path d="M69.3 93.3l1.4 1.4-1.4-1.4" fill="#212121"/><path d="M85.3 93.3l1.4 1.4-1.4-1.4" fill="#aaa"/><path d="M333.3 93.3l1.4 1.4-1.4-1.4" fill="#212121"/><path d="M344 93.3l-2.7 1.4c2 .7 2.7.8 2.7-1.4" fill="#fff"/><path d="M345.3 93.3l1.4 1.4-1.4-1.4m70.7 0l1.3 1.4-1.3-1.4m-176 1.4l1.3 1.3-1.3-1.3" fill="#434343"/><path d="M344 94.7l1.3 1.3-1.3-1.3" fill="#656565"/><path d="M424 94.7l1.3 1.3-1.3-1.3" fill="#434343"/><path d="M453.3 94.7l1.4 1.3-1.4-1.3" fill="#212121"/><path d="M232 96l1.3 1.3L232 96m37.3 0l1.4 1.3-1.4-1.3" fill="#888"/><path d="M433.3 96l1.4 1.3-1.4-1.3" fill="#656565"/><path d="M438.7 98.7l1.3 1.3-1.3-1.3" fill="#aaa"/><path d="M346.7 100l1.3 1.3-1.3-1.3" fill="#212121"/><path d="M204 101.3l1.3 1.4-1.3-1.4" fill="#ccc"/><path d="M461.3 101.3l1.4 1.4-1.4-1.4m-264 1.4l1.4 1.3-1.4-1.3" fill="#212121"/><path d="M398.7 102.7l1.3 1.3-1.3-1.3m137.3 0l1.3 1.3-1.3-1.3" fill="#ccc"/><path d="M57.3 104l1.4 1.3-1.4-1.3" fill="#656565"/><path d="M377.3 104l1.4 1.3-1.4-1.3" fill="#212121"/><path d="M505.3 104l1.4 1.3-1.4-1.3" fill="#888"/><path d="M509.3 104l1.4 1.3-1.4-1.3" fill="#434343"/><path d="M190.7 105.3l1.3 1.4-1.3-1.4" fill="#656565"/><path d="M554.7 108l1.3 1.3-1.3-1.3" fill="#ccc"/><path d="M48 109.3l1.3 1.4-1.3-1.4" fill="#212121"/><path d="M257.3 109.3l1.4 1.4-1.4-1.4" fill="#434343"/><path d="M438.7 116c5.2-.3 9.3-.8 9.3-6.7-4.7 1.4-7.7 1.9-9.3 6.7" fill="#00f"/><path d="M37.3 110.7l1.4 1.3-1.4-1.3" fill="#888"/><path d="M190.7 110.7l1.3 1.3-1.3-1.3" fill="#656565"/><path d="M257.3 110.7c1.1 5 7.5 6.2 12 8-11.6 3.4-25.3.8-37.3 1.4-19.2.8-39.6 4.8-58.7 1.2 1.4 7 18 4 24 4 25.3-.2 50.6-2.6 76-2.6-5 4.1-17.4 3.6-18.6 9.3 7.4-1 18.5-1.2 21.3-9.3 4.5.3 8.9 0 13.3 0 2.6.2 5.3 1.8 7.8 1.3 4.6-.9 2.8-6.2 0-8-6.4-3.7-12 4.5-18.4 3.8-7.8-.9-13.4-7.8-21.4-9.1" fill="#00f"/><path d="M312 110.7l1.3 1.3-1.3-1.3m214.7 0l1.3 1.3-1.3-1.3" fill="#aaa"/><path d="M318.7 112l1.3 1.3-1.3-1.3" fill="#ccc"/><path d="M405.3 112l1.4 1.3-1.4-1.3" fill="#434343"/><path d="M437.3 112l1.4 1.3-1.4-1.3m102.7 0l1.3 1.3-1.3-1.3" fill="#212121"/><path d="M541.3 112l1.4 1.3-1.4-1.3" fill="#888"/><path d="M542.7 112l1.3 1.3-1.3-1.3" fill="#ccc"/><path d="M161.3 113.3l1.4 1.4-1.4-1.4" fill="#434343"/><path d="M268 113.3l1.3 1.4-1.3-1.4" fill="#888"/><path d="M289.3 113.3l1.4 1.4-1.4-1.4" fill="#656565"/><path d="M404 113.3l1.3 1.4-1.3-1.4" fill="#212121"/><path d="M161.6 116.2c-5.7 2.5-4.4 13.1 2.1 10.2 5.2-2.3 4.2-12.9-2.1-10.2" fill="#00f"/><path d="M437.3 114.7l1.4 1.3-1.4-1.3" fill="#aaa"/><path d="M538.7 114.7l1.3 1.3-1.3-1.3" fill="#656565"/><path d="M420 116l1.3 1.3-1.3-1.3" fill="#aaa"/><path d="M551.6 116.4c-.6.6.8.6.8.5.6-.6-.8-.5-.8-.5" fill="#ccc"/><path d="M265.3 117.3l1.4 1.4-1.4-1.4" fill="#656565"/><path d="M565.3 117.3l1.4 1.4-1.4-1.4m-526.2 2.3s-.1 1.4.5.8c0 0 .1-1.4-.5-.8m128.9-1l1.3 1.4-1.3-1.3m77.3 0l1.4 1.3-1.4-1.3" fill="#212121"/><path d="M422.7 120c5.2 4 12.5 2.9 18.6 5 2.5 1 5.9 2.5 5 5.8-1.1 3.6-5.6 6-7.6 9.2 6.3-1.3 17.3-9.6 8.9-16-5.6-4.3-18.4-5.3-25-4" fill="#00f"/><path d="M432 118.7l1.3 1.3-1.3-1.3" fill="#212121"/><path d="M161.3 120v2.7h2.7V120h-2.7" fill="#fff"/><path d="M168 120l1.3 1.3-1.3-1.3m32 0l1.3 1.3-1.3-1.3" fill="#656565"/><path d="M296 120l1.3 1.3-1.3-1.3m-264 1.3v2.7c2.2-.7 2-.5 2.7-2.7H32" fill="#fff"/><path d="M38.7 121.3l1.3 1.4-1.3-1.4" fill="#656565"/><path d="M301.3 121.3l1.4 1.4-1.4-1.4m-262.2 2.3s-.1 1.4.5.8c0 0 .1-1.4-.5-.8" fill="#aaa"/><path d="M286.7 122.7l1.3 1.3-1.3-1.3" fill="#ccc"/><path d="M426.7 122.7l1.3 1.3-1.3-1.3" fill="#888"/><path d="M534.7 122.7l1.3 1.3-1.3-1.3" fill="#ccc"/><path d="M214.7 124l1.3 1.3-1.3-1.3" fill="#888"/><path d="M194.7 125.3l1.3 1.4-1.3-1.4" fill="#656565"/><path d="M265.3 125.3l1.4 1.4-1.4-1.4" fill="#aaa"/><path d="M441.3 125.3l1.4 1.4-1.4-1.4" fill="#212121"/><path d="M257.3 126.7l1.4 1.3-1.4-1.3" fill="#656565"/><path d="M36 128l1.3 1.3L36 128m124 0l1.3 1.3-1.3-1.3" fill="#ccc"/><path d="M444 129.3l1.3 1.4-1.3-1.4" fill="#212121"/><path d="M446.7 129.3l1.3 1.4-1.3-1.4" fill="#ccc"/><path d="M542.7 130.7l1.3 1.3-1.3-1.3" fill="#212121"/><path d="M169.3 132l1.4 1.3-1.4-1.3" fill="#aaa"/><path d="M525.3 132l1.4 1.3-1.4-1.3" fill="#434343"/><path d="M433.3 133.3l1.4 1.4-1.4-1.4" fill="#ccc"/><path d="M405.3 136l1.4 1.3-1.4-1.3" fill="#434343"/><path d="M496 136l1.3 1.3-1.3-1.3" fill="#212121"/><path d="M556 137.3l1.3 1.4-1.3-1.4" fill="#434343"/><path d="M181.3 138.7l1.4 1.3-1.4-1.3" fill="#888"/><path d="M554.7 138.7c-.9 4-2 20.5 4.3 20.5 5.7 0 10.3-8.4 13-12.5-6 1.7-9.3 6.6-14.7 9.3 0-6 1-12.4-2.6-17.3M12 140c-.2 4.5 2.7 18.4 9.3 17.4 5-.7 8.4-8.3 10.7-12l-1.3-1.4c-4 3-6.2 6-8 10.7H20L14.7 140H12" fill="#00f"/><path d="M322.7 140l1.3 1.3-1.3-1.3" fill="#ccc"/><path d="M409.3 140l1.4 1.3-1.4-1.3" fill="#656565"/><path d="M441.3 140l1.4 1.3-1.4-1.3" fill="#888"/><path d="M500 140l1.3 1.3-1.3-1.3" fill="#aaa"/><path d="M552 140l1.3 1.3-1.3-1.3" fill="#888"/><path d="M326.7 141.3l1.3 1.4-1.3-1.4" fill="#434343"/><path d="M477.3 141.3l1.4 1.4-1.4-1.4" fill="#ccc"/><path d="M486.7 144l1.3 1.3-1.3-1.3" fill="#aaa"/><path d="M10.7 145.3l1.3 1.4-1.3-1.4m329.3 0l1.3 1.4-1.3-1.4" fill="#ccc"/><path d="M481.3 145.3l1.4 1.4-1.4-1.4" fill="#888"/><path d="M568 145.3l1.3 1.4-1.3-1.4" fill="#aaa"/><path d="M570.7 145.3l1.3 1.4-1.3-1.4" fill="#888"/><path d="M385.3 146.7l1.4 1.3-1.4-1.3" fill="#212121"/><path d="M452 146.7l1.3 1.3-1.3-1.3" fill="#434343"/><path d="M24 148l1.3 1.3L24 148" fill="#888"/><path d="M438.7 148l1.3 1.3-1.3-1.3" fill="#ccc"/><path d="M464 149.3l1.3 1.4-1.3-1.4" fill="#434343"/><path d="M22.7 150.7L24 152l-1.3-1.3" fill="#212121"/><path d="M28 150.7l1.3 1.3-1.3-1.3" fill="#656565"/><path d="M341.3 150.7l1.4 1.3-1.4-1.3" fill="#434343"/><path d="M457.3 150.7l1.4 1.3-1.4-1.3" fill="#656565"/><path d="M28 164c4.4-1.7 8-4 12-6.7a32.3 32.3 0 0 0-2.7 13.4H40c.5-6 2.6-11.5 4-17.4l-1.3-1.3c-6.4 2.4-11.7 5.8-14.7 12" fill="#00f"/><path d="M561.3 152l1.4 1.3-1.4-1.3" fill="#212121"/><path d="M20 153.3l1.3 1.4-1.3-1.4" fill="#ccc"/><path d="M26.7 153.3l1.3 1.4-1.3-1.4" fill="#656565"/><path d="M44.4 154.2c0 .1-.1 1.5.5 1 0-.2.1-1.6-.5-1" fill="#434343"/><path d="M256 153.3l1.3 1.4-1.3-1.4" fill="#656565"/><path d="M325.3 153.3l1.4 1.4-1.4-1.4" fill="#aaa"/><path d="M292 154.7l1.3 1.3-1.3-1.3" fill="#ccc"/><path d="M293.3 154.7c1.7.9 2.1 1 4 1.3-1.6-1-2-1-4-1.3" fill="#888"/><path d="M378.7 154.7l1.3 1.3-1.3-1.3" fill="#434343"/><path d="M420 154.7l1.3 1.3-1.3-1.3" fill="#aaa"/><path d="M558.7 154.7l1.3 1.3-1.3-1.3" fill="#888"/><path d="M565.3 154.7l1.4 1.3-1.4-1.3" fill="#434343"/><path d="M224 156l1.3 1.3-1.3-1.3" fill="#888"/><path d="M345.3 156l1.4 1.3-1.4-1.3" fill="#212121"/><path d="M30.7 157.3l1.3 1.4-1.3-1.4" fill="#aaa"/><path d="M242.7 157.3l1.3 1.4-1.3-1.4" fill="#656565"/><path d="M573.3 157.3l1.4 1.4-1.4-1.4" fill="#212121"/><path d="M321.3 158.7l1.4 1.3-1.4-1.3" fill="#434343"/><path d="M554.7 158.7l1.3 1.3-1.3-1.3" fill="#888"/><path d="M572 158.7c-.4 3.2-.2 6 0 9.3 5.1-.7 8.9-2.9 13.3-5.3v9.3h2.7c0-11.7-3.4-14.2-13.3-6.7v-6.6H572" fill="#00f"/><path d="M574.7 158.7l1.3 1.3-1.3-1.3" fill="#656565"/><path d="M33.3 161.3l1.4 1.4-1.4-1.4" fill="#434343"/><path d="M577.3 161.3l1.4 1.4-1.4-1.4" fill="#212121"/><path d="M741.3 232c4.5-2.7 6-8.5 8-13.3-8 .3-8 6.6-8 13.3" fill="#00f"/><path d="M749.3 218.7l1.4 1.3-1.4-1.3" fill="#888"/><path d="M740 220l1.3 1.3-1.3-1.3" fill="#656565"/><path d="M686.7 221.3l1.3 1.4-1.3-1.4" fill="#888"/><path d="M749.3 221.3l1.4 1.4-1.4-1.4" fill="#212121"/><path d="M686.7 222.7c-1 4.3-.8 24.3 7.8 20 6.4-3.5 2.8-10.6-3.8-8-1-4.4-1.4-8.5-4-12m44.3 1.5c-4.9 2.5-4 12.5 2 9.1 3.7-2.3 3.3-11.7-2-9" fill="#00f"/><path d="M641.3 224l1.4 1.3-1.4-1.3" fill="#ccc"/><path d="M638.7 225.3l-1.4 1.4v2.6c3.2-.6 3.4-.8 4-4h-2.6m81.3 0a33 33 0 0 0-2.7 10.7 20 20 0 0 1-2.6-9.3c-2.4 0-2 0-4 1.3 1.3 5.6 2 10.1 8 12 1.3-5 4-10 1.3-14.7" fill="#00f"/><path d="M722.7 226.7l1.3 1.3-1.3-1.3" fill="#aaa"/><path d="M730.7 226.7v5.3c1.3-2.5 1.3-2.7 0-5.3" fill="#fff"/><path d="M702.7 228l1.3 1.3-1.3-1.3" fill="#212121"/><path d="M709.3 237.3l-5.3 1.4c1.2-3.2 2.1-6 2.7-9.4-2.7 1.4-4.8 2.4-5.5 5.4-1.5 6.4 5.4 6.8 8.1 2.6" fill="#00f"/><path d="M685.3 233.3l1.4 1.4-1.4-1.4" fill="#434343"/><path d="M698.7 234.7l1.3 1.3-1.3-1.3" fill="#aaa"/><path d="M644 236v14.7c4-1.7 5.6-4.8 9.3-1.4.8-3.9.4-5.7-1.3-9.3a24 24 0 0 0-5.3 2.7c-.4-3-.8-4.3-2.7-6.7" fill="#00f"/><path d="M692 240c2.7-1.2 2.7-1.2 4-4-2.7 1.3-2.7 1.4-4 4" fill="#fff"/><path d="M686.7 238.7l1.3 1.3-1.3-1.3" fill="#888"/><path d="M614.7 240l1.3 1.3-1.3-1.3" fill="#434343"/><path d="M610.7 250.7c3.1.7 6 1.3 9.3 1.3-2.3 2.7-3.4 3.1-6.7 4 4 5.4 11.7-1.3 7.2-5.3-1.5-1.4-4-1.2-5.8-1.4 2-3 3.8-6 5.3-9.3-5.5 1.7-7.6 5.3-9.3 10.7m22.6 1.3a20.6 20.6 0 0 1-1.3-10.7l-1.3-1.3c-7 4-6.7 13.8 2.6 12m4-12v12h2.7v-12h-2.7m18.7 1.3V256h2.7v-14.7H656" fill="#00f"/><path d="M686.7 241.3l1.3 1.4-1.3-1.4" fill="#aaa"/><path d="M702.7 241.3l1.3 1.4-1.3-1.4" fill="#888"/><path d="M706.7 241.3l1.3 1.4-1.3-1.4" fill="#434343"/><path d="M565.3 242.7l1.4 1.3-1.4-1.3" fill="#ccc"/><path d="M640 242.7v4c1-2.1 1-2 0-4" fill="#656565"/><path d="M333.3 244l1.4 1.3-1.4-1.3" fill="#aaa"/><path d="M334.7 244l1.3 1.3-1.3-1.3" fill="#434343"/><path d="M565.3 244c-1.3 5.6-1.3 10.3-6.6 13.3 0 4.3 0 8 1.3 12 3.8-2 4.7-3.7 5.3-8l2.7 5.4c4.6-1.6 8.5-1.4 13.3-1.4v-2.6H576l1.3-10.7c-4.6 1.6-5.3 4.8-6.6 9.3-1.7-5.7-1-11.6-2.7-17.3h-2.7" fill="#00f"/><path d="M690.7 244l1.3 1.3-1.3-1.3" fill="#434343"/><path d="M692 244l1.3 1.3-1.3-1.3" fill="#888"/><path d="M222.7 245.3c.9 2.1 1 2.4 2.6 4v-4h-2.6m92 0l-2.7 16c-11.4-1-6.9 13.7.3 6.7 1-1 1.7-2.7 2.4-4 1.3 3.3 2.4 5.9 5.3 8-.6-7.9-.5-20.3-5.3-26.7m18.6 0v2.7h2.7v-2.7h-2.7" fill="#00f"/><path d="M332 248l1.3 1.3-1.3-1.3" fill="#212121"/><path d="M524 248l1.3 1.3-1.3-1.3" fill="#ccc"/><path d="M524 249.3c.3 8-.8 17.8 1.3 25.4h2.7c3-8 0-16.8 0-25.4h-4" fill="#00f"/><path d="M590.7 249.3l1.3 1.4-1.3-1.4" fill="#888"/><path d="M262.7 250.7l1.3 1.3-1.3-1.3" fill="#656565"/><path d="M582.7 252l1.3 8c2.7-1.2 2.7-1.2 4-4l2.7 4c2.2-3.5 1.3-5.3 0-9.3l-8 1.3" fill="#00f"/><path d="M590.7 250.7l1.3 1.3-1.3-1.3" fill="#fff"/><path d="M592 250.7l1.3 1.3-1.3-1.3" fill="#ccc"/><path d="M261.3 252c-2.8 8.5.4 11.7 6.7 17.3l-6.7 1.4v2.6h4c12-3-5.7-12.3 1.4-17.3-1.7-2.7-2.3-3.1-5.4-4m13.4 0c-2.3 7.6-1 15 0 22.7 2.3-.8 4.6-2.7 7-3.2 4.9-.8 11.6.5 17 .5l-5.4-8a33.6 33.6 0 0 0-5.3 5.3l-1.3-6.6c-3.4 1.4-6.3 3.3-9.4 5.3 0-5.7.9-11.4-2.6-16" fill="#00f"/><path d="M613.3 252l1.4 1.3-1.4-1.3" fill="#ccc"/><path d="M637.3 252l1.4 1.3-1.4-1.3" fill="#656565"/><path d="M638.7 252l1.3 1.3-1.3-1.3" fill="#aaa"/><path d="M522.7 253.3l1.3 1.4-1.3-1.4" fill="#656565"/><path d="M654.7 253.3l1.3 1.4-1.3-1.4M132 254.7l1.3 1.3-1.3-1.3m145.3 0l1.4 1.3-1.4-1.3" fill="#434343"/><path d="M342.7 254.7l1.3 1.3-1.3-1.3" fill="#656565"/><path d="M356 254.7c.5 5.4 1.3 9.5 5.3 13.3 1.2-2.3 2-4 2.7-6.7l4 5.4 5.3-2.7c1.2 2.8 1.2 2.8 4 4l-2.6-8-6.7 1.3c-1.3-5.6-4.7-2.6-8 0-.7-3.4-1.3-4.7-4-6.6" fill="#00f"/><path d="M622.7 254.7l1.3 1.3-1.3-1.3" fill="#656565"/><path d="M105.3 268c1.4-4 2.7-6 6.7-8 .5 2.9 1 4.3 2.7 6.7 0-1.4.7-2.7.3-4-3.3-11.7-16.7 0-9.7 5.3m28-12c0 10.7 2.7 20.3 4 30.7h2.7l-1.3-9.4c5.8 2.5 10.9 6.1 17.3 5.4-5-4-11.3-6.7-17.3-9.4l8-13.3c-4.6 1.4-6.3 3.6-8 8a29 29 0 0 1-2.7-12h-2.7m208 0c-1.3 4-1.3 6.7 0 10.7 3.3-.4 6.1-.4 9.4 0l-1.4-8h-2.6l-1.4 5.3c-1.3-3-2-5.3-4-8" fill="#00f"/><path d="M577.3 256l1.4 1.3-1.4-1.3" fill="#888"/><path d="M186.7 269.3l-6.7 5.4c10.1 1.3 11.6-6.6 2.7-10.7 1.2-2.3 2-4 2.6-6.7-8.6 2.8-5 9 1.4 12" fill="#00f"/><path d="M272 257.3l1.3 1.4-1.3-1.4" fill="#434343"/><path d="M330.7 257.3c-1.7 5.7-1.4 10.2 4 13.4-1-4.8-1-9.4-4-13.4" fill="#00f"/><path d="M338.7 257.3l1.3 1.4-1.3-1.4" fill="#656565"/><path d="M612 257.3l1.3 1.4-1.3-1.4" fill="#888"/><path d="M146.7 258.7l1.3 1.3-1.3-1.3" fill="#656565"/><path d="M262.7 258.7l1.3 1.3-1.3-1.3" fill="#212121"/><path d="M272.4 259.6s-.1 1.4.5.8c0 0 .1-1.4-.5-.8" fill="#aaa"/><path d="M354.7 258.7l1.3 1.3-1.3-1.3" fill="#656565"/><path d="M482.7 258.7l1.3 1.3-1.3-1.3" fill="#ccc"/><path d="M484 258.7c1 8.3 2.5 16.9 1.3 25.3 3 .8 6.1 1.8 9 0 7.6-5.1 1.4-14.6-6.3-13.3 0-4.3-.1-8-1.3-12H484m60 0c1 4.8 1 9.3 5.3 12l2.7-8c1.3 2.6 2 4 2.7 6.6h2.6c0-3.7-.4-7-1.3-10.6a19 19 0 0 0-8 4c-1.3-2.7-1.3-2.7-4-4" fill="#00f"/><path d="M613.3 258.7l1.4 1.3-1.4-1.3" fill="#ccc"/><path d="M304 260l1.3 1.3-1.3-1.3" fill="#434343"/><path d="M318.7 260l1.3 1.3-1.3-1.3m216 0l1.3 1.3-1.3-1.3" fill="#aaa"/><path d="M537.3 260a22.7 22.7 0 0 0-2.6 12c3.2-.8 6-1.3 9.3-1.3-1.8-4-3.3-7.7-6.7-10.7" fill="#00f"/><path d="M540 260l1.3 1.3-1.3-1.3" fill="#aaa"/><path d="M576 260l1.3 1.3-1.3-1.3" fill="#888"/><path d="M364 261.3l1.3 1.4-1.3-1.4m197.8 1c-.1 0-.2 1.4.4.8.1 0 .2-1.5-.4-.9" fill="#fff"/><path d="M169.3 262.7c0 5.6.3 10.2 5.4 13.3-.2-5.3-1.6-8.5 0-13.3h-5.4" fill="#00f"/><path d="M224 262.7l1.3 1.3-1.3-1.3" fill="#aaa"/><path d="M328 262.7l1.3 1.3-1.3-1.3" fill="#656565"/><path d="M364 262.7l1.3 1.3-1.3-1.3" fill="#aaa"/><path d="M221.3 264c0 5.3.9 9.8 2.7 14.7h2.7c1.3-2 1.3-1.6 1.3-4 2.1 1.7 2.7 2 5.3 2.6l1.4-5.3c2.6.4 4 .5 6.6 0 .7 2.7 1 3.3 2.7 5.3.9-11.4-8-8-16-8-1.3 2-1.3 1.6-1.3 4-1.5-3.7-2.2-6.9-5.4-9.3" fill="#00f"/><path d="M306.7 264v4c2.4 0 2 0 4-1.3a9.4 9.4 0 0 0-4-2.7m230.6 0l1.4 1.3-1.4-1.3" fill="#fff"/><path d="M156 265.3c0 6.7-.6 12.5 6.7 14.7l1.3-5.3c2 1.3 3.1 1.8 5.3 2.6-1.5-4.2-2.9-6.6-6.6-9.3l-1.4 8c-1.8-3.6-2-6.7-2.6-10.7H156" fill="#00f"/><path d="M188 265.3l1.3 1.4-1.3-1.4" fill="#888"/><path d="M365.3 265.3l1.4 1.4-1.4-1.4" fill="#434343"/><path d="M514.7 265.3c-1.1 4-1 6.7 0 10.7l-8 2.7c.6-3.6 1.1-7 1.3-10.7-5.3 1.7-9.8 10.8-2.4 13.6 4.7 1.8 12.8-2.3 17-4.3a13.4 13.4 0 0 0-6.6-6.6c.2-3 .3-3-1.3-5.4" fill="#00f"/><path d="M168 266.7l1.3 1.3-1.3-1.3" fill="#ccc"/><path d="M173.3 266.7l1.4 1.3-1.4-1.3" fill="#aaa"/><path d="M313.3 266.7l1.4 1.3-1.4-1.3" fill="#ccc"/><path d="M357.3 266.7l1.4 1.3-1.4-1.3" fill="#212121"/><path d="M141.3 268l1.4 1.3-1.4-1.3" fill="#434343"/><path d="M334.7 268l1.3 1.3-1.3-1.3" fill="#ccc"/><path d="M58.7 269.3l1.3 1.4-1.3-1.4" fill="#212121"/><path d="M166.7 269.3l1.3 1.4-1.3-1.4" fill="#ccc"/><path d="M220 269.3l1.3 1.4-1.3-1.4m340.9.5c-.6.6.8.5.9.4.6-.6-.8-.5-1-.4" fill="#aaa"/><path d="M58.7 270.7c.7 6 2.2 11.6 4 17.3 4.6-4.3 6.9-9.8 8-16-3.4 2-4.7 4.5-6.7 8l-2.7-9.3h-2.6" fill="#00f"/><path d="M68 270.7l1.3 1.3-1.3-1.3" fill="#aaa"/><path d="M69.3 270.7l1.4 1.3-1.4-1.3" fill="#656565"/><path d="M158.7 270.7l1.3 1.3-1.3-1.3m24 0l1.3 1.3-1.3-1.3" fill="#212121"/><path d="M225.3 270.7l1.4 1.3-1.4-1.3" fill="#888"/><path d="M518.7 270.7l1.3 1.3-1.3-1.3" fill="#434343"/><path d="M548 270.7l1.3 1.3-1.3-1.3" fill="#212121"/><path d="M76 272l1.3 1.3L76 272" fill="#aaa"/><path d="M110.7 272l1.3 1.3-1.3-1.3" fill="#212121"/><path d="M225.3 272l1.4 1.3-1.4-1.3m14.7 0l1.3 1.3-1.3-1.3" fill="#fff"/><path d="M269.3 272l1.4 1.3-1.4-1.3" fill="#434343"/><path d="M278.7 272l1.3 1.3-1.3-1.3" fill="#888"/><path d="M284 272l1.3 1.3-1.3-1.3" fill="#ccc"/><path d="M484 272l1.3 1.3-1.3-1.3" fill="#434343"/><path d="M492 272l-4 9.3c3 .7 3.7.7 6.7 0-.5-3.6-.7-6.3-2.7-9.3" fill="#fff"/><path d="M497.3 272l1.4 1.3-1.4-1.3m-422.6 1.3l1.3 1.4-1.3-1.4" fill="#656565"/><path d="M76 273.3l1.3 1.4-1.3-1.4" fill="#fff"/><path d="M76 280c2.5-2.3 3.1-3.4 4-6.7-3.5 2-4.1 2.8-4 6.7" fill="#00f"/><path d="M98.7 273.3l1.3 1.4-1.3-1.4" fill="#656565"/><path d="M98.7 274.7v2.6c5.3 0 10.2.8 13.3-4-4.5.9-8.8 1.4-13.3 1.4" fill="#00f"/><path d="M169.3 273.3l1.4 1.4-1.4-1.4" fill="#656565"/><path d="M240 273.3l1.3 1.4-1.3-1.4" fill="#ccc"/><path d="M500 273.3l1.3 1.4-1.3-1.4m-356 1.4l1.3 1.3-1.3-1.3" fill="#656565"/><path d="M174.7 274.7l1.3 1.3-1.3-1.3" fill="#aaa"/><path d="M468 284c-2.2 2.7-4.2 4.7-5.3 8 7-2 9.5-7.7 2.6-12 1.8-2.1 2-2.7 2.7-5.3-5 2.8-6.1 7.3 0 9.3" fill="#00f"/><path d="M517.3 274.7l1.4 1.3-1.4-1.3" fill="#fff"/><path d="M493.3 276v4c1-2 1-2 0-4" fill="#888"/><path d="M97.3 277.3l1.4 1.4-1.4-1.4" fill="#212121"/><path d="M449.3 285.3l5.4 1.4c-1.6 1.5-2 2-2.7 4l6.7-1.4c-1.4-4-2.8-5-6.7-6.6 2-2 2.7-3 4-5.4-4.5 1.5-5.7 3.4-6.7 8" fill="#00f"/><path d="M508 277.3l1.3 1.4-1.3-1.4" fill="#656565"/><path d="M641.3 277.3l1.4 1.4-1.4-1.4" fill="#888"/><path d="M686.7 278.7c2.4 1.6 2.3 1.5 5.3 1.3-2.3-1.3-2.7-1.3-5.3-1.3m-586.7 4l9.3-1.4v-2.6c-4.3.1-6.9.2-9.3 4" fill="#00f"/><path d="M162.7 278.7l1.3 1.3-1.3-1.3" fill="#656565"/><path d="M642.7 278.7a36 36 0 0 0 2.6 9.3 29 29 0 0 0 6.7-4c1.9 2.7 2.1 2.9 5.3 2.7l-2.6-6.7c-3.3.4-5.4 1-8 2.7-1.4-2.6-1.5-2.7-4-4" fill="#00f"/><path d="M649.3 278.7l1.4 1.3-1.4-1.3" fill="#aaa"/><path d="M76.9 280.4c-.6.6.8.6.9.5.6-.6-.8-.5-1-.5" fill="#434343"/><path d="M468 280l1.3 1.3-1.3-1.3m33.3 0l1.4 1.3-1.4-1.3m12 0l1.4 1.3-1.4-1.3" fill="#888"/><path d="M633.3 280a28 28 0 0 0-4 8 15 15 0 0 0-5.3-4l1.3 8c3.7-1 4.9-2 6.7-5.3 2.4 1.7 3.7 2.2 6.7 2.6a30.5 30.5 0 0 0-5.4-9.3" fill="#00f"/><path d="M648 280l1.3 1.3-1.3-1.3" fill="#888"/><path d="M156 281.3l1.3 1.4-1.3-1.4" fill="#656565"/><path d="M636 281.3l1.3 1.4-1.3-1.4m10.7 0l1.3 1.4-1.3-1.4" fill="#888"/><path d="M677.3 281.3v2.7h4v-2.7h-4" fill="#00f"/><path d="M456 282.7l1.3 1.3-1.3-1.3" fill="#ccc"/><path d="M586.7 282.7c0 7.2-.2 14.7 6.6 18.6L592 296c10.6 1.3 19-2.7 29.3-2.7-4.4-6.2-13-9.8-14.6 0-3.3.3-6.2.4-9.4 0 1.8-2.3 2.7-4 4-6.6-4 1.7-7.2 4-10.6 6.6l-1.4-10.6h-2.6" fill="#00f"/><path d="M589.3 282.7l1.4 1.3-1.4-1.3" fill="#ccc"/><path d="M629.3 282.7l1.4 1.3-1.4-1.3" fill="#888"/><path d="M672 282.7l1.3 1.3-1.3-1.3M60 284l1.3 1.3L60 284" fill="#434343"/><path d="M66.7 284l1.3 1.3-1.3-1.3" fill="#aaa"/><path d="M74.7 284c0 4.7-.2 8 4 10.7-.7-3.6-1.4-7-1.4-10.7h-2.6" fill="#00f"/><path d="M152 284l1.3 1.3-1.3-1.3" fill="#434343"/><path d="M154.7 284l1.3 1.3-1.3-1.3" fill="#aaa"/><path d="M410.7 284l1.3 1.3-1.3-1.3m2.6 0l1.4 1.3-1.4-1.3" fill="#212121"/><path d="M433.3 284l1.4 1.3-1.4-1.3" fill="#888"/><path d="M496 284l1.3 1.3-1.3-1.3" fill="#656565"/><path d="M669.3 284v2.7h2.7V284h-2.7M412 285.3a32 32 0 0 0 2.7 14.7c4-1.6 7-3 9.3-6.7 2.3 2.3 3.5 3.2 6.7 4a69 69 0 0 0-4-9.3 14 14 0 0 0-4 4l-2.7-2.7-5.3 2.7c-.4-3-.8-4.3-2.7-6.7m21.3 0c.3 8.7 4 9 12 9.4l-4-9.4-5.3 4v-4h-2.7" fill="#00f"/><path d="M409.3 286.7l1.4 1.3-1.4-1.3" fill="#656565"/><path d="M422.7 288l1.3 1.3-1.3-1.3" fill="#434343"/><path d="M382.7 289.3l1.3 1.4-1.3-1.4" fill="#888"/><path d="M416 289.3l1.3 1.4-1.3-1.4" fill="#aaa"/><path d="M442.7 289.3l1.3 1.4-1.3-1.4" fill="#434343"/><path d="M585.3 289.3l1.4 1.4-1.4-1.4" fill="#ccc"/><path d="M593.3 289.3l1.4 1.4-1.4-1.4" fill="#656565"/><path d="M605.3 289.3l1.4 1.4-1.4-1.4" fill="#888"/><path d="M609.3 289.3l1.4 1.4-1.4-1.4" fill="#fff"/><path d="M633.3 289.3l1.4 1.4-1.4-1.4" fill="#656565"/><path d="M384 290.7c-.6 2.7-.7 4 0 6.6 2-2.9 2-3.7 0-6.6" fill="#00f"/><path d="M432 290.7l1.3 1.3-1.3-1.3" fill="#656565"/><path d="M526.7 290.7a38 38 0 0 0 0 8c-2 .1-4.3 0-6 1.3-5.3 4.5.4 12.6 6.5 6.7 1.1-1.1 1.5-2.7 2.1-4 11.7 6.7 21-2 33.4-1.4-2.8-4.4-6.3-5.8-10.7-2.6l-2.7-2.7-9.3 8-1.3-8h-4v5.3c-3.4-3.2-4.4-6.1-5.4-10.6h-2.6" fill="#00f"/><path d="M590.7 290.7l1.3 1.3-1.3-1.3" fill="#aaa"/><path d="M368 292c.3 6.7 1.2 12.5 8 14.7a54 54 0 0 0 2.7-12c-2.8 1.8-4.4 4.3-6.7 6.6-.4-4-.7-6.6-4-9.3" fill="#00f"/><path d="M590.7 292l1.3 1.3-1.3-1.3" fill="#fff"/><path d="M289.3 293.3l1.4 1.4-1.4-1.4" fill="#656565"/><path d="M297.3 293.3c-1.3 4-2.4 6.7-5.3 9.4-.3-4-.6-5.9-4-8 .7 8 2.7 16.4 5.3 24 2-3 1.8-4.5 1.4-8 4 2 7.5 3.3 12 4-2.2-3.3-7.5-4.6-8.8-8.3-1.3-3.6 1.7-9 2.1-13h-2.7" fill="#00f"/><path d="M333.3 293.3l1.4 1.4-1.4-1.4" fill="#434343"/><path d="M334.7 293.3l1.3 1.4-1.3-1.4" fill="#aaa"/><path d="M378.7 293.3l1.3 1.4-1.3-1.4" fill="#ccc"/><path d="M429.3 293.3l1.4 1.4-1.4-1.4m-142.6 1.4l1.3 1.3-1.3-1.3" fill="#aaa"/><path d="M333.3 294.7c-1.3 5.3.3 7.4 5.4 9.3-2.8 1.6-4.8 2.8-6.7 5.3 4.3-.4 7-1.6 10.7-4a17 17 0 0 0-8-5.3c1.3-1.6 1.8-2.1 2.6-4-2-1.3-1.6-1.3-4-1.3" fill="#00f"/><path d="M381.3 294.7l1.4 1.3-1.4-1.3" fill="#888"/><path d="M530.7 294.7l1.3 1.3-1.3-1.3" fill="#656565"/><path d="M537.3 294.7l1.4 1.3-1.4-1.3" fill="#ccc"/><path d="M430.7 296l1.3 1.3-1.3-1.3" fill="#aaa"/><path d="M418.7 297.3l1.3 1.4-1.3-1.4" fill="#888"/><path d="M561.3 297.3l1.4 1.4-1.4-1.4" fill="#656565"/><path d="M600 297.3l1.3 1.4-1.3-1.4m-313.3 1.4l1.3 1.3-1.3-1.3" fill="#212121"/><path d="M320 300c.7 4.6 1.3 8 5.3 10.7l-1.3-8c2.4 0 2 0 4-1.4-3-1.8-4.5-1.8-8-1.3" fill="#00f"/><path d="M373.3 298.7l1.4 1.3-1.4-1.3" fill="#888"/><path d="M384 298.7c0 4.4.4 8 4 10.6 0-3.8-.3-7-1.3-10.6H384" fill="#00f"/><path d="M544 298.7l1.3 1.3-1.3-1.3" fill="#212121"/><path d="M218.7 300c.6 3.2.8 3.4 4 4 0-2.4 0-2-1.4-4h-2.6" fill="#00f"/><path d="M505.3 300l1.4 1.3-1.4-1.3" fill="#888"/><path d="M223.1 302.2c0 .1-.1 1.5.5 1 0-.2.1-1.6-.5-1" fill="#aaa"/><path d="M506.7 301.3c.6 2.8 1.2 4.2 2.6 6.7l-8 1.3 1.4-6.6h-5.4c-2.4 4-4.8 4-9.3 4 0 4.3-.3 5.8-4 8 0-2.4 0-2-1.3-4a10.8 10.8 0 0 0-2.7 6.6 28.9 28.9 0 0 1-5.3-8c-6.7 10.8 15.2 14 17.3 1.4 10.6 0 19.8 5.4 20-9.4h-5.3" fill="#00f"/><path d="M521.3 301.3v5.4c2.7-1.7 3.1-2.3 4-5.4h-4" fill="#fff"/><path d="M541.3 301.3l1.4 1.4-1.4-1.4" fill="#656565"/><path d="M162.7 302.7c1.7 6.7 7.6 12.7 7.2 20-.2 3.2-2.4 6.2-3.2 9.3 13.1-4 3.5-21.9-1.4-29.3h-2.6m84 0L244 312c3.7 4.4 7.7 13.3 13.3 5.3l-6.6 1.4c.4-3.4 1.3-6.2 2.6-9.4l-4-1.3 1.4-5.3h-4" fill="#00f"/><path d="M250.7 302.7l1.3 1.3-1.3-1.3" fill="#212121"/><path d="M269.3 306.7c2.7-1.2 2.7-1.2 4-4-3.1.6-3.3.8-4 4" fill="#00f"/><path d="M304 302.7l1.3 1.3-1.3-1.3" fill="#ccc"/><path d="M305.3 302.7c.3 5.5 2.1 11 8 6.6 2.5 1.4 4 2 6.7 2.7-1.8-3.4-4.3-6.3-6.7-9.3-1.6 2.3-2.1 4-2.6 6.6-.8-2.4-1.1-4-1.4-6.6h-4" fill="#00f"/><path d="M333.3 302.7l1.4 1.3-1.4-1.3" fill="#ccc"/><path d="M377.3 302.7l1.4 1.3-1.4-1.3" fill="#212121"/><path d="M496 302.7l1.3 1.3-1.3-1.3" fill="#656565"/><path d="M549.3 302.7l1.4 1.3-1.4-1.3" fill="#212121"/><path d="M166.7 304l1.3 1.3-1.3-1.3" fill="#aaa"/><path d="M220 304l1.3 1.3-1.3-1.3" fill="#888"/><path d="M230.7 310.7c-1.6-1.6-2.1-2-4-2.7.5 6.4 1 16.3 6.6 20v-5.3c14.2-.8 7.3-10 4-18.7a13.4 13.4 0 0 0-6.6 6.7M436 304c0 5.6-2.1 24 9 18 1.3-.7 2.1-2.3 3-3.3-2.7.6-4.2 1.3-6.7 2.6L440 316c3-.9 3.7-1.3 5.3-4l-5.3 1.3-1.3-9.3H436" fill="#00f"/><path d="M488 305.3l1.3 1.4-1.3-1.4" fill="#aaa"/><path d="M65.3 306.7c-3 10.2-3 28.3 9.4 32-2.8-5.4-6.7-9.9-7.6-16-1-5.7 1.6-11.2-1.8-16" fill="#00f"/><path d="M162.7 306.7l1.3 1.3-1.3-1.3" fill="#ccc"/><path d="M197.3 306.7c.5 5.7 1 12 2.7 17.3 2.4 0 2 0 4-1.3 3.9 5.3 10.3 5 16 2.6-2.4-1-4-1.2-6.7-1.3.8-3.2 1.2-6 1.4-9.3h-4c-.5 4-1.4 6.3-4 9.3a41.3 41.3 0 0 0-9.4-17.3" fill="#00f"/><path d="M62.7 308l1.3 1.3-1.3-1.3" fill="#888"/><path d="M234.7 308c-1 2.7-2.7 6-1.5 9 2 5.2 5.9.4 6.8-2.3l-5.3-1.4c.4-2.3.5-3 0-5.3" fill="#fff"/><path d="M298.7 308l1.3 1.3-1.3-1.3" fill="#434343"/><path d="M304 308l1.3 1.3-1.3-1.3" fill="#212121"/><path d="M434.7 308l1.3 1.3-1.3-1.3" fill="#ccc"/><path d="M472 308l1.3 1.3-1.3-1.3" fill="#656565"/><path d="M502.7 308l1.3 1.3-1.3-1.3" fill="#212121"/><path d="M253.3 309.3l1.4 1.4-1.4-1.4" fill="#434343"/><path d="M270.7 309.3l1.3 1.4-1.3-1.4" fill="#aaa"/><path d="M325.3 309.3l1.4 1.4-1.4-1.4" fill="#212121"/><path d="M518.7 309.3l1.3 1.4-1.3-1.4" fill="#aaa"/><path d="M240 310.7l1.3 1.3-1.3-1.3" fill="#434343"/><path d="M272 310.7l-1.3 5.3c2.6-1.6 3-2.3 4-5.3H272" fill="#00f"/><path d="M274.7 310.7l1.3 1.3-1.3-1.3" fill="#434343"/><path d="M394.7 312c0 6 .2 20.1 8 20-3-6.5-3.6-14.5-8-20" fill="#00f"/><path d="M250.7 313.3l1.3 1.4-1.3-1.4" fill="#212121"/><path d="M425.3 313.3a15 15 0 0 0-1.3 13.4c2.2-.9 3.3-1.4 5.3-2.7 1.2 5.9 3.3 11.2-2.6 14.7 0-2.4 0-2-1.4-4-1.4 4.3 2.7 8.7 7.2 5.3 7.5-6-3.2-21.9-7.2-26.7" fill="#00f"/><path d="M504.9 313.8c-.6.6.8.5.9.4.6-.6-.8-.5-1-.4" fill="#656565"/><path d="M150.7 316c2.4 1.7 2.3 1.6 5.3 1.3-2.4-1.6-2.4-1.5-5.3-1.3" fill="#00f"/><path d="M226.7 314.7l1.3 1.3-1.3-1.3" fill="#aaa"/><path d="M250.7 314.7l1.3 1.3-1.3-1.3" fill="#888"/><path d="M478.7 314.7l1.3 1.3-1.3-1.3" fill="#ccc"/><path d="M129.3 316c0 7.2 1.3 13.7 6.7 18.7 2.7-5.8 2.7-11.1 2.7-17.4-2.4 3.1-2.7 5.5-2.7 9.4-2.9-3.4-3.6-6.3-4-10.7h-2.7" fill="#00f"/><path d="M137.3 316l1.4 1.3-1.4-1.3" fill="#656565"/><path d="M220 316c0 5 0 9.3 5.3 10.7l-2.6-10.7H220" fill="#00f"/><path d="M253.3 316l1.4 1.3-1.4-1.3" fill="#888"/><path d="M429.3 316l1.4 1.3-1.4-1.3" fill="#212121"/><path d="M425.8 318.2c-.1.1-.2 1.5.4 1 .1-.2.2-1.6-.4-1" fill="#fff"/><path d="M88 318.7a75 75 0 0 0-2.7 13.3c-2-4.3-1.6-9.6-6.6-10.7 1 6.7 2.3 13.8 9.3 16 .3-6 3.4-13.3 0-18.6m6.7 0l1.3 2.6c2.2-.7 2-.5 2.7-2.6h-4m314.6 0c-1.7 6 2.5 16.4 8 8-2.4 0-2 0-4 1.3-.3-2.7-.3-5.2 0-8l-1.3-1.3h-2.7" fill="#00f"/><path d="M430.7 318.7l1.3 1.3-1.3-1.3" fill="#aaa"/><path d="M484 318.7l1.3 1.3-1.3-1.3M85.3 320l1.4 1.3-1.4-1.3" fill="#212121"/><path d="M173.3 320l1.4 1.3-1.4-1.3m24 0l1.4 1.3-1.4-1.3" fill="#aaa"/><path d="M242.7 320l1.3 1.3-1.3-1.3" fill="#656565"/><path d="M413.3 320l1.4 1.3-1.4-1.3" fill="#434343"/><path d="M208 321.3l1.3 1.4-1.3-1.4" fill="#212121"/><path d="M365.3 321.3A67 67 0 0 0 368 336l8-1.3-4 6.6c4.6-.7 7.7-3 12-4.5 5.2-1.8 9-.8 12-6.1l-9.3 2.6c.8-3.6.9-5.8 0-9.3-2.8 2-4.1 6.2-7.1 7.6-7.1 3.2-10.7-5-11.6-10.3h-2.7" fill="#00f"/><path d="M385.3 322.7l1.4 1.3-1.4-1.3" fill="#888"/><path d="M62.7 324l1.3 1.3-1.3-1.3" fill="#aaa"/><path d="M153.3 324c0 5.8.8 11.5 1.4 17.3l-5.4-4c.7 4.2 7 11.8 8.9 4 1.3-5.3-1.8-12-2.2-17.3h-2.7" fill="#00f"/><path d="M388 324l1.3 1.3-1.3-1.3m6.7 0l1.3 1.3-1.3-1.3" fill="#888"/><path d="M421.3 324l1.4 1.3-1.4-1.3" fill="#aaa"/><path d="M428 324l1.3 1.3-1.3-1.3" fill="#fff"/><path d="M173.3 325.3l1.4 1.4-1.4-1.4" fill="#ccc"/><path d="M220 325.3l1.3 1.4-1.3-1.4" fill="#656565"/><path d="M428 325.3l1.3 1.4-1.3-1.4" fill="#aaa"/><path d="M78.7 326.7L80 328l-1.3-1.3m10.6 0l1.4 1.3-1.4-1.3" fill="#888"/><path d="M173.3 326.7l1.4 1.3-1.4-1.3" fill="#434343"/><path d="M205.3 326.7l1.4 1.3-1.4-1.3" fill="#212121"/><path d="M97.3 328l1.4 1.3-1.4-1.3" fill="#aaa"/><path d="M116 328c-1.3 4.6-.4 8.6 0 13.3h2.7c0-5 .4-9.2-2.7-13.3" fill="#00f"/><path d="M152 328l1.3 1.3-1.3-1.3" fill="#888"/><path d="M69.3 329.3l1.4 1.4-1.4-1.4" fill="#434343"/><path d="M98.7 329.3c-1 4.2-.4 8 0 12h2.6c0-4.4-.3-8-2.6-12" fill="#00f"/><path d="M113.3 329.3v4c1-2 1-1.9 0-4" fill="#888"/><path d="M393.3 329.3l1.4 1.4-1.4-1.4" fill="#434343"/><path d="M130.7 330.7l1.3 1.3-1.3-1.3" fill="#656565"/><path d="M365.3 330.7l1.4 1.3-1.4-1.3" fill="#ccc"/><path d="M372 330.7l1.3 1.3-1.3-1.3" fill="#888"/><path d="M386.7 330.7l1.3 1.3-1.3-1.3" fill="#656565"/><path d="M410.7 330.7l1.3 1.3-1.3-1.3" fill="#434343"/><path d="M414.7 330.7l1.3 1.3-1.3-1.3" fill="#656565"/><path d="M434.7 330.7l1.3 1.3-1.3-1.3M80 332l1.3 1.3L80 332m33.3 1.3l1.4 1.4-1.4-1.4" fill="#212121"/><path d="M314.7 333.3l1.3 1.4-1.3-1.4" fill="#434343"/><path d="M317.3 333.3l1.4 1.4-1.4-1.4m9.4 0l1.3 1.4-1.3-1.4" fill="#aaa"/><path d="M328 333.3a9.4 9.4 0 0 0 4 2.7c-1.3-2.4-1.3-2.1-4-2.7" fill="#00f"/><path d="M424 333.3l1.3 1.4-1.3-1.4" fill="#ccc"/><path d="M73.3 334.7l1.4 1.3-1.4-1.3" fill="#888"/><path d="M316 334.7c-.3 5.3 1.3 8.4 5.3 12 1.8-3.7 2.5-6.6 2.7-10.7h-2.7v5.3c-1.4-2.4-2-3.9-2.6-6.6H316" fill="#00f"/><path d="M88 336l1.3 1.3L88 336m294.7 0l1.3 1.3-1.3-1.3" fill="#212121"/><path d="M86.7 337.3l1.3 1.4-1.3-1.4" fill="#ccc"/><path d="M314.7 340l1.3 1.3-1.3-1.3" fill="#212121"/><path d="M378.7 340l1.3 1.3-1.3-1.3" fill="#ccc"/><path d="M148 341.3l1.3 1.4-1.3-1.4" fill="#212121"/><path d="M329.3 342.7c1 4 1.3 6.6 0 10.6 7.8 1.4 5.7-5.3 4-10.6h-4" fill="#00f"/><path d="M330.7 348l1.3 1.3-1.3-1.3" fill="#656565"/><path d="M330.7 349.3l1.3 1.4-1.3-1.4" fill="#aaa"/></svg>