<svg xmlns="http://www.w3.org/2000/svg" height="204" width="286.7"><path d="M0 0v204h192c31.4 0 63.5-2.7 94.7 0V0H0" fill="#fff"/><path d="M280 13.3l1.3 1.4-1.3-1.4" fill="#434343"/><path d="M96 14.7l1.3 1.3-1.3-1.3" fill="#212121"/><path d="M282.7 14.7L284 16l-1.3-1.3" fill="#434343"/><path d="M26.7 18.7a95.7 95.7 0 0 0-12 32c6.6-4.7 9-17.8 12-25.4C31.7 32 36 38 44 41.3a94.3 94.3 0 0 0-17.3-22.6" fill="#00f"/><path d="M104 18.7l1.3 1.3-1.3-1.3" fill="#212121"/><path d="M110.7 18.7L112 20l-1.3-1.3" fill="#ccc"/><path d="M98.7 34.7L104 48c-8 1.9-17.5 6.2-23 12.4-9 10.5-11.4 28.3-16.5 41-3.8 9.3-10.3 18.1-12.5 28 5.9-3.4 8-10.2 11-16 5.2-10.7 8.9-22.2 13-33.4 2.7-8 5-15.2 12-20.5 4.7-3.5 13.7-9.6 20-7.9 4.3 1.2 7.3 5.3 10.7 7.9a34 34 0 0 0 14.6 6.8c18.7 4 34-6.8 48-17.9C187 44 194 39 196 32c-6.3 3-10.7 8.1-16 12.5-15 12.4-32 24.9-52 16.2-5.3-2-8.3-6-12.4-9.5-5.7-5-10.3-7.2-11.6-15.2 3 0 5.2-.5 8-1.3-2.7-1.2-5-1.3-8-1.4.4-3.8 1.3-7 2.7-10.6L112 24c-.8-3.9-5-5.8-8.2-2.2-3 3.5-2.7 9-5.1 12.9" fill="#00f"/><path d="M30.7 22.7L32 24l-1.3-1.3" fill="#ccc"/><path d="M109.3 24l1.4 1.3-1.4-1.3" fill="#888"/><path d="M21.3 25.3l1.4 1.4-1.4-1.4" fill="#434343"/><path d="M100 25.3l1.3 1.4-1.3-1.4" fill="#888"/><path d="M28 28l1.3 1.3L28 28" fill="#aaa"/><path d="M272 28a40.9 40.9 0 0 1 2.7 24c9.3-5.2 5.7-19.6-2.7-24" fill="#0ff"/><path d="M74.7 42.7h-8c1-5.3 4.3-8.7 6.6-13.4-5.3 1.5-10.1 5.6-8.8 12 1.2 5.8 7.3 5.4 10.2 1.4" fill="#00f"/><path d="M73.3 29.3l1.4 1.4-1.4-1.4" fill="#ccc"/><path d="M253.3 49.3c-1.7-3.9-10.4-14.6-1.3-16-.8-3.8-4.2-5.3-6.7-1.2-4.4 7 .3 16.7 8 17.2" fill="#0ff"/><path d="M36 30.7l1.3 1.3-1.3-1.3" fill="#ccc"/><path d="M277.3 30.7l1.4 1.3-1.4-1.3" fill="#656565"/><path d="M229.3 32l1.4 1.3-1.4-1.3" fill="#ccc"/><path d="M224 38.7l6.7-1.4c0 4.5.3 8 4 10.7V36c3.6-.3 4.5-.4 5.3-4-6 .8-13.7.3-16 6.7" fill="#0ff"/><path d="M89.3 37.3c2.7-1.2 2.7-1.1 4-4-2.8 1.4-2.8 1.4-4 4" fill="#00f"/><path d="M209.3 33.3A297.1 297.1 0 0 1 160 75.1c-8.4 5.4-20.4 6.9-27.5 13.8-6.6 6.5-7.2 16.4-10.3 24.4-1.1 2.8-2.8 8-6.3 8.5-3.6.6-6-4.5-7.2-7.1-3.5-7.7-3.7-16.6-8-24-2.3-4-6.4-7.6-11-4.4-5 3.4-6 11-7 16.4-3.3 16.1.5 32.8-2.4 49.3-1 6-3.3 19.3-11 20.5-5.3.8-7.4-8.9-8.6-12.5-3.6-10.4-4.4-21.7-8.3-32-1.7-4.2-4.6-9.6-9.7-10-5.1-.3-8.9 4.7-10.7 8.7-4.8 10.6-4.4 24.6-6.8 36-1.3 5.7-2.3 11.2 4.1 13.3a95 95 0 0 1 1-21.3c.7-5 1.4-9.8 2.3-14.7 1.2-6.9 6.8-26 15-13.3a20 20 0 0 1 1.7 4c5 12.4 5 26.2 10.5 38.6 3.1 7 8 11.4 14.7 5.4 13.3-12.7 12.5-39.5 11.2-56C85 108 85 93.4 96 88c3.5 10.7 5.7 24 11.6 33.3 2.9 4.6 8 7.7 12.8 3.3 9.3-8.5 6-24.6 15.8-33.4 6.3-5.5 15.4-6.4 22.5-10.5A207 207 0 0 0 196 52.1c4.7-4.4 17.2-11.5 13.3-18.8" fill="#0ff"/><path d="M250.7 33.3l1.3 1.4-1.3-1.4" fill="#ccc"/><path d="M69.3 34.7l1.4 1.3-1.4-1.3" fill="#212121"/><path d="M76 36c1.3 1.4 2.1 1.7 4 2.7l-4 8c3.4 0 6.1-.4 9.3-1.4C82.6 40.4 82.6 35 76 36" fill="#00f"/><path d="M240 34.7l1.3 1.3-1.3-1.3" fill="#888"/><path d="M82.7 36l1.3 1.3-1.3-1.3" fill="#434343"/><path d="M237.3 36l1.4 1.3-1.4-1.3" fill="#aaa"/><path d="M248 36l1.3 1.3L248 36" fill="#212121"/><path d="M257.3 36c-.5 3.3-.3 6 0 9.3l5.4-1.3c1.2 2.8 1.1 2.8 4 4-.2-3.6-.7-7-1.4-10.7A24 24 0 0 0 260 40c-1-2.1-1-2.4-2.7-4" fill="#0ff"/><path d="M92 37.3l1.3 1.4-1.3-1.4" fill="#888"/><path d="M228 37.3l1.3 1.4-1.3-1.4" fill="#434343"/><path d="M265.3 37.3l1.4 1.4-1.4-1.4" fill="#ccc"/><path d="M16 38.7l1.3 1.3-1.3-1.3" fill="#212121"/><path d="M209.3 38.7l1.4 1.3-1.4-1.3" fill="#656565"/><path d="M224 38.7l1.3 1.3-1.3-1.3" fill="#888"/><path d="M225.3 38.7l1.4 1.3-1.4-1.3" fill="#434343"/><path d="M248 38.7l1.3 1.3-1.3-1.3" fill="#ccc"/><path d="M26.7 40l-1.4 120c4.7-9.8 4-22.7 4-33.3v-56c0-8.9 2.7-23.5-2.6-30.7" fill="#00f"/><path d="M29.3 40l1.4 1.3-1.4-1.3" fill="#212121"/><path d="M68 41.3l1.3 1.4-1.3-1.4" fill="#888"/><path d="M69.3 41.3l1.4 1.4-1.4-1.4" fill="#212121"/><path d="M100 41.3l1.3 1.4-1.3-1.4" fill="#ccc"/><path d="M206.7 41.3l1.3 1.4-1.3-1.4" fill="#434343"/><path d="M85.3 44l1.4 1.3-1.4-1.3" fill="#aaa"/><path d="M252 45.3l1.3 1.4-1.3-1.4" fill="#212121"/><path d="M101.3 46.7l1.4 1.3-1.4-1.3" fill="#ccc"/><path d="M102.7 46.7L104 48l-1.3-1.3" fill="#fff"/><path d="M110.7 46.7L112 48l-1.3-1.3" fill="#ccc"/><path d="M113.3 48l1.4 1.3-1.4-1.3m68 0l1.4 1.3-1.4-1.3" fill="#434343"/><path d="M192 48l1.3 1.3L192 48" fill="#aaa"/><path d="M114.7 49.3l1.3 1.4-1.3-1.4" fill="#888"/><path d="M248 49.3l1.3 1.4-1.3-1.4m-70.7 1.4l1.4 1.3-1.4-1.3" fill="#656565"/><path d="M189.3 50.7l1.4 1.3-1.4-1.3" fill="#212121"/><path d="M168 52l1.3 1.3L168 52" fill="#ccc"/><path d="M213.3 54.7l1.4 1.3-1.4-1.3M114.7 56l1.3 1.3-1.3-1.3m48 0l1.3 1.3-1.3-1.3" fill="#656565"/><path d="M213.3 56c-6.8 9.7-16.4 17-25.3 24.6-17.5 15-35.5 29.7-60 24.7 5.7 9.4 19.7 3.7 28 1 16.6-5.6 28.4-17.2 41.3-28.6 7.3-6.4 15.9-12.8 20-21.7h-4" fill="#00f"/><path d="M182.7 57.3l1.3 1.4-1.3-1.4" fill="#aaa"/><path d="M88 58.7l1.3 1.3-1.3-1.3" fill="#656565"/><path d="M125.3 58.7l1.4 1.3-1.4-1.3" fill="#aaa"/><path d="M78.7 60l1.3 1.3-1.3-1.3m41.3 1.3l1.3 1.4-1.3-1.4m30.7 0l1.3 1.4-1.3-1.4" fill="#ccc"/><path d="M136 62.7l1.3 1.3-1.3-1.3" fill="#aaa"/><path d="M145.3 62.7l1.4 1.3-1.4-1.3" fill="#212121"/><path d="M25.3 64l1.4 1.3-1.4-1.3" fill="#aaa"/><path d="M157.3 64l1.4 1.3-1.4-1.3" fill="#212121"/><path d="M25.8 66.2c-.1.1-.2 1.5.4 1 .1-.2.2-1.6-.4-1" fill="#434343"/><path d="M168 68l1.3 1.3L168 68" fill="#ccc"/><path d="M174.7 69.3l1.3 1.4-1.3-1.4" fill="#434343"/><path d="M164 70.7l1.3 1.3-1.3-1.3m33.3 0l1.4 1.3-1.4-1.3" fill="#ccc"/><path d="M73.3 72l1.4 1.3-1.4-1.3" fill="#212121"/><path d="M25.3 76v4c1-2 1-2 0-4" fill="#656565"/><path d="M72 76l1.3 1.3L72 76" fill="#ccc"/><path d="M190.7 76l1.3 1.3-1.3-1.3" fill="#656565"/><path d="M189.3 77.3l1.4 1.4-1.4-1.4" fill="#888"/><path d="M190.7 77.3l1.3 1.4-1.3-1.4" fill="#fff"/><path d="M148 80l1.3 1.3L148 80" fill="#888"/><path d="M158.7 80l1.3 1.3-1.3-1.3" fill="#212121"/><path d="M189.3 84l1.4 1.3-1.4-1.3" fill="#434343"/><path d="M88 85.3l1.3 1.4-1.3-1.4" fill="#ccc"/><path d="M185.3 86.7l1.4 1.3-1.4-1.3" fill="#fff"/><path d="M186.7 86.7L188 88l-1.3-1.3" fill="#434343"/><path d="M85.3 116c4.4-2.7 14.5-8 15.4-13.6.6-4.7-2.8-10.3-4.7-14.4-11.3 3.4-10.7 18.3-10.7 28" fill="#fff"/><path d="M185.3 88l1.4 1.3-1.4-1.3" fill="#212121"/><path d="M137.3 89.3l1.4 1.4-1.4-1.4" fill="#888"/><path d="M128 92l1.3 1.3L128 92m121.3 0l1.4 1.3-1.4-1.3" fill="#ccc"/><path d="M253.3 92l1.4 1.3-1.4-1.3" fill="#656565"/><path d="M244 110.7c-2-1.3-1.6-1.4-4-1.4 3.6 5.7 9.3 5.4 8 13.4l-5.3-1.4c1.7 5 6.3 5.5 8.5 0 1.5-3.8.2-8.2-.5-12 3-1 4.4-1.8 6.6-4a24 24 0 0 0-9.3 1.4c-.2-6.7 2.7-9.2 9.3-9.4-10.2-10.3-12.9 5.8-13.3 13.4" fill="#00f"/><path d="M126.7 94.7L128 96l-1.3-1.3" fill="#656565"/><path d="M132 94.7l1.3 1.3-1.3-1.3" fill="#888"/><path d="M82.7 96l1.3 1.3-1.3-1.3" fill="#ccc"/><path d="M64 98.7l1.3 1.3-1.3-1.3m5.3 0l1.4 1.3-1.4-1.3" fill="#434343"/><path d="M172 98.7l1.3 1.3-1.3-1.3" fill="#656565"/><path d="M206.7 113.3c-2.4 0-2 0-4 1.4-.9-6.5 1.9-9.4 6.6-13.4-6.3-1.3-13 4.7-10.7 11.7 1.4 5 6 3.4 8 .3" fill="#00f"/><path d="M209.3 100l1.4 1.3-1.4-1.3" fill="#212121"/><path d="M106.7 101.3l1.3 1.4-1.3-1.4" fill="#656565"/><path d="M105.3 102.7v2.6c6.7 0 13.3.1 20 1.4-4.3-6.7-13-4.3-20-4" fill="#00f"/><path d="M120 101.3l1.3 1.4-1.3-1.4" fill="#656565"/><path d="M85.3 120c6-4 13.6-8.5 17.4-14.7-8 1.6-15.1 6.7-17.4 14.7" fill="#00f"/><path d="M105.3 106.7c1.4 4.6 3.6 15 9.4 16 5.3 1 10.3-11.5 7.8-15.2-2.9-4.4-13.2-2-17.2-.8" fill="#fff"/><path d="M154.7 106.7l1.3 1.3-1.3-1.3" fill="#aaa"/><path d="M232 106.7l1.3 1.3-1.3-1.3" fill="#434343"/><path d="M60 108l1.3 1.3L60 108" fill="#888"/><path d="M229.3 110.7l1.4 1.3a9.4 9.4 0 0 0 2.6-4c-2 1-2.3 1-4 2.7" fill="#00f"/><path d="M145.3 109.3l1.4 1.4-1.4-1.4" fill="#434343"/><path d="M216 109.3l1.3 1.4-1.3-1.4" fill="#656565"/><path d="M97.3 110.7l1.4 1.3-1.4-1.3" fill="#888"/><path d="M208 120c3-1.3 5.3-3.4 8-5.3-.4 3.3-.6 6 0 9.3 3.2-4.3 2.5-8.3 1.3-13.3-5.3 1.5-7.5 4-9.3 9.3" fill="#00f"/><path d="M104 116l1.3 1.3-1.3-1.3" fill="#aaa"/><path d="M36 118.7l1.3 1.3-1.3-1.3" fill="#434343"/><path d="M118.7 118.7l1.3 1.3-1.3-1.3" fill="#888"/><path d="M41.3 120c-1.3 2-1.3 1.6-1.3 4l-2.7-1.3c-5.7 15-6.4 31-9.3 46.6 7.3-6.9 17.3-24.5 17.3-34.6 6.7-4.5 1.4-11.6-4-14.7" fill="#fff"/><path d="M218.7 120l1.3 1.3-1.3-1.3" fill="#888"/><path d="M58.7 121.3l1.3 1.4-1.3-1.4" fill="#656565"/><path d="M81.3 121.3C77.2 135.5 62.1 145.6 60 160a103 103 0 0 0 18.4-24c2.9-4.7 5.1-9.3 3-14.7" fill="#00f"/><path d="M213.3 121.3l1.4 1.4-1.4-1.4" fill="#212121"/><path d="M252 121.3l1.3 1.4-1.3-1.4" fill="#656565"/><path d="M38.7 122.7L40 124l-1.3-1.3" fill="#aaa"/><path d="M50.7 122.7L52 124l-1.3-1.3m6.6 1.3l1.4 1.3-1.4-1.3m184 0l1.4 1.3-1.4-1.3" fill="#ccc"/><path d="M118.7 126.7l1.3 1.3-1.3-1.3" fill="#656565"/><path d="M244 126.7l1.3 1.3-1.3-1.3" fill="#212121"/><path d="M81.3 129.3c-2.6 5-6 9.4-6.6 14.7-4 2.1-5 3.7-5.4 8-3.6 1.8-4.6 2.7-5.3 6.7-2.4 0-2 0-4 1.3 1.3 4 3 11.3 7 13.1 7.3 3.2 11-9.6 10.3-14.4 5.8-5 6.7-22.6 4-29.4" fill="#fff"/><path d="M87.1 130.2c0 .1-.1 1.5.5 1 0-.2.1-1.6-.5-1" fill="#212121"/><path d="M49.3 130.7C44 140.4 38.7 150 33.8 160c-2.4 5-5.1 9-4.5 14.7 7.7-8 11.9-20.8 17-30.7 2.4-4.5 4.9-8.4 3-13.3" fill="#00f"/><path d="M33.3 134.7l1.4 1.3-1.4-1.3m12 0l1.4 1.3-1.4-1.3" fill="#212121"/><path d="M54.7 136l1.3 1.3-1.3-1.3" fill="#656565"/><path d="M72 136l1.3 1.3L72 136" fill="#888"/><path d="M49.3 137.3A11.2 11.2 0 0 0 48 144c-4.2 2.7-5.7 5.7-5.3 10.7-2 .9-1.8.4-1.4 2.6-5.6 3.3-7.7 10.4-10.6 16l4 1.4c2.4-2.5 4.3-3.1 5.3-6.7 3.1 0 3.6 0 5.3-2.7 2 1.4 1.6 1.4 4 1.4 1.7-2.6 1.7-1.4 0-4 10.7-4 2.7-16.8 2.7-25.4h-2.7" fill="#fff"/><path d="M69.3 140l1.4 1.3-1.4-1.3" fill="#aaa"/><path d="M32 141.3l1.3 1.4-1.3-1.4" fill="#ccc"/><path d="M50.7 141.3l1.3 1.4-1.3-1.4m-4 1.4L48 144l-1.3-1.3" fill="#656565"/><path d="M73.3 142.7l1.4 1.3-1.4-1.3" fill="#aaa"/><path d="M62.7 149.3l1.3 1.4-1.3-1.4" fill="#212121"/><path d="M68 150.7l1.3 1.3-1.3-1.3" fill="#aaa"/><path d="M53.3 152l1.4 1.3-1.4-1.3" fill="#ccc"/><path d="M30.7 153.3l1.3 1.4-1.3-1.4m10.6 0l1.4 1.4-1.4-1.4" fill="#212121"/><path d="M40 156l1.3 1.3L40 156" fill="#434343"/><path d="M62.7 157.3l1.3 1.4-1.3-1.4" fill="#ccc"/><path d="M77.3 158.7l1.4 1.3-1.4-1.3" fill="#888"/><path d="M24 174.7a25 25 0 0 0-1.3 13.3c6.6-.6 13.1-3.4 20-3.9 20.8-1.4 42 .3 62.6 1.2 15 .6 30.4-.7 45.4-1.3 7.8-.4 15-3.5 22.6-4.7 11.8-1.9 25.4-2.5 37.4-2 8 .5 14.6 5 22.6 5.4V180c-8.2-1.3-15.4-5.7-24-6.2-20.1-1-40.2 4.6-60 7.1-10.7 1.4-22.6 1.2-33.3 1.8-7.2.2-14.2-1.2-21.3-1.3-23.3-.6-46.4-.5-69.4 2.6 10-8.6 26.2-11.5 32-24-11.4 4-20.1 17.3-33.3 14.7" fill="#00f"/><path d="M49.3 162.7l1.4 1.3-1.4-1.3" fill="#434343"/><path d="M76 164l1.3 1.3L76 164m-30.7 1.3l1.4 1.4-1.4-1.4" fill="#212121"/><path d="M57.3 165.3l1.4 1.4-1.4-1.4" fill="#ccc"/><path d="M221.3 166.7c5.4 4.4 13.6 5.4 18.2 11 6.9 8.7-10.4 16.3-16.8 17 7.6 5.7 20.7-3.3 22.1-12 1.8-10.7-15.5-16.7-23.5-16" fill="#00f"/><path d="M228 165.3l1.3 1.4-1.3-1.4" fill="#ccc"/><path d="M22.7 166.7L24 168l-1.3-1.3" fill="#212121"/><path d="M40 168l1.3 1.3L40 168" fill="#888"/><path d="M220 168l1.3 1.3-1.3-1.3" fill="#656565"/><path d="M236 169.3l1.3 1.4-1.3-1.4" fill="#ccc"/><path d="M34.7 172l1.3 1.3-1.3-1.3" fill="#888"/><path d="M30.7 173.3l1.3 1.4-1.3-1.4" fill="#212121"/><path d="M32 173.3l1.3 1.4-1.3-1.4" fill="#656565"/><path d="M30.2 175.1c-.6.6.8.5 1 .5.5-.6-.9-.6-1-.5" fill="#fff"/><path d="M236 174.7l1.3 1.3-1.3-1.3" fill="#656565"/><path d="M21.3 176l1.4 1.3-1.4-1.3" fill="#aaa"/><path d="M206.7 177.3l1.3 1.4-1.3-1.4" fill="#656565"/><path d="M208 177.3l1.3 1.4-1.3-1.4" fill="#ccc"/><path d="M154.7 178.7l1.3 1.3-1.3-1.3" fill="#aaa"/><path d="M190.7 178.7l1.3 1.3-1.3-1.3" fill="#888"/><path d="M217.3 178.7l1.4 1.3-1.4-1.3M28 180l1.3 1.3L28 180" fill="#aaa"/><path d="M90.7 180l1.3 1.3-1.3-1.3" fill="#ccc"/><path d="M153.3 184l1.4 1.3-1.4-1.3" fill="#656565"/><path d="M34.7 185.3l1.3 1.4-1.3-1.4m66.6 0c1.7 1 2.1 1 4 1.4-1.6-1-2-1-4-1.4" fill="#434343"/><path d="M105.3 185.3l1.4 1.4-1.4-1.4" fill="#aaa"/><path d="M118.7 185.3l1.3 1.4-1.3-1.4" fill="#ccc"/><path d="M120 185.3l1.3 1.4-1.3-1.4" fill="#656565"/><path d="M121.3 185.3l1.4 1.4-1.4-1.4" fill="#212121"/><path d="M238.7 185.3l1.3 1.4-1.3-1.4" fill="#ccc"/><path d="M242.7 188l1.3 1.3-1.3-1.3" fill="#212121"/><path d="M249.3 201.3l1.4 1.4-1.4-1.4" fill="#aaa"/><path d="M226.7 202.7c1.6.9 2 1 4 1.3-1.7-1-2.1-1-4-1.3m18.6 0c2.4 1 4 1.3 6.7 1.3-2.4-1-4-1.2-6.7-1.3m34.3.4c-.6.6.8.5.8.5.6-.6-.8-.6-.8-.5m4 0c-.6.6.8.5.8.5.6-.6-.8-.6-.8-.5"/></svg>