<svg xmlns="http://www.w3.org/2000/svg" height="128" width="285.3"><path d="M0 0v128h285.3V0H0" fill="#fff"/><path d="M29.3 117.3c1.9-6 7-9.1 12-12.7a496 496 0 0 1 28-18.5c11-6.7 22.3-13 33.4-19.7 6.6-4.1 13.6-9.7 21.3-12 11.4-3.4 25.3-2.4 37.3-2.4 16.5 0 33-.9 49.4-2.4 13.7-1.3 30.2-3.4 44-1.4 5 .8 12.7 8.7 17 2 2-2.9 1.5-7.5-2.6-8.3-4-.5-7.9 2.7-11.8 3.4-9.6 1.4-19.6-.5-29.3.2-30.7 2-62.7 6.5-93.3 3.8-4.7-.5-7.6-4-12-4.7-2.8-.5-5.6.7-8.4.4-13.4-1.3-28-5-41-8.2-15.6-3.9-28-12-42.6-18.1-3.5-1.7-11.5-6.5-15.2-4C13.8 16 13.7 18 14 20c1.6 6.7 3.2 11.4 3.2 18.7 0 19.5 2.5 39 2.7 58.6 0 9.6-2.8 19.6 9.3 20" fill="#00f"/><path d="M21.3 18.7c-3.4 14.6 0 31.6 0 46.6 0 5.4-1.4 12.4 2.7 16-2.7 9-.2 17.7 0 26.7 2 .2 2.2.3 4 1.3 3.2-2 4.9-3.3 6.7-6.6 8.3-.7 15.7-8 22.6-12.4 4.8-3 9.3-5.3 12-10.3 2.3.5 1.8.7 2.7-1.3 3.1 0 2.7.2 4-2.7 4.4.2 7.1-1.3 9.3-5.3 8.6 0 17-7.6 24-12 2.3-1.4 6.3-3.4 6.2-6.6 0-3.1-3.7-4.1-6.2-4.7-6.1-1.7-12.3-3.7-18.6-2-2.7-3-7-3-10.8-4-9.2-2.2-20-7.3-29.2-6.7-4-6-13-10.7-20-10.7-2.4-3.4-5.4-4-9.4-5.3" fill="#fff"/><path d="M14.7 22.7L16 24l-1.3-1.3" fill="#434343"/><path d="M30.7 22.7L32 24l-1.3-1.3" fill="#888"/><path d="M57.3 30.7l1.4 1.3-1.4-1.3" fill="#212121"/><path d="M50.7 33.3l1.3 1.4-1.3-1.4" fill="#aaa"/><path d="M16 40l1.3 1.3L16 40" fill="#434343"/><path d="M104 41.3l1.3 1.4-1.3-1.4" fill="#656565"/><path d="M262.7 41.3l1.3 1.4-1.3-1.4" fill="#434343"/><path d="M84 42.7l1.3 1.3-1.3-1.3" fill="#aaa"/><path d="M90.7 44l1.3 1.3-1.3-1.3m122.6 1.3l1.4 1.4-1.4-1.4m-192 1.4l1.4 1.3-1.4-1.3" fill="#888"/><path d="M105.3 46.7l1.4 1.3-1.4-1.3" fill="#aaa"/><path d="M176 46.7c1.7.9 2 1 4 1.3-1.7-1-2-1-4-1.3" fill="#434343"/><path d="M180 46.7l1.3 1.3-1.3-1.3" fill="#888"/><path d="M266.7 46.7l-1.4 2.6h2.7c0-2.4.4-1.8-1.3-2.6" fill="#fff"/><path d="M132 48l1.3 1.3L132 48" fill="#212121"/><path d="M133.3 48l1.4 1.3-1.4-1.3" fill="#aaa"/><path d="M225.3 49.3l1.4 1.4-1.4-1.4" fill="#ccc"/><path d="M226.7 49.3l1.3 1.4-1.3-1.4" fill="#212121"/><path d="M196 50.7l1.3 1.3-1.3-1.3" fill="#aaa"/><path d="M161.3 52l1.4 1.3-1.4-1.3" fill="#888"/><path d="M118.7 56l1.3 1.3-1.3-1.3" fill="#ccc"/><path d="M85.3 70.7l1.4 1.3-1.4-1.3" fill="#212121"/><path d="M81.3 73.3l1.4 1.4-1.4-1.4" fill="#ccc"/><path d="M17.3 74.7l1.4 1.3-1.4-1.3" fill="#888"/><path d="M76 76l1.3 1.3L76 76" fill="#656565"/><path d="M72 78.7l1.3 1.3-1.3-1.3" fill="#434343"/><path d="M69.3 80l1.4 1.3-1.4-1.3" fill="#212121"/><path d="M22.7 81.3l1.3 1.4-1.3-1.4m52 1.4L76 84l-1.3-1.3" fill="#aaa"/><path d="M72 84l1.3 1.3L72 84" fill="#888"/><path d="M68 86.7l1.3 1.3-1.3-1.3" fill="#434343"/><path d="M18.7 90.7L20 92l-1.3-1.3" fill="#aaa"/><path d="M34.7 102.7L36 104l-1.3-1.3" fill="#212121"/><path d="M37.3 106.7l1.4 1.3-1.4-1.3" fill="#434343"/><path d="M29.3 116l1.4 1.3-1.4-1.3" fill="#888"/></svg>