<svg xmlns="http://www.w3.org/2000/svg" height="330.7" width="465.3"><path d="M0 0v330.7h465.3V0H0" fill="#fff"/><path d="M228 10.7c-1.3 5.3-1.3 10.6-1.3 16-7.6 1.3-15 12-9.4 19.4 3 4 6.6-.8 8-3.4 1.1-1.7 1.9-3.6 2.7-5.4 1.3 4.3 2.7 7 6.7 9.4-1.5-6.6-3.7-13.2-4-20 0-5.7 1.6-10.4 0-16H228" fill="red"/><path d="M221.3 30.7c-.7 3.5-1 7-1.3 10.6 3.6-2.6 4.3-6.4 5.3-10.6h-4" fill="#fff"/><path d="M222.7 30.7L224 32l-1.3-1.3" fill="#888"/><path d="M220 36l1.3 1.3L220 36m12 0l1.3 1.3L232 36" fill="#656565"/><path d="M226.7 37.3l1.3 1.4-1.3-1.4" fill="#fff"/><path d="M226.7 38.7L228 40l-1.3-1.3" fill="#888"/><path d="M220 41.3l1.3 1.4-1.3-1.4" fill="#434343"/><path d="M220 42.7l1.3 1.3-1.3-1.3" fill="#fff"/><path d="M214.7 44l1.3 1.3-1.3-1.3" fill="#aaa"/><path d="M233.3 46.7l1.4 1.3-1.4-1.3" fill="#ccc"/><path d="M194.7 89.3c2.6-.8 5.3-1.6 7.8-3 2-1.3 3.6-2.8 4.5-5 .7-1.6 1-3.6 1-5.3-.3-13.3-20.6-8.5-18.8 1.3.7 4.3 4 8 5.5 12" fill="red"/><path d="M208 74.7l1.3 1.3-1.3-1.3" fill="#656565"/><path d="M188 77.3c-1.3 8-9.9 11.6-17.3 12-6.8 6.7-18.2 10.1-26.7 14.2a657 657 0 0 0-41.3 21.8C94 130 83.2 139 73.3 140c-2.8 3.2-6 5.6-8 9.3 9.2-1.7 17.3-8.4 25.4-12.9 16.8-9.2 33.7-18.4 50.6-27.4 8-4.2 18.7-11 28-11.7 6-5.8 28-9 18.7-20m20 1.4c-1.8 3.5-4 6.3-6.7 9.3 3.8-.6 6.7-4 10.7-3.9 10.1.1 22.4 7 32 10.1 18.7 6 38.3 10.3 57.3 15.7 9.2 2.6 28.5 13.6 36 6.1-12.5 0-26.6-7.2-38.6-10.7-17.8-5-35.7-9.2-53.4-14.6-12.4-4-24.6-9.1-37.3-12"/><path d="M220 81.3l1.3 1.4-1.3-1.4" fill="#aaa"/><path d="M368 81.3c-1.5 6.2-1.3 12.4-1.3 18.7 2-.9 4.6-2.9 6.6-3 2.7-.2 4.4 2.8 2 4.5-2 1.6-5 .4-7.3-.2 4.7 14.3 21.3-6.6 6.7-8.8-1.8-.2-3.7.5-5.4.8.9-4.7 1.6-8-1.3-12" fill="#00f"/><path d="M208 82.7l-4 6.6c-3.3-1.3-7-1.3-9.3-4-3 .6-4.1-.3-8 1.4-6 2.6-14 8.8-17.4 8v2.6c-3 0-3.5.2-5.3 2.7-6.7 0-12.8 3.4-18.7 6.3-12.1 6-24 13-36 19.3-6 3.2-13.5 5.8-17.3 11.7-4.4 0-7.1 1.5-9.3 5.4-6.2.1-20.9 7.2-13.9 15.1 2.7 3 7.5 4.5 11.2 6 9.1 3.6 22.1 10.9 32 9.5 5 6.7 24 13 32 12 2.9 4 7.5 5.1 12 6.7 8.8 3.2 18.5 9 27.9 9.8 3.6.3 6-2 9.4-2.7 5.9-1.1 9.7 2.9 12 7.6 3.7-1.8 6-3.3 8-6.7l2.7 1.3c1.3-2 1.3-1.6 1.3-4a49.3 49.3 0 0 0 29.4-18.6c6-.5 11.6-4 14.6-9.4 5.8 0 10.3-3 13.4-8 11.7-.8 23.3-11.7 33.5-17.2 5.1-2.8 11.1-4.4 14.5-9.4 5.8 0 10.9-2.7 16-5.4-6.7-11.3-15.5-12.7-27.3-16.4-20-6.2-40.5-11.3-60.7-16.9-9.5-2.9-20.8-9.3-30.7-8-3-3.9-7.3-4.5-12-5.3" fill="#fff"/><path d="M209.3 82.7l1.4 1.3-1.4-1.3" fill="#434343"/><path d="M192 85.3l1.3 1.4-1.3-1.4" fill="#ccc"/><path d="M365.3 85.3l1.4 1.4-1.4-1.4" fill="#656565"/><path d="M220 86.7l1.3 1.3-1.3-1.3" fill="#888"/><path d="M365.3 86.7l1.4 1.3-1.4-1.3" fill="#ccc"/><path d="M257.3 93.3l1.4 1.4-1.4-1.4" fill="#aaa"/><path d="M380 93.3l1.3 1.4-1.3-1.4m-209.3 1.4L172 96l-1.3-1.3" fill="#888"/><path d="M376 96l1.3 1.3L376 96" fill="#aaa"/><path d="M153.3 97.3l1.4 1.4-1.4-1.4" fill="#888"/><path d="M162.7 98.7l1.3 1.3-1.3-1.3" fill="#434343"/><path d="M28 101.3l1.3 1.4-1.3-1.4" fill="#888"/><path d="M24 118.7c3.2-1.4 5.3-3 8-5.4 2.3 3.3 4 3.7 8 4l-6.7-9.3c-3 1.4-5.3 3.3-8 5.3 1.1-3.7 2-4.8 5.4-6.6 0-2.4 0-2-1.4-4-7.3 2.8-7.3 9.3-5.3 16" fill="#00f"/><path d="M297.3 104l1.4 1.3-1.4-1.3" fill="#aaa"/><path d="M366.7 104l1.3 1.3-1.3-1.3" fill="#212121"/><path d="M380 104l1.3 1.3-1.3-1.3m-72 2.7l1.3 1.3-1.3-1.3" fill="#434343"/><path d="M376 106.7l1.3 1.3-1.3-1.3" fill="#212121"/><path d="M312 108l1.3 1.3-1.3-1.3" fill="#656565"/><path d="M134.7 112l1.3 1.3-1.3-1.3" fill="#ccc"/><path d="M342.7 112l1.3 1.3-1.3-1.3" fill="#aaa"/><path d="M353.3 112l1.4 1.3-1.4-1.3" fill="#434343"/><path d="M312 113.3l1.3 1.4-1.3-1.4" fill="#ccc"/><path d="M328 113.3l1.3 1.4-1.3-1.4" fill="#888"/><path d="M357.3 122.7c-.7-2.6-1.3-6.3-3.4-8-5-3.7-16.8-.6-18.7 5.4-2.1 6.6 8 15.2 14 12.7 4.1-1.6 5.5-6.9 8.1-10.1" fill="#00f"/><path d="M356 114.7l1.3 1.3-1.3-1.3" fill="#888"/><path d="M345.3 116c2.2 1.3 4.3 2 6.7 2.7a10.8 10.8 0 0 0-6.7-2.7"/><path d="M350.7 116l1.3 1.3-1.3-1.3" fill="#fff"/><path d="M38.7 117.3l1.3 1.4-1.3-1.4" fill="#ccc"/><path d="M344 122.7c-1.3 2-1.3 1.6-1.3 4 2.3-1.3 2.6-1.7 1.3-4m10.7 0v6.6c1.6-2.3 2.1-3.8 2.6-6.6h-2.6"/><path d="M357.3 125.3l1.4 1.4-1.4-1.4" fill="#656565"/><path d="M92 129.3l1.3 1.4-1.3-1.4" fill="#888"/><path d="M217.3 197.3l-1.3 4-2.7-1.3c-3.2 3.6-6.6 6-8 10.7 12-5.7 24-19 37.4-21.4 3-3.3 6-5.8 10.6-6.6a74 74 0 0 1 34.7-21.4c3.4-3.5 7-6.1 12-6.6 2.2-2.4 3.5-3.4 6.7-4 5.3-5.6 16-11.5 24-12l10.6-8c-11.4-1.4-26.3 9.3-36 14.6a1897.7 1897.7 0 0 0-60 35.8c-8.5 5.2-18 14.4-28 16.2M352 130.7c-3 8.3 1.7 17 3.7 25.3 6.7 27.4 27 49.7 33.6 77.3h5.4c-10.7-22.4-22.3-45-31.4-68-4.3-10.6-5.3-24.9-11.3-34.6"/><path d="M330.7 138.7A24 24 0 0 0 312 148c-3.1 0-3.6.1-5.3 2.7l-2.7-1.4c-2 3.4-4.6 4.6-6.7 4v2.7l-2.6-1.3c-2.4 2.2-4.9 4-6.7 6.6l-2.7-1.3c-9.3 8.3-25.6 11.5-32 22.7-5 .4-8 2.3-10.6 6.6-5.7.5-9.9 4-14.7 7-6.7 4-14 7.8-19.7 12.7-3.2 3-5.3 6.7-8.3 9.7 2.5 11 5 22.3 7.8 33.3 1.2 4.7 1.5 10.2 5.5 13.3-.4 3.7 0 5.9 1.4 9.4 1.7-1 1.6-1 2.6-2.7 5.6 1 8.4 2.3 12 6.7 51.3-14.2 102.7-30.5 156-34.7 1.3-3.9 4-7.9 4-12-.6-13.9-12.2-29.3-18.6-41.3-3-6-5-14.7-10.7-18.7 1.3-12.3-9-25.8-9.3-38.7-7.8.4-15-2.3-20 5.4" fill="#fff"/><path d="M85.3 133.3l1.4 1.4-1.4-1.4m237.4 1.4l1.3 1.3-1.3-1.3" fill="#434343"/><path d="M90.7 136l1.3 1.3-1.3-1.3" fill="#aaa"/><path d="M85.3 138.7l1.4 1.3-1.4-1.3" fill="#434343"/><path d="M81.3 141.3l1.4 1.4-1.4-1.4" fill="#aaa"/><path d="M356 141.3l1.3 1.4-1.3-1.4" fill="#656565"/><path d="M52.2 144.2c-14 6.7-4.2 27.8 9 20.5 11.2-6 3.4-26.5-9-20.5" fill="#00f"/><path d="M61.3 142.7l1.4 1.3-1.4-1.3" fill="#212121"/><path d="M305.3 144l1.4 1.3-1.4-1.3" fill="#aaa"/><path d="M310.7 146.7l1.3 1.3-1.3-1.3" fill="#888"/><path d="M302.7 150.7l1.3 1.3-1.3-1.3" fill="#ccc"/><path d="M42.7 153.3l1.3 1.4-1.3-1.4" fill="#888"/><path d="M296 154.7l1.3 1.3-1.3-1.3" fill="#656565"/><path d="M293.3 156l1.4 1.3-1.4-1.3" fill="#ccc"/><path d="M66.7 157.3v5.4c8.5 1 17.2 6.3 25.3 9.3l52 19c10.3 4 25 7 33.3 14.3l10.7 1.4c-5-8.8-24-12-33.3-15.6-29.5-11-59-21.7-88-33.8"/><path d="M209.3 180c-3.7 0-7 .7-10.6 1.3 1.3-4.6 3.1-9.7 2.4-14.6-.6-4.4-4.7-5.6-6.8-1.2-5.1 11.4 4 25.4 15 14.5" fill="red"/><path d="M274.7 161.3l1.3 1.4-1.3-1.4" fill="#aaa"/><path d="M284 161.3l1.3 1.4-1.3-1.4" fill="#888"/><path d="M46.7 162.7L48 164l-1.3-1.3" fill="#434343"/><path d="M48 162.7l1.3 1.3-1.3-1.3" fill="#fff"/><path d="M48 164l1.3 1.3L48 164" fill="#212121"/><path d="M197.3 165.3c-1 3.7-1.3 6.9-1.3 10.7 1.7-3.5 2.5-6.7 1.3-10.7" fill="#fff"/><path d="M201.8 166.2c-.1.1-.2 1.5.4 1 .1-.2.2-1.6-.4-1" fill="#212121"/><path d="M78.7 166.7L80 168l-1.3-1.3" fill="#888"/><path d="M90.7 166.7L92 168l-1.3-1.3" fill="#ccc"/><path d="M261.3 169.3l1.4 1.4-1.4-1.4" fill="#656565"/><path d="M360 170.7l1.3 1.3-1.3-1.3" fill="#ccc"/><path d="M105.3 172l1.4 1.3-1.4-1.3m5.4 1.3l1.3 1.4-1.3-1.4" fill="#434343"/><path d="M98.7 174.7l1.3 1.3-1.3-1.3m158.6 2.6l1.4 1.4-1.4-1.4" fill="#888"/><path d="M192 178.7l1.3 1.3-1.3-1.3" fill="#ccc"/><path d="M246.7 178.7l1.3 1.3-1.3-1.3" fill="#656565"/><path d="M142.7 185.3l1.3 1.4-1.3-1.4" fill="#aaa"/><path d="M369.3 189.3l1.4 1.4-1.4-1.4" fill="#ccc"/><path d="M145.3 192l1.4 1.3-1.4-1.3" fill="#434343"/><path d="M149.3 193.3l1.4 1.4-1.4-1.4m13.4 0l1.3 1.4-1.3-1.4" fill="#888"/><path d="M377.3 194.7l1.4 1.3-1.4-1.3" fill="#656565"/><path d="M193.3 198.7c-10.6 1.9-3.6 21.6 4 20.5 12.4-1.6 9.3-23.2-4-20.5" fill="red"/><path d="M170.7 201.3l1.3 1.4-1.3-1.4m210.6 1.4l1.4 1.3-1.4-1.3" fill="#888"/><path d="M185.3 208l1.4 1.3-1.4-1.3" fill="#656565"/><path d="M186.7 208c1.3 3 2.3 4 5.3 5.3a24 24 0 0 0-5.3-5.3"/><path d="M202.7 216l1.3 1.3-1.3-1.3" fill="#aaa"/><path d="M198.7 218.7c-1.5 6.8 1.2 13.3 2.6 20 4 16 11.5 33.3 9.4 49.3 3.1 2.3 5.6 4.2 9.3 5.3-6.4-7.7-6.2-18.2-6.7-28-10.3-12.6-4.9-33.3-14.6-46.6"/><path d="M389.3 220l1.4 1.3-1.4-1.3" fill="#ccc"/><path d="M445.3 262.7c-1.8-5-4.4-9.4-5.3-14.7l5.3-1.3c-2.9-2-4.5-1.8-8-1.4-.2-9.3-.1-15.3 4-24-7.3 1.4-8 6.7-8 13.4 0 9.3 1.8 24.8 12 28" fill="red"/><path d="M437.3 226.7l1.4 1.3-1.4-1.3" fill="#212121"/><path d="M432 228l1.3 1.3-1.3-1.3" fill="#434343"/><path d="M400 230.4c-5.8.4-12.8 5.2-14 11-1.5 6.8 5.8 14.2 12.6 13.8 9.3-.5 9.9-9.9 7.8-16.5-1.2-3.7-1.4-8.7-6.5-8.3" fill="red"/><path d="M404 229.3l1.3 1.4-1.3-1.4" fill="#888"/><path d="M198.7 232l1.3 1.3-1.3-1.3" fill="#434343"/><path d="M400 233.3c.7 2.2.5 2 2.7 2.7v-2.7H400"/><path d="M432 240l1.3 1.3-1.3-1.3" fill="#656565"/><path d="M392 241.3l1.3 1.4-1.3-1.4" fill="#fff"/><path d="M408 241.3c0 2.4 0 2 1.3 4 2.7-1.1 3.7-1.7 5.4-4H408m-178.7 41.4A1210 1210 0 0 1 344 253.5c9.7-2 19.6-3.3 29.3-4.7 5-.7 9.2-.4 12-4.8-40 1.7-82 12.3-120 24l-24 6.9c-5.3 1.5-10 2.4-12 7.8"/><path d="M361.3 245.3l1.4 1.4-1.4-1.4" fill="#656565"/><path d="M445.3 245.3l1.4 1.4-1.4-1.4m-92 1.4l1.4 1.3-1.4-1.3" fill="#ccc"/><path d="M433.3 246.7l1.4 1.3-1.4-1.3" fill="#434343"/><path d="M345.3 253.3l1.4 1.4-1.4-1.4" fill="#888"/><path d="M393.3 254.7l1.4 1.3-1.4-1.3" fill="#434343"/><path d="M204 256l1.3 1.3-1.3-1.3m101.3 0l1.4 1.3-1.4-1.3" fill="#656565"/><path d="M317.3 258.7l1.4 1.3-1.4-1.3" fill="#888"/><path d="M285.3 261.3l1.4 1.4-1.4-1.4" fill="#ccc"/><path d="M445.3 261.3l1.4 1.4-1.4-1.4" fill="#656565"/><path d="M441.3 262.7l1.4 1.3-1.4-1.3" fill="#212121"/><path d="M208 269.3l1.3 1.4-1.3-1.4" fill="#888"/><path d="M254.7 269.3l1.3 1.4-1.3-1.4m14.6 1.4l1.4 1.3-1.4-1.3" fill="#434343"/><path d="M217.3 272l1.4 1.3-1.4-1.3" fill="#656565"/><path d="M220 273c-8.6 3-7.5 21.3 2.6 18.1 9-2.8 8-21.5-2.6-18" fill="#00f"/><path d="M258.7 273.3l1.3 1.4-1.3-1.4" fill="#888"/><path d="M254.7 274.7l1.3 1.3-1.3-1.3" fill="#ccc"/><path d="M233.3 276l1.4 1.3-1.4-1.3" fill="#656565"/><path d="M250.7 276l1.3 1.3-1.3-1.3" fill="#ccc"/><path d="M220 280l1.3 1.3-1.3-1.3" fill="#fff"/><path d="M233.3 281.3l1.4 1.4-1.4-1.4" fill="#aaa"/><path d="M229.3 282.7l1.4 1.3-1.4-1.3" fill="#434343"/><path d="M228 286.7l1.3 1.3-1.3-1.3" fill="#212121"/><path d="M213.3 290.7l1.4 1.3-1.4-1.3" fill="#aaa"/><path d="M237.3 318.7c-3 1-7.1 4-10.6 3.6-8.5-.7-.6-13.7 1.3-17-13.5.7-10.8 29.3 5.1 18.7 2.3-1.3 2.9-3 4.2-5.3" fill="#00f"/><path d="M226.7 308l1.3 1.3-1.3-1.3" fill="#212121"/><path d="M218.7 312l1.3 1.3-1.3-1.3m4.4 6.2c0 .1-.1 1.5.5 1 0-.2.1-1.6-.5-1" fill="#656565"/><path d="M236 317.3l1.3 1.4-1.3-1.4" fill="#ccc"/><path d="M228 326.7l1.3 1.3-1.3-1.3" fill="#888"/></svg>